M48
; DRILL file {KiCad 5.99.0-unknown-881cb3182b~117~ubuntu18.04.1} date Sun Feb 21 21:18:48 2021
; FORMAT={-:-/ absolute / inch / decimal}
; #@! TF.CreationDate,2021-02-21T21:18:48+01:00
; #@! TF.GenerationSoftware,Kicad,Pcbnew,5.99.0-unknown-881cb3182b~117~ubuntu18.04.1
; #@! TF.FileFunction,Plated,1,2,PTH
FMAT,2
INCH
T1C0.0157
T2C0.0374
%
G90
G05
T1
X2.3031Y-2.9823
X2.3917Y-3.1102
X2.5098Y-2.9823
X2.6083Y-2.9823
X3.0787Y-2.4252
X3.0866Y-2.6535
X3.126Y-2.5669
X3.3937Y-3.0787
X3.4252Y-3.0521
X3.4325Y-2.9927
X3.4646Y-3.0324
X3.5531Y-3.0127
X3.6516Y-2.7559
X3.6516Y-2.8937
X4.0709Y-2.6378
X4.0709Y-2.6693
X4.0709Y-2.7008
X4.0709Y-3.0709
X4.0709Y-3.1024
X4.0709Y-3.1339
X4.1024Y-2.6378
X4.1024Y-2.6693
X4.1024Y-2.7008
X4.1024Y-3.0709
X4.1024Y-3.1024
X4.1024Y-3.1339
T2
X3.7618Y-2.5098
X3.7618Y-2.6083
X3.7618Y-2.7067
X3.7618Y-2.8051
X3.7618Y-2.9035
X3.7618Y-3.002
T0
M30
