%TF.GenerationSoftware,KiCad,Pcbnew,5.99.0-unknown-881cb3182b~117~ubuntu18.04.1*%
%TF.CreationDate,2021-02-21T21:18:57+01:00*%
%TF.ProjectId,stanislao_nrf,7374616e-6973-46c6-916f-5f6e72662e6b,rev?*%
%TF.SameCoordinates,Original*%
%TF.FileFunction,Paste,Top*%
%TF.FilePolarity,Positive*%
%FSLAX46Y46*%
G04 Gerber Fmt 4.6, Leading zero omitted, Abs format (unit mm)*
G04 Created by KiCad (PCBNEW 5.99.0-unknown-881cb3182b~117~ubuntu18.04.1) date 2021-02-21 21:18:57*
%MOMM*%
%LPD*%
G01*
G04 APERTURE LIST*
G04 Aperture macros list*
%AMRoundRect*
0 Rectangle with rounded corners*
0 $1 Rounding radius*
0 $2 $3 $4 $5 $6 $7 $8 $9 X,Y pos of 4 corners*
0 Add a 4 corners polygon primitive as box body*
4,1,4,$2,$3,$4,$5,$6,$7,$8,$9,$2,$3,0*
0 Add four circle primitives for the rounded corners*
1,1,$1+$1,$2,$3*
1,1,$1+$1,$4,$5*
1,1,$1+$1,$6,$7*
1,1,$1+$1,$8,$9*
0 Add four rect primitives between the rounded corners*
20,1,$1+$1,$2,$3,$4,$5,0*
20,1,$1+$1,$4,$5,$6,$7,0*
20,1,$1+$1,$6,$7,$8,$9,0*
20,1,$1+$1,$8,$9,$2,$3,0*%
G04 Aperture macros list end*
%ADD10RoundRect,0.250000X-0.250000X-0.475000X0.250000X-0.475000X0.250000X0.475000X-0.250000X0.475000X0*%
%ADD11RoundRect,0.250000X1.100000X-0.325000X1.100000X0.325000X-1.100000X0.325000X-1.100000X-0.325000X0*%
%ADD12RoundRect,0.140000X0.140000X0.170000X-0.140000X0.170000X-0.140000X-0.170000X0.140000X-0.170000X0*%
%ADD13R,1.100000X1.100000*%
%ADD14RoundRect,0.135000X-0.185000X0.135000X-0.185000X-0.135000X0.185000X-0.135000X0.185000X0.135000X0*%
%ADD15R,5.500000X2.150000*%
%ADD16RoundRect,0.135000X0.135000X0.185000X-0.135000X0.185000X-0.135000X-0.185000X0.135000X-0.185000X0*%
%ADD17R,1.500000X2.000000*%
%ADD18R,3.800000X2.000000*%
%ADD19RoundRect,0.135000X-0.135000X-0.185000X0.135000X-0.185000X0.135000X0.185000X-0.135000X0.185000X0*%
%ADD20RoundRect,0.140000X0.170000X-0.140000X0.170000X0.140000X-0.170000X0.140000X-0.170000X-0.140000X0*%
%ADD21RoundRect,0.100000X-0.712500X-0.100000X0.712500X-0.100000X0.712500X0.100000X-0.712500X0.100000X0*%
%ADD22RoundRect,0.140000X-0.140000X-0.170000X0.140000X-0.170000X0.140000X0.170000X-0.140000X0.170000X0*%
G04 APERTURE END LIST*
D10*
%TO.C,C6*%
X86890000Y-65000000D03*
X88790000Y-65000000D03*
%TD*%
D11*
%TO.C,C1*%
X90140000Y-69875000D03*
X90140000Y-66925000D03*
%TD*%
D12*
%TO.C,C3*%
X91780000Y-72400000D03*
X90820000Y-72400000D03*
%TD*%
D13*
%TO.C,D1*%
X87290000Y-69900000D03*
X87290000Y-67100000D03*
%TD*%
D14*
%TO.C,R2*%
X83300000Y-73390000D03*
X83300000Y-74410000D03*
%TD*%
D15*
%TO.C,L1*%
X83040000Y-69375000D03*
X83040000Y-65525000D03*
%TD*%
D16*
%TO.C,R1*%
X91810000Y-73450000D03*
X90790000Y-73450000D03*
%TD*%
D17*
%TO.C,Q2*%
X99200000Y-78150000D03*
X101500000Y-78150000D03*
D18*
X101500000Y-71850000D03*
D17*
X103800000Y-78150000D03*
%TD*%
D19*
%TO.C,R3*%
X88790000Y-75650000D03*
X89810000Y-75650000D03*
%TD*%
D20*
%TO.C,C4*%
X83300000Y-72380000D03*
X83300000Y-71420000D03*
%TD*%
D17*
%TO.C,Q1*%
X99200000Y-67650000D03*
X101500000Y-67650000D03*
D18*
X101500000Y-61350000D03*
D17*
X103800000Y-67650000D03*
%TD*%
D16*
%TO.C,R5*%
X79410000Y-68550000D03*
X78390000Y-68550000D03*
%TD*%
D19*
%TO.C,R4*%
X90790000Y-74550000D03*
X91810000Y-74550000D03*
%TD*%
D21*
%TO.C,U2*%
X84937500Y-71675000D03*
X84937500Y-72325000D03*
X84937500Y-72975000D03*
X84937500Y-73625000D03*
X89162500Y-73625000D03*
X89162500Y-72975000D03*
X89162500Y-72325000D03*
X89162500Y-71675000D03*
%TD*%
D12*
%TO.C,C5*%
X91780000Y-75650000D03*
X90820000Y-75650000D03*
%TD*%
D22*
%TO.C,C2*%
X90820000Y-71350000D03*
X91780000Y-71350000D03*
%TD*%
%TO.C,C7*%
X78420000Y-66250000D03*
X79380000Y-66250000D03*
%TD*%
M02*
