%TF.GenerationSoftware,KiCad,Pcbnew,5.99.0-unknown-881cb3182b~117~ubuntu18.04.1*%
%TF.CreationDate,2021-02-21T21:18:57+01:00*%
%TF.ProjectId,stanislao_nrf,7374616e-6973-46c6-916f-5f6e72662e6b,rev?*%
%TF.SameCoordinates,Original*%
%TF.FileFunction,Copper,L2,Bot*%
%TF.FilePolarity,Positive*%
%FSLAX46Y46*%
G04 Gerber Fmt 4.6, Leading zero omitted, Abs format (unit mm)*
G04 Created by KiCad (PCBNEW 5.99.0-unknown-881cb3182b~117~ubuntu18.04.1) date 2021-02-21 21:18:57*
%MOMM*%
%LPD*%
G01*
G04 APERTURE LIST*
G04 Aperture macros list*
%AMRoundRect*
0 Rectangle with rounded corners*
0 $1 Rounding radius*
0 $2 $3 $4 $5 $6 $7 $8 $9 X,Y pos of 4 corners*
0 Add a 4 corners polygon primitive as box body*
4,1,4,$2,$3,$4,$5,$6,$7,$8,$9,$2,$3,0*
0 Add four circle primitives for the rounded corners*
1,1,$1+$1,$2,$3*
1,1,$1+$1,$4,$5*
1,1,$1+$1,$6,$7*
1,1,$1+$1,$8,$9*
0 Add four rect primitives between the rounded corners*
20,1,$1+$1,$2,$3,$4,$5,0*
20,1,$1+$1,$4,$5,$6,$7,0*
20,1,$1+$1,$6,$7,$8,$9,0*
20,1,$1+$1,$8,$9,$2,$3,0*%
G04 Aperture macros list end*
%TA.AperFunction,SMDPad,CuDef*%
%ADD10RoundRect,0.377000X-0.377000X1.131000X-0.377000X-1.131000X0.377000X-1.131000X0.377000X1.131000X0*%
%TD*%
%TA.AperFunction,ComponentPad*%
%ADD11RoundRect,0.250000X-0.725000X0.600000X-0.725000X-0.600000X0.725000X-0.600000X0.725000X0.600000X0*%
%TD*%
%TA.AperFunction,ComponentPad*%
%ADD12O,1.950000X1.700000*%
%TD*%
%TA.AperFunction,ViaPad*%
%ADD13C,0.800000*%
%TD*%
%TA.AperFunction,Conductor*%
%ADD14C,0.254000*%
%TD*%
%TA.AperFunction,Conductor*%
%ADD15C,0.406400*%
%TD*%
G04 APERTURE END LIST*
D10*
%TO.P,U1,VBUS,VBUS*%
%TO.N,Net-(C7-Pad2)*%
X76055000Y-61500000D03*
%TO.P,U1,SWDIO,SWDIO*%
%TO.N,unconnected-(U1-PadSWDIO)*%
X81135000Y-77000000D03*
%TO.P,U1,SWDCLK,SWDCLK*%
%TO.N,unconnected-(U1-PadSWDCLK)*%
X81135000Y-63000000D03*
%TO.P,U1,OUT,OUT*%
%TO.N,unconnected-(U1-PadOUT)*%
X73515000Y-61500000D03*
%TO.P,U1,G3,GND*%
%TO.N,GND*%
X70975000Y-61500000D03*
%TO.P,U1,G2,GND*%
X53195000Y-61500000D03*
%TO.P,U1,G1,GND*%
X53195000Y-78500000D03*
%TO.P,U1,1.15,1.15*%
%TO.N,unconnected-(U1-Pad1.15)*%
X60815000Y-61500000D03*
%TO.P,U1,1.13,1.13*%
%TO.N,unconnected-(U1-Pad1.13)*%
X58275000Y-61500000D03*
%TO.P,U1,1.10,1.10*%
%TO.N,unconnected-(U1-Pad1.10)*%
X55735000Y-61500000D03*
%TO.P,U1,1.00,1.00*%
%TO.N,/P1.00*%
X60815000Y-78500000D03*
%TO.P,U1,0.31,0.31*%
%TO.N,unconnected-(U1-Pad0.31)*%
X68435000Y-61500000D03*
%TO.P,U1,0.29,0.29*%
%TO.N,unconnected-(U1-Pad0.29)*%
X65895000Y-61500000D03*
%TO.P,U1,0.24,0.24*%
%TO.N,/TSDZ2_TX*%
X63355000Y-78500000D03*
%TO.P,U1,0.22,0.22*%
%TO.N,/TSDZ2_RX*%
X65895000Y-78500000D03*
%TO.P,U1,0.20,0.20*%
%TO.N,unconnected-(U1-Pad0.20)*%
X68435000Y-78500000D03*
%TO.P,U1,0.17,0.17*%
%TO.N,unconnected-(U1-Pad0.17)*%
X70975000Y-78500000D03*
%TO.P,U1,0.15,0.15*%
%TO.N,unconnected-(U1-Pad0.15)*%
X73515000Y-78500000D03*
%TO.P,U1,0.13,0.13*%
%TO.N,unconnected-(U1-Pad0.13)*%
X76055000Y-78500000D03*
%TO.P,U1,0.10,0.10*%
%TO.N,unconnected-(U1-Pad0.10)*%
X55735000Y-78500000D03*
%TO.P,U1,0.09,0.09*%
%TO.N,/TSDZ2_BRAKE_INPUT*%
X58275000Y-78500000D03*
%TO.P,U1,0.02,0.02*%
%TO.N,unconnected-(U1-Pad0.02)*%
X63355000Y-61500000D03*
%TD*%
D11*
%TO.P,J1,1,Pin_1*%
%TO.N,GND*%
X95550000Y-63750000D03*
D12*
%TO.P,J1,2,Pin_2*%
%TO.N,/TSDZ2_BRAKE_INPUT*%
X95550000Y-66250000D03*
%TO.P,J1,3,Pin_3*%
%TO.N,/TSDZ2_RX*%
X95550000Y-68750000D03*
%TO.P,J1,4,Pin_4*%
%TO.N,/V_BATT*%
X95550000Y-71250000D03*
%TO.P,J1,5,Pin_5*%
%TO.N,/TSDZ2_TX*%
X95550000Y-73750000D03*
%TO.P,J1,6,Pin_6*%
%TO.N,/TSDZ2_VIN*%
X95550000Y-76250000D03*
%TD*%
D13*
%TO.N,/TSDZ2_VIN*%
X103400000Y-67000000D03*
X104200000Y-68600000D03*
X103400000Y-68600000D03*
X104200000Y-67000000D03*
X103400000Y-67800000D03*
X104200000Y-67800000D03*
%TO.N,/TSDZ2_TX*%
X63750000Y-75750000D03*
X86200000Y-78200000D03*
%TO.N,/V_BATT*%
X92750000Y-73500000D03*
X92750000Y-70000000D03*
%TO.N,/TSDZ2_RX*%
X66250000Y-75750000D03*
X88000000Y-77023000D03*
%TO.N,/TSDZ2_BRAKE_INPUT*%
X87000000Y-77523000D03*
X58500000Y-75750000D03*
%TO.N,/P1.00*%
X60750000Y-79000000D03*
%TO.N,GND*%
X104200000Y-79600000D03*
X103400000Y-78800000D03*
X104200000Y-78000000D03*
X103400000Y-79600000D03*
X104200000Y-78800000D03*
X103400000Y-78000000D03*
%TO.N,Net-(C5-Pad1)*%
X78400000Y-67400000D03*
X90250000Y-76523000D03*
%TO.N,Net-(C7-Pad2)*%
X79400000Y-65200000D03*
X87185933Y-76014067D03*
X78200000Y-61600000D03*
%TD*%
D14*
%TO.N,/TSDZ2_TX*%
X95550000Y-74200000D02*
X91500000Y-78250000D01*
X88500000Y-78250000D02*
X86250000Y-78250000D01*
X86250000Y-78250000D02*
X86200000Y-78200000D01*
X91500000Y-78250000D02*
X88500000Y-78250000D01*
X63355000Y-78500000D02*
X63355000Y-76145000D01*
X95550000Y-73750000D02*
X95550000Y-74200000D01*
X63355000Y-76145000D02*
X63750000Y-75750000D01*
%TO.N,/V_BATT*%
X92750000Y-70000000D02*
X92750000Y-73500000D01*
%TO.N,/TSDZ2_RX*%
X65895000Y-76105000D02*
X66250000Y-75750000D01*
X93750000Y-68750000D02*
X93500000Y-69000000D01*
X93500000Y-69000000D02*
X93500000Y-74750000D01*
X91000000Y-77250000D02*
X89050000Y-77250000D01*
X95550000Y-68750000D02*
X93750000Y-68750000D01*
X88227000Y-77250000D02*
X88000000Y-77023000D01*
X89050000Y-77250000D02*
X88227000Y-77250000D01*
X89050000Y-77250000D02*
X88500000Y-77250000D01*
X93500000Y-74750000D02*
X91000000Y-77250000D01*
X65895000Y-78500000D02*
X65895000Y-76105000D01*
%TO.N,/TSDZ2_BRAKE_INPUT*%
X94000000Y-74500000D02*
X94000000Y-75000000D01*
X97000000Y-66250000D02*
X97250000Y-66500000D01*
X97250000Y-66500000D02*
X97250000Y-69750000D01*
X88650000Y-77750000D02*
X88500000Y-77750000D01*
X88650000Y-77750000D02*
X87227000Y-77750000D01*
X87227000Y-77750000D02*
X87000000Y-77523000D01*
X94250000Y-70000000D02*
X94000000Y-70250000D01*
X95550000Y-66250000D02*
X97000000Y-66250000D01*
X58275000Y-75975000D02*
X58500000Y-75750000D01*
X97250000Y-69750000D02*
X97000000Y-70000000D01*
X94000000Y-74500000D02*
X94000000Y-74750000D01*
X91250000Y-77750000D02*
X88650000Y-77750000D01*
X58275000Y-78500000D02*
X58275000Y-75975000D01*
X94000000Y-70250000D02*
X94000000Y-74500000D01*
X94000000Y-75000000D02*
X91250000Y-77750000D01*
X97000000Y-70000000D02*
X94250000Y-70000000D01*
%TO.N,/P1.00*%
X60750000Y-79000000D02*
X60750000Y-78500000D01*
X60750000Y-78500000D02*
X60815000Y-78500000D01*
%TO.N,Net-(C5-Pad1)*%
X78400000Y-74000000D02*
X78400000Y-67400000D01*
X86600000Y-74400000D02*
X78800000Y-74400000D01*
X87900000Y-75700000D02*
X87364980Y-75164980D01*
X88723000Y-76523000D02*
X87900000Y-75700000D01*
X90250000Y-76523000D02*
X88723000Y-76523000D01*
X87900000Y-75700000D02*
X86600000Y-74400000D01*
X78800000Y-74400000D02*
X78400000Y-74000000D01*
%TO.N,Net-(C7-Pad2)*%
X77600000Y-65400000D02*
X77600000Y-74000000D01*
X79400000Y-65200000D02*
X77800000Y-65200000D01*
X77600000Y-74000000D02*
X78454020Y-74854020D01*
D15*
X78100000Y-61500000D02*
X78200000Y-61600000D01*
D14*
X78454020Y-74854020D02*
X86025886Y-74854020D01*
X77600000Y-74000000D02*
X78000000Y-74400000D01*
D15*
X76055000Y-61500000D02*
X78100000Y-61500000D01*
D14*
X86025886Y-74854020D02*
X87185933Y-76014067D01*
X77800000Y-65200000D02*
X77600000Y-65400000D01*
%TD*%
%TA.AperFunction,Conductor*%
%TO.N,GND*%
G36*
X54947032Y-59771593D02*
G01*
X54972752Y-59816142D01*
X54963819Y-59866800D01*
X54942898Y-59890036D01*
X54922286Y-59905011D01*
X54919268Y-59908659D01*
X54919267Y-59908660D01*
X54895441Y-59937461D01*
X54820585Y-60027946D01*
X54752653Y-60172311D01*
X54726500Y-60309408D01*
X54726500Y-62670579D01*
X54726797Y-62672930D01*
X54740889Y-62784475D01*
X54741497Y-62789291D01*
X54800231Y-62937636D01*
X54894011Y-63066714D01*
X54897659Y-63069732D01*
X54897660Y-63069733D01*
X55013300Y-63165399D01*
X55016946Y-63168415D01*
X55161311Y-63236347D01*
X55298408Y-63262500D01*
X56151579Y-63262500D01*
X56160793Y-63261336D01*
X56265599Y-63248096D01*
X56265601Y-63248095D01*
X56270291Y-63247503D01*
X56274687Y-63245763D01*
X56274689Y-63245762D01*
X56414237Y-63190511D01*
X56414239Y-63190510D01*
X56418636Y-63188769D01*
X56547714Y-63094989D01*
X56551037Y-63090973D01*
X56646399Y-62975700D01*
X56646400Y-62975699D01*
X56649415Y-62972054D01*
X56717347Y-62827689D01*
X56743500Y-62690592D01*
X56743500Y-60329421D01*
X56730073Y-60223133D01*
X56729096Y-60215401D01*
X56729095Y-60215399D01*
X56728503Y-60210709D01*
X56669769Y-60062364D01*
X56575989Y-59933286D01*
X56572340Y-59930267D01*
X56572336Y-59930263D01*
X56520212Y-59887142D01*
X56494181Y-59842775D01*
X56502760Y-59792055D01*
X56541934Y-59758716D01*
X56568146Y-59754000D01*
X57438694Y-59754000D01*
X57487032Y-59771593D01*
X57512752Y-59816142D01*
X57503819Y-59866800D01*
X57482898Y-59890036D01*
X57462286Y-59905011D01*
X57459268Y-59908659D01*
X57459267Y-59908660D01*
X57435441Y-59937461D01*
X57360585Y-60027946D01*
X57292653Y-60172311D01*
X57266500Y-60309408D01*
X57266500Y-62670579D01*
X57266797Y-62672930D01*
X57280889Y-62784475D01*
X57281497Y-62789291D01*
X57340231Y-62937636D01*
X57434011Y-63066714D01*
X57437659Y-63069732D01*
X57437660Y-63069733D01*
X57553300Y-63165399D01*
X57556946Y-63168415D01*
X57701311Y-63236347D01*
X57838408Y-63262500D01*
X58691579Y-63262500D01*
X58700793Y-63261336D01*
X58805599Y-63248096D01*
X58805601Y-63248095D01*
X58810291Y-63247503D01*
X58814687Y-63245763D01*
X58814689Y-63245762D01*
X58954237Y-63190511D01*
X58954239Y-63190510D01*
X58958636Y-63188769D01*
X59087714Y-63094989D01*
X59091037Y-63090973D01*
X59186399Y-62975700D01*
X59186400Y-62975699D01*
X59189415Y-62972054D01*
X59257347Y-62827689D01*
X59283500Y-62690592D01*
X59283500Y-60329421D01*
X59270073Y-60223133D01*
X59269096Y-60215401D01*
X59269095Y-60215399D01*
X59268503Y-60210709D01*
X59209769Y-60062364D01*
X59115989Y-59933286D01*
X59112340Y-59930267D01*
X59112336Y-59930263D01*
X59060212Y-59887142D01*
X59034181Y-59842775D01*
X59042760Y-59792055D01*
X59081934Y-59758716D01*
X59108146Y-59754000D01*
X59978694Y-59754000D01*
X60027032Y-59771593D01*
X60052752Y-59816142D01*
X60043819Y-59866800D01*
X60022898Y-59890036D01*
X60002286Y-59905011D01*
X59999268Y-59908659D01*
X59999267Y-59908660D01*
X59975441Y-59937461D01*
X59900585Y-60027946D01*
X59832653Y-60172311D01*
X59806500Y-60309408D01*
X59806500Y-62670579D01*
X59806797Y-62672930D01*
X59820889Y-62784475D01*
X59821497Y-62789291D01*
X59880231Y-62937636D01*
X59974011Y-63066714D01*
X59977659Y-63069732D01*
X59977660Y-63069733D01*
X60093300Y-63165399D01*
X60096946Y-63168415D01*
X60241311Y-63236347D01*
X60378408Y-63262500D01*
X61231579Y-63262500D01*
X61240793Y-63261336D01*
X61345599Y-63248096D01*
X61345601Y-63248095D01*
X61350291Y-63247503D01*
X61354687Y-63245763D01*
X61354689Y-63245762D01*
X61494237Y-63190511D01*
X61494239Y-63190510D01*
X61498636Y-63188769D01*
X61627714Y-63094989D01*
X61631037Y-63090973D01*
X61726399Y-62975700D01*
X61726400Y-62975699D01*
X61729415Y-62972054D01*
X61797347Y-62827689D01*
X61823500Y-62690592D01*
X61823500Y-60329421D01*
X61810073Y-60223133D01*
X61809096Y-60215401D01*
X61809095Y-60215399D01*
X61808503Y-60210709D01*
X61749769Y-60062364D01*
X61655989Y-59933286D01*
X61652340Y-59930267D01*
X61652336Y-59930263D01*
X61600212Y-59887142D01*
X61574181Y-59842775D01*
X61582760Y-59792055D01*
X61621934Y-59758716D01*
X61648146Y-59754000D01*
X62518694Y-59754000D01*
X62567032Y-59771593D01*
X62592752Y-59816142D01*
X62583819Y-59866800D01*
X62562898Y-59890036D01*
X62542286Y-59905011D01*
X62539268Y-59908659D01*
X62539267Y-59908660D01*
X62515441Y-59937461D01*
X62440585Y-60027946D01*
X62372653Y-60172311D01*
X62346500Y-60309408D01*
X62346500Y-62670579D01*
X62346797Y-62672930D01*
X62360889Y-62784475D01*
X62361497Y-62789291D01*
X62420231Y-62937636D01*
X62514011Y-63066714D01*
X62517659Y-63069732D01*
X62517660Y-63069733D01*
X62633300Y-63165399D01*
X62636946Y-63168415D01*
X62781311Y-63236347D01*
X62918408Y-63262500D01*
X63771579Y-63262500D01*
X63780793Y-63261336D01*
X63885599Y-63248096D01*
X63885601Y-63248095D01*
X63890291Y-63247503D01*
X63894687Y-63245763D01*
X63894689Y-63245762D01*
X64034237Y-63190511D01*
X64034239Y-63190510D01*
X64038636Y-63188769D01*
X64167714Y-63094989D01*
X64171037Y-63090973D01*
X64266399Y-62975700D01*
X64266400Y-62975699D01*
X64269415Y-62972054D01*
X64337347Y-62827689D01*
X64363500Y-62690592D01*
X64363500Y-60329421D01*
X64350073Y-60223133D01*
X64349096Y-60215401D01*
X64349095Y-60215399D01*
X64348503Y-60210709D01*
X64289769Y-60062364D01*
X64195989Y-59933286D01*
X64192340Y-59930267D01*
X64192336Y-59930263D01*
X64140212Y-59887142D01*
X64114181Y-59842775D01*
X64122760Y-59792055D01*
X64161934Y-59758716D01*
X64188146Y-59754000D01*
X65058694Y-59754000D01*
X65107032Y-59771593D01*
X65132752Y-59816142D01*
X65123819Y-59866800D01*
X65102898Y-59890036D01*
X65082286Y-59905011D01*
X65079268Y-59908659D01*
X65079267Y-59908660D01*
X65055441Y-59937461D01*
X64980585Y-60027946D01*
X64912653Y-60172311D01*
X64886500Y-60309408D01*
X64886500Y-62670579D01*
X64886797Y-62672930D01*
X64900889Y-62784475D01*
X64901497Y-62789291D01*
X64960231Y-62937636D01*
X65054011Y-63066714D01*
X65057659Y-63069732D01*
X65057660Y-63069733D01*
X65173300Y-63165399D01*
X65176946Y-63168415D01*
X65321311Y-63236347D01*
X65458408Y-63262500D01*
X66311579Y-63262500D01*
X66320793Y-63261336D01*
X66425599Y-63248096D01*
X66425601Y-63248095D01*
X66430291Y-63247503D01*
X66434687Y-63245763D01*
X66434689Y-63245762D01*
X66574237Y-63190511D01*
X66574239Y-63190510D01*
X66578636Y-63188769D01*
X66707714Y-63094989D01*
X66711037Y-63090973D01*
X66806399Y-62975700D01*
X66806400Y-62975699D01*
X66809415Y-62972054D01*
X66877347Y-62827689D01*
X66903500Y-62690592D01*
X66903500Y-60329421D01*
X66890073Y-60223133D01*
X66889096Y-60215401D01*
X66889095Y-60215399D01*
X66888503Y-60210709D01*
X66829769Y-60062364D01*
X66735989Y-59933286D01*
X66732340Y-59930267D01*
X66732336Y-59930263D01*
X66680212Y-59887142D01*
X66654181Y-59842775D01*
X66662760Y-59792055D01*
X66701934Y-59758716D01*
X66728146Y-59754000D01*
X67598694Y-59754000D01*
X67647032Y-59771593D01*
X67672752Y-59816142D01*
X67663819Y-59866800D01*
X67642898Y-59890036D01*
X67622286Y-59905011D01*
X67619268Y-59908659D01*
X67619267Y-59908660D01*
X67595441Y-59937461D01*
X67520585Y-60027946D01*
X67452653Y-60172311D01*
X67426500Y-60309408D01*
X67426500Y-62670579D01*
X67426797Y-62672930D01*
X67440889Y-62784475D01*
X67441497Y-62789291D01*
X67500231Y-62937636D01*
X67594011Y-63066714D01*
X67597659Y-63069732D01*
X67597660Y-63069733D01*
X67713300Y-63165399D01*
X67716946Y-63168415D01*
X67861311Y-63236347D01*
X67998408Y-63262500D01*
X68851579Y-63262500D01*
X68860793Y-63261336D01*
X68965599Y-63248096D01*
X68965601Y-63248095D01*
X68970291Y-63247503D01*
X68974687Y-63245763D01*
X68974689Y-63245762D01*
X69114237Y-63190511D01*
X69114239Y-63190510D01*
X69118636Y-63188769D01*
X69247714Y-63094989D01*
X69251037Y-63090973D01*
X69346399Y-62975700D01*
X69346400Y-62975699D01*
X69349415Y-62972054D01*
X69417347Y-62827689D01*
X69443500Y-62690592D01*
X69443500Y-61636069D01*
X69967000Y-61636069D01*
X69967000Y-62668209D01*
X69967297Y-62672930D01*
X69981388Y-62784475D01*
X69983722Y-62793565D01*
X70038927Y-62932996D01*
X70043450Y-62941223D01*
X70131591Y-63062539D01*
X70138027Y-63069393D01*
X70253565Y-63164974D01*
X70261498Y-63170009D01*
X70397184Y-63233858D01*
X70406112Y-63236758D01*
X70534952Y-63261336D01*
X70541977Y-63262000D01*
X70834741Y-63262000D01*
X70844898Y-63258303D01*
X70848000Y-63252931D01*
X70848000Y-61640259D01*
X70846475Y-61636069D01*
X71102000Y-61636069D01*
X71102000Y-63248741D01*
X71105697Y-63258898D01*
X71111069Y-63262000D01*
X71389209Y-63262000D01*
X71393930Y-63261703D01*
X71505475Y-63247612D01*
X71514565Y-63245278D01*
X71653996Y-63190073D01*
X71662223Y-63185550D01*
X71783539Y-63097409D01*
X71790393Y-63090973D01*
X71885974Y-62975435D01*
X71891009Y-62967502D01*
X71954858Y-62831816D01*
X71957758Y-62822888D01*
X71982336Y-62694048D01*
X71983000Y-62687023D01*
X71983000Y-61640259D01*
X71979303Y-61630102D01*
X71973931Y-61627000D01*
X71115259Y-61627000D01*
X71105102Y-61630697D01*
X71102000Y-61636069D01*
X70846475Y-61636069D01*
X70844303Y-61630102D01*
X70838931Y-61627000D01*
X69980259Y-61627000D01*
X69970102Y-61630697D01*
X69967000Y-61636069D01*
X69443500Y-61636069D01*
X69443500Y-60329421D01*
X69430073Y-60223133D01*
X69429096Y-60215401D01*
X69429095Y-60215399D01*
X69428503Y-60210709D01*
X69369769Y-60062364D01*
X69275989Y-59933286D01*
X69272340Y-59930267D01*
X69272336Y-59930263D01*
X69220212Y-59887142D01*
X69194181Y-59842775D01*
X69202760Y-59792055D01*
X69241934Y-59758716D01*
X69268146Y-59754000D01*
X70139538Y-59754000D01*
X70187876Y-59771593D01*
X70213596Y-59816142D01*
X70204663Y-59866800D01*
X70183739Y-59890038D01*
X70166461Y-59902591D01*
X70159607Y-59909027D01*
X70064026Y-60024565D01*
X70058991Y-60032498D01*
X69995142Y-60168184D01*
X69992242Y-60177112D01*
X69967664Y-60305952D01*
X69967000Y-60312977D01*
X69967000Y-61359741D01*
X69970697Y-61369898D01*
X69976069Y-61373000D01*
X71969741Y-61373000D01*
X71979898Y-61369303D01*
X71983000Y-61363931D01*
X71983000Y-60331791D01*
X71982703Y-60327070D01*
X71968612Y-60215525D01*
X71966278Y-60206435D01*
X71911073Y-60067004D01*
X71906550Y-60058777D01*
X71818409Y-59937461D01*
X71811977Y-59930612D01*
X71759432Y-59887143D01*
X71733401Y-59842775D01*
X71741980Y-59792056D01*
X71781153Y-59758716D01*
X71807366Y-59754000D01*
X72678694Y-59754000D01*
X72727032Y-59771593D01*
X72752752Y-59816142D01*
X72743819Y-59866800D01*
X72722898Y-59890036D01*
X72702286Y-59905011D01*
X72699268Y-59908659D01*
X72699267Y-59908660D01*
X72675441Y-59937461D01*
X72600585Y-60027946D01*
X72532653Y-60172311D01*
X72506500Y-60309408D01*
X72506500Y-62670579D01*
X72506797Y-62672930D01*
X72520889Y-62784475D01*
X72521497Y-62789291D01*
X72580231Y-62937636D01*
X72674011Y-63066714D01*
X72677659Y-63069732D01*
X72677660Y-63069733D01*
X72793300Y-63165399D01*
X72796946Y-63168415D01*
X72941311Y-63236347D01*
X73078408Y-63262500D01*
X73931579Y-63262500D01*
X73940793Y-63261336D01*
X74045599Y-63248096D01*
X74045601Y-63248095D01*
X74050291Y-63247503D01*
X74054687Y-63245763D01*
X74054689Y-63245762D01*
X74194237Y-63190511D01*
X74194239Y-63190510D01*
X74198636Y-63188769D01*
X74327714Y-63094989D01*
X74331037Y-63090973D01*
X74426399Y-62975700D01*
X74426400Y-62975699D01*
X74429415Y-62972054D01*
X74497347Y-62827689D01*
X74523500Y-62690592D01*
X74523500Y-60329421D01*
X74510073Y-60223133D01*
X74509096Y-60215401D01*
X74509095Y-60215399D01*
X74508503Y-60210709D01*
X74449769Y-60062364D01*
X74355989Y-59933286D01*
X74352340Y-59930267D01*
X74352336Y-59930263D01*
X74300212Y-59887142D01*
X74274181Y-59842775D01*
X74282760Y-59792055D01*
X74321934Y-59758716D01*
X74348146Y-59754000D01*
X75218694Y-59754000D01*
X75267032Y-59771593D01*
X75292752Y-59816142D01*
X75283819Y-59866800D01*
X75262898Y-59890036D01*
X75242286Y-59905011D01*
X75239268Y-59908659D01*
X75239267Y-59908660D01*
X75215441Y-59937461D01*
X75140585Y-60027946D01*
X75072653Y-60172311D01*
X75046500Y-60309408D01*
X75046500Y-62670579D01*
X75046797Y-62672930D01*
X75060889Y-62784475D01*
X75061497Y-62789291D01*
X75120231Y-62937636D01*
X75214011Y-63066714D01*
X75217659Y-63069732D01*
X75217660Y-63069733D01*
X75333300Y-63165399D01*
X75336946Y-63168415D01*
X75481311Y-63236347D01*
X75618408Y-63262500D01*
X76471579Y-63262500D01*
X76480793Y-63261336D01*
X76585599Y-63248096D01*
X76585601Y-63248095D01*
X76590291Y-63247503D01*
X76594687Y-63245763D01*
X76594689Y-63245762D01*
X76734237Y-63190511D01*
X76734239Y-63190510D01*
X76738636Y-63188769D01*
X76867714Y-63094989D01*
X76871037Y-63090973D01*
X76966399Y-62975700D01*
X76966400Y-62975699D01*
X76969415Y-62972054D01*
X77037347Y-62827689D01*
X77063500Y-62690592D01*
X77063500Y-62032900D01*
X77081093Y-61984562D01*
X77125642Y-61958842D01*
X77138700Y-61957700D01*
X77607114Y-61957700D01*
X77655452Y-61975293D01*
X77665712Y-61986296D01*
X77666453Y-61987644D01*
X77669691Y-61991092D01*
X77726380Y-62051459D01*
X77779619Y-62108153D01*
X77919199Y-62196733D01*
X77923699Y-62198195D01*
X77923703Y-62198197D01*
X78001328Y-62223419D01*
X78076422Y-62247818D01*
X78081137Y-62248115D01*
X78081139Y-62248115D01*
X78236687Y-62257902D01*
X78236688Y-62257902D01*
X78241410Y-62258199D01*
X78246060Y-62257312D01*
X78399148Y-62228109D01*
X78399149Y-62228109D01*
X78403797Y-62227222D01*
X78553378Y-62156834D01*
X78680755Y-62051459D01*
X78777924Y-61917717D01*
X78820807Y-61809408D01*
X80126500Y-61809408D01*
X80126500Y-64170579D01*
X80141497Y-64289291D01*
X80143237Y-64293687D01*
X80143238Y-64293689D01*
X80196867Y-64429139D01*
X80200231Y-64437636D01*
X80294011Y-64566714D01*
X80297659Y-64569732D01*
X80297660Y-64569733D01*
X80368449Y-64628295D01*
X80416946Y-64668415D01*
X80561311Y-64736347D01*
X80698408Y-64762500D01*
X81551579Y-64762500D01*
X81556835Y-64761836D01*
X81665599Y-64748096D01*
X81665601Y-64748095D01*
X81670291Y-64747503D01*
X81674687Y-64745763D01*
X81674689Y-64745762D01*
X81814237Y-64690511D01*
X81814239Y-64690510D01*
X81818636Y-64688769D01*
X81947714Y-64594989D01*
X81966823Y-64571891D01*
X82046399Y-64475700D01*
X82046400Y-64475699D01*
X82049415Y-64472054D01*
X82117347Y-64327689D01*
X82143500Y-64190592D01*
X82143500Y-63886069D01*
X94321000Y-63886069D01*
X94321000Y-64382242D01*
X94321378Y-64387554D01*
X94335700Y-64487562D01*
X94338675Y-64497733D01*
X94393973Y-64619354D01*
X94399691Y-64628295D01*
X94486901Y-64729508D01*
X94494887Y-64736475D01*
X94607006Y-64809147D01*
X94616629Y-64813593D01*
X94745861Y-64852241D01*
X94753830Y-64853711D01*
X94756328Y-64853897D01*
X94759109Y-64854000D01*
X95409741Y-64854000D01*
X95419898Y-64850303D01*
X95423000Y-64844931D01*
X95423000Y-63890259D01*
X95421475Y-63886069D01*
X95677000Y-63886069D01*
X95677000Y-64840741D01*
X95680697Y-64850898D01*
X95686069Y-64854000D01*
X96307242Y-64854000D01*
X96312554Y-64853622D01*
X96412562Y-64839300D01*
X96422733Y-64836325D01*
X96544354Y-64781027D01*
X96553295Y-64775309D01*
X96654508Y-64688099D01*
X96661475Y-64680113D01*
X96734147Y-64567994D01*
X96738593Y-64558371D01*
X96777241Y-64429139D01*
X96778711Y-64421170D01*
X96778897Y-64418672D01*
X96779000Y-64415891D01*
X96779000Y-63890259D01*
X96775303Y-63880102D01*
X96769931Y-63877000D01*
X95690259Y-63877000D01*
X95680102Y-63880697D01*
X95677000Y-63886069D01*
X95421475Y-63886069D01*
X95419303Y-63880102D01*
X95413931Y-63877000D01*
X94334259Y-63877000D01*
X94324102Y-63880697D01*
X94321000Y-63886069D01*
X82143500Y-63886069D01*
X82143500Y-63084109D01*
X94321000Y-63084109D01*
X94321000Y-63609741D01*
X94324697Y-63619898D01*
X94330069Y-63623000D01*
X95409741Y-63623000D01*
X95419898Y-63619303D01*
X95423000Y-63613931D01*
X95423000Y-62659259D01*
X95421475Y-62655069D01*
X95677000Y-62655069D01*
X95677000Y-63609741D01*
X95680697Y-63619898D01*
X95686069Y-63623000D01*
X96765741Y-63623000D01*
X96775898Y-63619303D01*
X96779000Y-63613931D01*
X96779000Y-63117758D01*
X96778622Y-63112446D01*
X96764300Y-63012438D01*
X96761325Y-63002267D01*
X96706027Y-62880646D01*
X96700309Y-62871705D01*
X96613099Y-62770492D01*
X96605113Y-62763525D01*
X96492994Y-62690853D01*
X96483371Y-62686407D01*
X96354139Y-62647759D01*
X96346170Y-62646289D01*
X96343672Y-62646103D01*
X96340891Y-62646000D01*
X95690259Y-62646000D01*
X95680102Y-62649697D01*
X95677000Y-62655069D01*
X95421475Y-62655069D01*
X95419303Y-62649102D01*
X95413931Y-62646000D01*
X94792758Y-62646000D01*
X94787446Y-62646378D01*
X94687438Y-62660700D01*
X94677267Y-62663675D01*
X94555646Y-62718973D01*
X94546705Y-62724691D01*
X94445492Y-62811901D01*
X94438525Y-62819887D01*
X94365853Y-62932006D01*
X94361407Y-62941629D01*
X94322759Y-63070861D01*
X94321289Y-63078830D01*
X94321103Y-63081328D01*
X94321000Y-63084109D01*
X82143500Y-63084109D01*
X82143500Y-61829421D01*
X82128503Y-61710709D01*
X82096824Y-61630697D01*
X82071511Y-61566763D01*
X82071510Y-61566761D01*
X82069769Y-61562364D01*
X81975989Y-61433286D01*
X81946222Y-61408660D01*
X81856700Y-61334601D01*
X81856699Y-61334600D01*
X81853054Y-61331585D01*
X81708689Y-61263653D01*
X81571592Y-61237500D01*
X80718421Y-61237500D01*
X80716070Y-61237797D01*
X80604401Y-61251904D01*
X80604399Y-61251905D01*
X80599709Y-61252497D01*
X80595313Y-61254237D01*
X80595311Y-61254238D01*
X80455763Y-61309489D01*
X80455761Y-61309490D01*
X80451364Y-61311231D01*
X80322286Y-61405011D01*
X80319268Y-61408659D01*
X80319267Y-61408660D01*
X80292777Y-61440681D01*
X80220585Y-61527946D01*
X80152653Y-61672311D01*
X80126500Y-61809408D01*
X78820807Y-61809408D01*
X78838781Y-61764011D01*
X78845515Y-61710709D01*
X78858907Y-61604694D01*
X78859500Y-61600000D01*
X78838781Y-61435989D01*
X78836516Y-61430267D01*
X78779666Y-61286682D01*
X78779665Y-61286680D01*
X78777924Y-61282283D01*
X78755853Y-61251904D01*
X78683539Y-61152373D01*
X78680755Y-61148541D01*
X78553378Y-61043166D01*
X78403797Y-60972778D01*
X78399149Y-60971891D01*
X78399148Y-60971891D01*
X78246060Y-60942688D01*
X78241410Y-60941801D01*
X78236688Y-60942098D01*
X78236687Y-60942098D01*
X78081139Y-60951885D01*
X78081137Y-60951885D01*
X78076422Y-60952182D01*
X78015764Y-60971891D01*
X77923703Y-61001803D01*
X77923699Y-61001805D01*
X77919199Y-61003267D01*
X77876138Y-61030595D01*
X77835846Y-61042300D01*
X77138700Y-61042300D01*
X77090362Y-61024707D01*
X77064642Y-60980158D01*
X77063500Y-60967100D01*
X77063500Y-60329421D01*
X77050073Y-60223133D01*
X77049096Y-60215401D01*
X77049095Y-60215399D01*
X77048503Y-60210709D01*
X76989769Y-60062364D01*
X76895989Y-59933286D01*
X76892340Y-59930267D01*
X76892336Y-59930263D01*
X76840212Y-59887142D01*
X76814181Y-59842775D01*
X76822760Y-59792055D01*
X76861934Y-59758716D01*
X76888146Y-59754000D01*
X104920800Y-59754000D01*
X104969138Y-59771593D01*
X104994858Y-59816142D01*
X104996000Y-59829200D01*
X104996000Y-66455242D01*
X104978407Y-66503580D01*
X104933858Y-66529300D01*
X104883200Y-66520367D01*
X104867626Y-66508416D01*
X104701631Y-66342421D01*
X104693660Y-66334789D01*
X104688824Y-66330356D01*
X104604061Y-66278910D01*
X104555723Y-66261317D01*
X104552492Y-66260747D01*
X104552491Y-66260747D01*
X104472082Y-66246569D01*
X104472076Y-66246568D01*
X104468852Y-66246000D01*
X103031148Y-66246000D01*
X103030793Y-66246008D01*
X103030767Y-66246008D01*
X103025829Y-66246116D01*
X103020075Y-66246241D01*
X103019702Y-66246257D01*
X103019679Y-66246258D01*
X103017208Y-66246366D01*
X103017207Y-66246366D01*
X103013521Y-66246527D01*
X102965384Y-66258306D01*
X102920833Y-66269207D01*
X102920830Y-66269208D01*
X102917246Y-66270085D01*
X102870626Y-66291825D01*
X102867942Y-66293705D01*
X102867941Y-66293705D01*
X102801050Y-66340543D01*
X102801045Y-66340547D01*
X102798369Y-66342421D01*
X102592421Y-66548369D01*
X102584789Y-66556340D01*
X102580356Y-66561176D01*
X102528910Y-66645939D01*
X102511317Y-66694277D01*
X102510747Y-66697508D01*
X102510747Y-66697509D01*
X102496569Y-66777918D01*
X102496568Y-66777924D01*
X102496000Y-66781148D01*
X102496000Y-74863642D01*
X102478407Y-74911980D01*
X102473974Y-74916816D01*
X102416816Y-74973974D01*
X102370196Y-74995714D01*
X102363642Y-74996000D01*
X95824266Y-74996000D01*
X95775928Y-74978407D01*
X95750208Y-74933858D01*
X95759141Y-74883200D01*
X95798546Y-74850135D01*
X95817124Y-74845940D01*
X95881242Y-74839823D01*
X95881246Y-74839822D01*
X95884801Y-74839483D01*
X95888229Y-74838477D01*
X95888231Y-74838477D01*
X95976306Y-74812639D01*
X96087033Y-74780155D01*
X96199282Y-74722343D01*
X96271217Y-74685294D01*
X96271218Y-74685293D01*
X96274397Y-74683656D01*
X96440133Y-74553469D01*
X96444423Y-74548526D01*
X96575916Y-74396992D01*
X96578261Y-74394290D01*
X96683797Y-74211864D01*
X96752934Y-74012772D01*
X96754655Y-74000907D01*
X96782662Y-73807737D01*
X96783175Y-73804199D01*
X96773431Y-73593670D01*
X96724053Y-73388782D01*
X96636822Y-73196928D01*
X96572117Y-73105710D01*
X96516956Y-73027948D01*
X96516955Y-73027947D01*
X96514886Y-73025030D01*
X96362645Y-72879291D01*
X96185592Y-72764969D01*
X95990115Y-72686190D01*
X95783268Y-72645795D01*
X95780563Y-72645663D01*
X95780557Y-72645662D01*
X95778143Y-72645544D01*
X95778128Y-72645544D01*
X95777236Y-72645500D01*
X95372594Y-72645500D01*
X95370813Y-72645670D01*
X95370811Y-72645670D01*
X95218758Y-72660177D01*
X95218754Y-72660178D01*
X95215199Y-72660517D01*
X95211771Y-72661523D01*
X95211769Y-72661523D01*
X95130022Y-72685505D01*
X95012967Y-72719845D01*
X95009780Y-72721486D01*
X95009781Y-72721486D01*
X94925354Y-72764969D01*
X94825603Y-72816344D01*
X94659867Y-72946531D01*
X94657524Y-72949231D01*
X94657521Y-72949234D01*
X94593895Y-73022557D01*
X94521739Y-73105710D01*
X94519942Y-73108816D01*
X94517922Y-73111648D01*
X94475529Y-73140784D01*
X94424326Y-73135854D01*
X94388271Y-73099164D01*
X94381500Y-73067979D01*
X94381500Y-71923915D01*
X94399093Y-71875577D01*
X94443642Y-71849857D01*
X94494300Y-71858790D01*
X94518035Y-71880406D01*
X94585114Y-71974970D01*
X94737355Y-72120709D01*
X94914408Y-72235031D01*
X95109885Y-72313810D01*
X95316732Y-72354205D01*
X95319437Y-72354337D01*
X95319443Y-72354338D01*
X95321857Y-72354456D01*
X95321872Y-72354456D01*
X95322764Y-72354500D01*
X95727406Y-72354500D01*
X95729187Y-72354330D01*
X95729189Y-72354330D01*
X95881242Y-72339823D01*
X95881246Y-72339822D01*
X95884801Y-72339483D01*
X95888229Y-72338477D01*
X95888231Y-72338477D01*
X95976870Y-72312473D01*
X96087033Y-72280155D01*
X96172051Y-72236368D01*
X96271217Y-72185294D01*
X96271218Y-72185293D01*
X96274397Y-72183656D01*
X96440133Y-72053469D01*
X96578261Y-71894290D01*
X96683797Y-71711864D01*
X96752934Y-71512772D01*
X96783175Y-71304199D01*
X96773431Y-71093670D01*
X96724053Y-70888782D01*
X96636822Y-70696928D01*
X96572117Y-70605710D01*
X96516956Y-70527948D01*
X96516955Y-70527947D01*
X96514886Y-70525030D01*
X96500253Y-70511022D01*
X96477502Y-70464887D01*
X96489728Y-70414921D01*
X96531212Y-70384504D01*
X96552255Y-70381500D01*
X96952560Y-70381500D01*
X96968386Y-70383184D01*
X96975714Y-70384762D01*
X96975718Y-70384762D01*
X96981793Y-70386070D01*
X97016006Y-70382021D01*
X97024845Y-70381500D01*
X97030040Y-70381500D01*
X97033103Y-70380990D01*
X97033106Y-70380990D01*
X97051994Y-70377847D01*
X97055499Y-70377348D01*
X97101656Y-70371885D01*
X97101658Y-70371885D01*
X97107830Y-70371154D01*
X97113437Y-70368462D01*
X97115976Y-70367724D01*
X97116275Y-70367656D01*
X97116563Y-70367538D01*
X97119060Y-70366683D01*
X97125194Y-70365662D01*
X97171612Y-70340616D01*
X97174696Y-70339045D01*
X97222239Y-70316215D01*
X97228938Y-70310585D01*
X97229200Y-70310323D01*
X97231760Y-70308163D01*
X97236889Y-70305395D01*
X97269654Y-70269949D01*
X97271702Y-70267820D01*
X97486213Y-70053309D01*
X97498595Y-70043308D01*
X97504897Y-70039239D01*
X97504898Y-70039238D01*
X97510119Y-70035867D01*
X97531451Y-70008808D01*
X97537332Y-70002190D01*
X97541002Y-69998520D01*
X97553933Y-69980426D01*
X97556059Y-69977594D01*
X97584846Y-69941078D01*
X97588693Y-69936198D01*
X97590751Y-69930335D01*
X97592027Y-69928015D01*
X97592191Y-69927754D01*
X97592317Y-69927454D01*
X97593474Y-69925092D01*
X97597087Y-69920037D01*
X97612187Y-69869545D01*
X97613271Y-69866209D01*
X97630745Y-69816451D01*
X97631500Y-69807733D01*
X97631500Y-69807361D01*
X97631783Y-69804023D01*
X97633452Y-69798441D01*
X97631558Y-69750238D01*
X97631500Y-69747286D01*
X97631500Y-66547438D01*
X97633184Y-66531611D01*
X97634762Y-66524283D01*
X97634762Y-66524281D01*
X97636070Y-66518206D01*
X97632021Y-66483992D01*
X97631500Y-66475154D01*
X97631500Y-66469960D01*
X97627848Y-66448021D01*
X97627349Y-66444517D01*
X97621884Y-66398338D01*
X97621154Y-66392169D01*
X97618465Y-66386568D01*
X97617725Y-66384022D01*
X97617659Y-66383731D01*
X97617540Y-66383441D01*
X97616683Y-66380938D01*
X97615662Y-66374806D01*
X97598357Y-66342733D01*
X97590645Y-66328440D01*
X97589037Y-66325285D01*
X97572969Y-66291825D01*
X97566215Y-66277760D01*
X97560584Y-66271062D01*
X97560326Y-66270804D01*
X97558163Y-66268241D01*
X97555395Y-66263111D01*
X97519953Y-66230349D01*
X97517824Y-66228302D01*
X97303305Y-66013782D01*
X97293306Y-66001401D01*
X97289240Y-65995104D01*
X97289238Y-65995102D01*
X97285867Y-65989881D01*
X97280986Y-65986033D01*
X97280984Y-65986031D01*
X97258813Y-65968553D01*
X97252195Y-65962672D01*
X97248520Y-65958997D01*
X97230417Y-65946061D01*
X97227581Y-65943932D01*
X97191079Y-65915155D01*
X97186198Y-65911307D01*
X97180332Y-65909247D01*
X97178023Y-65907978D01*
X97177755Y-65907809D01*
X97177463Y-65907687D01*
X97175095Y-65906527D01*
X97170037Y-65902912D01*
X97119525Y-65887806D01*
X97116189Y-65886722D01*
X97066451Y-65869255D01*
X97057733Y-65868500D01*
X97057373Y-65868500D01*
X97054026Y-65868217D01*
X97048441Y-65866547D01*
X97042230Y-65866791D01*
X97042229Y-65866791D01*
X97000213Y-65868442D01*
X96997260Y-65868500D01*
X96763247Y-65868500D01*
X96714909Y-65850907D01*
X96694791Y-65824425D01*
X96682201Y-65796733D01*
X96636822Y-65696928D01*
X96606710Y-65654477D01*
X96516956Y-65527948D01*
X96516955Y-65527947D01*
X96514886Y-65525030D01*
X96502652Y-65513318D01*
X96365231Y-65381767D01*
X96362645Y-65379291D01*
X96185592Y-65264969D01*
X95990115Y-65186190D01*
X95783268Y-65145795D01*
X95780563Y-65145663D01*
X95780557Y-65145662D01*
X95778143Y-65145544D01*
X95778128Y-65145544D01*
X95777236Y-65145500D01*
X95372594Y-65145500D01*
X95370813Y-65145670D01*
X95370811Y-65145670D01*
X95218758Y-65160177D01*
X95218754Y-65160178D01*
X95215199Y-65160517D01*
X95211771Y-65161523D01*
X95211769Y-65161523D01*
X95130022Y-65185505D01*
X95012967Y-65219845D01*
X94947649Y-65253486D01*
X94925354Y-65264969D01*
X94825603Y-65316344D01*
X94659867Y-65446531D01*
X94521739Y-65605710D01*
X94416203Y-65788136D01*
X94347066Y-65987228D01*
X94316825Y-66195801D01*
X94316990Y-66199369D01*
X94316990Y-66199371D01*
X94319160Y-66246258D01*
X94326569Y-66406330D01*
X94375947Y-66611218D01*
X94377427Y-66614473D01*
X94377428Y-66614476D01*
X94454702Y-66784430D01*
X94463178Y-66803072D01*
X94465248Y-66805990D01*
X94465249Y-66805992D01*
X94569085Y-66952373D01*
X94585114Y-66974970D01*
X94737355Y-67120709D01*
X94914408Y-67235031D01*
X95109885Y-67313810D01*
X95316732Y-67354205D01*
X95319437Y-67354337D01*
X95319443Y-67354338D01*
X95321857Y-67354456D01*
X95321872Y-67354456D01*
X95322764Y-67354500D01*
X95727406Y-67354500D01*
X95729187Y-67354330D01*
X95729189Y-67354330D01*
X95881242Y-67339823D01*
X95881246Y-67339822D01*
X95884801Y-67339483D01*
X95888229Y-67338477D01*
X95888231Y-67338477D01*
X95976870Y-67312473D01*
X96087033Y-67280155D01*
X96172786Y-67235989D01*
X96271217Y-67185294D01*
X96271218Y-67185293D01*
X96274397Y-67183656D01*
X96440133Y-67053469D01*
X96578261Y-66894290D01*
X96683797Y-66711864D01*
X96684971Y-66708484D01*
X96684973Y-66708479D01*
X96694158Y-66682031D01*
X96726634Y-66642140D01*
X96765196Y-66631500D01*
X96793300Y-66631500D01*
X96841638Y-66649093D01*
X96867358Y-66693642D01*
X96868500Y-66706700D01*
X96868500Y-68359954D01*
X96850907Y-68408292D01*
X96806358Y-68434012D01*
X96755700Y-68425079D01*
X96725308Y-68388211D01*
X96724053Y-68388782D01*
X96638305Y-68200189D01*
X96638304Y-68200186D01*
X96636822Y-68196928D01*
X96572117Y-68105710D01*
X96516956Y-68027948D01*
X96516955Y-68027947D01*
X96514886Y-68025030D01*
X96362645Y-67879291D01*
X96185592Y-67764969D01*
X95990115Y-67686190D01*
X95783268Y-67645795D01*
X95780563Y-67645663D01*
X95780557Y-67645662D01*
X95778143Y-67645544D01*
X95778128Y-67645544D01*
X95777236Y-67645500D01*
X95372594Y-67645500D01*
X95370813Y-67645670D01*
X95370811Y-67645670D01*
X95218758Y-67660177D01*
X95218754Y-67660178D01*
X95215199Y-67660517D01*
X95211771Y-67661523D01*
X95211769Y-67661523D01*
X95130022Y-67685505D01*
X95012967Y-67719845D01*
X95009780Y-67721486D01*
X95009781Y-67721486D01*
X94925354Y-67764969D01*
X94825603Y-67816344D01*
X94659867Y-67946531D01*
X94657524Y-67949231D01*
X94657521Y-67949234D01*
X94593895Y-68022557D01*
X94521739Y-68105710D01*
X94416203Y-68288136D01*
X94415029Y-68291516D01*
X94415027Y-68291521D01*
X94405842Y-68317969D01*
X94373366Y-68357860D01*
X94334804Y-68368500D01*
X93797438Y-68368500D01*
X93781611Y-68366816D01*
X93774283Y-68365238D01*
X93774281Y-68365238D01*
X93768206Y-68363930D01*
X93743820Y-68366816D01*
X93733992Y-68367979D01*
X93725154Y-68368500D01*
X93719960Y-68368500D01*
X93698021Y-68372152D01*
X93694522Y-68372650D01*
X93642169Y-68378846D01*
X93636568Y-68381535D01*
X93634022Y-68382275D01*
X93633731Y-68382341D01*
X93633441Y-68382460D01*
X93630938Y-68383317D01*
X93624806Y-68384338D01*
X93619333Y-68387291D01*
X93578440Y-68409355D01*
X93575285Y-68410963D01*
X93527760Y-68433785D01*
X93521062Y-68439416D01*
X93520804Y-68439674D01*
X93518241Y-68441837D01*
X93513111Y-68444605D01*
X93508894Y-68449167D01*
X93480349Y-68480047D01*
X93478302Y-68482176D01*
X93263782Y-68696695D01*
X93251401Y-68706694D01*
X93245104Y-68710760D01*
X93245102Y-68710762D01*
X93239881Y-68714133D01*
X93236033Y-68719014D01*
X93236031Y-68719016D01*
X93218553Y-68741187D01*
X93212672Y-68747805D01*
X93208997Y-68751480D01*
X93207190Y-68754009D01*
X93207189Y-68754010D01*
X93196061Y-68769583D01*
X93193933Y-68772418D01*
X93161307Y-68813802D01*
X93159247Y-68819668D01*
X93157978Y-68821977D01*
X93157809Y-68822245D01*
X93157687Y-68822537D01*
X93156527Y-68824905D01*
X93152912Y-68829963D01*
X93151131Y-68835919D01*
X93137809Y-68880464D01*
X93136722Y-68883811D01*
X93119255Y-68933549D01*
X93118500Y-68942267D01*
X93118500Y-68942627D01*
X93118217Y-68945974D01*
X93116547Y-68951559D01*
X93116791Y-68957770D01*
X93116791Y-68957771D01*
X93118442Y-68999787D01*
X93118500Y-69002740D01*
X93118500Y-69331785D01*
X93100907Y-69380123D01*
X93056358Y-69405843D01*
X93011281Y-69399828D01*
X92958079Y-69374793D01*
X92953797Y-69372778D01*
X92949149Y-69371891D01*
X92949148Y-69371891D01*
X92796060Y-69342688D01*
X92791410Y-69341801D01*
X92786688Y-69342098D01*
X92786687Y-69342098D01*
X92631139Y-69351885D01*
X92631137Y-69351885D01*
X92626422Y-69352182D01*
X92565764Y-69371891D01*
X92473703Y-69401803D01*
X92473699Y-69401805D01*
X92469199Y-69403267D01*
X92329619Y-69491847D01*
X92216453Y-69612356D01*
X92136812Y-69757222D01*
X92095700Y-69917343D01*
X92095700Y-70082657D01*
X92136812Y-70242778D01*
X92216453Y-70387644D01*
X92329619Y-70508153D01*
X92333617Y-70510690D01*
X92337260Y-70513704D01*
X92336568Y-70514540D01*
X92364979Y-70551428D01*
X92368500Y-70574169D01*
X92368500Y-72925831D01*
X92350907Y-72974169D01*
X92337173Y-72986191D01*
X92337260Y-72986296D01*
X92333617Y-72989310D01*
X92329619Y-72991847D01*
X92216453Y-73112356D01*
X92136812Y-73257222D01*
X92135635Y-73261807D01*
X92135634Y-73261809D01*
X92116256Y-73337283D01*
X92095700Y-73417343D01*
X92095700Y-73582657D01*
X92136812Y-73742778D01*
X92216453Y-73887644D01*
X92219695Y-73891096D01*
X92322815Y-74000907D01*
X92329619Y-74008153D01*
X92469199Y-74096733D01*
X92473699Y-74098195D01*
X92473703Y-74098197D01*
X92530229Y-74116563D01*
X92626422Y-74147818D01*
X92631137Y-74148115D01*
X92631139Y-74148115D01*
X92786687Y-74157902D01*
X92786688Y-74157902D01*
X92791410Y-74158199D01*
X92827031Y-74151404D01*
X92949148Y-74128109D01*
X92949149Y-74128109D01*
X92953797Y-74127222D01*
X92984717Y-74112672D01*
X93011281Y-74100172D01*
X93062509Y-74095510D01*
X93104749Y-74124867D01*
X93118500Y-74168215D01*
X93118500Y-74560829D01*
X93100907Y-74609167D01*
X93096474Y-74614003D01*
X91024615Y-76685862D01*
X90977995Y-76707602D01*
X90928308Y-76694288D01*
X90898803Y-76652151D01*
X90896834Y-76623263D01*
X90898224Y-76612264D01*
X90909500Y-76523000D01*
X90897280Y-76426267D01*
X90889374Y-76363681D01*
X90889373Y-76363679D01*
X90888781Y-76358989D01*
X90883662Y-76346058D01*
X90829666Y-76209682D01*
X90829665Y-76209680D01*
X90827924Y-76205283D01*
X90808159Y-76178078D01*
X90733539Y-76075373D01*
X90730755Y-76071541D01*
X90603378Y-75966166D01*
X90453797Y-75895778D01*
X90449149Y-75894891D01*
X90449148Y-75894891D01*
X90296060Y-75865688D01*
X90291410Y-75864801D01*
X90286688Y-75865098D01*
X90286687Y-75865098D01*
X90131139Y-75874885D01*
X90131137Y-75874885D01*
X90126422Y-75875182D01*
X90067648Y-75894279D01*
X89973703Y-75924803D01*
X89973699Y-75924805D01*
X89969199Y-75926267D01*
X89829619Y-76014847D01*
X89826379Y-76018297D01*
X89826378Y-76018298D01*
X89776376Y-76071545D01*
X89747053Y-76102771D01*
X89732960Y-76117778D01*
X89687046Y-76140971D01*
X89678142Y-76141500D01*
X88912171Y-76141500D01*
X88863833Y-76123907D01*
X88858997Y-76119474D01*
X86903308Y-74163785D01*
X86893308Y-74151404D01*
X86889240Y-74145105D01*
X86885867Y-74139881D01*
X86880986Y-74136033D01*
X86880984Y-74136031D01*
X86858813Y-74118553D01*
X86852195Y-74112672D01*
X86848520Y-74108997D01*
X86830417Y-74096061D01*
X86827581Y-74093932D01*
X86791079Y-74065155D01*
X86786198Y-74061307D01*
X86780332Y-74059247D01*
X86778023Y-74057978D01*
X86777755Y-74057809D01*
X86777463Y-74057687D01*
X86775095Y-74056527D01*
X86770037Y-74052912D01*
X86719525Y-74037806D01*
X86716189Y-74036722D01*
X86666451Y-74019255D01*
X86657733Y-74018500D01*
X86657373Y-74018500D01*
X86654026Y-74018217D01*
X86648441Y-74016547D01*
X86642230Y-74016791D01*
X86642229Y-74016791D01*
X86600213Y-74018442D01*
X86597260Y-74018500D01*
X78989171Y-74018500D01*
X78940833Y-74000907D01*
X78935996Y-73996474D01*
X78803525Y-73864002D01*
X78781786Y-73817382D01*
X78781500Y-73810828D01*
X78781500Y-67968957D01*
X78799093Y-67920619D01*
X78808765Y-67911015D01*
X78849459Y-67877349D01*
X78880755Y-67851459D01*
X78977924Y-67717717D01*
X79000173Y-67661523D01*
X79037040Y-67568409D01*
X79037041Y-67568407D01*
X79038781Y-67564011D01*
X79059500Y-67400000D01*
X79051728Y-67338477D01*
X79039374Y-67240681D01*
X79039373Y-67240679D01*
X79038781Y-67235989D01*
X79018710Y-67185294D01*
X78979666Y-67086682D01*
X78979665Y-67086680D01*
X78977924Y-67082283D01*
X78958595Y-67055678D01*
X78883539Y-66952373D01*
X78880755Y-66948541D01*
X78753378Y-66843166D01*
X78603797Y-66772778D01*
X78599149Y-66771891D01*
X78599148Y-66771891D01*
X78446060Y-66742688D01*
X78441410Y-66741801D01*
X78436688Y-66742098D01*
X78436687Y-66742098D01*
X78281139Y-66751885D01*
X78281137Y-66751885D01*
X78276422Y-66752182D01*
X78119199Y-66803267D01*
X78115209Y-66805799D01*
X78115205Y-66805801D01*
X78096995Y-66817358D01*
X78046755Y-66828404D01*
X78001169Y-66804573D01*
X77981500Y-66753865D01*
X77981500Y-65656700D01*
X77999093Y-65608362D01*
X78043642Y-65582642D01*
X78056700Y-65581500D01*
X78828142Y-65581500D01*
X78876480Y-65599093D01*
X78882959Y-65605221D01*
X78904476Y-65628134D01*
X78926380Y-65651459D01*
X78979619Y-65708153D01*
X79119199Y-65796733D01*
X79123699Y-65798195D01*
X79123703Y-65798197D01*
X79201328Y-65823419D01*
X79276422Y-65847818D01*
X79281137Y-65848115D01*
X79281139Y-65848115D01*
X79436687Y-65857902D01*
X79436688Y-65857902D01*
X79441410Y-65858199D01*
X79479636Y-65850907D01*
X79599148Y-65828109D01*
X79599149Y-65828109D01*
X79603797Y-65827222D01*
X79753378Y-65756834D01*
X79880755Y-65651459D01*
X79977924Y-65517717D01*
X80006109Y-65446531D01*
X80037040Y-65368409D01*
X80037041Y-65368407D01*
X80038781Y-65364011D01*
X80039570Y-65357771D01*
X80058907Y-65204694D01*
X80059500Y-65200000D01*
X80052718Y-65146315D01*
X80039374Y-65040681D01*
X80039373Y-65040679D01*
X80038781Y-65035989D01*
X79984610Y-64899168D01*
X79979666Y-64886682D01*
X79979665Y-64886680D01*
X79977924Y-64882283D01*
X79957301Y-64853897D01*
X79883539Y-64752373D01*
X79880755Y-64748541D01*
X79753378Y-64643166D01*
X79603797Y-64572778D01*
X79599149Y-64571891D01*
X79599148Y-64571891D01*
X79446060Y-64542688D01*
X79441410Y-64541801D01*
X79436688Y-64542098D01*
X79436687Y-64542098D01*
X79281139Y-64551885D01*
X79281137Y-64551885D01*
X79276422Y-64552182D01*
X79227758Y-64567994D01*
X79123703Y-64601803D01*
X79123699Y-64601805D01*
X79119199Y-64603267D01*
X78979619Y-64691847D01*
X78976379Y-64695297D01*
X78976378Y-64695298D01*
X78882960Y-64794778D01*
X78837046Y-64817971D01*
X78828142Y-64818500D01*
X77847444Y-64818500D01*
X77831617Y-64816816D01*
X77824284Y-64815237D01*
X77824282Y-64815237D01*
X77818207Y-64813929D01*
X77784056Y-64817971D01*
X77783988Y-64817979D01*
X77775149Y-64818500D01*
X77769960Y-64818500D01*
X77748027Y-64822151D01*
X77744528Y-64822649D01*
X77734078Y-64823886D01*
X77698343Y-64828115D01*
X77698341Y-64828116D01*
X77692170Y-64828846D01*
X77686565Y-64831537D01*
X77684023Y-64832276D01*
X77683722Y-64832345D01*
X77683435Y-64832462D01*
X77680935Y-64833318D01*
X77674806Y-64834338D01*
X77669342Y-64837286D01*
X77669337Y-64837288D01*
X77628426Y-64859363D01*
X77625268Y-64860972D01*
X77582023Y-64881737D01*
X77582020Y-64881739D01*
X77577761Y-64883784D01*
X77574142Y-64886826D01*
X77572302Y-64888372D01*
X77572293Y-64888380D01*
X77571062Y-64889415D01*
X77570800Y-64889677D01*
X77568240Y-64891837D01*
X77563111Y-64894605D01*
X77558893Y-64899168D01*
X77530347Y-64930049D01*
X77528300Y-64932177D01*
X77363785Y-65096692D01*
X77351404Y-65106692D01*
X77346728Y-65109712D01*
X77339881Y-65114133D01*
X77336033Y-65119014D01*
X77336031Y-65119016D01*
X77318553Y-65141187D01*
X77312672Y-65147805D01*
X77308997Y-65151480D01*
X77307190Y-65154009D01*
X77307189Y-65154010D01*
X77296061Y-65169583D01*
X77293933Y-65172418D01*
X77261307Y-65213802D01*
X77259247Y-65219668D01*
X77257978Y-65221977D01*
X77257809Y-65222245D01*
X77257687Y-65222537D01*
X77256527Y-65224905D01*
X77252912Y-65229963D01*
X77251131Y-65235919D01*
X77237809Y-65280464D01*
X77236722Y-65283811D01*
X77219255Y-65333549D01*
X77218500Y-65342267D01*
X77218500Y-65342627D01*
X77218217Y-65345974D01*
X77216547Y-65351559D01*
X77216791Y-65357770D01*
X77216791Y-65357771D01*
X77218442Y-65399787D01*
X77218500Y-65402740D01*
X77218500Y-73952560D01*
X77216816Y-73968386D01*
X77215238Y-73975714D01*
X77215238Y-73975718D01*
X77213930Y-73981793D01*
X77216192Y-74000907D01*
X77217979Y-74016007D01*
X77218500Y-74024845D01*
X77218500Y-74030040D01*
X77219010Y-74033103D01*
X77219010Y-74033106D01*
X77222153Y-74051994D01*
X77222652Y-74055499D01*
X77228115Y-74101656D01*
X77228846Y-74107830D01*
X77231538Y-74113437D01*
X77232276Y-74115976D01*
X77232344Y-74116275D01*
X77232462Y-74116563D01*
X77233317Y-74119060D01*
X77234338Y-74125194D01*
X77259384Y-74171612D01*
X77260955Y-74174696D01*
X77283785Y-74222239D01*
X77289415Y-74228938D01*
X77289682Y-74229205D01*
X77291837Y-74231760D01*
X77294605Y-74236889D01*
X77299166Y-74241105D01*
X77330049Y-74269653D01*
X77332177Y-74271700D01*
X78150712Y-75090235D01*
X78160712Y-75102616D01*
X78161376Y-75103644D01*
X78168153Y-75114139D01*
X78173034Y-75117987D01*
X78173036Y-75117989D01*
X78195207Y-75135467D01*
X78201825Y-75141348D01*
X78205500Y-75145023D01*
X78208026Y-75146828D01*
X78208027Y-75146829D01*
X78223605Y-75157962D01*
X78226437Y-75160088D01*
X78267822Y-75192713D01*
X78273682Y-75194771D01*
X78276007Y-75196049D01*
X78276265Y-75196211D01*
X78276560Y-75196335D01*
X78278930Y-75197496D01*
X78283984Y-75201108D01*
X78289936Y-75202888D01*
X78289938Y-75202889D01*
X78312164Y-75209535D01*
X78334483Y-75216210D01*
X78337810Y-75217291D01*
X78387569Y-75234765D01*
X78392278Y-75235173D01*
X78392279Y-75235173D01*
X78393561Y-75235284D01*
X78396287Y-75235520D01*
X78396647Y-75235520D01*
X78399994Y-75235803D01*
X78405579Y-75237473D01*
X78411790Y-75237229D01*
X78411791Y-75237229D01*
X78453807Y-75235578D01*
X78456760Y-75235520D01*
X80324129Y-75235520D01*
X80372467Y-75253113D01*
X80398187Y-75297662D01*
X80389254Y-75348320D01*
X80368332Y-75371557D01*
X80322286Y-75405011D01*
X80319268Y-75408659D01*
X80319267Y-75408660D01*
X80223601Y-75524300D01*
X80220585Y-75527946D01*
X80152653Y-75672311D01*
X80126500Y-75809408D01*
X80126500Y-78170579D01*
X80141497Y-78289291D01*
X80143237Y-78293687D01*
X80143238Y-78293689D01*
X80174640Y-78373000D01*
X80200231Y-78437636D01*
X80203011Y-78441463D01*
X80203012Y-78441464D01*
X80222125Y-78467771D01*
X80294011Y-78566714D01*
X80297659Y-78569732D01*
X80297660Y-78569733D01*
X80413300Y-78665399D01*
X80416946Y-78668415D01*
X80561311Y-78736347D01*
X80698408Y-78762500D01*
X81551579Y-78762500D01*
X81556835Y-78761836D01*
X81665599Y-78748096D01*
X81665601Y-78748095D01*
X81670291Y-78747503D01*
X81674687Y-78745763D01*
X81674689Y-78745762D01*
X81814237Y-78690511D01*
X81814239Y-78690510D01*
X81818636Y-78688769D01*
X81947714Y-78594989D01*
X81951320Y-78590631D01*
X82046399Y-78475700D01*
X82046400Y-78475699D01*
X82049415Y-78472054D01*
X82117347Y-78327689D01*
X82143500Y-78190592D01*
X82143500Y-75829421D01*
X82128503Y-75710709D01*
X82113300Y-75672311D01*
X82071511Y-75566763D01*
X82071510Y-75566761D01*
X82069769Y-75562364D01*
X81975989Y-75433286D01*
X81897873Y-75368662D01*
X81871842Y-75324295D01*
X81880421Y-75273576D01*
X81919594Y-75240236D01*
X81945807Y-75235520D01*
X85836715Y-75235520D01*
X85885053Y-75253113D01*
X85889889Y-75257546D01*
X86509716Y-75877373D01*
X86531456Y-75923993D01*
X86531313Y-75931410D01*
X86531633Y-75931410D01*
X86531633Y-76096724D01*
X86544732Y-76147740D01*
X86570924Y-76249751D01*
X86572745Y-76256845D01*
X86652386Y-76401711D01*
X86765552Y-76522220D01*
X86905132Y-76610800D01*
X86909632Y-76612262D01*
X86909636Y-76612264D01*
X86980707Y-76635356D01*
X87062355Y-76661885D01*
X87067070Y-76662182D01*
X87067072Y-76662182D01*
X87222620Y-76671969D01*
X87222621Y-76671969D01*
X87227343Y-76672266D01*
X87271708Y-76663803D01*
X87314820Y-76655579D01*
X87365598Y-76663803D01*
X87399210Y-76702743D01*
X87399928Y-76754178D01*
X87394813Y-76765668D01*
X87386812Y-76780222D01*
X87363218Y-76872117D01*
X87334158Y-76914557D01*
X87284613Y-76928390D01*
X87258363Y-76921455D01*
X87208079Y-76897793D01*
X87203797Y-76895778D01*
X87199149Y-76894891D01*
X87199148Y-76894891D01*
X87046060Y-76865688D01*
X87041410Y-76864801D01*
X87036688Y-76865098D01*
X87036687Y-76865098D01*
X86881139Y-76874885D01*
X86881137Y-76874885D01*
X86876422Y-76875182D01*
X86815764Y-76894891D01*
X86723703Y-76924803D01*
X86723699Y-76924805D01*
X86719199Y-76926267D01*
X86579619Y-77014847D01*
X86576379Y-77018297D01*
X86576378Y-77018298D01*
X86541234Y-77055723D01*
X86466453Y-77135356D01*
X86386812Y-77280222D01*
X86385635Y-77284807D01*
X86385634Y-77284809D01*
X86374180Y-77329421D01*
X86345700Y-77440343D01*
X86345700Y-77470794D01*
X86328107Y-77519132D01*
X86283558Y-77544852D01*
X86256410Y-77544662D01*
X86246062Y-77542688D01*
X86246059Y-77542688D01*
X86241410Y-77541801D01*
X86236688Y-77542098D01*
X86236687Y-77542098D01*
X86081139Y-77551885D01*
X86081137Y-77551885D01*
X86076422Y-77552182D01*
X86001328Y-77576581D01*
X85923703Y-77601803D01*
X85923699Y-77601805D01*
X85919199Y-77603267D01*
X85779619Y-77691847D01*
X85666453Y-77812356D01*
X85586812Y-77957222D01*
X85545700Y-78117343D01*
X85545700Y-78282657D01*
X85586812Y-78442778D01*
X85666453Y-78587644D01*
X85709218Y-78633184D01*
X85758805Y-78685988D01*
X85779619Y-78708153D01*
X85919199Y-78796733D01*
X85923699Y-78798195D01*
X85923703Y-78798197D01*
X86001328Y-78823419D01*
X86076422Y-78847818D01*
X86081137Y-78848115D01*
X86081139Y-78848115D01*
X86236687Y-78857902D01*
X86236688Y-78857902D01*
X86241410Y-78858199D01*
X86246060Y-78857312D01*
X86399148Y-78828109D01*
X86399149Y-78828109D01*
X86403797Y-78827222D01*
X86553378Y-78756834D01*
X86563941Y-78748096D01*
X86680755Y-78651459D01*
X86681670Y-78652565D01*
X86722317Y-78632030D01*
X86731226Y-78631500D01*
X91452560Y-78631500D01*
X91468386Y-78633184D01*
X91475714Y-78634762D01*
X91475718Y-78634762D01*
X91481793Y-78636070D01*
X91516006Y-78632021D01*
X91524845Y-78631500D01*
X91530040Y-78631500D01*
X91533103Y-78630990D01*
X91533106Y-78630990D01*
X91551994Y-78627847D01*
X91555499Y-78627348D01*
X91601656Y-78621885D01*
X91601658Y-78621885D01*
X91607830Y-78621154D01*
X91613437Y-78618462D01*
X91615976Y-78617724D01*
X91616275Y-78617656D01*
X91616563Y-78617538D01*
X91619060Y-78616683D01*
X91625194Y-78615662D01*
X91671612Y-78590616D01*
X91674696Y-78589045D01*
X91722239Y-78566215D01*
X91728938Y-78560585D01*
X91729205Y-78560318D01*
X91731760Y-78558163D01*
X91736889Y-78555395D01*
X91769653Y-78519951D01*
X91771700Y-78517823D01*
X93867626Y-76421897D01*
X93914246Y-76400157D01*
X93963933Y-76413471D01*
X93993438Y-76455608D01*
X93996000Y-76475071D01*
X93996000Y-76718852D01*
X93996241Y-76729925D01*
X93996527Y-76736479D01*
X94020085Y-76832754D01*
X94041825Y-76879374D01*
X94043705Y-76882058D01*
X94043705Y-76882059D01*
X94090543Y-76948950D01*
X94090547Y-76948955D01*
X94092421Y-76951631D01*
X94548369Y-77407579D01*
X94556340Y-77415211D01*
X94561176Y-77419644D01*
X94645939Y-77471090D01*
X94694277Y-77488683D01*
X94697508Y-77489253D01*
X94697509Y-77489253D01*
X94777918Y-77503431D01*
X94777924Y-77503432D01*
X94781148Y-77504000D01*
X104468852Y-77504000D01*
X104469207Y-77503992D01*
X104469233Y-77503992D01*
X104474171Y-77503884D01*
X104479925Y-77503759D01*
X104480298Y-77503743D01*
X104480321Y-77503742D01*
X104482792Y-77503634D01*
X104482793Y-77503634D01*
X104486479Y-77503473D01*
X104546922Y-77488683D01*
X104579167Y-77480793D01*
X104579170Y-77480792D01*
X104582754Y-77479915D01*
X104629374Y-77458175D01*
X104632059Y-77456295D01*
X104698950Y-77409457D01*
X104698955Y-77409453D01*
X104701631Y-77407579D01*
X104867626Y-77241584D01*
X104914246Y-77219844D01*
X104963933Y-77233158D01*
X104993438Y-77275295D01*
X104996000Y-77294758D01*
X104996000Y-80170800D01*
X104978407Y-80219138D01*
X104933858Y-80244858D01*
X104920800Y-80246000D01*
X76891306Y-80246000D01*
X76842968Y-80228407D01*
X76817248Y-80183858D01*
X76826181Y-80133200D01*
X76847102Y-80109964D01*
X76867714Y-80094989D01*
X76871037Y-80090973D01*
X76966399Y-79975700D01*
X76966400Y-79975699D01*
X76969415Y-79972054D01*
X77037347Y-79827689D01*
X77063500Y-79690592D01*
X77063500Y-77329421D01*
X77055745Y-77268036D01*
X77049096Y-77215401D01*
X77049095Y-77215399D01*
X77048503Y-77210709D01*
X77031605Y-77168030D01*
X76991511Y-77066763D01*
X76991510Y-77066761D01*
X76989769Y-77062364D01*
X76954794Y-77014224D01*
X76898773Y-76937118D01*
X76895989Y-76933286D01*
X76890573Y-76928805D01*
X76776700Y-76834601D01*
X76776699Y-76834600D01*
X76773054Y-76831585D01*
X76628689Y-76763653D01*
X76491592Y-76737500D01*
X75638421Y-76737500D01*
X75636070Y-76737797D01*
X75524401Y-76751904D01*
X75524399Y-76751905D01*
X75519709Y-76752497D01*
X75515313Y-76754237D01*
X75515311Y-76754238D01*
X75375763Y-76809489D01*
X75375761Y-76809490D01*
X75371364Y-76811231D01*
X75242286Y-76905011D01*
X75239268Y-76908659D01*
X75239267Y-76908660D01*
X75143601Y-77024300D01*
X75140585Y-77027946D01*
X75072653Y-77172311D01*
X75046500Y-77309408D01*
X75046500Y-79670579D01*
X75061497Y-79789291D01*
X75120231Y-79937636D01*
X75214011Y-80066714D01*
X75217660Y-80069733D01*
X75217664Y-80069737D01*
X75269788Y-80112858D01*
X75295819Y-80157225D01*
X75287240Y-80207945D01*
X75248066Y-80241284D01*
X75221854Y-80246000D01*
X74351306Y-80246000D01*
X74302968Y-80228407D01*
X74277248Y-80183858D01*
X74286181Y-80133200D01*
X74307102Y-80109964D01*
X74327714Y-80094989D01*
X74331037Y-80090973D01*
X74426399Y-79975700D01*
X74426400Y-79975699D01*
X74429415Y-79972054D01*
X74497347Y-79827689D01*
X74523500Y-79690592D01*
X74523500Y-77329421D01*
X74515745Y-77268036D01*
X74509096Y-77215401D01*
X74509095Y-77215399D01*
X74508503Y-77210709D01*
X74491605Y-77168030D01*
X74451511Y-77066763D01*
X74451510Y-77066761D01*
X74449769Y-77062364D01*
X74414794Y-77014224D01*
X74358773Y-76937118D01*
X74355989Y-76933286D01*
X74350573Y-76928805D01*
X74236700Y-76834601D01*
X74236699Y-76834600D01*
X74233054Y-76831585D01*
X74088689Y-76763653D01*
X73951592Y-76737500D01*
X73098421Y-76737500D01*
X73096070Y-76737797D01*
X72984401Y-76751904D01*
X72984399Y-76751905D01*
X72979709Y-76752497D01*
X72975313Y-76754237D01*
X72975311Y-76754238D01*
X72835763Y-76809489D01*
X72835761Y-76809490D01*
X72831364Y-76811231D01*
X72702286Y-76905011D01*
X72699268Y-76908659D01*
X72699267Y-76908660D01*
X72603601Y-77024300D01*
X72600585Y-77027946D01*
X72532653Y-77172311D01*
X72506500Y-77309408D01*
X72506500Y-79670579D01*
X72521497Y-79789291D01*
X72580231Y-79937636D01*
X72674011Y-80066714D01*
X72677660Y-80069733D01*
X72677664Y-80069737D01*
X72729788Y-80112858D01*
X72755819Y-80157225D01*
X72747240Y-80207945D01*
X72708066Y-80241284D01*
X72681854Y-80246000D01*
X71811306Y-80246000D01*
X71762968Y-80228407D01*
X71737248Y-80183858D01*
X71746181Y-80133200D01*
X71767102Y-80109964D01*
X71787714Y-80094989D01*
X71791037Y-80090973D01*
X71886399Y-79975700D01*
X71886400Y-79975699D01*
X71889415Y-79972054D01*
X71957347Y-79827689D01*
X71983500Y-79690592D01*
X71983500Y-77329421D01*
X71975745Y-77268036D01*
X71969096Y-77215401D01*
X71969095Y-77215399D01*
X71968503Y-77210709D01*
X71951605Y-77168030D01*
X71911511Y-77066763D01*
X71911510Y-77066761D01*
X71909769Y-77062364D01*
X71874794Y-77014224D01*
X71818773Y-76937118D01*
X71815989Y-76933286D01*
X71810573Y-76928805D01*
X71696700Y-76834601D01*
X71696699Y-76834600D01*
X71693054Y-76831585D01*
X71548689Y-76763653D01*
X71411592Y-76737500D01*
X70558421Y-76737500D01*
X70556070Y-76737797D01*
X70444401Y-76751904D01*
X70444399Y-76751905D01*
X70439709Y-76752497D01*
X70435313Y-76754237D01*
X70435311Y-76754238D01*
X70295763Y-76809489D01*
X70295761Y-76809490D01*
X70291364Y-76811231D01*
X70162286Y-76905011D01*
X70159268Y-76908659D01*
X70159267Y-76908660D01*
X70063601Y-77024300D01*
X70060585Y-77027946D01*
X69992653Y-77172311D01*
X69966500Y-77309408D01*
X69966500Y-79670579D01*
X69981497Y-79789291D01*
X70040231Y-79937636D01*
X70134011Y-80066714D01*
X70137660Y-80069733D01*
X70137664Y-80069737D01*
X70189788Y-80112858D01*
X70215819Y-80157225D01*
X70207240Y-80207945D01*
X70168066Y-80241284D01*
X70141854Y-80246000D01*
X69271306Y-80246000D01*
X69222968Y-80228407D01*
X69197248Y-80183858D01*
X69206181Y-80133200D01*
X69227102Y-80109964D01*
X69247714Y-80094989D01*
X69251037Y-80090973D01*
X69346399Y-79975700D01*
X69346400Y-79975699D01*
X69349415Y-79972054D01*
X69417347Y-79827689D01*
X69443500Y-79690592D01*
X69443500Y-77329421D01*
X69435745Y-77268036D01*
X69429096Y-77215401D01*
X69429095Y-77215399D01*
X69428503Y-77210709D01*
X69411605Y-77168030D01*
X69371511Y-77066763D01*
X69371510Y-77066761D01*
X69369769Y-77062364D01*
X69334794Y-77014224D01*
X69278773Y-76937118D01*
X69275989Y-76933286D01*
X69270573Y-76928805D01*
X69156700Y-76834601D01*
X69156699Y-76834600D01*
X69153054Y-76831585D01*
X69008689Y-76763653D01*
X68871592Y-76737500D01*
X68018421Y-76737500D01*
X68016070Y-76737797D01*
X67904401Y-76751904D01*
X67904399Y-76751905D01*
X67899709Y-76752497D01*
X67895313Y-76754237D01*
X67895311Y-76754238D01*
X67755763Y-76809489D01*
X67755761Y-76809490D01*
X67751364Y-76811231D01*
X67622286Y-76905011D01*
X67619268Y-76908659D01*
X67619267Y-76908660D01*
X67523601Y-77024300D01*
X67520585Y-77027946D01*
X67452653Y-77172311D01*
X67426500Y-77309408D01*
X67426500Y-79670579D01*
X67441497Y-79789291D01*
X67500231Y-79937636D01*
X67594011Y-80066714D01*
X67597660Y-80069733D01*
X67597664Y-80069737D01*
X67649788Y-80112858D01*
X67675819Y-80157225D01*
X67667240Y-80207945D01*
X67628066Y-80241284D01*
X67601854Y-80246000D01*
X66731306Y-80246000D01*
X66682968Y-80228407D01*
X66657248Y-80183858D01*
X66666181Y-80133200D01*
X66687102Y-80109964D01*
X66707714Y-80094989D01*
X66711037Y-80090973D01*
X66806399Y-79975700D01*
X66806400Y-79975699D01*
X66809415Y-79972054D01*
X66877347Y-79827689D01*
X66903500Y-79690592D01*
X66903500Y-77329421D01*
X66895745Y-77268036D01*
X66889096Y-77215401D01*
X66889095Y-77215399D01*
X66888503Y-77210709D01*
X66871605Y-77168030D01*
X66831511Y-77066763D01*
X66831510Y-77066761D01*
X66829769Y-77062364D01*
X66794794Y-77014224D01*
X66738773Y-76937118D01*
X66735989Y-76933286D01*
X66730573Y-76928805D01*
X66616700Y-76834601D01*
X66616699Y-76834600D01*
X66613054Y-76831585D01*
X66468689Y-76763653D01*
X66337609Y-76738648D01*
X66293424Y-76712309D01*
X66276500Y-76664780D01*
X66276500Y-76473254D01*
X66294093Y-76424916D01*
X66337609Y-76399386D01*
X66449148Y-76378109D01*
X66449149Y-76378109D01*
X66453797Y-76377222D01*
X66603378Y-76306834D01*
X66730755Y-76201459D01*
X66787100Y-76123907D01*
X66825143Y-76071545D01*
X66825144Y-76071544D01*
X66827924Y-76067717D01*
X66829666Y-76063318D01*
X66887040Y-75918409D01*
X66887041Y-75918407D01*
X66888781Y-75914011D01*
X66891085Y-75895778D01*
X66908907Y-75754694D01*
X66909500Y-75750000D01*
X66905129Y-75715401D01*
X66889374Y-75590681D01*
X66889373Y-75590679D01*
X66888781Y-75585989D01*
X66864357Y-75524300D01*
X66829666Y-75436682D01*
X66829665Y-75436680D01*
X66827924Y-75432283D01*
X66781702Y-75368663D01*
X66733539Y-75302373D01*
X66730755Y-75298541D01*
X66603378Y-75193166D01*
X66453797Y-75122778D01*
X66449149Y-75121891D01*
X66449148Y-75121891D01*
X66296060Y-75092688D01*
X66291410Y-75091801D01*
X66286688Y-75092098D01*
X66286687Y-75092098D01*
X66131139Y-75101885D01*
X66131137Y-75101885D01*
X66126422Y-75102182D01*
X66065764Y-75121891D01*
X65973703Y-75151803D01*
X65973699Y-75151805D01*
X65969199Y-75153267D01*
X65829619Y-75241847D01*
X65826379Y-75245297D01*
X65826378Y-75245298D01*
X65809142Y-75263653D01*
X65716453Y-75362356D01*
X65636812Y-75507222D01*
X65635635Y-75511807D01*
X65635634Y-75511809D01*
X65617717Y-75581591D01*
X65595700Y-75667343D01*
X65595700Y-75832657D01*
X65595883Y-75833369D01*
X65584806Y-75882103D01*
X65580654Y-75887919D01*
X65556307Y-75918802D01*
X65554247Y-75924668D01*
X65552978Y-75926977D01*
X65552809Y-75927245D01*
X65552687Y-75927537D01*
X65551527Y-75929905D01*
X65547912Y-75934963D01*
X65535950Y-75974963D01*
X65532809Y-75985464D01*
X65531722Y-75988811D01*
X65514255Y-76038549D01*
X65513500Y-76047267D01*
X65513500Y-76047627D01*
X65513217Y-76050974D01*
X65511547Y-76056559D01*
X65511791Y-76062770D01*
X65511791Y-76062771D01*
X65513442Y-76104787D01*
X65513500Y-76107740D01*
X65513500Y-76666771D01*
X65495907Y-76715109D01*
X65447725Y-76741378D01*
X65417521Y-76745194D01*
X65364401Y-76751904D01*
X65364399Y-76751905D01*
X65359709Y-76752497D01*
X65355313Y-76754237D01*
X65355311Y-76754238D01*
X65215763Y-76809489D01*
X65215761Y-76809490D01*
X65211364Y-76811231D01*
X65082286Y-76905011D01*
X65079268Y-76908659D01*
X65079267Y-76908660D01*
X64983601Y-77024300D01*
X64980585Y-77027946D01*
X64912653Y-77172311D01*
X64886500Y-77309408D01*
X64886500Y-79670579D01*
X64901497Y-79789291D01*
X64960231Y-79937636D01*
X65054011Y-80066714D01*
X65057660Y-80069733D01*
X65057664Y-80069737D01*
X65109788Y-80112858D01*
X65135819Y-80157225D01*
X65127240Y-80207945D01*
X65088066Y-80241284D01*
X65061854Y-80246000D01*
X64191306Y-80246000D01*
X64142968Y-80228407D01*
X64117248Y-80183858D01*
X64126181Y-80133200D01*
X64147102Y-80109964D01*
X64167714Y-80094989D01*
X64171037Y-80090973D01*
X64266399Y-79975700D01*
X64266400Y-79975699D01*
X64269415Y-79972054D01*
X64337347Y-79827689D01*
X64363500Y-79690592D01*
X64363500Y-77329421D01*
X64355745Y-77268036D01*
X64349096Y-77215401D01*
X64349095Y-77215399D01*
X64348503Y-77210709D01*
X64331605Y-77168030D01*
X64291511Y-77066763D01*
X64291510Y-77066761D01*
X64289769Y-77062364D01*
X64254794Y-77014224D01*
X64198773Y-76937118D01*
X64195989Y-76933286D01*
X64190573Y-76928805D01*
X64076700Y-76834601D01*
X64076699Y-76834600D01*
X64073054Y-76831585D01*
X63928689Y-76763653D01*
X63797609Y-76738648D01*
X63753424Y-76712309D01*
X63736500Y-76664780D01*
X63736500Y-76480884D01*
X63754093Y-76432546D01*
X63797608Y-76407017D01*
X63911932Y-76385208D01*
X63949148Y-76378109D01*
X63949149Y-76378109D01*
X63953797Y-76377222D01*
X64103378Y-76306834D01*
X64230755Y-76201459D01*
X64287100Y-76123907D01*
X64325143Y-76071545D01*
X64325144Y-76071544D01*
X64327924Y-76067717D01*
X64329666Y-76063318D01*
X64387040Y-75918409D01*
X64387041Y-75918407D01*
X64388781Y-75914011D01*
X64391085Y-75895778D01*
X64408907Y-75754694D01*
X64409500Y-75750000D01*
X64405129Y-75715401D01*
X64389374Y-75590681D01*
X64389373Y-75590679D01*
X64388781Y-75585989D01*
X64364357Y-75524300D01*
X64329666Y-75436682D01*
X64329665Y-75436680D01*
X64327924Y-75432283D01*
X64281702Y-75368663D01*
X64233539Y-75302373D01*
X64230755Y-75298541D01*
X64103378Y-75193166D01*
X63953797Y-75122778D01*
X63949149Y-75121891D01*
X63949148Y-75121891D01*
X63796060Y-75092688D01*
X63791410Y-75091801D01*
X63786688Y-75092098D01*
X63786687Y-75092098D01*
X63631139Y-75101885D01*
X63631137Y-75101885D01*
X63626422Y-75102182D01*
X63565764Y-75121891D01*
X63473703Y-75151803D01*
X63473699Y-75151805D01*
X63469199Y-75153267D01*
X63329619Y-75241847D01*
X63326379Y-75245297D01*
X63326378Y-75245298D01*
X63309142Y-75263653D01*
X63216453Y-75362356D01*
X63136812Y-75507222D01*
X63135635Y-75511807D01*
X63135634Y-75511809D01*
X63117717Y-75581591D01*
X63095700Y-75667343D01*
X63095700Y-75832018D01*
X63079555Y-75878574D01*
X63073547Y-75886194D01*
X63067672Y-75892805D01*
X63063997Y-75896480D01*
X63062190Y-75899009D01*
X63062189Y-75899010D01*
X63051061Y-75914583D01*
X63048933Y-75917418D01*
X63016307Y-75958802D01*
X63014247Y-75964668D01*
X63012978Y-75966977D01*
X63012809Y-75967245D01*
X63012687Y-75967537D01*
X63011527Y-75969905D01*
X63007912Y-75974963D01*
X63004772Y-75985464D01*
X62992809Y-76025464D01*
X62991722Y-76028811D01*
X62974255Y-76078549D01*
X62973500Y-76087267D01*
X62973500Y-76087627D01*
X62973217Y-76090974D01*
X62971547Y-76096559D01*
X62971791Y-76102770D01*
X62971791Y-76102771D01*
X62973442Y-76144787D01*
X62973500Y-76147740D01*
X62973500Y-76666771D01*
X62955907Y-76715109D01*
X62907725Y-76741378D01*
X62877521Y-76745194D01*
X62824401Y-76751904D01*
X62824399Y-76751905D01*
X62819709Y-76752497D01*
X62815313Y-76754237D01*
X62815311Y-76754238D01*
X62675763Y-76809489D01*
X62675761Y-76809490D01*
X62671364Y-76811231D01*
X62542286Y-76905011D01*
X62539268Y-76908659D01*
X62539267Y-76908660D01*
X62443601Y-77024300D01*
X62440585Y-77027946D01*
X62372653Y-77172311D01*
X62346500Y-77309408D01*
X62346500Y-79670579D01*
X62361497Y-79789291D01*
X62420231Y-79937636D01*
X62514011Y-80066714D01*
X62517660Y-80069733D01*
X62517664Y-80069737D01*
X62569788Y-80112858D01*
X62595819Y-80157225D01*
X62587240Y-80207945D01*
X62548066Y-80241284D01*
X62521854Y-80246000D01*
X61651306Y-80246000D01*
X61602968Y-80228407D01*
X61577248Y-80183858D01*
X61586181Y-80133200D01*
X61607102Y-80109964D01*
X61627714Y-80094989D01*
X61631037Y-80090973D01*
X61726399Y-79975700D01*
X61726400Y-79975699D01*
X61729415Y-79972054D01*
X61797347Y-79827689D01*
X61823500Y-79690592D01*
X61823500Y-77329421D01*
X61815745Y-77268036D01*
X61809096Y-77215401D01*
X61809095Y-77215399D01*
X61808503Y-77210709D01*
X61791605Y-77168030D01*
X61751511Y-77066763D01*
X61751510Y-77066761D01*
X61749769Y-77062364D01*
X61714794Y-77014224D01*
X61658773Y-76937118D01*
X61655989Y-76933286D01*
X61650573Y-76928805D01*
X61536700Y-76834601D01*
X61536699Y-76834600D01*
X61533054Y-76831585D01*
X61388689Y-76763653D01*
X61251592Y-76737500D01*
X60398421Y-76737500D01*
X60396070Y-76737797D01*
X60284401Y-76751904D01*
X60284399Y-76751905D01*
X60279709Y-76752497D01*
X60275313Y-76754237D01*
X60275311Y-76754238D01*
X60135763Y-76809489D01*
X60135761Y-76809490D01*
X60131364Y-76811231D01*
X60002286Y-76905011D01*
X59999268Y-76908659D01*
X59999267Y-76908660D01*
X59903601Y-77024300D01*
X59900585Y-77027946D01*
X59832653Y-77172311D01*
X59806500Y-77309408D01*
X59806500Y-79670579D01*
X59821497Y-79789291D01*
X59880231Y-79937636D01*
X59974011Y-80066714D01*
X59977660Y-80069733D01*
X59977664Y-80069737D01*
X60029788Y-80112858D01*
X60055819Y-80157225D01*
X60047240Y-80207945D01*
X60008066Y-80241284D01*
X59981854Y-80246000D01*
X59111306Y-80246000D01*
X59062968Y-80228407D01*
X59037248Y-80183858D01*
X59046181Y-80133200D01*
X59067102Y-80109964D01*
X59087714Y-80094989D01*
X59091037Y-80090973D01*
X59186399Y-79975700D01*
X59186400Y-79975699D01*
X59189415Y-79972054D01*
X59257347Y-79827689D01*
X59283500Y-79690592D01*
X59283500Y-77329421D01*
X59275745Y-77268036D01*
X59269096Y-77215401D01*
X59269095Y-77215399D01*
X59268503Y-77210709D01*
X59251605Y-77168030D01*
X59211511Y-77066763D01*
X59211510Y-77066761D01*
X59209769Y-77062364D01*
X59174794Y-77014224D01*
X59118773Y-76937118D01*
X59115989Y-76933286D01*
X59110573Y-76928805D01*
X58996700Y-76834601D01*
X58996699Y-76834600D01*
X58993054Y-76831585D01*
X58848689Y-76763653D01*
X58717609Y-76738648D01*
X58673424Y-76712309D01*
X58656500Y-76664780D01*
X58656500Y-76446602D01*
X58674093Y-76398264D01*
X58704157Y-76377988D01*
X58703797Y-76377222D01*
X58800357Y-76331784D01*
X58853378Y-76306834D01*
X58980755Y-76201459D01*
X59037100Y-76123907D01*
X59075143Y-76071545D01*
X59075144Y-76071544D01*
X59077924Y-76067717D01*
X59079666Y-76063318D01*
X59137040Y-75918409D01*
X59137041Y-75918407D01*
X59138781Y-75914011D01*
X59141085Y-75895778D01*
X59158907Y-75754694D01*
X59159500Y-75750000D01*
X59155129Y-75715401D01*
X59139374Y-75590681D01*
X59139373Y-75590679D01*
X59138781Y-75585989D01*
X59114357Y-75524300D01*
X59079666Y-75436682D01*
X59079665Y-75436680D01*
X59077924Y-75432283D01*
X59031702Y-75368663D01*
X58983539Y-75302373D01*
X58980755Y-75298541D01*
X58853378Y-75193166D01*
X58703797Y-75122778D01*
X58699149Y-75121891D01*
X58699148Y-75121891D01*
X58546060Y-75092688D01*
X58541410Y-75091801D01*
X58536688Y-75092098D01*
X58536687Y-75092098D01*
X58381139Y-75101885D01*
X58381137Y-75101885D01*
X58376422Y-75102182D01*
X58315764Y-75121891D01*
X58223703Y-75151803D01*
X58223699Y-75151805D01*
X58219199Y-75153267D01*
X58079619Y-75241847D01*
X58076379Y-75245297D01*
X58076378Y-75245298D01*
X58059142Y-75263653D01*
X57966453Y-75362356D01*
X57886812Y-75507222D01*
X57885635Y-75511807D01*
X57885634Y-75511809D01*
X57867717Y-75581591D01*
X57845700Y-75667343D01*
X57845700Y-75832657D01*
X57854181Y-75865688D01*
X57880753Y-75969178D01*
X57886812Y-75992778D01*
X57888400Y-75995666D01*
X57893500Y-76022404D01*
X57893500Y-76666771D01*
X57875907Y-76715109D01*
X57827725Y-76741378D01*
X57797521Y-76745194D01*
X57744401Y-76751904D01*
X57744399Y-76751905D01*
X57739709Y-76752497D01*
X57735313Y-76754237D01*
X57735311Y-76754238D01*
X57595763Y-76809489D01*
X57595761Y-76809490D01*
X57591364Y-76811231D01*
X57462286Y-76905011D01*
X57459268Y-76908659D01*
X57459267Y-76908660D01*
X57363601Y-77024300D01*
X57360585Y-77027946D01*
X57292653Y-77172311D01*
X57266500Y-77309408D01*
X57266500Y-79670579D01*
X57281497Y-79789291D01*
X57340231Y-79937636D01*
X57434011Y-80066714D01*
X57437660Y-80069733D01*
X57437664Y-80069737D01*
X57489788Y-80112858D01*
X57515819Y-80157225D01*
X57507240Y-80207945D01*
X57468066Y-80241284D01*
X57441854Y-80246000D01*
X56571306Y-80246000D01*
X56522968Y-80228407D01*
X56497248Y-80183858D01*
X56506181Y-80133200D01*
X56527102Y-80109964D01*
X56547714Y-80094989D01*
X56551037Y-80090973D01*
X56646399Y-79975700D01*
X56646400Y-79975699D01*
X56649415Y-79972054D01*
X56717347Y-79827689D01*
X56743500Y-79690592D01*
X56743500Y-77329421D01*
X56735745Y-77268036D01*
X56729096Y-77215401D01*
X56729095Y-77215399D01*
X56728503Y-77210709D01*
X56711605Y-77168030D01*
X56671511Y-77066763D01*
X56671510Y-77066761D01*
X56669769Y-77062364D01*
X56634794Y-77014224D01*
X56578773Y-76937118D01*
X56575989Y-76933286D01*
X56570573Y-76928805D01*
X56456700Y-76834601D01*
X56456699Y-76834600D01*
X56453054Y-76831585D01*
X56308689Y-76763653D01*
X56171592Y-76737500D01*
X55318421Y-76737500D01*
X55316070Y-76737797D01*
X55204401Y-76751904D01*
X55204399Y-76751905D01*
X55199709Y-76752497D01*
X55195313Y-76754237D01*
X55195311Y-76754238D01*
X55055763Y-76809489D01*
X55055761Y-76809490D01*
X55051364Y-76811231D01*
X54922286Y-76905011D01*
X54919268Y-76908659D01*
X54919267Y-76908660D01*
X54823601Y-77024300D01*
X54820585Y-77027946D01*
X54752653Y-77172311D01*
X54726500Y-77309408D01*
X54726500Y-79670579D01*
X54741497Y-79789291D01*
X54800231Y-79937636D01*
X54894011Y-80066714D01*
X54897660Y-80069733D01*
X54897664Y-80069737D01*
X54949788Y-80112858D01*
X54975819Y-80157225D01*
X54967240Y-80207945D01*
X54928066Y-80241284D01*
X54901854Y-80246000D01*
X54030462Y-80246000D01*
X53982124Y-80228407D01*
X53956404Y-80183858D01*
X53965337Y-80133200D01*
X53986261Y-80109962D01*
X54003539Y-80097409D01*
X54010393Y-80090973D01*
X54105974Y-79975435D01*
X54111009Y-79967502D01*
X54174858Y-79831816D01*
X54177758Y-79822888D01*
X54202336Y-79694048D01*
X54203000Y-79687023D01*
X54203000Y-78640259D01*
X54199303Y-78630102D01*
X54193931Y-78627000D01*
X53143200Y-78627000D01*
X53094862Y-78609407D01*
X53069142Y-78564858D01*
X53068000Y-78551800D01*
X53068000Y-76751259D01*
X53066475Y-76747069D01*
X53322000Y-76747069D01*
X53322000Y-78359741D01*
X53325697Y-78369898D01*
X53331069Y-78373000D01*
X54189741Y-78373000D01*
X54199898Y-78369303D01*
X54203000Y-78363931D01*
X54203000Y-77331791D01*
X54202703Y-77327070D01*
X54188612Y-77215525D01*
X54186278Y-77206435D01*
X54131073Y-77067004D01*
X54126550Y-77058777D01*
X54038409Y-76937461D01*
X54031973Y-76930607D01*
X53916435Y-76835026D01*
X53908502Y-76829991D01*
X53772816Y-76766142D01*
X53763888Y-76763242D01*
X53635048Y-76738664D01*
X53628023Y-76738000D01*
X53335259Y-76738000D01*
X53325102Y-76741697D01*
X53322000Y-76747069D01*
X53066475Y-76747069D01*
X53064303Y-76741102D01*
X53058931Y-76738000D01*
X52780791Y-76738000D01*
X52776070Y-76738297D01*
X52664525Y-76752388D01*
X52655435Y-76754722D01*
X52516004Y-76809927D01*
X52507777Y-76814450D01*
X52386461Y-76902591D01*
X52379607Y-76909027D01*
X52284026Y-77024565D01*
X52278991Y-77032498D01*
X52215142Y-77168184D01*
X52212242Y-77177112D01*
X52203068Y-77225201D01*
X52176729Y-77269386D01*
X52128150Y-77286303D01*
X52080063Y-77268036D01*
X52054967Y-77223133D01*
X52054000Y-77211110D01*
X52054000Y-62805704D01*
X52071593Y-62757366D01*
X52116142Y-62731646D01*
X52166800Y-62740579D01*
X52199865Y-62779984D01*
X52202037Y-62787001D01*
X52203723Y-62793566D01*
X52258927Y-62932996D01*
X52263450Y-62941223D01*
X52351591Y-63062539D01*
X52358027Y-63069393D01*
X52473565Y-63164974D01*
X52481498Y-63170009D01*
X52617184Y-63233858D01*
X52626112Y-63236758D01*
X52754952Y-63261336D01*
X52761977Y-63262000D01*
X53054741Y-63262000D01*
X53064898Y-63258303D01*
X53068000Y-63252931D01*
X53068000Y-61636069D01*
X53322000Y-61636069D01*
X53322000Y-63248741D01*
X53325697Y-63258898D01*
X53331069Y-63262000D01*
X53609209Y-63262000D01*
X53613930Y-63261703D01*
X53725475Y-63247612D01*
X53734565Y-63245278D01*
X53873996Y-63190073D01*
X53882223Y-63185550D01*
X54003539Y-63097409D01*
X54010393Y-63090973D01*
X54105974Y-62975435D01*
X54111009Y-62967502D01*
X54174858Y-62831816D01*
X54177758Y-62822888D01*
X54202336Y-62694048D01*
X54203000Y-62687023D01*
X54203000Y-61640259D01*
X54199303Y-61630102D01*
X54193931Y-61627000D01*
X53335259Y-61627000D01*
X53325102Y-61630697D01*
X53322000Y-61636069D01*
X53068000Y-61636069D01*
X53068000Y-61448200D01*
X53085593Y-61399862D01*
X53130142Y-61374142D01*
X53143200Y-61373000D01*
X54189741Y-61373000D01*
X54199898Y-61369303D01*
X54203000Y-61363931D01*
X54203000Y-60331791D01*
X54202703Y-60327070D01*
X54188612Y-60215525D01*
X54186278Y-60206435D01*
X54131073Y-60067004D01*
X54126550Y-60058777D01*
X54038409Y-59937461D01*
X54031977Y-59930612D01*
X53979432Y-59887143D01*
X53953401Y-59842775D01*
X53961980Y-59792056D01*
X54001153Y-59758716D01*
X54027366Y-59754000D01*
X54898694Y-59754000D01*
X54947032Y-59771593D01*
G37*
%TD.AperFunction*%
%TD*%
%TA.AperFunction,Conductor*%
%TO.N,/TSDZ2_VIN*%
G36*
X104517190Y-66517593D02*
G01*
X104522026Y-66522026D01*
X104727974Y-66727974D01*
X104749714Y-66774594D01*
X104750000Y-66781148D01*
X104750000Y-76968852D01*
X104732407Y-77017190D01*
X104727974Y-77022026D01*
X104522026Y-77227974D01*
X104475406Y-77249714D01*
X104468852Y-77250000D01*
X94781148Y-77250000D01*
X94732810Y-77232407D01*
X94727974Y-77227974D01*
X94272026Y-76772026D01*
X94250286Y-76725406D01*
X94250000Y-76718852D01*
X94250000Y-76070671D01*
X94267593Y-76022333D01*
X94272026Y-76017497D01*
X95017497Y-75272026D01*
X95064117Y-75250286D01*
X95070671Y-75250000D01*
X102500000Y-75250000D01*
X102750000Y-75000000D01*
X102750000Y-66781148D01*
X102767593Y-66732810D01*
X102772026Y-66727974D01*
X102977974Y-66522026D01*
X103024594Y-66500286D01*
X103031148Y-66500000D01*
X104468852Y-66500000D01*
X104517190Y-66517593D01*
G37*
%TD.AperFunction*%
%TD*%
M02*
