%TF.GenerationSoftware,KiCad,Pcbnew,5.99.0-unknown-881cb3182b~117~ubuntu18.04.1*%
%TF.CreationDate,2021-02-21T21:18:57+01:00*%
%TF.ProjectId,stanislao_nrf,7374616e-6973-46c6-916f-5f6e72662e6b,rev?*%
%TF.SameCoordinates,Original*%
%TF.FileFunction,Legend,Bot*%
%TF.FilePolarity,Positive*%
%FSLAX46Y46*%
G04 Gerber Fmt 4.6, Leading zero omitted, Abs format (unit mm)*
G04 Created by KiCad (PCBNEW 5.99.0-unknown-881cb3182b~117~ubuntu18.04.1) date 2021-02-21 21:18:57*
%MOMM*%
%LPD*%
G01*
G04 APERTURE LIST*
%ADD10C,0.150000*%
%ADD11C,0.127000*%
%ADD12C,0.120000*%
G04 APERTURE END LIST*
D10*
X92595238Y-75652380D02*
X92261904Y-76652380D01*
X91928571Y-75652380D01*
X91595238Y-76652380D02*
X91595238Y-75652380D01*
X91119047Y-76652380D02*
X91119047Y-75652380D01*
X90547619Y-76652380D01*
X90547619Y-75652380D01*
X92201904Y-73112380D02*
X91630476Y-73112380D01*
X91916190Y-74112380D02*
X91916190Y-73112380D01*
X91392380Y-73112380D02*
X90725714Y-74112380D01*
X90725714Y-73112380D02*
X91392380Y-74112380D01*
X92654761Y-70702380D02*
X92321428Y-71702380D01*
X91988095Y-70702380D01*
X91892857Y-71797619D02*
X91130952Y-71797619D01*
X90559523Y-71178571D02*
X90416666Y-71226190D01*
X90369047Y-71273809D01*
X90321428Y-71369047D01*
X90321428Y-71511904D01*
X90369047Y-71607142D01*
X90416666Y-71654761D01*
X90511904Y-71702380D01*
X90892857Y-71702380D01*
X90892857Y-70702380D01*
X90559523Y-70702380D01*
X90464285Y-70750000D01*
X90416666Y-70797619D01*
X90369047Y-70892857D01*
X90369047Y-70988095D01*
X90416666Y-71083333D01*
X90464285Y-71130952D01*
X90559523Y-71178571D01*
X90892857Y-71178571D01*
X89940476Y-71416666D02*
X89464285Y-71416666D01*
X90035714Y-71702380D02*
X89702380Y-70702380D01*
X89369047Y-71702380D01*
X89178571Y-70702380D02*
X88607142Y-70702380D01*
X88892857Y-71702380D02*
X88892857Y-70702380D01*
X88416666Y-70702380D02*
X87845238Y-70702380D01*
X88130952Y-71702380D02*
X88130952Y-70702380D01*
X92114666Y-69202380D02*
X92448000Y-68726190D01*
X92686095Y-69202380D02*
X92686095Y-68202380D01*
X92305142Y-68202380D01*
X92209904Y-68250000D01*
X92162285Y-68297619D01*
X92114666Y-68392857D01*
X92114666Y-68535714D01*
X92162285Y-68630952D01*
X92209904Y-68678571D01*
X92305142Y-68726190D01*
X92686095Y-68726190D01*
X91781333Y-68202380D02*
X91114666Y-69202380D01*
X91114666Y-68202380D02*
X91781333Y-69202380D01*
X92309523Y-66178571D02*
X92166666Y-66226190D01*
X92119047Y-66273809D01*
X92071428Y-66369047D01*
X92071428Y-66511904D01*
X92119047Y-66607142D01*
X92166666Y-66654761D01*
X92261904Y-66702380D01*
X92642857Y-66702380D01*
X92642857Y-65702380D01*
X92309523Y-65702380D01*
X92214285Y-65750000D01*
X92166666Y-65797619D01*
X92119047Y-65892857D01*
X92119047Y-65988095D01*
X92166666Y-66083333D01*
X92214285Y-66130952D01*
X92309523Y-66178571D01*
X92642857Y-66178571D01*
X91071428Y-66702380D02*
X91404761Y-66226190D01*
X91642857Y-66702380D02*
X91642857Y-65702380D01*
X91261904Y-65702380D01*
X91166666Y-65750000D01*
X91119047Y-65797619D01*
X91071428Y-65892857D01*
X91071428Y-66035714D01*
X91119047Y-66130952D01*
X91166666Y-66178571D01*
X91261904Y-66226190D01*
X91642857Y-66226190D01*
X90690476Y-66416666D02*
X90214285Y-66416666D01*
X90785714Y-66702380D02*
X90452380Y-65702380D01*
X90119047Y-66702380D01*
X89785714Y-66702380D02*
X89785714Y-65702380D01*
X89214285Y-66702380D02*
X89642857Y-66130952D01*
X89214285Y-65702380D02*
X89785714Y-66273809D01*
X88785714Y-66178571D02*
X88452380Y-66178571D01*
X88309523Y-66702380D02*
X88785714Y-66702380D01*
X88785714Y-65702380D01*
X88309523Y-65702380D01*
X92261904Y-63250000D02*
X92357142Y-63202380D01*
X92500000Y-63202380D01*
X92642857Y-63250000D01*
X92738095Y-63345238D01*
X92785714Y-63440476D01*
X92833333Y-63630952D01*
X92833333Y-63773809D01*
X92785714Y-63964285D01*
X92738095Y-64059523D01*
X92642857Y-64154761D01*
X92500000Y-64202380D01*
X92404761Y-64202380D01*
X92261904Y-64154761D01*
X92214285Y-64107142D01*
X92214285Y-63773809D01*
X92404761Y-63773809D01*
X91785714Y-64202380D02*
X91785714Y-63202380D01*
X91214285Y-64202380D01*
X91214285Y-63202380D01*
X90738095Y-64202380D02*
X90738095Y-63202380D01*
X90500000Y-63202380D01*
X90357142Y-63250000D01*
X90261904Y-63345238D01*
X90214285Y-63440476D01*
X90166666Y-63630952D01*
X90166666Y-63773809D01*
X90214285Y-63964285D01*
X90261904Y-64059523D01*
X90357142Y-64154761D01*
X90500000Y-64202380D01*
X90738095Y-64202380D01*
%TO.C,U1*%
X51348333Y-79141666D02*
X51348333Y-79708333D01*
X51315000Y-79775000D01*
X51281666Y-79808333D01*
X51215000Y-79841666D01*
X51081666Y-79841666D01*
X51015000Y-79808333D01*
X50981666Y-79775000D01*
X50948333Y-79708333D01*
X50948333Y-79141666D01*
X50248333Y-79841666D02*
X50648333Y-79841666D01*
X50448333Y-79841666D02*
X50448333Y-79141666D01*
X50515000Y-79241666D01*
X50581666Y-79308333D01*
X50648333Y-79341666D01*
%TO.C,J1*%
X97883333Y-80233333D02*
X97383333Y-80233333D01*
X97283333Y-80266666D01*
X97216666Y-80333333D01*
X97183333Y-80433333D01*
X97183333Y-80500000D01*
X97183333Y-79533333D02*
X97183333Y-79933333D01*
X97183333Y-79733333D02*
X97883333Y-79733333D01*
X97783333Y-79800000D01*
X97716666Y-79866666D01*
X97683333Y-79933333D01*
D11*
%TO.C,U1*%
X47480000Y-77620000D02*
X47480000Y-62380000D01*
X47480000Y-62380000D02*
X51850000Y-62380000D01*
X51850000Y-77620000D02*
X47480000Y-77620000D01*
D12*
%TO.C,J1*%
X93140000Y-78810000D02*
X93140000Y-77390000D01*
X104250000Y-64000000D02*
X98750000Y-64000000D01*
X104250000Y-69000000D02*
X98750000Y-69000000D01*
X93140000Y-61190000D02*
X93140000Y-62610000D01*
X98750000Y-76500000D02*
X98750000Y-76000000D01*
X104250000Y-68500000D02*
X104250000Y-69000000D01*
X104860000Y-61190000D02*
X93140000Y-61190000D01*
X104860000Y-70000000D02*
X104860000Y-78810000D01*
X104860000Y-78810000D02*
X93140000Y-78810000D01*
X98750000Y-73500000D02*
X104250000Y-73500000D01*
X98750000Y-74000000D02*
X98750000Y-73500000D01*
X97640000Y-62610000D02*
X97640000Y-70000000D01*
X93450000Y-63450000D02*
X93450000Y-64050000D01*
X104250000Y-71000000D02*
X104250000Y-71500000D01*
X104250000Y-73500000D02*
X104250000Y-74000000D01*
X98750000Y-68500000D02*
X104250000Y-68500000D01*
X97640000Y-77390000D02*
X97640000Y-70000000D01*
X98750000Y-64000000D02*
X98750000Y-63500000D01*
X104250000Y-76500000D02*
X98750000Y-76500000D01*
X98750000Y-63500000D02*
X104250000Y-63500000D01*
X98750000Y-66500000D02*
X98750000Y-66000000D01*
X93140000Y-62610000D02*
X97640000Y-62610000D01*
X104250000Y-71500000D02*
X98750000Y-71500000D01*
X93140000Y-77390000D02*
X97640000Y-77390000D01*
X104860000Y-70000000D02*
X104860000Y-61190000D01*
X104250000Y-66500000D02*
X98750000Y-66500000D01*
X98750000Y-71000000D02*
X104250000Y-71000000D01*
X104250000Y-63500000D02*
X104250000Y-64000000D01*
X98750000Y-69000000D02*
X98750000Y-68500000D01*
X94050000Y-63750000D02*
X93450000Y-63450000D01*
X98750000Y-76000000D02*
X104250000Y-76000000D01*
X104250000Y-76000000D02*
X104250000Y-76500000D01*
X98750000Y-71500000D02*
X98750000Y-71000000D01*
X93450000Y-64050000D02*
X94050000Y-63750000D01*
X98750000Y-66000000D02*
X104250000Y-66000000D01*
X104250000Y-74000000D02*
X98750000Y-74000000D01*
X104250000Y-66000000D02*
X104250000Y-66500000D01*
%TD*%
M02*
