M48
; DRILL file {KiCad 5.99.0-unknown-7ef9082c86~117~ubuntu18.04.1} date Thu Mar 11 22:57:28 2021
; FORMAT={-:-/ absolute / inch / decimal}
; #@! TF.CreationDate,2021-03-11T22:57:28+01:00
; #@! TF.GenerationSoftware,Kicad,Pcbnew,5.99.0-unknown-7ef9082c86~117~ubuntu18.04.1
; #@! TF.FileFunction,Plated,1,2,PTH
FMAT,2
INCH
; #@! TA.AperFunction,ViaDrill
T1C0.0118
; #@! TA.AperFunction,ViaDrill
T2C0.0157
; #@! TA.AperFunction,ComponentDrill
T3C0.0374
; #@! TA.AperFunction,ComponentDrill
T4C0.0394
%
G90
G05
T1
; via hole
X3.2047Y-2.6772
X3.2362Y-2.8346
X3.2677Y-2.8346
X3.2992Y-2.6772
X3.6319Y-2.8543
T2
X2.2925Y-2.8552
X2.5492Y-2.9322
X2.5886Y-2.5591
X2.6378Y-2.5886
T3
; pad hole
X1.986Y-3.0559
X1.9873Y-2.4559
X2.086Y-3.0559
X2.0873Y-2.4559
X2.186Y-3.0559
X2.1873Y-2.4559
X2.286Y-3.0559
X2.2873Y-2.4559
X2.386Y-3.0559
X2.3873Y-2.4559
X2.486Y-3.0559
X2.4873Y-2.4559
X2.586Y-3.0559
X2.5873Y-2.4559
X2.686Y-3.0559
X2.6873Y-2.4559
X2.786Y-3.0559
X2.7873Y-2.4559
X2.886Y-3.0559
X2.8873Y-2.4559
X3.086Y-2.5509
X3.086Y-2.9609
X3.7618Y-2.5098
X3.7618Y-2.6083
X3.7618Y-2.7067
X3.7618Y-2.8051
X3.7618Y-2.9035
X3.7618Y-3.002
T4
X3.2904Y-2.439
X3.2904Y-2.5374
X3.2913Y-2.9724
X3.2913Y-3.0709
X3.5433Y-2.439
X3.5433Y-2.5374
X3.5433Y-2.9724
X3.5433Y-3.0709
T0
M30
