%TF.GenerationSoftware,KiCad,Pcbnew,5.99.0-unknown-7ef9082c86~117~ubuntu18.04.1*%
%TF.CreationDate,2021-03-11T22:58:14+01:00*%
%TF.ProjectId,TSDZ2_nrf_module_board,5453445a-325f-46e7-9266-5f6d6f64756c,rev?*%
%TF.SameCoordinates,Original*%
%TF.FileFunction,Copper,L2,Bot*%
%TF.FilePolarity,Positive*%
%FSLAX46Y46*%
G04 Gerber Fmt 4.6, Leading zero omitted, Abs format (unit mm)*
G04 Created by KiCad (PCBNEW 5.99.0-unknown-7ef9082c86~117~ubuntu18.04.1) date 2021-03-11 22:58:14*
%MOMM*%
%LPD*%
G01*
G04 APERTURE LIST*
G04 Aperture macros list*
%AMRoundRect*
0 Rectangle with rounded corners*
0 $1 Rounding radius*
0 $2 $3 $4 $5 $6 $7 $8 $9 X,Y pos of 4 corners*
0 Add a 4 corners polygon primitive as box body*
4,1,4,$2,$3,$4,$5,$6,$7,$8,$9,$2,$3,0*
0 Add four circle primitives for the rounded corners*
1,1,$1+$1,$2,$3*
1,1,$1+$1,$4,$5*
1,1,$1+$1,$6,$7*
1,1,$1+$1,$8,$9*
0 Add four rect primitives between the rounded corners*
20,1,$1+$1,$2,$3,$4,$5,0*
20,1,$1+$1,$4,$5,$6,$7,0*
20,1,$1+$1,$6,$7,$8,$9,0*
20,1,$1+$1,$8,$9,$2,$3,0*%
G04 Aperture macros list end*
%TA.AperFunction,SMDPad,CuDef*%
%ADD10RoundRect,0.200000X0.275000X-0.200000X0.275000X0.200000X-0.275000X0.200000X-0.275000X-0.200000X0*%
%TD*%
%TA.AperFunction,SMDPad,CuDef*%
%ADD11RoundRect,0.250000X-0.475000X0.250000X-0.475000X-0.250000X0.475000X-0.250000X0.475000X0.250000X0*%
%TD*%
%TA.AperFunction,ComponentPad*%
%ADD12RoundRect,0.250000X0.750000X-0.600000X0.750000X0.600000X-0.750000X0.600000X-0.750000X-0.600000X0*%
%TD*%
%TA.AperFunction,ComponentPad*%
%ADD13O,2.000000X1.700000*%
%TD*%
%TA.AperFunction,SMDPad,CuDef*%
%ADD14RoundRect,0.050100X-0.099900X0.324900X-0.099900X-0.324900X0.099900X-0.324900X0.099900X0.324900X0*%
%TD*%
%TA.AperFunction,SMDPad,CuDef*%
%ADD15RoundRect,0.050000X2.000000X0.150000X-2.000000X0.150000X-2.000000X-0.150000X2.000000X-0.150000X0*%
%TD*%
%TA.AperFunction,ComponentPad*%
%ADD16RoundRect,0.250000X-0.725000X0.600000X-0.725000X-0.600000X0.725000X-0.600000X0.725000X0.600000X0*%
%TD*%
%TA.AperFunction,ComponentPad*%
%ADD17O,1.950000X1.700000*%
%TD*%
%TA.AperFunction,SMDPad,CuDef*%
%ADD18R,0.425000X0.400000*%
%TD*%
%TA.AperFunction,SMDPad,CuDef*%
%ADD19R,1.150000X0.950000*%
%TD*%
%TA.AperFunction,SMDPad,CuDef*%
%ADD20R,0.750000X0.300000*%
%TD*%
%TA.AperFunction,SMDPad,CuDef*%
%ADD21RoundRect,0.250000X-1.100000X0.325000X-1.100000X-0.325000X1.100000X-0.325000X1.100000X0.325000X0*%
%TD*%
%TA.AperFunction,ComponentPad*%
%ADD22RoundRect,0.377000X-0.377000X1.131000X-0.377000X-1.131000X0.377000X-1.131000X0.377000X1.131000X0*%
%TD*%
%TA.AperFunction,ViaPad*%
%ADD23C,0.800000*%
%TD*%
%TA.AperFunction,ViaPad*%
%ADD24C,0.450000*%
%TD*%
%TA.AperFunction,Conductor*%
%ADD25C,0.406400*%
%TD*%
%TA.AperFunction,Conductor*%
%ADD26C,0.254000*%
%TD*%
%TA.AperFunction,Conductor*%
%ADD27C,0.914400*%
%TD*%
%TA.AperFunction,Conductor*%
%ADD28C,0.250000*%
%TD*%
%TA.AperFunction,Conductor*%
%ADD29C,0.609600*%
%TD*%
G04 APERTURE END LIST*
D10*
%TO.P,R1,2*%
%TO.N,GND*%
X92300000Y-70075000D03*
%TO.P,R1,1*%
%TO.N,/P1.00_VIN_CTRL*%
X92300000Y-71725000D03*
%TD*%
D11*
%TO.P,C2,2*%
%TO.N,GND*%
X79950000Y-70950000D03*
%TO.P,C2,1*%
%TO.N,VBUS*%
X79950000Y-69050000D03*
%TD*%
D12*
%TO.P,SW4,1,1*%
%TO.N,GND*%
X83575000Y-64450000D03*
D13*
%TO.P,SW4,2,2*%
%TO.N,/P0.20_POWER*%
X83575000Y-61950000D03*
%TD*%
D14*
%TO.P,U2,1,VOUT*%
%TO.N,VBUS*%
X81400000Y-68775000D03*
%TO.P,U2,2,SS*%
%TO.N,N/C*%
X82200000Y-68775000D03*
%TO.P,U2,3,GND*%
%TO.N,GND*%
X83000000Y-68775000D03*
%TO.P,U2,4,VIN*%
%TO.N,/V_BATT*%
X83800000Y-68775000D03*
%TO.P,U2,5,VIN*%
X84600000Y-68775000D03*
%TO.P,U2,6,GND*%
%TO.N,GND*%
X84600000Y-71225000D03*
%TO.P,U2,7,HYS*%
%TO.N,N/C*%
X83800000Y-71225000D03*
%TO.P,U2,8,FB*%
%TO.N,VBUS*%
X83000000Y-71225000D03*
%TO.P,U2,9,EN*%
%TO.N,/V_BATT*%
X82200000Y-71225000D03*
%TO.P,U2,10,PGOOD*%
%TO.N,N/C*%
X81400000Y-71225000D03*
D15*
%TO.P,U2,11,GND*%
%TO.N,GND*%
X83000000Y-70000000D03*
%TD*%
D12*
%TO.P,SW1,1,1*%
%TO.N,GND*%
X90000000Y-78000000D03*
D13*
%TO.P,SW1,2,2*%
%TO.N,/P0.13_UP*%
X90000000Y-75500000D03*
%TD*%
D16*
%TO.P,J1,1,Pin_1*%
%TO.N,GND*%
X95550000Y-63750000D03*
D17*
%TO.P,J1,2,Pin_2*%
%TO.N,/TSDZ2_BRAKE_INPUT*%
X95550000Y-66250000D03*
%TO.P,J1,3,Pin_3*%
%TO.N,/TSDZ2_RX*%
X95550000Y-68750000D03*
%TO.P,J1,4,Pin_4*%
%TO.N,/V_BATT*%
X95550000Y-71250000D03*
%TO.P,J1,5,Pin_5*%
%TO.N,/TSDZ2_TX*%
X95550000Y-73750000D03*
%TO.P,J1,6,Pin_6*%
%TO.N,/TSDZ2_VIN*%
X95550000Y-76250000D03*
%TD*%
D12*
%TO.P,SW2,1,1*%
%TO.N,GND*%
X90000000Y-64450000D03*
D13*
%TO.P,SW2,2,2*%
%TO.N,/P0.17_DOWN*%
X90000000Y-61950000D03*
%TD*%
D18*
%TO.P,Q1,1,D*%
%TO.N,/V_BATT*%
X90937500Y-70600000D03*
%TO.P,Q1,2,D*%
X90937500Y-71250000D03*
%TO.P,Q1,3,G*%
%TO.N,/P1.00_VIN_CTRL*%
X90937500Y-71900000D03*
%TO.P,Q1,4,S*%
%TO.N,/TSDZ2_VIN*%
X89062500Y-71900000D03*
%TO.P,Q1,5,D*%
%TO.N,/V_BATT*%
X89062500Y-71250000D03*
%TO.P,Q1,6,D*%
X89062500Y-70600000D03*
D19*
%TO.P,Q1,D,D*%
X90000000Y-70925000D03*
D20*
%TO.P,Q1,S,S*%
%TO.N,/TSDZ2_VIN*%
X90000000Y-71900000D03*
%TD*%
D21*
%TO.P,C1,1*%
%TO.N,/V_BATT*%
X86600000Y-68725000D03*
%TO.P,C1,2*%
%TO.N,GND*%
X86600000Y-71675000D03*
%TD*%
D12*
%TO.P,SW3,1,1*%
%TO.N,GND*%
X83600000Y-78000000D03*
D13*
%TO.P,SW3,2,2*%
%TO.N,/P0.15_ENTER*%
X83600000Y-75500000D03*
%TD*%
D22*
%TO.P,U1,0.02,0.02*%
%TO.N,N/C*%
X60638000Y-61580000D03*
%TO.P,U1,0.09,0.09*%
%TO.N,/TSDZ2_BRAKE_INPUT*%
X55525000Y-78420000D03*
%TO.P,U1,0.10,0.10*%
%TO.N,N/C*%
X52985000Y-78420000D03*
%TO.P,U1,0.13,0.13*%
%TO.N,/P0.13_UP*%
X73305000Y-78420000D03*
%TO.P,U1,0.15,0.15*%
%TO.N,/P0.15_ENTER*%
X70765000Y-78420000D03*
%TO.P,U1,0.17,0.17*%
%TO.N,/P0.17_DOWN*%
X68225000Y-78420000D03*
%TO.P,U1,0.20,0.20*%
%TO.N,/P0.20_POWER*%
X65685000Y-78420000D03*
%TO.P,U1,0.22,0.22*%
%TO.N,/TSDZ2_RX*%
X63145000Y-78420000D03*
%TO.P,U1,0.24,0.24*%
%TO.N,/TSDZ2_TX*%
X60605000Y-78420000D03*
%TO.P,U1,0.29,0.29*%
%TO.N,N/C*%
X63178000Y-61580000D03*
%TO.P,U1,0.31,0.31*%
X65718000Y-61580000D03*
%TO.P,U1,1.00,1.00*%
%TO.N,/P1.00_VIN_CTRL*%
X58065000Y-78420000D03*
%TO.P,U1,1.10,1.10*%
%TO.N,N/C*%
X53018000Y-61580000D03*
%TO.P,U1,1.13,1.13*%
X55558000Y-61580000D03*
%TO.P,U1,1.15,1.15*%
X58098000Y-61580000D03*
%TO.P,U1,G1,GND*%
%TO.N,GND*%
X50445000Y-78420000D03*
%TO.P,U1,G2,GND*%
X50478000Y-61580000D03*
%TO.P,U1,G3,GND*%
X68258000Y-61580000D03*
%TO.P,U1,OUT,OUT*%
%TO.N,N/C*%
X70798000Y-61580000D03*
%TO.P,U1,SWDCLK,SWDCLK*%
X78385000Y-63993000D03*
%TO.P,U1,SWDIO,SWDIO*%
X78385000Y-76007000D03*
%TO.P,U1,VBUS,VBUS*%
%TO.N,VBUS*%
X73338000Y-61580000D03*
%TD*%
D23*
%TO.N,/TSDZ2_TX*%
X64750000Y-74477000D03*
D24*
%TO.N,/V_BATT*%
X83800000Y-68000000D03*
X82200000Y-72000000D03*
%TO.N,VBUS*%
X83000000Y-72000000D03*
X81400000Y-68000000D03*
D23*
%TO.N,/P0.17_DOWN*%
X67000000Y-65750000D03*
%TO.N,/P0.20_POWER*%
X65750000Y-65000000D03*
%TO.N,/P1.00_VIN_CTRL*%
X58230104Y-72522990D03*
D24*
X92250000Y-72500000D03*
%TD*%
D25*
%TO.N,/TSDZ2_VIN*%
X89062500Y-71900000D02*
X90000000Y-71900000D01*
X93550000Y-76250000D02*
X90000000Y-72700000D01*
X90000000Y-72700000D02*
X90000000Y-71900000D01*
X95550000Y-76250000D02*
X93550000Y-76250000D01*
D26*
%TO.N,/TSDZ2_TX*%
X60605000Y-77620000D02*
X60605000Y-74895000D01*
X61023000Y-74477000D02*
X63477000Y-74477000D01*
X95550000Y-73750000D02*
X95550000Y-74200000D01*
X61023000Y-74477000D02*
X64750000Y-74477000D01*
X60750000Y-78500000D02*
X60815000Y-78500000D01*
X60605000Y-74895000D02*
X61023000Y-74477000D01*
%TO.N,/V_BATT*%
X82200000Y-71225000D02*
X82200000Y-72000000D01*
X90937500Y-70600000D02*
X90325000Y-70600000D01*
X89675000Y-71250000D02*
X90000000Y-70925000D01*
D25*
X83850000Y-68725000D02*
X83803220Y-68771780D01*
D27*
X93025000Y-68725000D02*
X90575000Y-68725000D01*
D26*
X90325000Y-71250000D02*
X90000000Y-70925000D01*
D25*
X89775000Y-68725000D02*
X89775000Y-69075000D01*
D27*
X89775000Y-68725000D02*
X86600000Y-68725000D01*
D26*
X89062500Y-70600000D02*
X89675000Y-70600000D01*
D27*
X90575000Y-68725000D02*
X89775000Y-68725000D01*
D25*
X90000000Y-69300000D02*
X90575000Y-68725000D01*
D26*
X89675000Y-70600000D02*
X90000000Y-70925000D01*
X90937500Y-71250000D02*
X90325000Y-71250000D01*
X89062500Y-71250000D02*
X89675000Y-71250000D01*
X83800000Y-68000000D02*
X83800000Y-68775000D01*
D25*
X86600000Y-68725000D02*
X83850000Y-68725000D01*
D27*
X95550000Y-71250000D02*
X93025000Y-68725000D01*
D26*
X90325000Y-70600000D02*
X90000000Y-70925000D01*
D25*
X89775000Y-69075000D02*
X90000000Y-69300000D01*
X90000000Y-70925000D02*
X90000000Y-69300000D01*
D27*
%TO.N,GND*%
X90000000Y-64500000D02*
X83500000Y-64500000D01*
X92500000Y-64500000D02*
X93250000Y-63750000D01*
D28*
X84925000Y-70000000D02*
X84650000Y-70000000D01*
D29*
X68258000Y-62380000D02*
X68258000Y-63858000D01*
D27*
X93250000Y-63750000D02*
X95550000Y-63750000D01*
D25*
X83000000Y-70000000D02*
X84300000Y-70000000D01*
D26*
X83000000Y-65000000D02*
X83500000Y-64500000D01*
D29*
X50478000Y-62380000D02*
X50478000Y-64278000D01*
X50445000Y-77620000D02*
X50445000Y-75555000D01*
D27*
X90000000Y-64500000D02*
X92500000Y-64500000D01*
D25*
X86750000Y-71825000D02*
X86600000Y-71675000D01*
X83000000Y-70000000D02*
X84650000Y-70000000D01*
D29*
%TO.N,VBUS*%
X73338000Y-68338000D02*
X74050000Y-69050000D01*
X80000000Y-69050000D02*
X80275000Y-68775000D01*
X73338000Y-65338000D02*
X73338000Y-66338000D01*
X73338000Y-65338000D02*
X73338000Y-68338000D01*
D26*
X81400000Y-68775000D02*
X81400000Y-68000000D01*
D29*
X80000000Y-69050000D02*
X74050000Y-69050000D01*
X73338000Y-62380000D02*
X73338000Y-65338000D01*
D26*
X83000000Y-72000000D02*
X83000000Y-71225000D01*
D29*
X80275000Y-68775000D02*
X81295180Y-68775000D01*
D26*
%TO.N,/P0.13_UP*%
X80879950Y-78454020D02*
X79795980Y-78454020D01*
X80879950Y-78454020D02*
X74139020Y-78454020D01*
X90000000Y-75500000D02*
X85500000Y-75500000D01*
X74139020Y-78454020D02*
X73305000Y-77620000D01*
X84250000Y-76750000D02*
X82583970Y-76750000D01*
X82583970Y-76750000D02*
X80879950Y-78454020D01*
X85500000Y-75500000D02*
X84250000Y-76750000D01*
%TO.N,/P0.15_ENTER*%
X83000000Y-75500000D02*
X83525000Y-75500000D01*
X74084980Y-76584980D02*
X71800020Y-76584980D01*
X80250000Y-78000000D02*
X75500000Y-78000000D01*
X71800020Y-76584980D02*
X70765000Y-77620000D01*
X80250000Y-78000000D02*
X79500000Y-78000000D01*
X82750000Y-75500000D02*
X80250000Y-78000000D01*
X83500000Y-75500000D02*
X82750000Y-75500000D01*
X75500000Y-78000000D02*
X74084980Y-76584980D01*
%TO.N,/P0.17_DOWN*%
X66868189Y-66381811D02*
X66868189Y-65881811D01*
X66868189Y-66381811D02*
X66868189Y-66118189D01*
X66868189Y-76263189D02*
X66868189Y-67131811D01*
X68225000Y-77620000D02*
X66868189Y-76263189D01*
X66868189Y-67131811D02*
X66868189Y-66381811D01*
X66868189Y-65881811D02*
X67000000Y-65750000D01*
%TO.N,/P0.20_POWER*%
X65685000Y-77620000D02*
X65685000Y-65065000D01*
X65685000Y-65065000D02*
X65750000Y-65000000D01*
%TO.N,/P1.00_VIN_CTRL*%
X92250000Y-72500000D02*
X92250000Y-71825000D01*
X92175000Y-71900000D02*
X92250000Y-71825000D01*
X58230104Y-72730104D02*
X58230104Y-72522990D01*
X58065000Y-77620000D02*
X58250000Y-77435000D01*
X58250000Y-77435000D02*
X58250000Y-72750000D01*
X90937500Y-71900000D02*
X92175000Y-71900000D01*
X58250000Y-72750000D02*
X58230104Y-72730104D01*
%TD*%
%TA.AperFunction,Conductor*%
%TO.N,GND*%
G36*
X104688121Y-59274002D02*
G01*
X104734614Y-59327658D01*
X104746000Y-59380000D01*
X104746000Y-80620000D01*
X104725998Y-80688121D01*
X104672342Y-80734614D01*
X104620000Y-80746000D01*
X49380000Y-80746000D01*
X49311879Y-80725998D01*
X49265386Y-80672342D01*
X49254000Y-80620000D01*
X49254000Y-79869639D01*
X49274002Y-79801518D01*
X49327658Y-79755025D01*
X49397932Y-79744921D01*
X49462512Y-79774415D01*
X49497152Y-79823255D01*
X49507752Y-79850026D01*
X49515328Y-79863808D01*
X49599716Y-79979958D01*
X49610484Y-79991425D01*
X49721107Y-80082941D01*
X49734386Y-80091368D01*
X49864291Y-80152496D01*
X49879252Y-80157357D01*
X50002591Y-80180886D01*
X50014379Y-80182000D01*
X50857620Y-80182000D01*
X50865510Y-80181503D01*
X50972302Y-80168013D01*
X50987535Y-80164102D01*
X51121026Y-80111249D01*
X51134808Y-80103672D01*
X51250958Y-80019284D01*
X51262425Y-80008516D01*
X51353941Y-79897893D01*
X51362368Y-79884614D01*
X51423496Y-79754709D01*
X51428357Y-79739748D01*
X51451886Y-79616409D01*
X51453000Y-79604621D01*
X51453000Y-78565115D01*
X51448525Y-78549876D01*
X51447135Y-78548671D01*
X51439452Y-78547000D01*
X50444000Y-78547000D01*
X50375879Y-78526998D01*
X50329386Y-78473342D01*
X50318000Y-78421000D01*
X50318000Y-78419000D01*
X50338002Y-78350879D01*
X50391658Y-78304386D01*
X50444000Y-78293000D01*
X51434885Y-78293000D01*
X51450124Y-78288525D01*
X51451329Y-78287135D01*
X51453000Y-78279452D01*
X51453000Y-77253380D01*
X51452503Y-77245490D01*
X51450472Y-77229408D01*
X51976500Y-77229408D01*
X51976500Y-79590579D01*
X51991497Y-79709291D01*
X52050231Y-79857636D01*
X52054889Y-79864047D01*
X52054890Y-79864049D01*
X52075237Y-79892054D01*
X52144011Y-79986714D01*
X52266946Y-80088415D01*
X52274112Y-80091787D01*
X52404142Y-80152974D01*
X52404145Y-80152975D01*
X52411311Y-80156347D01*
X52475003Y-80168497D01*
X52542567Y-80181386D01*
X52542570Y-80181386D01*
X52548408Y-80182500D01*
X53401579Y-80182500D01*
X53458030Y-80175368D01*
X53512426Y-80168497D01*
X53512429Y-80168496D01*
X53520291Y-80167503D01*
X53527658Y-80164586D01*
X53527659Y-80164586D01*
X53561276Y-80151276D01*
X53668636Y-80108769D01*
X53675652Y-80103672D01*
X53791301Y-80019648D01*
X53797714Y-80014989D01*
X53899415Y-79892054D01*
X53931789Y-79823255D01*
X53963974Y-79754858D01*
X53963975Y-79754855D01*
X53967347Y-79747689D01*
X53993500Y-79610592D01*
X53993500Y-77249421D01*
X53990972Y-77229408D01*
X54516500Y-77229408D01*
X54516500Y-79590579D01*
X54531497Y-79709291D01*
X54590231Y-79857636D01*
X54594889Y-79864047D01*
X54594890Y-79864049D01*
X54615237Y-79892054D01*
X54684011Y-79986714D01*
X54806946Y-80088415D01*
X54814112Y-80091787D01*
X54944142Y-80152974D01*
X54944145Y-80152975D01*
X54951311Y-80156347D01*
X55015003Y-80168497D01*
X55082567Y-80181386D01*
X55082570Y-80181386D01*
X55088408Y-80182500D01*
X55941579Y-80182500D01*
X55998030Y-80175368D01*
X56052426Y-80168497D01*
X56052429Y-80168496D01*
X56060291Y-80167503D01*
X56067658Y-80164586D01*
X56067659Y-80164586D01*
X56101276Y-80151276D01*
X56208636Y-80108769D01*
X56215652Y-80103672D01*
X56331301Y-80019648D01*
X56337714Y-80014989D01*
X56439415Y-79892054D01*
X56471789Y-79823255D01*
X56503974Y-79754858D01*
X56503975Y-79754855D01*
X56507347Y-79747689D01*
X56533500Y-79610592D01*
X56533500Y-77249421D01*
X56530972Y-77229408D01*
X57056500Y-77229408D01*
X57056500Y-79590579D01*
X57071497Y-79709291D01*
X57130231Y-79857636D01*
X57134889Y-79864047D01*
X57134890Y-79864049D01*
X57155237Y-79892054D01*
X57224011Y-79986714D01*
X57346946Y-80088415D01*
X57354112Y-80091787D01*
X57484142Y-80152974D01*
X57484145Y-80152975D01*
X57491311Y-80156347D01*
X57555003Y-80168497D01*
X57622567Y-80181386D01*
X57622570Y-80181386D01*
X57628408Y-80182500D01*
X58481579Y-80182500D01*
X58538030Y-80175368D01*
X58592426Y-80168497D01*
X58592429Y-80168496D01*
X58600291Y-80167503D01*
X58607658Y-80164586D01*
X58607659Y-80164586D01*
X58641276Y-80151276D01*
X58748636Y-80108769D01*
X58755652Y-80103672D01*
X58871301Y-80019648D01*
X58877714Y-80014989D01*
X58979415Y-79892054D01*
X59011789Y-79823255D01*
X59043974Y-79754858D01*
X59043975Y-79754855D01*
X59047347Y-79747689D01*
X59073500Y-79610592D01*
X59073500Y-77249421D01*
X59070972Y-77229408D01*
X59596500Y-77229408D01*
X59596500Y-79590579D01*
X59611497Y-79709291D01*
X59670231Y-79857636D01*
X59674889Y-79864047D01*
X59674890Y-79864049D01*
X59695237Y-79892054D01*
X59764011Y-79986714D01*
X59886946Y-80088415D01*
X59894112Y-80091787D01*
X60024142Y-80152974D01*
X60024145Y-80152975D01*
X60031311Y-80156347D01*
X60095003Y-80168497D01*
X60162567Y-80181386D01*
X60162570Y-80181386D01*
X60168408Y-80182500D01*
X61021579Y-80182500D01*
X61078030Y-80175368D01*
X61132426Y-80168497D01*
X61132429Y-80168496D01*
X61140291Y-80167503D01*
X61147658Y-80164586D01*
X61147659Y-80164586D01*
X61181276Y-80151276D01*
X61288636Y-80108769D01*
X61295652Y-80103672D01*
X61411301Y-80019648D01*
X61417714Y-80014989D01*
X61519415Y-79892054D01*
X61551789Y-79823255D01*
X61583974Y-79754858D01*
X61583975Y-79754855D01*
X61587347Y-79747689D01*
X61613500Y-79610592D01*
X61613500Y-77249421D01*
X61610972Y-77229408D01*
X62136500Y-77229408D01*
X62136500Y-79590579D01*
X62151497Y-79709291D01*
X62210231Y-79857636D01*
X62214889Y-79864047D01*
X62214890Y-79864049D01*
X62235237Y-79892054D01*
X62304011Y-79986714D01*
X62426946Y-80088415D01*
X62434112Y-80091787D01*
X62564142Y-80152974D01*
X62564145Y-80152975D01*
X62571311Y-80156347D01*
X62635003Y-80168497D01*
X62702567Y-80181386D01*
X62702570Y-80181386D01*
X62708408Y-80182500D01*
X63561579Y-80182500D01*
X63618030Y-80175368D01*
X63672426Y-80168497D01*
X63672429Y-80168496D01*
X63680291Y-80167503D01*
X63687658Y-80164586D01*
X63687659Y-80164586D01*
X63721276Y-80151276D01*
X63828636Y-80108769D01*
X63835652Y-80103672D01*
X63951301Y-80019648D01*
X63957714Y-80014989D01*
X64059415Y-79892054D01*
X64091789Y-79823255D01*
X64123974Y-79754858D01*
X64123975Y-79754855D01*
X64127347Y-79747689D01*
X64153500Y-79610592D01*
X64153500Y-77249421D01*
X64142656Y-77163580D01*
X64139497Y-77138574D01*
X64139496Y-77138571D01*
X64138503Y-77130709D01*
X64132546Y-77115662D01*
X64110739Y-77060585D01*
X64079769Y-76982364D01*
X64070321Y-76969359D01*
X64021283Y-76901865D01*
X63985989Y-76853286D01*
X63863054Y-76751585D01*
X63813600Y-76728314D01*
X63725858Y-76687026D01*
X63725855Y-76687025D01*
X63718689Y-76683653D01*
X63628892Y-76666523D01*
X63587433Y-76658614D01*
X63587430Y-76658614D01*
X63581592Y-76657500D01*
X62728421Y-76657500D01*
X62675845Y-76664142D01*
X62617574Y-76671503D01*
X62617571Y-76671504D01*
X62609709Y-76672497D01*
X62602342Y-76675414D01*
X62602341Y-76675414D01*
X62601119Y-76675898D01*
X62461364Y-76731231D01*
X62454953Y-76735889D01*
X62454951Y-76735890D01*
X62396825Y-76778121D01*
X62332286Y-76825011D01*
X62230585Y-76947946D01*
X62227213Y-76955112D01*
X62171773Y-77072930D01*
X62162653Y-77092311D01*
X62153828Y-77138574D01*
X62137666Y-77223298D01*
X62136500Y-77229408D01*
X61610972Y-77229408D01*
X61602656Y-77163580D01*
X61599497Y-77138574D01*
X61599496Y-77138571D01*
X61598503Y-77130709D01*
X61592546Y-77115662D01*
X61570739Y-77060585D01*
X61539769Y-76982364D01*
X61530321Y-76969359D01*
X61481283Y-76901865D01*
X61445989Y-76853286D01*
X61323054Y-76751585D01*
X61273600Y-76728314D01*
X61185858Y-76687026D01*
X61185855Y-76687025D01*
X61178689Y-76683653D01*
X61088889Y-76666523D01*
X61025724Y-76634111D01*
X60990109Y-76572694D01*
X60986500Y-76542755D01*
X60986500Y-75105213D01*
X61006502Y-75037092D01*
X61023405Y-75016118D01*
X61144118Y-74895405D01*
X61206430Y-74861379D01*
X61233213Y-74858500D01*
X64156158Y-74858500D01*
X64224279Y-74878502D01*
X64248008Y-74898247D01*
X64324191Y-74979373D01*
X64329619Y-74985153D01*
X64469199Y-75073733D01*
X64476738Y-75076183D01*
X64476741Y-75076184D01*
X64618884Y-75122369D01*
X64618886Y-75122369D01*
X64626422Y-75124818D01*
X64634331Y-75125316D01*
X64634333Y-75125316D01*
X64708916Y-75130009D01*
X64791410Y-75135199D01*
X64799194Y-75133714D01*
X64799196Y-75133714D01*
X64946013Y-75105707D01*
X64946014Y-75105707D01*
X64953797Y-75104222D01*
X65103378Y-75033834D01*
X65109486Y-75028781D01*
X65109984Y-75028465D01*
X65178218Y-75008851D01*
X65246223Y-75029241D01*
X65292410Y-75083160D01*
X65303500Y-75134849D01*
X65303500Y-76541985D01*
X65283498Y-76610106D01*
X65229842Y-76656599D01*
X65193293Y-76666991D01*
X65149709Y-76672497D01*
X65142342Y-76675414D01*
X65142341Y-76675414D01*
X65141119Y-76675898D01*
X65001364Y-76731231D01*
X64994953Y-76735889D01*
X64994951Y-76735890D01*
X64936825Y-76778121D01*
X64872286Y-76825011D01*
X64770585Y-76947946D01*
X64767213Y-76955112D01*
X64711773Y-77072930D01*
X64702653Y-77092311D01*
X64693828Y-77138574D01*
X64677666Y-77223298D01*
X64676500Y-77229408D01*
X64676500Y-79590579D01*
X64691497Y-79709291D01*
X64750231Y-79857636D01*
X64754889Y-79864047D01*
X64754890Y-79864049D01*
X64775237Y-79892054D01*
X64844011Y-79986714D01*
X64966946Y-80088415D01*
X64974112Y-80091787D01*
X65104142Y-80152974D01*
X65104145Y-80152975D01*
X65111311Y-80156347D01*
X65175003Y-80168497D01*
X65242567Y-80181386D01*
X65242570Y-80181386D01*
X65248408Y-80182500D01*
X66101579Y-80182500D01*
X66158030Y-80175368D01*
X66212426Y-80168497D01*
X66212429Y-80168496D01*
X66220291Y-80167503D01*
X66227658Y-80164586D01*
X66227659Y-80164586D01*
X66261276Y-80151276D01*
X66368636Y-80108769D01*
X66375652Y-80103672D01*
X66491301Y-80019648D01*
X66497714Y-80014989D01*
X66599415Y-79892054D01*
X66631789Y-79823255D01*
X66663974Y-79754858D01*
X66663975Y-79754855D01*
X66667347Y-79747689D01*
X66693500Y-79610592D01*
X66693500Y-77249421D01*
X66682656Y-77163580D01*
X66679497Y-77138574D01*
X66679496Y-77138571D01*
X66678503Y-77130709D01*
X66672546Y-77115662D01*
X66650739Y-77060585D01*
X66619769Y-76982364D01*
X66610321Y-76969359D01*
X66561283Y-76901865D01*
X66525989Y-76853286D01*
X66403054Y-76751585D01*
X66353600Y-76728314D01*
X66265858Y-76687026D01*
X66265855Y-76687025D01*
X66258689Y-76683653D01*
X66168889Y-76666523D01*
X66105724Y-76634111D01*
X66070109Y-76572694D01*
X66066500Y-76542755D01*
X66066500Y-65646633D01*
X66086502Y-65578512D01*
X66112184Y-65549549D01*
X66113893Y-65548135D01*
X66148283Y-65519686D01*
X66213520Y-65491675D01*
X66283545Y-65503382D01*
X66336124Y-65551088D01*
X66354565Y-65619648D01*
X66350640Y-65648102D01*
X66345700Y-65667343D01*
X66345700Y-65832657D01*
X66386812Y-65992778D01*
X66390631Y-65999724D01*
X66466453Y-66137644D01*
X66465327Y-66138263D01*
X66486483Y-66197548D01*
X66486689Y-66204746D01*
X66486689Y-76210344D01*
X66484489Y-76231017D01*
X66484311Y-76234802D01*
X66482119Y-76244982D01*
X66483343Y-76255322D01*
X66485816Y-76276221D01*
X66486207Y-76282852D01*
X66486261Y-76282848D01*
X66486689Y-76288024D01*
X66486689Y-76293229D01*
X66487984Y-76301012D01*
X66490143Y-76313983D01*
X66490980Y-76319859D01*
X66494854Y-76352587D01*
X66497035Y-76371019D01*
X66501017Y-76379312D01*
X66502527Y-76388383D01*
X66507470Y-76397544D01*
X66507471Y-76397547D01*
X66514300Y-76410202D01*
X66524957Y-76429952D01*
X66526987Y-76433715D01*
X66529664Y-76438968D01*
X66551974Y-76485428D01*
X66557604Y-76492127D01*
X66559540Y-76494063D01*
X66559560Y-76494085D01*
X66562794Y-76500078D01*
X66570440Y-76507146D01*
X66597497Y-76532157D01*
X66601063Y-76535586D01*
X66914053Y-76848575D01*
X67181883Y-77116405D01*
X67215908Y-77178718D01*
X67216436Y-77217491D01*
X67218173Y-77217655D01*
X67217614Y-77223567D01*
X67216500Y-77229408D01*
X67216500Y-79590579D01*
X67231497Y-79709291D01*
X67290231Y-79857636D01*
X67294889Y-79864047D01*
X67294890Y-79864049D01*
X67315237Y-79892054D01*
X67384011Y-79986714D01*
X67506946Y-80088415D01*
X67514112Y-80091787D01*
X67644142Y-80152974D01*
X67644145Y-80152975D01*
X67651311Y-80156347D01*
X67715003Y-80168497D01*
X67782567Y-80181386D01*
X67782570Y-80181386D01*
X67788408Y-80182500D01*
X68641579Y-80182500D01*
X68698030Y-80175368D01*
X68752426Y-80168497D01*
X68752429Y-80168496D01*
X68760291Y-80167503D01*
X68767658Y-80164586D01*
X68767659Y-80164586D01*
X68801276Y-80151276D01*
X68908636Y-80108769D01*
X68915652Y-80103672D01*
X69031301Y-80019648D01*
X69037714Y-80014989D01*
X69139415Y-79892054D01*
X69171789Y-79823255D01*
X69203974Y-79754858D01*
X69203975Y-79754855D01*
X69207347Y-79747689D01*
X69233500Y-79610592D01*
X69233500Y-77249421D01*
X69230972Y-77229408D01*
X69756500Y-77229408D01*
X69756500Y-79590579D01*
X69771497Y-79709291D01*
X69830231Y-79857636D01*
X69834889Y-79864047D01*
X69834890Y-79864049D01*
X69855237Y-79892054D01*
X69924011Y-79986714D01*
X70046946Y-80088415D01*
X70054112Y-80091787D01*
X70184142Y-80152974D01*
X70184145Y-80152975D01*
X70191311Y-80156347D01*
X70255003Y-80168497D01*
X70322567Y-80181386D01*
X70322570Y-80181386D01*
X70328408Y-80182500D01*
X71181579Y-80182500D01*
X71238030Y-80175368D01*
X71292426Y-80168497D01*
X71292429Y-80168496D01*
X71300291Y-80167503D01*
X71307658Y-80164586D01*
X71307659Y-80164586D01*
X71341276Y-80151276D01*
X71448636Y-80108769D01*
X71455652Y-80103672D01*
X71571301Y-80019648D01*
X71577714Y-80014989D01*
X71679415Y-79892054D01*
X71711789Y-79823255D01*
X71743974Y-79754858D01*
X71743975Y-79754855D01*
X71747347Y-79747689D01*
X71773500Y-79610592D01*
X71773500Y-77249421D01*
X71770200Y-77223298D01*
X71781506Y-77153208D01*
X71806111Y-77118411D01*
X71921137Y-77003385D01*
X71983449Y-76969359D01*
X72010232Y-76966480D01*
X72194349Y-76966480D01*
X72262470Y-76986482D01*
X72308963Y-77040138D01*
X72318117Y-77116090D01*
X72296500Y-77229408D01*
X72296500Y-79590579D01*
X72311497Y-79709291D01*
X72370231Y-79857636D01*
X72374889Y-79864047D01*
X72374890Y-79864049D01*
X72395237Y-79892054D01*
X72464011Y-79986714D01*
X72586946Y-80088415D01*
X72594112Y-80091787D01*
X72724142Y-80152974D01*
X72724145Y-80152975D01*
X72731311Y-80156347D01*
X72795003Y-80168497D01*
X72862567Y-80181386D01*
X72862570Y-80181386D01*
X72868408Y-80182500D01*
X73721579Y-80182500D01*
X73778030Y-80175368D01*
X73832426Y-80168497D01*
X73832429Y-80168496D01*
X73840291Y-80167503D01*
X73847658Y-80164586D01*
X73847659Y-80164586D01*
X73881276Y-80151276D01*
X73988636Y-80108769D01*
X73995652Y-80103672D01*
X74111301Y-80019648D01*
X74117714Y-80014989D01*
X74219415Y-79892054D01*
X74251789Y-79823255D01*
X74283974Y-79754858D01*
X74283975Y-79754855D01*
X74287347Y-79747689D01*
X74313500Y-79610592D01*
X74313500Y-78961520D01*
X74333502Y-78893399D01*
X74387158Y-78846906D01*
X74439500Y-78835520D01*
X80827105Y-78835520D01*
X80847778Y-78837720D01*
X80851563Y-78837898D01*
X80861743Y-78840090D01*
X80892982Y-78836393D01*
X80899613Y-78836002D01*
X80899609Y-78835948D01*
X80904785Y-78835520D01*
X80909990Y-78835520D01*
X80930742Y-78832066D01*
X80936620Y-78831229D01*
X80977440Y-78826398D01*
X80977441Y-78826398D01*
X80987780Y-78825174D01*
X80996073Y-78821192D01*
X81005144Y-78819682D01*
X81014305Y-78814739D01*
X81014308Y-78814738D01*
X81041700Y-78799957D01*
X81050483Y-78795219D01*
X81055729Y-78792545D01*
X81102189Y-78770235D01*
X81108888Y-78764605D01*
X81110824Y-78762669D01*
X81110846Y-78762649D01*
X81116839Y-78759415D01*
X81148931Y-78724698D01*
X81152360Y-78721133D01*
X81732945Y-78140548D01*
X82346000Y-78140548D01*
X82346000Y-78630432D01*
X82346636Y-78639352D01*
X82360186Y-78733969D01*
X82365175Y-78751031D01*
X82417479Y-78866068D01*
X82427048Y-78881030D01*
X82509536Y-78976764D01*
X82522930Y-78988447D01*
X82628961Y-79057173D01*
X82645104Y-79064632D01*
X82768231Y-79101455D01*
X82781265Y-79103859D01*
X82785062Y-79104000D01*
X83454885Y-79104000D01*
X83470124Y-79099525D01*
X83471329Y-79098135D01*
X83473000Y-79090452D01*
X83473000Y-78145115D01*
X83471659Y-78140548D01*
X83727000Y-78140548D01*
X83727000Y-79085885D01*
X83731475Y-79101124D01*
X83732865Y-79102329D01*
X83740548Y-79104000D01*
X84380432Y-79104000D01*
X84389352Y-79103364D01*
X84483969Y-79089814D01*
X84501031Y-79084825D01*
X84616068Y-79032521D01*
X84631030Y-79022952D01*
X84726764Y-78940464D01*
X84738447Y-78927070D01*
X84807173Y-78821039D01*
X84814632Y-78804896D01*
X84851455Y-78681769D01*
X84853859Y-78668735D01*
X84854000Y-78664938D01*
X84854000Y-78145115D01*
X84852659Y-78140548D01*
X88746000Y-78140548D01*
X88746000Y-78630432D01*
X88746636Y-78639352D01*
X88760186Y-78733969D01*
X88765175Y-78751031D01*
X88817479Y-78866068D01*
X88827048Y-78881030D01*
X88909536Y-78976764D01*
X88922930Y-78988447D01*
X89028961Y-79057173D01*
X89045104Y-79064632D01*
X89168231Y-79101455D01*
X89181265Y-79103859D01*
X89185062Y-79104000D01*
X89854885Y-79104000D01*
X89870124Y-79099525D01*
X89871329Y-79098135D01*
X89873000Y-79090452D01*
X89873000Y-78145115D01*
X89871659Y-78140548D01*
X90127000Y-78140548D01*
X90127000Y-79085885D01*
X90131475Y-79101124D01*
X90132865Y-79102329D01*
X90140548Y-79104000D01*
X90780432Y-79104000D01*
X90789352Y-79103364D01*
X90883969Y-79089814D01*
X90901031Y-79084825D01*
X91016068Y-79032521D01*
X91031030Y-79022952D01*
X91126764Y-78940464D01*
X91138447Y-78927070D01*
X91207173Y-78821039D01*
X91214632Y-78804896D01*
X91251455Y-78681769D01*
X91253859Y-78668735D01*
X91254000Y-78664938D01*
X91254000Y-78145115D01*
X91249525Y-78129876D01*
X91248135Y-78128671D01*
X91240452Y-78127000D01*
X90145115Y-78127000D01*
X90129876Y-78131475D01*
X90128671Y-78132865D01*
X90127000Y-78140548D01*
X89871659Y-78140548D01*
X89868525Y-78129876D01*
X89867135Y-78128671D01*
X89859452Y-78127000D01*
X88764115Y-78127000D01*
X88748876Y-78131475D01*
X88747671Y-78132865D01*
X88746000Y-78140548D01*
X84852659Y-78140548D01*
X84849525Y-78129876D01*
X84848135Y-78128671D01*
X84840452Y-78127000D01*
X83745115Y-78127000D01*
X83729876Y-78131475D01*
X83728671Y-78132865D01*
X83727000Y-78140548D01*
X83471659Y-78140548D01*
X83468525Y-78129876D01*
X83467135Y-78128671D01*
X83459452Y-78127000D01*
X82364115Y-78127000D01*
X82348876Y-78131475D01*
X82347671Y-78132865D01*
X82346000Y-78140548D01*
X81732945Y-78140548D01*
X82130905Y-77742588D01*
X82193217Y-77708562D01*
X82264032Y-77713627D01*
X82320868Y-77756174D01*
X82345679Y-77822694D01*
X82346000Y-77831683D01*
X82346000Y-77854885D01*
X82350475Y-77870124D01*
X82351865Y-77871329D01*
X82359548Y-77873000D01*
X84835885Y-77873000D01*
X84851124Y-77868525D01*
X84852329Y-77867135D01*
X84854000Y-77859452D01*
X84854000Y-77369568D01*
X84853364Y-77360648D01*
X84849700Y-77335062D01*
X88746000Y-77335062D01*
X88746000Y-77854885D01*
X88750475Y-77870124D01*
X88751865Y-77871329D01*
X88759548Y-77873000D01*
X89854885Y-77873000D01*
X89870124Y-77868525D01*
X89871329Y-77867135D01*
X89873000Y-77859452D01*
X89873000Y-76914115D01*
X89871659Y-76909548D01*
X90127000Y-76909548D01*
X90127000Y-77854885D01*
X90131475Y-77870124D01*
X90132865Y-77871329D01*
X90140548Y-77873000D01*
X91235885Y-77873000D01*
X91251124Y-77868525D01*
X91252329Y-77867135D01*
X91254000Y-77859452D01*
X91254000Y-77584352D01*
X99642414Y-77584352D01*
X99642949Y-77588870D01*
X99642949Y-77588876D01*
X99651038Y-77657214D01*
X99674048Y-77851623D01*
X99743932Y-78111528D01*
X99850603Y-78358622D01*
X99852994Y-78362500D01*
X99852994Y-78362501D01*
X99921318Y-78473342D01*
X99991827Y-78587729D01*
X100164644Y-78794050D01*
X100365435Y-78973263D01*
X100589993Y-79121613D01*
X100594127Y-79123554D01*
X100594129Y-79123555D01*
X100606775Y-79129492D01*
X100833615Y-79235993D01*
X100837972Y-79237313D01*
X100837973Y-79237313D01*
X101086826Y-79312683D01*
X101086833Y-79312685D01*
X101091196Y-79314006D01*
X101357341Y-79354020D01*
X101361906Y-79354040D01*
X101361907Y-79354040D01*
X101488556Y-79354592D01*
X101626474Y-79355194D01*
X101651867Y-79351603D01*
X101888442Y-79318144D01*
X101888446Y-79318143D01*
X101892958Y-79317505D01*
X102151211Y-79241742D01*
X102176444Y-79230163D01*
X102391673Y-79131396D01*
X102391679Y-79131393D01*
X102395821Y-79129492D01*
X102621665Y-78983107D01*
X102801754Y-78825174D01*
X102820581Y-78808663D01*
X102820582Y-78808662D01*
X102824012Y-78805654D01*
X102834106Y-78793815D01*
X102995660Y-78604326D01*
X102995663Y-78604323D01*
X102998624Y-78600849D01*
X103001051Y-78596987D01*
X103001055Y-78596982D01*
X103139412Y-78376847D01*
X103139413Y-78376845D01*
X103141841Y-78372982D01*
X103143683Y-78368816D01*
X103143686Y-78368810D01*
X103248820Y-78131001D01*
X103248822Y-78130996D01*
X103250664Y-78126829D01*
X103322814Y-77867544D01*
X103356779Y-77600560D01*
X103357506Y-77573714D01*
X103359415Y-77503137D01*
X103359500Y-77500000D01*
X103340023Y-77231570D01*
X103333811Y-77203433D01*
X103282986Y-76973222D01*
X103282985Y-76973218D01*
X103282001Y-76968762D01*
X103214392Y-76790313D01*
X103188266Y-76721354D01*
X103188265Y-76721351D01*
X103186648Y-76717084D01*
X103083755Y-76531841D01*
X103058181Y-76485799D01*
X103058180Y-76485798D01*
X103055963Y-76481806D01*
X102928137Y-76314314D01*
X102895455Y-76271490D01*
X102895454Y-76271489D01*
X102892683Y-76267858D01*
X102879860Y-76255322D01*
X102796456Y-76173789D01*
X102700229Y-76079721D01*
X102482631Y-75921337D01*
X102383227Y-75869038D01*
X102248489Y-75798149D01*
X102248483Y-75798146D01*
X102244449Y-75796024D01*
X102129399Y-75755395D01*
X101994985Y-75707928D01*
X101994984Y-75707928D01*
X101990672Y-75706405D01*
X101863160Y-75681273D01*
X101731088Y-75655241D01*
X101731082Y-75655240D01*
X101726616Y-75654360D01*
X101722063Y-75654133D01*
X101722060Y-75654133D01*
X101462382Y-75641206D01*
X101462376Y-75641206D01*
X101457813Y-75640979D01*
X101189894Y-75666540D01*
X101185460Y-75667625D01*
X101185454Y-75667626D01*
X100933027Y-75729395D01*
X100928470Y-75730510D01*
X100679020Y-75831548D01*
X100530679Y-75918405D01*
X100467584Y-75955349D01*
X100446768Y-75967537D01*
X100346633Y-76047617D01*
X100296333Y-76087843D01*
X100236579Y-76135629D01*
X100052857Y-76332303D01*
X100016911Y-76384119D01*
X99902053Y-76549684D01*
X99902050Y-76549690D01*
X99899450Y-76553437D01*
X99897418Y-76557522D01*
X99897416Y-76557525D01*
X99847431Y-76658000D01*
X99779573Y-76794401D01*
X99778152Y-76798735D01*
X99778151Y-76798738D01*
X99699016Y-77040138D01*
X99695735Y-77050146D01*
X99649694Y-77315315D01*
X99648226Y-77369568D01*
X99642865Y-77567702D01*
X99642414Y-77584352D01*
X91254000Y-77584352D01*
X91254000Y-77369568D01*
X91253364Y-77360648D01*
X91239814Y-77266031D01*
X91234825Y-77248969D01*
X91182521Y-77133932D01*
X91172952Y-77118970D01*
X91090464Y-77023236D01*
X91077070Y-77011553D01*
X90971039Y-76942827D01*
X90954896Y-76935368D01*
X90831769Y-76898545D01*
X90818735Y-76896141D01*
X90814938Y-76896000D01*
X90145115Y-76896000D01*
X90129876Y-76900475D01*
X90128671Y-76901865D01*
X90127000Y-76909548D01*
X89871659Y-76909548D01*
X89868525Y-76898876D01*
X89867135Y-76897671D01*
X89859452Y-76896000D01*
X89219568Y-76896000D01*
X89210648Y-76896636D01*
X89116031Y-76910186D01*
X89098969Y-76915175D01*
X88983932Y-76967479D01*
X88968970Y-76977048D01*
X88873236Y-77059536D01*
X88861553Y-77072930D01*
X88792827Y-77178961D01*
X88785368Y-77195104D01*
X88748545Y-77318231D01*
X88746141Y-77331265D01*
X88746000Y-77335062D01*
X84849700Y-77335062D01*
X84839814Y-77266031D01*
X84834825Y-77248969D01*
X84782521Y-77133932D01*
X84772951Y-77118969D01*
X84686209Y-77018299D01*
X84656895Y-76953636D01*
X84667194Y-76883390D01*
X84692567Y-76846956D01*
X85621118Y-75918405D01*
X85683430Y-75884379D01*
X85710213Y-75881500D01*
X88729045Y-75881500D01*
X88797166Y-75901502D01*
X88843746Y-75955349D01*
X88888178Y-76053072D01*
X89010114Y-76224970D01*
X89099083Y-76310139D01*
X89155274Y-76363930D01*
X89162355Y-76370709D01*
X89339408Y-76485031D01*
X89344974Y-76487274D01*
X89529316Y-76561566D01*
X89529319Y-76561567D01*
X89534885Y-76563810D01*
X89638589Y-76584062D01*
X89737286Y-76603337D01*
X89737289Y-76603337D01*
X89741732Y-76604205D01*
X89747764Y-76604500D01*
X90202406Y-76604500D01*
X90359801Y-76589483D01*
X90562033Y-76530155D01*
X90606708Y-76507146D01*
X90744066Y-76436402D01*
X90744069Y-76436400D01*
X90749397Y-76433656D01*
X90818580Y-76379312D01*
X90910416Y-76307175D01*
X90910421Y-76307171D01*
X90915133Y-76303469D01*
X90919704Y-76298202D01*
X91002735Y-76202516D01*
X91053261Y-76144290D01*
X91158797Y-75961864D01*
X91161060Y-75955349D01*
X91225965Y-75768442D01*
X91227934Y-75762772D01*
X91250018Y-75610459D01*
X91257314Y-75560139D01*
X91257314Y-75560136D01*
X91258175Y-75554199D01*
X91248431Y-75343670D01*
X91241846Y-75316344D01*
X91200459Y-75144615D01*
X91200458Y-75144613D01*
X91199053Y-75138782D01*
X91194536Y-75128846D01*
X91114302Y-74952383D01*
X91111822Y-74946928D01*
X90994717Y-74781841D01*
X90993352Y-74779916D01*
X90993351Y-74779915D01*
X90989886Y-74775030D01*
X90847620Y-74638840D01*
X90841975Y-74633436D01*
X90837645Y-74629291D01*
X90660592Y-74514969D01*
X90555433Y-74472589D01*
X90470684Y-74438434D01*
X90470681Y-74438433D01*
X90465115Y-74436190D01*
X90361411Y-74415938D01*
X90262714Y-74396663D01*
X90262711Y-74396663D01*
X90258268Y-74395795D01*
X90252236Y-74395500D01*
X89797594Y-74395500D01*
X89640199Y-74410517D01*
X89437967Y-74469845D01*
X89432640Y-74472589D01*
X89432639Y-74472589D01*
X89255934Y-74563598D01*
X89255931Y-74563600D01*
X89250603Y-74566344D01*
X89223195Y-74587873D01*
X89089584Y-74692825D01*
X89089579Y-74692829D01*
X89084867Y-74696531D01*
X89080936Y-74701061D01*
X89080935Y-74701062D01*
X89049512Y-74737274D01*
X88946739Y-74855710D01*
X88841203Y-75038136D01*
X88839237Y-75043797D01*
X88838707Y-75044955D01*
X88792162Y-75098565D01*
X88724145Y-75118500D01*
X85552845Y-75118500D01*
X85532172Y-75116300D01*
X85528387Y-75116122D01*
X85518207Y-75113930D01*
X85486968Y-75117627D01*
X85480337Y-75118018D01*
X85480341Y-75118072D01*
X85475165Y-75118500D01*
X85469960Y-75118500D01*
X85451401Y-75121589D01*
X85449206Y-75121954D01*
X85443330Y-75122791D01*
X85402510Y-75127622D01*
X85402509Y-75127622D01*
X85392170Y-75128846D01*
X85383877Y-75132828D01*
X85374806Y-75134338D01*
X85365645Y-75139281D01*
X85365642Y-75139282D01*
X85329474Y-75158798D01*
X85324221Y-75161475D01*
X85277761Y-75183785D01*
X85271062Y-75189415D01*
X85269126Y-75191351D01*
X85269104Y-75191371D01*
X85263111Y-75194605D01*
X85256043Y-75202251D01*
X85231020Y-75229321D01*
X85227590Y-75232887D01*
X85059478Y-75400999D01*
X84997166Y-75435025D01*
X84926351Y-75429960D01*
X84869515Y-75387413D01*
X84847890Y-75341425D01*
X84800459Y-75144615D01*
X84800458Y-75144613D01*
X84799053Y-75138782D01*
X84794536Y-75128846D01*
X84714302Y-74952383D01*
X84711822Y-74946928D01*
X84594717Y-74781841D01*
X84593352Y-74779916D01*
X84593351Y-74779915D01*
X84589886Y-74775030D01*
X84447620Y-74638840D01*
X84441975Y-74633436D01*
X84437645Y-74629291D01*
X84260592Y-74514969D01*
X84155433Y-74472589D01*
X84070684Y-74438434D01*
X84070681Y-74438433D01*
X84065115Y-74436190D01*
X83961411Y-74415938D01*
X83862714Y-74396663D01*
X83862711Y-74396663D01*
X83858268Y-74395795D01*
X83852236Y-74395500D01*
X83397594Y-74395500D01*
X83240199Y-74410517D01*
X83037967Y-74469845D01*
X83032640Y-74472589D01*
X83032639Y-74472589D01*
X82855934Y-74563598D01*
X82855931Y-74563600D01*
X82850603Y-74566344D01*
X82823195Y-74587873D01*
X82689584Y-74692825D01*
X82689579Y-74692829D01*
X82684867Y-74696531D01*
X82680936Y-74701061D01*
X82680935Y-74701062D01*
X82649512Y-74737274D01*
X82546739Y-74855710D01*
X82441203Y-75038136D01*
X82439234Y-75043805D01*
X82439233Y-75043808D01*
X82374812Y-75229321D01*
X82372066Y-75237228D01*
X82371206Y-75243160D01*
X82371205Y-75243164D01*
X82360913Y-75314150D01*
X82331343Y-75378696D01*
X82325312Y-75385165D01*
X80128882Y-77581595D01*
X80066570Y-77615621D01*
X80039787Y-77618500D01*
X79432341Y-77618500D01*
X79364220Y-77598498D01*
X79317727Y-77544842D01*
X79307623Y-77474568D01*
X79318333Y-77438852D01*
X79363972Y-77341864D01*
X79363975Y-77341855D01*
X79367347Y-77334689D01*
X79386150Y-77236121D01*
X79392386Y-77203433D01*
X79392386Y-77203430D01*
X79393500Y-77197592D01*
X79393500Y-74836421D01*
X79380975Y-74737274D01*
X79379497Y-74725574D01*
X79379496Y-74725571D01*
X79378503Y-74717709D01*
X79374977Y-74708802D01*
X79347605Y-74639669D01*
X79319769Y-74569364D01*
X79299970Y-74542112D01*
X79272879Y-74504825D01*
X79225989Y-74440286D01*
X79103054Y-74338585D01*
X79053600Y-74315314D01*
X78965858Y-74274026D01*
X78965855Y-74274025D01*
X78958689Y-74270653D01*
X78885216Y-74256637D01*
X78827433Y-74245614D01*
X78827430Y-74245614D01*
X78821592Y-74244500D01*
X77968421Y-74244500D01*
X77911970Y-74251632D01*
X77857574Y-74258503D01*
X77857571Y-74258504D01*
X77849709Y-74259497D01*
X77842342Y-74262414D01*
X77842341Y-74262414D01*
X77825283Y-74269168D01*
X77701364Y-74318231D01*
X77572286Y-74412011D01*
X77470585Y-74534946D01*
X77467213Y-74542112D01*
X77410047Y-74663598D01*
X77402653Y-74679311D01*
X77392644Y-74731778D01*
X77385184Y-74770888D01*
X77376500Y-74816408D01*
X77376500Y-77177579D01*
X77379766Y-77203433D01*
X77389672Y-77281841D01*
X77391497Y-77296291D01*
X77394414Y-77303658D01*
X77394414Y-77303659D01*
X77450231Y-77444636D01*
X77447383Y-77445764D01*
X77459599Y-77501106D01*
X77434991Y-77567702D01*
X77378285Y-77610421D01*
X77333893Y-77618500D01*
X75710212Y-77618500D01*
X75642091Y-77598498D01*
X75621117Y-77581595D01*
X75018635Y-76979112D01*
X74392110Y-76352587D01*
X74379048Y-76336414D01*
X74376495Y-76333609D01*
X74370847Y-76324861D01*
X74362672Y-76318416D01*
X74362670Y-76318414D01*
X74346141Y-76305384D01*
X74341175Y-76300971D01*
X74341140Y-76301012D01*
X74337177Y-76297654D01*
X74333500Y-76293977D01*
X74316350Y-76281722D01*
X74311627Y-76278176D01*
X74310991Y-76277674D01*
X74294487Y-76264663D01*
X74279355Y-76252733D01*
X74279353Y-76252732D01*
X74271178Y-76246287D01*
X74262500Y-76243240D01*
X74255017Y-76237892D01*
X74245039Y-76234908D01*
X74245035Y-76234906D01*
X74205674Y-76223135D01*
X74200026Y-76221300D01*
X74158913Y-76206862D01*
X74158910Y-76206861D01*
X74151431Y-76204235D01*
X74142713Y-76203480D01*
X74139972Y-76203480D01*
X74139948Y-76203479D01*
X74133421Y-76201527D01*
X74086186Y-76203383D01*
X74081239Y-76203480D01*
X71852864Y-76203480D01*
X71832191Y-76201280D01*
X71828406Y-76201102D01*
X71818226Y-76198910D01*
X71786986Y-76202607D01*
X71780356Y-76202998D01*
X71780360Y-76203052D01*
X71775183Y-76203480D01*
X71769980Y-76203480D01*
X71749210Y-76206937D01*
X71743349Y-76207771D01*
X71702530Y-76212602D01*
X71702529Y-76212602D01*
X71692190Y-76213826D01*
X71683897Y-76217808D01*
X71674826Y-76219318D01*
X71653144Y-76231017D01*
X71629506Y-76243771D01*
X71624217Y-76246466D01*
X71577780Y-76268765D01*
X71571082Y-76274396D01*
X71569147Y-76276331D01*
X71569126Y-76276350D01*
X71563131Y-76279585D01*
X71556062Y-76287232D01*
X71556061Y-76287233D01*
X71531028Y-76314314D01*
X71527598Y-76317880D01*
X71224883Y-76620595D01*
X71162571Y-76654621D01*
X71135788Y-76657500D01*
X70348421Y-76657500D01*
X70295845Y-76664142D01*
X70237574Y-76671503D01*
X70237571Y-76671504D01*
X70229709Y-76672497D01*
X70222342Y-76675414D01*
X70222341Y-76675414D01*
X70221119Y-76675898D01*
X70081364Y-76731231D01*
X70074953Y-76735889D01*
X70074951Y-76735890D01*
X70016825Y-76778121D01*
X69952286Y-76825011D01*
X69850585Y-76947946D01*
X69847213Y-76955112D01*
X69791773Y-77072930D01*
X69782653Y-77092311D01*
X69773828Y-77138574D01*
X69757666Y-77223298D01*
X69756500Y-77229408D01*
X69230972Y-77229408D01*
X69222656Y-77163580D01*
X69219497Y-77138574D01*
X69219496Y-77138571D01*
X69218503Y-77130709D01*
X69212546Y-77115662D01*
X69190739Y-77060585D01*
X69159769Y-76982364D01*
X69150321Y-76969359D01*
X69101283Y-76901865D01*
X69065989Y-76853286D01*
X68943054Y-76751585D01*
X68893600Y-76728314D01*
X68805858Y-76687026D01*
X68805855Y-76687025D01*
X68798689Y-76683653D01*
X68708892Y-76666523D01*
X68667433Y-76658614D01*
X68667430Y-76658614D01*
X68661592Y-76657500D01*
X67854213Y-76657500D01*
X67786092Y-76637498D01*
X67765118Y-76620595D01*
X67286594Y-76142071D01*
X67252568Y-76079759D01*
X67249689Y-76052976D01*
X67249689Y-71090548D01*
X78971000Y-71090548D01*
X78971000Y-71230432D01*
X78971636Y-71239352D01*
X78985186Y-71333969D01*
X78990175Y-71351031D01*
X79042479Y-71466068D01*
X79052048Y-71481030D01*
X79134536Y-71576764D01*
X79147930Y-71588447D01*
X79253961Y-71657173D01*
X79270104Y-71664632D01*
X79393231Y-71701455D01*
X79406265Y-71703859D01*
X79410062Y-71704000D01*
X79804885Y-71704000D01*
X79820124Y-71699525D01*
X79821329Y-71698135D01*
X79823000Y-71690452D01*
X79823000Y-71095115D01*
X79818525Y-71079876D01*
X79817135Y-71078671D01*
X79809452Y-71077000D01*
X78989115Y-71077000D01*
X78973876Y-71081475D01*
X78972671Y-71082865D01*
X78971000Y-71090548D01*
X67249689Y-71090548D01*
X67249689Y-70635062D01*
X78971000Y-70635062D01*
X78971000Y-70804885D01*
X78975475Y-70820124D01*
X78976865Y-70821329D01*
X78984548Y-70823000D01*
X79804885Y-70823000D01*
X79820124Y-70818525D01*
X79821329Y-70817135D01*
X79823000Y-70809452D01*
X79823000Y-70214115D01*
X79821659Y-70209548D01*
X80077000Y-70209548D01*
X80077000Y-71685885D01*
X80081475Y-71701124D01*
X80082865Y-71702329D01*
X80090548Y-71704000D01*
X80455432Y-71704000D01*
X80464352Y-71703364D01*
X80558969Y-71689814D01*
X80576031Y-71684825D01*
X80691068Y-71632521D01*
X80706031Y-71622952D01*
X80796889Y-71544664D01*
X80861551Y-71515351D01*
X80931797Y-71525650D01*
X80985323Y-71572292D01*
X81003006Y-71617048D01*
X81011258Y-71661355D01*
X81070747Y-71757865D01*
X81160991Y-71826488D01*
X81257725Y-71854500D01*
X81526746Y-71854500D01*
X81568609Y-71846703D01*
X81639238Y-71853894D01*
X81694770Y-71898129D01*
X81717570Y-71965365D01*
X81716955Y-71976233D01*
X81717027Y-71976234D01*
X81716917Y-71985210D01*
X81715536Y-71994081D01*
X81716700Y-72002983D01*
X81716700Y-72002986D01*
X81729687Y-72102298D01*
X81733348Y-72130292D01*
X81788673Y-72256028D01*
X81794450Y-72262901D01*
X81794451Y-72262902D01*
X81853250Y-72332852D01*
X81877065Y-72361183D01*
X81991417Y-72437303D01*
X82122538Y-72478268D01*
X82259885Y-72480785D01*
X82360254Y-72453421D01*
X82383755Y-72447014D01*
X82383756Y-72447014D01*
X82392418Y-72444652D01*
X82400068Y-72439955D01*
X82400070Y-72439954D01*
X82501827Y-72377475D01*
X82501828Y-72377474D01*
X82509483Y-72372774D01*
X82515512Y-72366113D01*
X82519598Y-72362721D01*
X82584787Y-72334598D01*
X82654832Y-72346182D01*
X82676814Y-72360885D01*
X82677065Y-72361183D01*
X82791417Y-72437303D01*
X82922538Y-72478268D01*
X83059885Y-72480785D01*
X83160254Y-72453421D01*
X83183755Y-72447014D01*
X83183756Y-72447014D01*
X83192418Y-72444652D01*
X83200068Y-72439955D01*
X83200070Y-72439954D01*
X83301835Y-72377470D01*
X83301836Y-72377470D01*
X83309483Y-72372774D01*
X83401669Y-72270929D01*
X83408527Y-72256775D01*
X83457650Y-72155383D01*
X83457650Y-72155382D01*
X83461564Y-72147304D01*
X83484355Y-72011837D01*
X83484500Y-72000000D01*
X83482931Y-71989041D01*
X83493071Y-71918776D01*
X83539591Y-71865145D01*
X83607722Y-71845178D01*
X83642706Y-71850151D01*
X83649181Y-71852026D01*
X83649182Y-71852026D01*
X83657725Y-71854500D01*
X83926746Y-71854500D01*
X84011355Y-71838742D01*
X84107865Y-71779253D01*
X84114907Y-71769993D01*
X84116071Y-71768937D01*
X84179972Y-71737997D01*
X84250455Y-71746516D01*
X84276974Y-71761983D01*
X84351954Y-71818999D01*
X84372388Y-71829276D01*
X84449224Y-71851527D01*
X84458720Y-71852874D01*
X84470124Y-71849525D01*
X84471329Y-71848135D01*
X84473000Y-71840452D01*
X84473000Y-71224000D01*
X84493002Y-71155879D01*
X84546658Y-71109386D01*
X84599000Y-71098000D01*
X84601000Y-71098000D01*
X84669121Y-71118002D01*
X84715614Y-71171658D01*
X84727000Y-71224000D01*
X84727000Y-71835838D01*
X84730718Y-71848502D01*
X84746120Y-71850392D01*
X84799738Y-71840406D01*
X84824640Y-71830797D01*
X84895394Y-71824934D01*
X84958085Y-71858255D01*
X84992811Y-71920180D01*
X84996000Y-71948349D01*
X84996000Y-72030432D01*
X84996636Y-72039352D01*
X85010186Y-72133969D01*
X85015175Y-72151031D01*
X85067479Y-72266068D01*
X85077048Y-72281030D01*
X85159536Y-72376764D01*
X85172930Y-72388447D01*
X85278961Y-72457173D01*
X85295104Y-72464632D01*
X85418231Y-72501455D01*
X85431265Y-72503859D01*
X85435062Y-72504000D01*
X86454885Y-72504000D01*
X86470124Y-72499525D01*
X86471329Y-72498135D01*
X86473000Y-72490452D01*
X86473000Y-71815548D01*
X86727000Y-71815548D01*
X86727000Y-72485885D01*
X86731475Y-72501124D01*
X86732865Y-72502329D01*
X86740548Y-72504000D01*
X87730432Y-72504000D01*
X87739352Y-72503364D01*
X87833969Y-72489814D01*
X87851031Y-72484825D01*
X87966068Y-72432521D01*
X87981030Y-72422952D01*
X88076764Y-72340464D01*
X88088447Y-72327070D01*
X88157173Y-72221039D01*
X88164632Y-72204896D01*
X88201455Y-72081769D01*
X88203859Y-72068735D01*
X88204000Y-72064938D01*
X88204000Y-71820115D01*
X88199525Y-71804876D01*
X88198135Y-71803671D01*
X88190452Y-71802000D01*
X86745115Y-71802000D01*
X86729876Y-71806475D01*
X86728671Y-71807865D01*
X86727000Y-71815548D01*
X86473000Y-71815548D01*
X86473000Y-70864115D01*
X86471659Y-70859548D01*
X86727000Y-70859548D01*
X86727000Y-71529885D01*
X86731475Y-71545124D01*
X86732865Y-71546329D01*
X86740548Y-71548000D01*
X88185885Y-71548000D01*
X88201124Y-71543525D01*
X88202329Y-71542135D01*
X88204000Y-71534452D01*
X88204000Y-71319568D01*
X88203364Y-71310648D01*
X88189814Y-71216031D01*
X88184825Y-71198969D01*
X88132521Y-71083932D01*
X88122952Y-71068970D01*
X88040464Y-70973236D01*
X88027070Y-70961553D01*
X87921039Y-70892827D01*
X87904896Y-70885368D01*
X87781769Y-70848545D01*
X87768735Y-70846141D01*
X87764938Y-70846000D01*
X86745115Y-70846000D01*
X86729876Y-70850475D01*
X86728671Y-70851865D01*
X86727000Y-70859548D01*
X86471659Y-70859548D01*
X86468525Y-70848876D01*
X86467135Y-70847671D01*
X86459452Y-70846000D01*
X85469568Y-70846000D01*
X85460648Y-70846636D01*
X85366031Y-70860186D01*
X85348969Y-70865175D01*
X85233932Y-70917479D01*
X85218969Y-70927048D01*
X85208360Y-70936190D01*
X85143698Y-70965505D01*
X85073452Y-70955206D01*
X85019925Y-70908565D01*
X85002241Y-70863808D01*
X84990406Y-70800259D01*
X84982173Y-70778924D01*
X84934987Y-70702373D01*
X84919623Y-70685430D01*
X84912872Y-70680296D01*
X84870755Y-70623142D01*
X84866224Y-70552290D01*
X84900717Y-70490236D01*
X84963284Y-70456681D01*
X84989139Y-70454000D01*
X85021045Y-70454000D01*
X85032551Y-70452938D01*
X85099798Y-70440414D01*
X85121145Y-70432177D01*
X85197660Y-70385013D01*
X85214603Y-70369649D01*
X85269011Y-70298099D01*
X85279287Y-70277668D01*
X85301526Y-70200868D01*
X85304000Y-70183432D01*
X85304000Y-70145115D01*
X85299525Y-70129876D01*
X85298135Y-70128671D01*
X85290452Y-70127000D01*
X80714115Y-70127000D01*
X80698876Y-70131475D01*
X80682008Y-70150941D01*
X80667482Y-70177544D01*
X80605170Y-70211569D01*
X80542285Y-70209166D01*
X80506772Y-70198546D01*
X80493735Y-70196141D01*
X80489938Y-70196000D01*
X80095115Y-70196000D01*
X80079876Y-70200475D01*
X80078671Y-70201865D01*
X80077000Y-70209548D01*
X79821659Y-70209548D01*
X79818525Y-70198876D01*
X79817135Y-70197671D01*
X79809452Y-70196000D01*
X79444568Y-70196000D01*
X79435648Y-70196636D01*
X79341031Y-70210186D01*
X79323969Y-70215175D01*
X79208932Y-70267479D01*
X79193970Y-70277048D01*
X79098236Y-70359536D01*
X79086553Y-70372930D01*
X79017827Y-70478961D01*
X79010368Y-70495104D01*
X78973545Y-70618231D01*
X78971141Y-70631265D01*
X78971000Y-70635062D01*
X67249689Y-70635062D01*
X67249689Y-66435589D01*
X67269691Y-66367468D01*
X67322039Y-66321581D01*
X67346208Y-66310208D01*
X67353378Y-66306834D01*
X67359483Y-66301784D01*
X67359487Y-66301781D01*
X67474647Y-66206512D01*
X67480755Y-66201459D01*
X67511463Y-66159193D01*
X67573265Y-66074130D01*
X67573266Y-66074128D01*
X67577924Y-66067717D01*
X67638781Y-65914011D01*
X67641232Y-65894615D01*
X67658506Y-65757868D01*
X67659500Y-65750000D01*
X67649058Y-65667343D01*
X67639775Y-65593854D01*
X67639774Y-65593851D01*
X67638781Y-65585989D01*
X67624963Y-65551088D01*
X67580842Y-65439652D01*
X67580841Y-65439650D01*
X67577924Y-65432283D01*
X67549689Y-65393420D01*
X67485415Y-65304955D01*
X67480755Y-65298541D01*
X67474647Y-65293488D01*
X67359487Y-65198219D01*
X67359483Y-65198216D01*
X67353378Y-65193166D01*
X67203797Y-65122778D01*
X67196014Y-65121293D01*
X67196013Y-65121293D01*
X67049196Y-65093286D01*
X67049194Y-65093286D01*
X67041410Y-65091801D01*
X66958916Y-65096992D01*
X66884333Y-65101684D01*
X66884331Y-65101684D01*
X66876422Y-65102182D01*
X66868886Y-65104631D01*
X66868884Y-65104631D01*
X66726741Y-65150816D01*
X66726738Y-65150817D01*
X66719199Y-65153267D01*
X66648366Y-65198219D01*
X66587537Y-65236822D01*
X66519303Y-65256435D01*
X66451298Y-65236044D01*
X66405112Y-65182124D01*
X66395017Y-65114645D01*
X66396592Y-65102182D01*
X66409500Y-65000000D01*
X66398088Y-64909664D01*
X66389775Y-64843854D01*
X66389774Y-64843851D01*
X66388781Y-64835989D01*
X66377372Y-64807173D01*
X66330842Y-64689652D01*
X66330841Y-64689650D01*
X66327924Y-64682283D01*
X66230755Y-64548541D01*
X66173325Y-64501031D01*
X66109487Y-64448219D01*
X66109483Y-64448216D01*
X66103378Y-64443166D01*
X65953797Y-64372778D01*
X65946014Y-64371293D01*
X65946013Y-64371293D01*
X65799196Y-64343286D01*
X65799194Y-64343286D01*
X65791410Y-64341801D01*
X65708916Y-64346991D01*
X65634333Y-64351684D01*
X65634331Y-64351684D01*
X65626422Y-64352182D01*
X65618886Y-64354631D01*
X65618884Y-64354631D01*
X65476741Y-64400816D01*
X65476738Y-64400817D01*
X65469199Y-64403267D01*
X65329619Y-64491847D01*
X65324192Y-64497626D01*
X65324191Y-64497627D01*
X65270412Y-64554896D01*
X65216453Y-64612356D01*
X65136812Y-64757222D01*
X65095700Y-64917343D01*
X65095700Y-65082657D01*
X65136812Y-65242778D01*
X65216453Y-65387644D01*
X65256826Y-65430636D01*
X65269350Y-65443973D01*
X65301401Y-65507323D01*
X65303500Y-65530226D01*
X65303500Y-73819151D01*
X65283498Y-73887272D01*
X65229842Y-73933765D01*
X65159568Y-73943869D01*
X65109984Y-73925535D01*
X65109486Y-73925219D01*
X65103378Y-73920166D01*
X64953797Y-73849778D01*
X64946014Y-73848293D01*
X64946013Y-73848293D01*
X64799196Y-73820286D01*
X64799194Y-73820286D01*
X64791410Y-73818801D01*
X64708916Y-73823991D01*
X64634333Y-73828684D01*
X64634331Y-73828684D01*
X64626422Y-73829182D01*
X64618886Y-73831631D01*
X64618884Y-73831631D01*
X64476741Y-73877816D01*
X64476738Y-73877817D01*
X64469199Y-73880267D01*
X64329619Y-73968847D01*
X64324192Y-73974626D01*
X64324191Y-73974627D01*
X64248008Y-74055753D01*
X64186795Y-74091719D01*
X64156158Y-74095500D01*
X61075844Y-74095500D01*
X61055171Y-74093300D01*
X61051386Y-74093122D01*
X61041206Y-74090930D01*
X61009966Y-74094627D01*
X61003336Y-74095018D01*
X61003340Y-74095072D01*
X60998163Y-74095500D01*
X60992960Y-74095500D01*
X60972190Y-74098957D01*
X60966329Y-74099791D01*
X60925510Y-74104622D01*
X60925509Y-74104622D01*
X60915170Y-74105846D01*
X60906877Y-74109828D01*
X60897806Y-74111338D01*
X60856147Y-74133816D01*
X60852486Y-74135791D01*
X60847197Y-74138486D01*
X60800760Y-74160785D01*
X60794062Y-74166416D01*
X60792127Y-74168351D01*
X60792106Y-74168370D01*
X60786111Y-74171605D01*
X60779042Y-74179252D01*
X60779041Y-74179253D01*
X60754021Y-74206320D01*
X60750591Y-74209887D01*
X60372604Y-74587873D01*
X60356428Y-74600937D01*
X60353627Y-74603486D01*
X60344881Y-74609133D01*
X60338436Y-74617308D01*
X60338434Y-74617310D01*
X60325404Y-74633839D01*
X60320991Y-74638805D01*
X60321032Y-74638840D01*
X60317674Y-74642803D01*
X60313997Y-74646480D01*
X60301742Y-74663630D01*
X60298196Y-74668353D01*
X60278903Y-74692825D01*
X60266307Y-74708802D01*
X60263260Y-74717480D01*
X60257912Y-74724963D01*
X60254928Y-74734941D01*
X60254926Y-74734945D01*
X60243155Y-74774306D01*
X60241320Y-74779954D01*
X60228519Y-74816408D01*
X60224255Y-74828549D01*
X60223500Y-74837267D01*
X60223500Y-74840008D01*
X60223499Y-74840032D01*
X60221547Y-74846559D01*
X60221956Y-74856965D01*
X60223403Y-74893794D01*
X60223500Y-74898741D01*
X60223500Y-76541985D01*
X60203498Y-76610106D01*
X60149842Y-76656599D01*
X60113293Y-76666991D01*
X60069709Y-76672497D01*
X60062342Y-76675414D01*
X60062341Y-76675414D01*
X60061119Y-76675898D01*
X59921364Y-76731231D01*
X59914953Y-76735889D01*
X59914951Y-76735890D01*
X59856825Y-76778121D01*
X59792286Y-76825011D01*
X59690585Y-76947946D01*
X59687213Y-76955112D01*
X59631773Y-77072930D01*
X59622653Y-77092311D01*
X59613828Y-77138574D01*
X59597666Y-77223298D01*
X59596500Y-77229408D01*
X59070972Y-77229408D01*
X59062656Y-77163580D01*
X59059497Y-77138574D01*
X59059496Y-77138571D01*
X59058503Y-77130709D01*
X59052546Y-77115662D01*
X59030739Y-77060585D01*
X58999769Y-76982364D01*
X58990321Y-76969359D01*
X58941283Y-76901865D01*
X58905989Y-76853286D01*
X58783054Y-76751585D01*
X58775889Y-76748213D01*
X58775885Y-76748211D01*
X58703853Y-76714316D01*
X58650731Y-76667213D01*
X58631500Y-76600307D01*
X58631500Y-73099391D01*
X58651502Y-73031270D01*
X58677186Y-73002306D01*
X58704747Y-72979506D01*
X58704750Y-72979503D01*
X58710859Y-72974449D01*
X58760359Y-72906318D01*
X58803369Y-72847120D01*
X58803370Y-72847118D01*
X58808028Y-72840707D01*
X58811094Y-72832965D01*
X58865968Y-72694369D01*
X58865968Y-72694367D01*
X58868885Y-72687001D01*
X58870501Y-72674216D01*
X58888610Y-72530858D01*
X58889604Y-72522990D01*
X58882232Y-72464632D01*
X58869879Y-72366844D01*
X58869878Y-72366841D01*
X58868885Y-72358979D01*
X58861964Y-72341499D01*
X58810946Y-72212642D01*
X58810945Y-72212640D01*
X58808028Y-72205273D01*
X58794850Y-72187134D01*
X58715519Y-72077945D01*
X58710859Y-72071531D01*
X58661179Y-72030432D01*
X58589591Y-71971209D01*
X58589587Y-71971206D01*
X58583482Y-71966156D01*
X58433901Y-71895768D01*
X58426118Y-71894283D01*
X58426117Y-71894283D01*
X58279300Y-71866276D01*
X58279298Y-71866276D01*
X58271514Y-71864791D01*
X58189020Y-71869981D01*
X58114437Y-71874674D01*
X58114435Y-71874674D01*
X58106526Y-71875172D01*
X58098990Y-71877621D01*
X58098988Y-71877621D01*
X57956845Y-71923806D01*
X57956842Y-71923807D01*
X57949303Y-71926257D01*
X57809723Y-72014837D01*
X57804296Y-72020616D01*
X57804295Y-72020617D01*
X57710302Y-72120709D01*
X57696557Y-72135346D01*
X57616916Y-72280212D01*
X57575804Y-72440333D01*
X57575804Y-72605647D01*
X57616916Y-72765768D01*
X57696557Y-72910634D01*
X57701981Y-72916410D01*
X57799111Y-73019842D01*
X57809723Y-73031143D01*
X57816419Y-73035392D01*
X57822523Y-73040442D01*
X57820339Y-73043082D01*
X57856855Y-73084808D01*
X57868500Y-73137713D01*
X57868500Y-76531500D01*
X57848498Y-76599621D01*
X57794842Y-76646114D01*
X57742500Y-76657500D01*
X57648421Y-76657500D01*
X57595845Y-76664142D01*
X57537574Y-76671503D01*
X57537571Y-76671504D01*
X57529709Y-76672497D01*
X57522342Y-76675414D01*
X57522341Y-76675414D01*
X57521119Y-76675898D01*
X57381364Y-76731231D01*
X57374953Y-76735889D01*
X57374951Y-76735890D01*
X57316825Y-76778121D01*
X57252286Y-76825011D01*
X57150585Y-76947946D01*
X57147213Y-76955112D01*
X57091773Y-77072930D01*
X57082653Y-77092311D01*
X57073828Y-77138574D01*
X57057666Y-77223298D01*
X57056500Y-77229408D01*
X56530972Y-77229408D01*
X56522656Y-77163580D01*
X56519497Y-77138574D01*
X56519496Y-77138571D01*
X56518503Y-77130709D01*
X56512546Y-77115662D01*
X56490739Y-77060585D01*
X56459769Y-76982364D01*
X56450321Y-76969359D01*
X56401283Y-76901865D01*
X56365989Y-76853286D01*
X56243054Y-76751585D01*
X56193600Y-76728314D01*
X56105858Y-76687026D01*
X56105855Y-76687025D01*
X56098689Y-76683653D01*
X56008892Y-76666523D01*
X55967433Y-76658614D01*
X55967430Y-76658614D01*
X55961592Y-76657500D01*
X55108421Y-76657500D01*
X55055845Y-76664142D01*
X54997574Y-76671503D01*
X54997571Y-76671504D01*
X54989709Y-76672497D01*
X54982342Y-76675414D01*
X54982341Y-76675414D01*
X54981119Y-76675898D01*
X54841364Y-76731231D01*
X54834953Y-76735889D01*
X54834951Y-76735890D01*
X54776825Y-76778121D01*
X54712286Y-76825011D01*
X54610585Y-76947946D01*
X54607213Y-76955112D01*
X54551773Y-77072930D01*
X54542653Y-77092311D01*
X54533828Y-77138574D01*
X54517666Y-77223298D01*
X54516500Y-77229408D01*
X53990972Y-77229408D01*
X53982656Y-77163580D01*
X53979497Y-77138574D01*
X53979496Y-77138571D01*
X53978503Y-77130709D01*
X53972546Y-77115662D01*
X53950739Y-77060585D01*
X53919769Y-76982364D01*
X53910321Y-76969359D01*
X53861283Y-76901865D01*
X53825989Y-76853286D01*
X53703054Y-76751585D01*
X53653600Y-76728314D01*
X53565858Y-76687026D01*
X53565855Y-76687025D01*
X53558689Y-76683653D01*
X53468892Y-76666523D01*
X53427433Y-76658614D01*
X53427430Y-76658614D01*
X53421592Y-76657500D01*
X52568421Y-76657500D01*
X52515845Y-76664142D01*
X52457574Y-76671503D01*
X52457571Y-76671504D01*
X52449709Y-76672497D01*
X52442342Y-76675414D01*
X52442341Y-76675414D01*
X52441119Y-76675898D01*
X52301364Y-76731231D01*
X52294953Y-76735889D01*
X52294951Y-76735890D01*
X52236825Y-76778121D01*
X52172286Y-76825011D01*
X52070585Y-76947946D01*
X52067213Y-76955112D01*
X52011773Y-77072930D01*
X52002653Y-77092311D01*
X51993828Y-77138574D01*
X51977666Y-77223298D01*
X51976500Y-77229408D01*
X51450472Y-77229408D01*
X51439013Y-77138698D01*
X51435102Y-77123465D01*
X51382249Y-76989974D01*
X51374672Y-76976192D01*
X51290284Y-76860042D01*
X51279516Y-76848575D01*
X51168893Y-76757059D01*
X51155614Y-76748632D01*
X51025709Y-76687504D01*
X51010748Y-76682643D01*
X50887409Y-76659114D01*
X50875621Y-76658000D01*
X50032380Y-76658000D01*
X50024490Y-76658497D01*
X49917698Y-76671987D01*
X49902465Y-76675898D01*
X49768974Y-76728751D01*
X49755192Y-76736328D01*
X49639042Y-76820716D01*
X49627575Y-76831484D01*
X49536059Y-76942107D01*
X49527632Y-76955386D01*
X49494008Y-77026841D01*
X49446905Y-77079962D01*
X49378561Y-77099185D01*
X49310673Y-77078406D01*
X49264796Y-77024223D01*
X49254000Y-76973193D01*
X49254000Y-62946291D01*
X49274002Y-62878170D01*
X49327658Y-62831677D01*
X49397932Y-62821573D01*
X49462512Y-62851067D01*
X49497152Y-62899907D01*
X49540751Y-63010026D01*
X49548328Y-63023808D01*
X49632716Y-63139958D01*
X49643484Y-63151425D01*
X49754107Y-63242941D01*
X49767386Y-63251368D01*
X49897291Y-63312496D01*
X49912252Y-63317357D01*
X50035591Y-63340886D01*
X50047379Y-63342000D01*
X50890620Y-63342000D01*
X50898510Y-63341503D01*
X51005302Y-63328013D01*
X51020535Y-63324102D01*
X51154026Y-63271249D01*
X51167808Y-63263672D01*
X51283958Y-63179284D01*
X51295425Y-63168516D01*
X51386941Y-63057893D01*
X51395368Y-63044614D01*
X51456496Y-62914709D01*
X51461357Y-62899748D01*
X51484886Y-62776409D01*
X51486000Y-62764621D01*
X51486000Y-61725115D01*
X51481525Y-61709876D01*
X51480135Y-61708671D01*
X51472452Y-61707000D01*
X50477000Y-61707000D01*
X50408879Y-61686998D01*
X50362386Y-61633342D01*
X50351000Y-61581000D01*
X50351000Y-61579000D01*
X50371002Y-61510879D01*
X50424658Y-61464386D01*
X50477000Y-61453000D01*
X51467885Y-61453000D01*
X51483124Y-61448525D01*
X51484329Y-61447135D01*
X51486000Y-61439452D01*
X51486000Y-60413380D01*
X51485503Y-60405490D01*
X51483472Y-60389408D01*
X52009500Y-60389408D01*
X52009500Y-62750579D01*
X52012763Y-62776409D01*
X52023488Y-62861302D01*
X52024497Y-62869291D01*
X52027414Y-62876658D01*
X52027414Y-62876659D01*
X52030294Y-62883932D01*
X52083231Y-63017636D01*
X52087889Y-63024047D01*
X52087890Y-63024049D01*
X52110014Y-63054500D01*
X52177011Y-63146714D01*
X52299946Y-63248415D01*
X52307112Y-63251787D01*
X52437142Y-63312974D01*
X52437145Y-63312975D01*
X52444311Y-63316347D01*
X52508003Y-63328497D01*
X52575567Y-63341386D01*
X52575570Y-63341386D01*
X52581408Y-63342500D01*
X53434579Y-63342500D01*
X53491030Y-63335368D01*
X53545426Y-63328497D01*
X53545429Y-63328496D01*
X53553291Y-63327503D01*
X53560658Y-63324586D01*
X53560659Y-63324586D01*
X53594276Y-63311276D01*
X53701636Y-63268769D01*
X53708652Y-63263672D01*
X53824301Y-63179648D01*
X53830714Y-63174989D01*
X53932415Y-63052054D01*
X53989012Y-62931778D01*
X53996974Y-62914858D01*
X53996975Y-62914855D01*
X54000347Y-62907689D01*
X54019071Y-62809536D01*
X54025386Y-62776433D01*
X54025386Y-62776430D01*
X54026500Y-62770592D01*
X54026500Y-60409421D01*
X54023972Y-60389408D01*
X54549500Y-60389408D01*
X54549500Y-62750579D01*
X54552763Y-62776409D01*
X54563488Y-62861302D01*
X54564497Y-62869291D01*
X54567414Y-62876658D01*
X54567414Y-62876659D01*
X54570294Y-62883932D01*
X54623231Y-63017636D01*
X54627889Y-63024047D01*
X54627890Y-63024049D01*
X54650014Y-63054500D01*
X54717011Y-63146714D01*
X54839946Y-63248415D01*
X54847112Y-63251787D01*
X54977142Y-63312974D01*
X54977145Y-63312975D01*
X54984311Y-63316347D01*
X55048003Y-63328497D01*
X55115567Y-63341386D01*
X55115570Y-63341386D01*
X55121408Y-63342500D01*
X55974579Y-63342500D01*
X56031030Y-63335368D01*
X56085426Y-63328497D01*
X56085429Y-63328496D01*
X56093291Y-63327503D01*
X56100658Y-63324586D01*
X56100659Y-63324586D01*
X56134276Y-63311276D01*
X56241636Y-63268769D01*
X56248652Y-63263672D01*
X56364301Y-63179648D01*
X56370714Y-63174989D01*
X56472415Y-63052054D01*
X56529012Y-62931778D01*
X56536974Y-62914858D01*
X56536975Y-62914855D01*
X56540347Y-62907689D01*
X56559071Y-62809536D01*
X56565386Y-62776433D01*
X56565386Y-62776430D01*
X56566500Y-62770592D01*
X56566500Y-60409421D01*
X56563972Y-60389408D01*
X57089500Y-60389408D01*
X57089500Y-62750579D01*
X57092763Y-62776409D01*
X57103488Y-62861302D01*
X57104497Y-62869291D01*
X57107414Y-62876658D01*
X57107414Y-62876659D01*
X57110294Y-62883932D01*
X57163231Y-63017636D01*
X57167889Y-63024047D01*
X57167890Y-63024049D01*
X57190014Y-63054500D01*
X57257011Y-63146714D01*
X57379946Y-63248415D01*
X57387112Y-63251787D01*
X57517142Y-63312974D01*
X57517145Y-63312975D01*
X57524311Y-63316347D01*
X57588003Y-63328497D01*
X57655567Y-63341386D01*
X57655570Y-63341386D01*
X57661408Y-63342500D01*
X58514579Y-63342500D01*
X58571030Y-63335368D01*
X58625426Y-63328497D01*
X58625429Y-63328496D01*
X58633291Y-63327503D01*
X58640658Y-63324586D01*
X58640659Y-63324586D01*
X58674276Y-63311276D01*
X58781636Y-63268769D01*
X58788652Y-63263672D01*
X58904301Y-63179648D01*
X58910714Y-63174989D01*
X59012415Y-63052054D01*
X59069012Y-62931778D01*
X59076974Y-62914858D01*
X59076975Y-62914855D01*
X59080347Y-62907689D01*
X59099071Y-62809536D01*
X59105386Y-62776433D01*
X59105386Y-62776430D01*
X59106500Y-62770592D01*
X59106500Y-60409421D01*
X59103972Y-60389408D01*
X59629500Y-60389408D01*
X59629500Y-62750579D01*
X59632763Y-62776409D01*
X59643488Y-62861302D01*
X59644497Y-62869291D01*
X59647414Y-62876658D01*
X59647414Y-62876659D01*
X59650294Y-62883932D01*
X59703231Y-63017636D01*
X59707889Y-63024047D01*
X59707890Y-63024049D01*
X59730014Y-63054500D01*
X59797011Y-63146714D01*
X59919946Y-63248415D01*
X59927112Y-63251787D01*
X60057142Y-63312974D01*
X60057145Y-63312975D01*
X60064311Y-63316347D01*
X60128003Y-63328497D01*
X60195567Y-63341386D01*
X60195570Y-63341386D01*
X60201408Y-63342500D01*
X61054579Y-63342500D01*
X61111030Y-63335368D01*
X61165426Y-63328497D01*
X61165429Y-63328496D01*
X61173291Y-63327503D01*
X61180658Y-63324586D01*
X61180659Y-63324586D01*
X61214276Y-63311276D01*
X61321636Y-63268769D01*
X61328652Y-63263672D01*
X61444301Y-63179648D01*
X61450714Y-63174989D01*
X61552415Y-63052054D01*
X61609012Y-62931778D01*
X61616974Y-62914858D01*
X61616975Y-62914855D01*
X61620347Y-62907689D01*
X61639071Y-62809536D01*
X61645386Y-62776433D01*
X61645386Y-62776430D01*
X61646500Y-62770592D01*
X61646500Y-60409421D01*
X61643972Y-60389408D01*
X62169500Y-60389408D01*
X62169500Y-62750579D01*
X62172763Y-62776409D01*
X62183488Y-62861302D01*
X62184497Y-62869291D01*
X62187414Y-62876658D01*
X62187414Y-62876659D01*
X62190294Y-62883932D01*
X62243231Y-63017636D01*
X62247889Y-63024047D01*
X62247890Y-63024049D01*
X62270014Y-63054500D01*
X62337011Y-63146714D01*
X62459946Y-63248415D01*
X62467112Y-63251787D01*
X62597142Y-63312974D01*
X62597145Y-63312975D01*
X62604311Y-63316347D01*
X62668003Y-63328497D01*
X62735567Y-63341386D01*
X62735570Y-63341386D01*
X62741408Y-63342500D01*
X63594579Y-63342500D01*
X63651030Y-63335368D01*
X63705426Y-63328497D01*
X63705429Y-63328496D01*
X63713291Y-63327503D01*
X63720658Y-63324586D01*
X63720659Y-63324586D01*
X63754276Y-63311276D01*
X63861636Y-63268769D01*
X63868652Y-63263672D01*
X63984301Y-63179648D01*
X63990714Y-63174989D01*
X64092415Y-63052054D01*
X64149012Y-62931778D01*
X64156974Y-62914858D01*
X64156975Y-62914855D01*
X64160347Y-62907689D01*
X64179071Y-62809536D01*
X64185386Y-62776433D01*
X64185386Y-62776430D01*
X64186500Y-62770592D01*
X64186500Y-60409421D01*
X64183972Y-60389408D01*
X64709500Y-60389408D01*
X64709500Y-62750579D01*
X64712763Y-62776409D01*
X64723488Y-62861302D01*
X64724497Y-62869291D01*
X64727414Y-62876658D01*
X64727414Y-62876659D01*
X64730294Y-62883932D01*
X64783231Y-63017636D01*
X64787889Y-63024047D01*
X64787890Y-63024049D01*
X64810014Y-63054500D01*
X64877011Y-63146714D01*
X64999946Y-63248415D01*
X65007112Y-63251787D01*
X65137142Y-63312974D01*
X65137145Y-63312975D01*
X65144311Y-63316347D01*
X65208003Y-63328497D01*
X65275567Y-63341386D01*
X65275570Y-63341386D01*
X65281408Y-63342500D01*
X66134579Y-63342500D01*
X66191030Y-63335368D01*
X66245426Y-63328497D01*
X66245429Y-63328496D01*
X66253291Y-63327503D01*
X66260658Y-63324586D01*
X66260659Y-63324586D01*
X66294276Y-63311276D01*
X66401636Y-63268769D01*
X66408652Y-63263672D01*
X66524301Y-63179648D01*
X66530714Y-63174989D01*
X66632415Y-63052054D01*
X66689012Y-62931778D01*
X66696974Y-62914858D01*
X66696975Y-62914855D01*
X66700347Y-62907689D01*
X66719071Y-62809536D01*
X66725386Y-62776433D01*
X66725386Y-62776430D01*
X66726500Y-62770592D01*
X66726500Y-61720548D01*
X67250000Y-61720548D01*
X67250000Y-62746620D01*
X67250497Y-62754510D01*
X67263987Y-62861302D01*
X67267898Y-62876535D01*
X67320751Y-63010026D01*
X67328328Y-63023808D01*
X67412716Y-63139958D01*
X67423484Y-63151425D01*
X67534107Y-63242941D01*
X67547386Y-63251368D01*
X67677291Y-63312496D01*
X67692252Y-63317357D01*
X67815591Y-63340886D01*
X67827379Y-63342000D01*
X68670620Y-63342000D01*
X68678510Y-63341503D01*
X68785302Y-63328013D01*
X68800535Y-63324102D01*
X68934026Y-63271249D01*
X68947808Y-63263672D01*
X69063958Y-63179284D01*
X69075425Y-63168516D01*
X69166941Y-63057893D01*
X69175368Y-63044614D01*
X69236496Y-62914709D01*
X69241357Y-62899748D01*
X69264886Y-62776409D01*
X69266000Y-62764621D01*
X69266000Y-61725115D01*
X69261525Y-61709876D01*
X69260135Y-61708671D01*
X69252452Y-61707000D01*
X67268115Y-61707000D01*
X67252876Y-61711475D01*
X67251671Y-61712865D01*
X67250000Y-61720548D01*
X66726500Y-61720548D01*
X66726500Y-60409421D01*
X66724726Y-60395379D01*
X67250000Y-60395379D01*
X67250000Y-61434885D01*
X67254475Y-61450124D01*
X67255865Y-61451329D01*
X67263548Y-61453000D01*
X69247885Y-61453000D01*
X69263124Y-61448525D01*
X69264329Y-61447135D01*
X69266000Y-61439452D01*
X69266000Y-60413380D01*
X69265503Y-60405490D01*
X69263472Y-60389408D01*
X69789500Y-60389408D01*
X69789500Y-62750579D01*
X69792763Y-62776409D01*
X69803488Y-62861302D01*
X69804497Y-62869291D01*
X69807414Y-62876658D01*
X69807414Y-62876659D01*
X69810294Y-62883932D01*
X69863231Y-63017636D01*
X69867889Y-63024047D01*
X69867890Y-63024049D01*
X69890014Y-63054500D01*
X69957011Y-63146714D01*
X70079946Y-63248415D01*
X70087112Y-63251787D01*
X70217142Y-63312974D01*
X70217145Y-63312975D01*
X70224311Y-63316347D01*
X70288003Y-63328497D01*
X70355567Y-63341386D01*
X70355570Y-63341386D01*
X70361408Y-63342500D01*
X71214579Y-63342500D01*
X71271030Y-63335368D01*
X71325426Y-63328497D01*
X71325429Y-63328496D01*
X71333291Y-63327503D01*
X71340658Y-63324586D01*
X71340659Y-63324586D01*
X71374276Y-63311276D01*
X71481636Y-63268769D01*
X71488652Y-63263672D01*
X71604301Y-63179648D01*
X71610714Y-63174989D01*
X71712415Y-63052054D01*
X71769012Y-62931778D01*
X71776974Y-62914858D01*
X71776975Y-62914855D01*
X71780347Y-62907689D01*
X71799071Y-62809536D01*
X71805386Y-62776433D01*
X71805386Y-62776430D01*
X71806500Y-62770592D01*
X71806500Y-60409421D01*
X71803972Y-60389408D01*
X72329500Y-60389408D01*
X72329500Y-62750579D01*
X72332763Y-62776409D01*
X72343488Y-62861302D01*
X72344497Y-62869291D01*
X72347414Y-62876658D01*
X72347414Y-62876659D01*
X72350294Y-62883932D01*
X72403231Y-63017636D01*
X72407889Y-63024047D01*
X72407890Y-63024049D01*
X72430014Y-63054500D01*
X72497011Y-63146714D01*
X72619946Y-63248415D01*
X72627111Y-63251787D01*
X72627115Y-63251789D01*
X72706347Y-63289072D01*
X72759469Y-63336175D01*
X72778700Y-63403081D01*
X72778700Y-68328933D01*
X72778589Y-68334210D01*
X72776204Y-68391106D01*
X72778165Y-68399466D01*
X72778165Y-68399468D01*
X72786316Y-68434218D01*
X72788479Y-68445891D01*
X72794487Y-68489751D01*
X72797898Y-68497634D01*
X72797900Y-68497640D01*
X72800621Y-68503927D01*
X72807654Y-68525192D01*
X72811181Y-68540228D01*
X72815318Y-68547753D01*
X72815319Y-68547756D01*
X72832512Y-68579029D01*
X72837734Y-68589689D01*
X72855318Y-68630323D01*
X72860720Y-68636994D01*
X72860723Y-68636999D01*
X72865036Y-68642324D01*
X72877531Y-68660918D01*
X72884970Y-68674449D01*
X72894373Y-68685343D01*
X72918615Y-68709585D01*
X72927440Y-68719386D01*
X72951710Y-68749357D01*
X72958712Y-68754333D01*
X72958714Y-68754335D01*
X72966166Y-68759631D01*
X72982272Y-68773242D01*
X73648098Y-69439068D01*
X73651751Y-69442877D01*
X73690302Y-69484801D01*
X73698018Y-69489585D01*
X73727924Y-69508128D01*
X73737706Y-69514851D01*
X73766137Y-69536432D01*
X73766145Y-69536437D01*
X73772982Y-69541626D01*
X73787345Y-69547312D01*
X73807354Y-69557376D01*
X73813174Y-69560985D01*
X73813176Y-69560986D01*
X73820479Y-69565514D01*
X73862990Y-69577864D01*
X73874220Y-69581709D01*
X73907407Y-69594848D01*
X73915396Y-69598011D01*
X73923937Y-69598909D01*
X73923938Y-69598909D01*
X73930760Y-69599626D01*
X73952737Y-69603938D01*
X73967565Y-69608246D01*
X73977166Y-69608951D01*
X73979610Y-69609131D01*
X73979621Y-69609131D01*
X73981917Y-69609300D01*
X74016194Y-69609300D01*
X74029364Y-69609990D01*
X74067725Y-69614022D01*
X74085219Y-69611063D01*
X74106221Y-69609300D01*
X79017999Y-69609300D01*
X79086120Y-69629302D01*
X79113453Y-69653054D01*
X79140067Y-69683941D01*
X79261289Y-69762513D01*
X79349926Y-69789021D01*
X79393150Y-69801948D01*
X79393152Y-69801948D01*
X79399691Y-69803904D01*
X79407712Y-69804500D01*
X80459914Y-69804500D01*
X80564262Y-69789556D01*
X80634529Y-69799700D01*
X80688158Y-69846223D01*
X80698143Y-69868104D01*
X80701865Y-69871329D01*
X80709548Y-69873000D01*
X85285885Y-69873000D01*
X85301124Y-69868525D01*
X85302329Y-69867135D01*
X85304000Y-69859452D01*
X85304000Y-69828955D01*
X85302938Y-69817449D01*
X85290413Y-69750197D01*
X85279344Y-69721510D01*
X85273483Y-69650756D01*
X85306805Y-69588065D01*
X85368731Y-69553342D01*
X85419182Y-69552256D01*
X85424691Y-69553904D01*
X85432712Y-69554500D01*
X87734914Y-69554500D01*
X87785127Y-69547309D01*
X87834107Y-69540295D01*
X87834110Y-69540294D01*
X87843000Y-69539021D01*
X87851176Y-69535304D01*
X87851178Y-69535303D01*
X87910945Y-69508128D01*
X87974504Y-69479229D01*
X87988410Y-69467247D01*
X88053073Y-69437933D01*
X88070658Y-69436700D01*
X89416300Y-69436700D01*
X89484421Y-69456702D01*
X89530914Y-69510358D01*
X89542300Y-69562700D01*
X89542300Y-70043887D01*
X89522298Y-70112008D01*
X89468642Y-70158501D01*
X89398368Y-70168605D01*
X89378750Y-70163223D01*
X89374306Y-70160253D01*
X89275000Y-70140500D01*
X88850000Y-70140500D01*
X88750694Y-70160253D01*
X88666506Y-70216506D01*
X88610253Y-70300694D01*
X88590500Y-70400000D01*
X88590500Y-70800000D01*
X88591707Y-70806068D01*
X88610253Y-70899306D01*
X88606056Y-70900141D01*
X88611133Y-70947374D01*
X88610163Y-70950676D01*
X88610253Y-70950694D01*
X88590500Y-71050000D01*
X88590500Y-71450000D01*
X88591707Y-71456068D01*
X88610253Y-71549306D01*
X88606056Y-71550141D01*
X88611133Y-71597374D01*
X88610163Y-71600676D01*
X88610253Y-71600694D01*
X88590500Y-71700000D01*
X88590500Y-72100000D01*
X88610253Y-72199306D01*
X88666506Y-72283494D01*
X88750694Y-72339747D01*
X88850000Y-72359500D01*
X89275000Y-72359500D01*
X89281020Y-72358302D01*
X89293277Y-72357700D01*
X89416300Y-72357700D01*
X89484421Y-72377702D01*
X89530914Y-72431358D01*
X89542300Y-72483700D01*
X89542300Y-72666782D01*
X89541427Y-72681592D01*
X89537528Y-72714534D01*
X89539220Y-72723798D01*
X89539220Y-72723799D01*
X89548242Y-72773200D01*
X89548892Y-72777103D01*
X89557755Y-72836052D01*
X89560928Y-72842660D01*
X89562246Y-72849876D01*
X89589752Y-72902827D01*
X89591496Y-72906318D01*
X89613232Y-72951585D01*
X89613234Y-72951589D01*
X89617310Y-72960076D01*
X89622214Y-72965381D01*
X89622355Y-72965591D01*
X89625668Y-72971968D01*
X89631438Y-72978723D01*
X89670790Y-73018075D01*
X89674220Y-73021641D01*
X89704310Y-73054193D01*
X89704312Y-73054195D01*
X89710700Y-73061105D01*
X89716775Y-73064634D01*
X89722276Y-73069561D01*
X93202864Y-76550149D01*
X93212719Y-76561238D01*
X93233260Y-76587294D01*
X93241007Y-76592648D01*
X93241011Y-76592652D01*
X93282342Y-76621218D01*
X93285536Y-76623499D01*
X93333489Y-76658918D01*
X93340407Y-76661347D01*
X93346440Y-76665517D01*
X93355420Y-76668357D01*
X93355422Y-76668358D01*
X93403267Y-76683489D01*
X93407023Y-76684742D01*
X93454410Y-76701383D01*
X93454414Y-76701384D01*
X93463299Y-76704504D01*
X93470516Y-76704788D01*
X93470769Y-76704837D01*
X93477618Y-76707003D01*
X93486474Y-76707700D01*
X93542156Y-76707700D01*
X93547102Y-76707797D01*
X93600774Y-76709906D01*
X93607565Y-76708105D01*
X93614931Y-76707700D01*
X94338691Y-76707700D01*
X94406812Y-76727702D01*
X94453391Y-76781547D01*
X94463178Y-76803072D01*
X94542698Y-76915175D01*
X94565945Y-76947946D01*
X94585114Y-76974970D01*
X94737355Y-77120709D01*
X94914408Y-77235031D01*
X94959938Y-77253380D01*
X95104316Y-77311566D01*
X95104319Y-77311567D01*
X95109885Y-77313810D01*
X95199265Y-77331265D01*
X95312286Y-77353337D01*
X95312289Y-77353337D01*
X95316732Y-77354205D01*
X95322764Y-77354500D01*
X95727406Y-77354500D01*
X95884801Y-77339483D01*
X96087033Y-77280155D01*
X96092361Y-77277411D01*
X96269066Y-77186402D01*
X96269069Y-77186400D01*
X96274397Y-77183656D01*
X96353966Y-77121154D01*
X96435416Y-77057175D01*
X96435421Y-77057171D01*
X96440133Y-77053469D01*
X96578261Y-76894290D01*
X96674028Y-76728751D01*
X96680790Y-76717062D01*
X96680790Y-76717061D01*
X96683797Y-76711864D01*
X96692257Y-76687504D01*
X96750965Y-76518442D01*
X96752934Y-76512772D01*
X96754775Y-76500078D01*
X96782314Y-76310139D01*
X96782314Y-76310136D01*
X96783175Y-76304199D01*
X96773431Y-76093670D01*
X96770840Y-76082916D01*
X96725459Y-75894615D01*
X96725458Y-75894613D01*
X96724053Y-75888782D01*
X96697252Y-75829835D01*
X96639302Y-75702383D01*
X96636822Y-75696928D01*
X96514886Y-75525030D01*
X96404906Y-75419747D01*
X96366975Y-75383436D01*
X96362645Y-75379291D01*
X96185592Y-75264969D01*
X96101601Y-75231120D01*
X95995684Y-75188434D01*
X95995681Y-75188433D01*
X95990115Y-75186190D01*
X95886411Y-75165938D01*
X95787714Y-75146663D01*
X95787711Y-75146663D01*
X95783268Y-75145795D01*
X95777236Y-75145500D01*
X95372594Y-75145500D01*
X95215199Y-75160517D01*
X95012967Y-75219845D01*
X95007640Y-75222589D01*
X95007639Y-75222589D01*
X94830934Y-75313598D01*
X94830931Y-75313600D01*
X94825603Y-75316344D01*
X94790815Y-75343670D01*
X94664584Y-75442825D01*
X94664579Y-75442829D01*
X94659867Y-75446531D01*
X94521739Y-75605710D01*
X94501204Y-75641206D01*
X94450185Y-75729395D01*
X94398759Y-75778344D01*
X94341121Y-75792300D01*
X93791775Y-75792300D01*
X93723654Y-75772298D01*
X93702680Y-75755395D01*
X91643086Y-73695801D01*
X94316825Y-73695801D01*
X94326569Y-73906330D01*
X94333181Y-73933765D01*
X94372992Y-74098955D01*
X94375947Y-74111218D01*
X94378429Y-74116676D01*
X94378430Y-74116680D01*
X94430705Y-74231652D01*
X94463178Y-74303072D01*
X94527884Y-74394290D01*
X94581479Y-74469845D01*
X94585114Y-74474970D01*
X94677020Y-74562951D01*
X94725263Y-74609133D01*
X94737355Y-74620709D01*
X94914408Y-74735031D01*
X94919974Y-74737274D01*
X95104316Y-74811566D01*
X95104319Y-74811567D01*
X95109885Y-74813810D01*
X95184257Y-74828334D01*
X95312286Y-74853337D01*
X95312289Y-74853337D01*
X95316732Y-74854205D01*
X95322764Y-74854500D01*
X95727406Y-74854500D01*
X95884801Y-74839483D01*
X96087033Y-74780155D01*
X96105026Y-74770888D01*
X96269066Y-74686402D01*
X96269069Y-74686400D01*
X96274397Y-74683656D01*
X96350394Y-74623960D01*
X96435416Y-74557175D01*
X96435421Y-74557171D01*
X96440133Y-74553469D01*
X96456207Y-74534946D01*
X96562714Y-74412206D01*
X96578261Y-74394290D01*
X96683797Y-74211864D01*
X96697778Y-74171605D01*
X96750965Y-74018442D01*
X96752934Y-74012772D01*
X96764389Y-73933765D01*
X96782314Y-73810139D01*
X96782314Y-73810136D01*
X96783175Y-73804199D01*
X96773431Y-73593670D01*
X96747779Y-73487228D01*
X96725459Y-73394615D01*
X96725458Y-73394613D01*
X96724053Y-73388782D01*
X96675929Y-73282938D01*
X96639302Y-73202383D01*
X96636822Y-73196928D01*
X96514886Y-73025030D01*
X96362645Y-72879291D01*
X96185592Y-72764969D01*
X96125948Y-72740932D01*
X95995684Y-72688434D01*
X95995681Y-72688433D01*
X95990115Y-72686190D01*
X95886411Y-72665938D01*
X95787714Y-72646663D01*
X95787711Y-72646663D01*
X95783268Y-72645795D01*
X95777236Y-72645500D01*
X95372594Y-72645500D01*
X95215199Y-72660517D01*
X95012967Y-72719845D01*
X95007640Y-72722589D01*
X95007639Y-72722589D01*
X94830934Y-72813598D01*
X94830931Y-72813600D01*
X94825603Y-72816344D01*
X94792101Y-72842660D01*
X94664584Y-72942825D01*
X94664579Y-72942829D01*
X94659867Y-72946531D01*
X94655936Y-72951061D01*
X94655935Y-72951062D01*
X94596251Y-73019842D01*
X94521739Y-73105710D01*
X94416203Y-73288136D01*
X94414234Y-73293805D01*
X94414233Y-73293808D01*
X94379227Y-73394615D01*
X94347066Y-73487228D01*
X94346205Y-73493166D01*
X94330765Y-73599659D01*
X94316825Y-73695801D01*
X91643086Y-73695801D01*
X90494605Y-72547320D01*
X90460579Y-72485008D01*
X90457700Y-72458225D01*
X90457700Y-72456113D01*
X90477702Y-72387992D01*
X90531358Y-72341499D01*
X90601632Y-72331395D01*
X90621250Y-72336777D01*
X90625694Y-72339747D01*
X90725000Y-72359500D01*
X91150000Y-72359500D01*
X91249306Y-72339747D01*
X91304698Y-72302735D01*
X91374700Y-72281500D01*
X91651498Y-72281500D01*
X91719619Y-72301502D01*
X91766112Y-72355158D01*
X91775998Y-72426884D01*
X91766917Y-72485207D01*
X91766917Y-72485212D01*
X91765536Y-72494081D01*
X91766700Y-72502983D01*
X91766700Y-72502986D01*
X91780125Y-72605647D01*
X91783348Y-72630292D01*
X91838673Y-72756028D01*
X91844450Y-72762901D01*
X91844451Y-72762902D01*
X91917560Y-72849876D01*
X91927065Y-72861183D01*
X92041417Y-72937303D01*
X92172538Y-72978268D01*
X92309885Y-72980785D01*
X92397233Y-72956971D01*
X92433755Y-72947014D01*
X92433756Y-72947014D01*
X92442418Y-72944652D01*
X92450068Y-72939955D01*
X92450070Y-72939954D01*
X92551835Y-72877470D01*
X92551836Y-72877470D01*
X92559483Y-72872774D01*
X92651669Y-72770929D01*
X92655644Y-72762726D01*
X92707650Y-72655383D01*
X92707650Y-72655382D01*
X92711564Y-72647304D01*
X92734355Y-72511837D01*
X92734500Y-72500000D01*
X92727829Y-72453419D01*
X92737973Y-72383153D01*
X92784496Y-72329524D01*
X92798014Y-72321977D01*
X92798027Y-72321971D01*
X92833277Y-72305044D01*
X92933608Y-72212299D01*
X93002232Y-72094153D01*
X93019277Y-72020617D01*
X93027879Y-71983509D01*
X93027879Y-71983506D01*
X93029500Y-71976514D01*
X93029500Y-71491742D01*
X93026756Y-71473486D01*
X93015587Y-71399199D01*
X93015587Y-71399198D01*
X93014187Y-71389888D01*
X92955044Y-71266723D01*
X92862299Y-71166392D01*
X92744153Y-71097768D01*
X92666964Y-71079876D01*
X92633509Y-71072121D01*
X92633506Y-71072121D01*
X92626514Y-71070500D01*
X91991742Y-71070500D01*
X91987095Y-71071199D01*
X91987090Y-71071199D01*
X91899199Y-71084413D01*
X91899198Y-71084413D01*
X91889888Y-71085813D01*
X91766723Y-71144956D01*
X91759809Y-71151348D01*
X91759808Y-71151348D01*
X91748649Y-71161663D01*
X91666392Y-71237701D01*
X91661663Y-71245843D01*
X91661662Y-71245844D01*
X91644454Y-71275470D01*
X91592943Y-71324329D01*
X91523195Y-71337583D01*
X91457353Y-71311023D01*
X91416322Y-71253084D01*
X91409500Y-71212185D01*
X91409500Y-71050000D01*
X91389747Y-70950694D01*
X91393944Y-70949859D01*
X91388867Y-70902626D01*
X91389837Y-70899324D01*
X91389747Y-70899306D01*
X91408293Y-70806068D01*
X91409500Y-70800000D01*
X91409500Y-70593002D01*
X91429502Y-70524881D01*
X91483158Y-70478388D01*
X91553432Y-70468284D01*
X91618012Y-70497778D01*
X91639713Y-70522181D01*
X91651762Y-70539910D01*
X91731623Y-70626304D01*
X91746156Y-70637947D01*
X91847885Y-70697035D01*
X91865208Y-70703894D01*
X91966523Y-70727378D01*
X91980703Y-70729000D01*
X92154885Y-70729000D01*
X92170124Y-70724525D01*
X92171329Y-70723135D01*
X92173000Y-70715452D01*
X92173000Y-70220115D01*
X92171659Y-70215548D01*
X92427000Y-70215548D01*
X92427000Y-70710885D01*
X92431475Y-70726124D01*
X92432865Y-70727329D01*
X92440548Y-70729000D01*
X92603550Y-70729000D01*
X92612909Y-70728301D01*
X92700654Y-70715109D01*
X92718454Y-70709632D01*
X92824506Y-70658707D01*
X92839911Y-70648238D01*
X92926304Y-70568377D01*
X92937947Y-70553844D01*
X92997035Y-70452115D01*
X93003894Y-70434792D01*
X93027378Y-70333477D01*
X93029000Y-70319297D01*
X93029000Y-70220115D01*
X93024525Y-70204876D01*
X93023135Y-70203671D01*
X93015452Y-70202000D01*
X92445115Y-70202000D01*
X92429876Y-70206475D01*
X92428671Y-70207865D01*
X92427000Y-70215548D01*
X92171659Y-70215548D01*
X92168525Y-70204876D01*
X92167135Y-70203671D01*
X92159452Y-70202000D01*
X91589115Y-70202000D01*
X91573876Y-70206475D01*
X91560823Y-70221538D01*
X91541550Y-70256838D01*
X91479239Y-70290865D01*
X91408423Y-70285802D01*
X91347688Y-70237749D01*
X91333494Y-70216506D01*
X91249306Y-70160253D01*
X91150000Y-70140500D01*
X90725000Y-70140500D01*
X90625694Y-70160253D01*
X90624425Y-70161101D01*
X90561330Y-70167885D01*
X90497843Y-70136107D01*
X90461614Y-70075049D01*
X90457700Y-70043887D01*
X90457700Y-69562700D01*
X90477702Y-69494579D01*
X90531358Y-69448086D01*
X90583700Y-69436700D01*
X91535773Y-69436700D01*
X91603894Y-69456702D01*
X91650387Y-69510358D01*
X91660491Y-69580632D01*
X91644727Y-69625985D01*
X91602965Y-69697885D01*
X91596106Y-69715208D01*
X91572622Y-69816523D01*
X91571000Y-69830703D01*
X91571000Y-69929885D01*
X91575475Y-69945124D01*
X91576865Y-69946329D01*
X91584548Y-69948000D01*
X93010885Y-69948000D01*
X93026124Y-69943525D01*
X93035411Y-69932808D01*
X93095137Y-69894425D01*
X93166134Y-69894425D01*
X93219730Y-69926226D01*
X94294002Y-71000498D01*
X94328028Y-71062810D01*
X94329603Y-71107671D01*
X94328105Y-71118002D01*
X94320087Y-71173306D01*
X94316825Y-71195801D01*
X94326569Y-71406330D01*
X94338556Y-71456068D01*
X94373411Y-71600694D01*
X94375947Y-71611218D01*
X94378429Y-71616676D01*
X94378430Y-71616680D01*
X94429469Y-71728934D01*
X94463178Y-71803072D01*
X94585114Y-71974970D01*
X94737355Y-72120709D01*
X94914408Y-72235031D01*
X94919974Y-72237274D01*
X95104316Y-72311566D01*
X95104319Y-72311567D01*
X95109885Y-72313810D01*
X95199931Y-72331395D01*
X95312286Y-72353337D01*
X95312289Y-72353337D01*
X95316732Y-72354205D01*
X95322764Y-72354500D01*
X95727406Y-72354500D01*
X95884801Y-72339483D01*
X96087033Y-72280155D01*
X96104424Y-72271198D01*
X96269066Y-72186402D01*
X96269069Y-72186400D01*
X96274397Y-72183656D01*
X96353662Y-72121393D01*
X96435416Y-72057175D01*
X96435421Y-72057171D01*
X96440133Y-72053469D01*
X96460124Y-72030432D01*
X96531351Y-71948349D01*
X96578261Y-71894290D01*
X96683797Y-71711864D01*
X96685769Y-71706187D01*
X96750965Y-71518442D01*
X96752934Y-71512772D01*
X96762932Y-71443813D01*
X96782314Y-71310139D01*
X96782314Y-71310136D01*
X96783175Y-71304199D01*
X96773431Y-71093670D01*
X96771538Y-71085813D01*
X96725459Y-70894615D01*
X96725458Y-70894613D01*
X96724053Y-70888782D01*
X96709933Y-70857725D01*
X96650667Y-70727378D01*
X96636822Y-70696928D01*
X96514886Y-70525030D01*
X96362645Y-70379291D01*
X96185592Y-70264969D01*
X96090932Y-70226820D01*
X95995684Y-70188434D01*
X95995681Y-70188433D01*
X95990115Y-70186190D01*
X95857302Y-70160253D01*
X95787714Y-70146663D01*
X95787711Y-70146663D01*
X95783268Y-70145795D01*
X95777236Y-70145500D01*
X95504185Y-70145500D01*
X95436064Y-70125498D01*
X95415090Y-70108595D01*
X95376090Y-70069595D01*
X95342064Y-70007283D01*
X95347129Y-69936468D01*
X95389676Y-69879632D01*
X95456196Y-69854821D01*
X95465185Y-69854500D01*
X95727406Y-69854500D01*
X95884801Y-69839483D01*
X96087033Y-69780155D01*
X96145200Y-69750197D01*
X96269066Y-69686402D01*
X96269069Y-69686400D01*
X96274397Y-69683656D01*
X96347816Y-69625985D01*
X96435416Y-69557175D01*
X96435421Y-69557171D01*
X96440133Y-69553469D01*
X96445479Y-69547309D01*
X96531579Y-69448086D01*
X96578261Y-69394290D01*
X96683797Y-69211864D01*
X96752934Y-69012772D01*
X96783175Y-68804199D01*
X96773431Y-68593670D01*
X96760552Y-68540228D01*
X96725459Y-68394615D01*
X96725458Y-68394613D01*
X96724053Y-68388782D01*
X96718529Y-68376631D01*
X96655491Y-68237989D01*
X96636822Y-68196928D01*
X96528501Y-68044223D01*
X96518352Y-68029916D01*
X96518351Y-68029915D01*
X96514886Y-68025030D01*
X96380200Y-67896096D01*
X96366975Y-67883436D01*
X96362645Y-67879291D01*
X96185592Y-67764969D01*
X96080433Y-67722589D01*
X95995684Y-67688434D01*
X95995681Y-67688433D01*
X95990115Y-67686190D01*
X95886411Y-67665938D01*
X95787714Y-67646663D01*
X95787711Y-67646663D01*
X95783268Y-67645795D01*
X95777236Y-67645500D01*
X95372594Y-67645500D01*
X95215199Y-67660517D01*
X95012967Y-67719845D01*
X95007640Y-67722589D01*
X95007639Y-67722589D01*
X94830934Y-67813598D01*
X94830931Y-67813600D01*
X94825603Y-67816344D01*
X94820888Y-67820048D01*
X94664584Y-67942825D01*
X94664579Y-67942829D01*
X94659867Y-67946531D01*
X94655936Y-67951061D01*
X94655935Y-67951062D01*
X94613469Y-68000000D01*
X94521739Y-68105710D01*
X94455064Y-68220962D01*
X94431338Y-68261975D01*
X94416203Y-68288136D01*
X94414234Y-68293805D01*
X94414233Y-68293808D01*
X94380445Y-68391106D01*
X94347066Y-68487228D01*
X94346205Y-68493166D01*
X94319196Y-68679451D01*
X94316825Y-68695801D01*
X94317103Y-68701797D01*
X94316810Y-68707780D01*
X94315332Y-68707708D01*
X94300226Y-68769636D01*
X94248782Y-68818565D01*
X94179052Y-68831913D01*
X94113174Y-68805444D01*
X94102091Y-68795595D01*
X93546431Y-68239936D01*
X93540576Y-68233668D01*
X93523039Y-68213564D01*
X93504566Y-68192388D01*
X93452046Y-68155476D01*
X93446774Y-68151560D01*
X93402249Y-68116647D01*
X93402243Y-68116643D01*
X93396270Y-68111960D01*
X93389349Y-68108835D01*
X93387344Y-68107621D01*
X93372018Y-68098879D01*
X93369897Y-68097742D01*
X93363677Y-68093370D01*
X93312362Y-68073363D01*
X93303898Y-68070063D01*
X93297817Y-68067507D01*
X93291772Y-68064778D01*
X93239323Y-68041096D01*
X93231852Y-68039711D01*
X93229573Y-68038997D01*
X93212618Y-68034167D01*
X93210313Y-68033575D01*
X93203236Y-68030816D01*
X93195703Y-68029824D01*
X93195702Y-68029824D01*
X93174365Y-68027015D01*
X93139602Y-68022439D01*
X93133104Y-68021409D01*
X93070002Y-68009714D01*
X93062422Y-68010151D01*
X93062421Y-68010151D01*
X93011436Y-68013091D01*
X93004183Y-68013300D01*
X88067938Y-68013300D01*
X87999407Y-67993033D01*
X87913711Y-67937487D01*
X87816793Y-67908502D01*
X87781850Y-67898052D01*
X87781848Y-67898052D01*
X87775309Y-67896096D01*
X87767288Y-67895500D01*
X85465086Y-67895500D01*
X85422597Y-67901585D01*
X85365893Y-67909705D01*
X85365890Y-67909706D01*
X85357000Y-67910979D01*
X85348824Y-67914696D01*
X85348822Y-67914697D01*
X85304358Y-67934914D01*
X85225496Y-67970771D01*
X85116059Y-68065067D01*
X85058943Y-68153186D01*
X85051385Y-68164847D01*
X84997549Y-68211131D01*
X84927237Y-68220962D01*
X84869388Y-68196613D01*
X84839009Y-68173512D01*
X84742275Y-68145500D01*
X84473254Y-68145500D01*
X84431986Y-68153186D01*
X84361355Y-68145995D01*
X84305824Y-68101759D01*
X84283024Y-68034523D01*
X84283420Y-68018055D01*
X84283547Y-68016639D01*
X84284355Y-68011837D01*
X84284500Y-68000000D01*
X84272284Y-67914697D01*
X84266300Y-67872910D01*
X84266299Y-67872907D01*
X84265026Y-67864017D01*
X84258753Y-67850220D01*
X84211884Y-67747138D01*
X84211883Y-67747136D01*
X84208168Y-67738966D01*
X84118498Y-67634899D01*
X84003225Y-67560182D01*
X83994628Y-67557611D01*
X83994626Y-67557610D01*
X83915653Y-67533992D01*
X83871614Y-67520822D01*
X83862638Y-67520767D01*
X83862637Y-67520767D01*
X83803975Y-67520409D01*
X83734246Y-67519983D01*
X83725614Y-67522450D01*
X83610795Y-67555265D01*
X83610793Y-67555266D01*
X83602164Y-67557732D01*
X83485986Y-67631035D01*
X83395051Y-67733998D01*
X83336670Y-67858346D01*
X83335289Y-67867214D01*
X83335289Y-67867215D01*
X83316917Y-67985208D01*
X83316917Y-67985212D01*
X83315536Y-67994081D01*
X83316700Y-68002983D01*
X83316700Y-68002987D01*
X83318038Y-68013216D01*
X83307038Y-68083355D01*
X83259863Y-68136413D01*
X83191492Y-68155543D01*
X83158052Y-68150580D01*
X83150778Y-68148473D01*
X83141280Y-68147126D01*
X83129876Y-68150475D01*
X83128671Y-68151865D01*
X83127000Y-68159548D01*
X83127000Y-68776000D01*
X83106998Y-68844121D01*
X83053342Y-68890614D01*
X83001000Y-68902000D01*
X82999000Y-68902000D01*
X82930879Y-68881998D01*
X82884386Y-68828342D01*
X82873000Y-68776000D01*
X82873000Y-68164162D01*
X82869282Y-68151498D01*
X82853880Y-68149608D01*
X82800259Y-68159594D01*
X82778924Y-68167827D01*
X82702376Y-68215011D01*
X82684706Y-68231034D01*
X82620806Y-68261975D01*
X82550322Y-68253457D01*
X82523801Y-68237989D01*
X82471361Y-68198113D01*
X82439009Y-68173512D01*
X82342275Y-68145500D01*
X82073254Y-68145500D01*
X82031986Y-68153186D01*
X81961355Y-68145995D01*
X81905824Y-68101759D01*
X81883024Y-68034523D01*
X81883420Y-68018055D01*
X81883547Y-68016639D01*
X81884355Y-68011837D01*
X81884500Y-68000000D01*
X81872284Y-67914697D01*
X81866300Y-67872910D01*
X81866299Y-67872907D01*
X81865026Y-67864017D01*
X81858753Y-67850220D01*
X81811884Y-67747138D01*
X81811883Y-67747136D01*
X81808168Y-67738966D01*
X81718498Y-67634899D01*
X81603225Y-67560182D01*
X81594628Y-67557611D01*
X81594626Y-67557610D01*
X81515653Y-67533992D01*
X81471614Y-67520822D01*
X81462638Y-67520767D01*
X81462637Y-67520767D01*
X81403975Y-67520409D01*
X81334246Y-67519983D01*
X81325614Y-67522450D01*
X81210795Y-67555265D01*
X81210793Y-67555266D01*
X81202164Y-67557732D01*
X81085986Y-67631035D01*
X80995051Y-67733998D01*
X80936670Y-67858346D01*
X80935289Y-67867214D01*
X80935289Y-67867215D01*
X80916917Y-67985208D01*
X80916917Y-67985212D01*
X80915536Y-67994081D01*
X80916700Y-68002983D01*
X80916700Y-68002987D01*
X80925903Y-68073363D01*
X80914903Y-68143502D01*
X80867728Y-68196559D01*
X80800967Y-68215700D01*
X80284075Y-68215700D01*
X80278799Y-68215589D01*
X80274838Y-68215423D01*
X80221894Y-68213204D01*
X80213530Y-68215166D01*
X80213529Y-68215166D01*
X80178780Y-68223316D01*
X80167109Y-68225479D01*
X80131760Y-68230321D01*
X80131759Y-68230321D01*
X80123249Y-68231487D01*
X80109077Y-68237620D01*
X80087805Y-68244655D01*
X80081139Y-68246218D01*
X80081134Y-68246220D01*
X80072773Y-68248181D01*
X80033967Y-68269515D01*
X80023318Y-68274731D01*
X79999271Y-68285137D01*
X79949231Y-68295500D01*
X79440086Y-68295500D01*
X79397597Y-68301585D01*
X79340893Y-68309705D01*
X79340890Y-68309706D01*
X79332000Y-68310979D01*
X79323824Y-68314696D01*
X79323822Y-68314697D01*
X79280907Y-68334210D01*
X79200496Y-68370771D01*
X79193695Y-68376631D01*
X79096761Y-68460154D01*
X79032099Y-68489467D01*
X79014514Y-68490700D01*
X74333860Y-68490700D01*
X74265739Y-68470698D01*
X74244765Y-68453795D01*
X73934205Y-68143235D01*
X73900179Y-68080923D01*
X73897300Y-68054140D01*
X73897300Y-66195801D01*
X94316825Y-66195801D01*
X94326569Y-66406330D01*
X94347289Y-66492304D01*
X94352222Y-66512772D01*
X94375947Y-66611218D01*
X94378429Y-66616676D01*
X94378430Y-66616680D01*
X94430705Y-66731652D01*
X94463178Y-66803072D01*
X94585114Y-66974970D01*
X94737355Y-67120709D01*
X94914408Y-67235031D01*
X94919974Y-67237274D01*
X95104316Y-67311566D01*
X95104319Y-67311567D01*
X95109885Y-67313810D01*
X95213589Y-67334062D01*
X95312286Y-67353337D01*
X95312289Y-67353337D01*
X95316732Y-67354205D01*
X95322764Y-67354500D01*
X95727406Y-67354500D01*
X95884801Y-67339483D01*
X96087033Y-67280155D01*
X96092361Y-67277411D01*
X96269066Y-67186402D01*
X96269069Y-67186400D01*
X96274397Y-67183656D01*
X96350394Y-67123960D01*
X96435416Y-67057175D01*
X96435421Y-67057171D01*
X96440133Y-67053469D01*
X96578261Y-66894290D01*
X96683797Y-66711864D01*
X96718748Y-66611218D01*
X96750965Y-66518442D01*
X96752934Y-66512772D01*
X96764125Y-66435589D01*
X96782314Y-66310139D01*
X96782314Y-66310136D01*
X96783175Y-66304199D01*
X96773431Y-66093670D01*
X96767177Y-66067717D01*
X96725459Y-65894615D01*
X96725458Y-65894613D01*
X96724053Y-65888782D01*
X96698535Y-65832657D01*
X96639302Y-65702383D01*
X96636822Y-65696928D01*
X96514886Y-65525030D01*
X96377404Y-65393420D01*
X96366975Y-65383436D01*
X96362645Y-65379291D01*
X96185592Y-65264969D01*
X96115750Y-65236822D01*
X95995684Y-65188434D01*
X95995681Y-65188433D01*
X95990115Y-65186190D01*
X95874333Y-65163579D01*
X95787714Y-65146663D01*
X95787711Y-65146663D01*
X95783268Y-65145795D01*
X95777236Y-65145500D01*
X95372594Y-65145500D01*
X95215199Y-65160517D01*
X95012967Y-65219845D01*
X95007640Y-65222589D01*
X95007639Y-65222589D01*
X94830934Y-65313598D01*
X94830931Y-65313600D01*
X94825603Y-65316344D01*
X94820888Y-65320048D01*
X94664584Y-65442825D01*
X94664579Y-65442829D01*
X94659867Y-65446531D01*
X94655936Y-65451061D01*
X94655935Y-65451062D01*
X94620693Y-65491675D01*
X94521739Y-65605710D01*
X94416203Y-65788136D01*
X94414234Y-65793805D01*
X94414233Y-65793808D01*
X94379227Y-65894615D01*
X94347066Y-65987228D01*
X94346205Y-65993166D01*
X94330765Y-66099659D01*
X94316825Y-66195801D01*
X73897300Y-66195801D01*
X73897300Y-63403627D01*
X73917302Y-63335506D01*
X73976916Y-63286475D01*
X74014267Y-63271687D01*
X74014270Y-63271686D01*
X74021636Y-63268769D01*
X74028652Y-63263672D01*
X74144301Y-63179648D01*
X74150714Y-63174989D01*
X74252415Y-63052054D01*
X74309012Y-62931778D01*
X74316974Y-62914858D01*
X74316975Y-62914855D01*
X74320347Y-62907689D01*
X74339071Y-62809536D01*
X74340431Y-62802408D01*
X77376500Y-62802408D01*
X77376500Y-65163579D01*
X77380238Y-65193166D01*
X77390076Y-65271039D01*
X77391497Y-65282291D01*
X77450231Y-65430636D01*
X77454889Y-65437047D01*
X77454890Y-65437049D01*
X77475237Y-65465054D01*
X77544011Y-65559714D01*
X77666946Y-65661415D01*
X77674112Y-65664787D01*
X77804142Y-65725974D01*
X77804145Y-65725975D01*
X77811311Y-65729347D01*
X77884784Y-65743363D01*
X77942567Y-65754386D01*
X77942570Y-65754386D01*
X77948408Y-65755500D01*
X78801579Y-65755500D01*
X78858030Y-65748368D01*
X78912426Y-65741497D01*
X78912429Y-65741496D01*
X78920291Y-65740503D01*
X78927658Y-65737586D01*
X78927659Y-65737586D01*
X78961276Y-65724276D01*
X79068636Y-65681769D01*
X79077582Y-65675270D01*
X79154139Y-65619648D01*
X79197714Y-65587989D01*
X79299415Y-65465054D01*
X79339108Y-65380701D01*
X79363974Y-65327858D01*
X79363975Y-65327855D01*
X79367347Y-65320689D01*
X79391674Y-65193166D01*
X79392386Y-65189433D01*
X79392386Y-65189430D01*
X79393500Y-65183592D01*
X79393500Y-64590548D01*
X82321000Y-64590548D01*
X82321000Y-65080432D01*
X82321636Y-65089352D01*
X82335186Y-65183969D01*
X82340175Y-65201031D01*
X82392479Y-65316068D01*
X82402048Y-65331030D01*
X82484536Y-65426764D01*
X82497930Y-65438447D01*
X82603961Y-65507173D01*
X82620104Y-65514632D01*
X82743231Y-65551455D01*
X82756265Y-65553859D01*
X82760062Y-65554000D01*
X83429885Y-65554000D01*
X83445124Y-65549525D01*
X83446329Y-65548135D01*
X83448000Y-65540452D01*
X83448000Y-64595115D01*
X83446659Y-64590548D01*
X83702000Y-64590548D01*
X83702000Y-65535885D01*
X83706475Y-65551124D01*
X83707865Y-65552329D01*
X83715548Y-65554000D01*
X84355432Y-65554000D01*
X84364352Y-65553364D01*
X84458969Y-65539814D01*
X84476031Y-65534825D01*
X84591068Y-65482521D01*
X84606030Y-65472952D01*
X84701764Y-65390464D01*
X84713447Y-65377070D01*
X84782173Y-65271039D01*
X84789632Y-65254896D01*
X84826455Y-65131769D01*
X84828859Y-65118735D01*
X84829000Y-65114938D01*
X84829000Y-64595115D01*
X84827659Y-64590548D01*
X88746000Y-64590548D01*
X88746000Y-65080432D01*
X88746636Y-65089352D01*
X88760186Y-65183969D01*
X88765175Y-65201031D01*
X88817479Y-65316068D01*
X88827048Y-65331030D01*
X88909536Y-65426764D01*
X88922930Y-65438447D01*
X89028961Y-65507173D01*
X89045104Y-65514632D01*
X89168231Y-65551455D01*
X89181265Y-65553859D01*
X89185062Y-65554000D01*
X89854885Y-65554000D01*
X89870124Y-65549525D01*
X89871329Y-65548135D01*
X89873000Y-65540452D01*
X89873000Y-64595115D01*
X89871659Y-64590548D01*
X90127000Y-64590548D01*
X90127000Y-65535885D01*
X90131475Y-65551124D01*
X90132865Y-65552329D01*
X90140548Y-65554000D01*
X90780432Y-65554000D01*
X90789352Y-65553364D01*
X90883969Y-65539814D01*
X90901031Y-65534825D01*
X91016068Y-65482521D01*
X91031030Y-65472952D01*
X91126764Y-65390464D01*
X91138447Y-65377070D01*
X91207173Y-65271039D01*
X91214632Y-65254896D01*
X91251455Y-65131769D01*
X91253859Y-65118735D01*
X91254000Y-65114938D01*
X91254000Y-64595115D01*
X91249525Y-64579876D01*
X91248135Y-64578671D01*
X91240452Y-64577000D01*
X90145115Y-64577000D01*
X90129876Y-64581475D01*
X90128671Y-64582865D01*
X90127000Y-64590548D01*
X89871659Y-64590548D01*
X89868525Y-64579876D01*
X89867135Y-64578671D01*
X89859452Y-64577000D01*
X88764115Y-64577000D01*
X88748876Y-64581475D01*
X88747671Y-64582865D01*
X88746000Y-64590548D01*
X84827659Y-64590548D01*
X84824525Y-64579876D01*
X84823135Y-64578671D01*
X84815452Y-64577000D01*
X83720115Y-64577000D01*
X83704876Y-64581475D01*
X83703671Y-64582865D01*
X83702000Y-64590548D01*
X83446659Y-64590548D01*
X83443525Y-64579876D01*
X83442135Y-64578671D01*
X83434452Y-64577000D01*
X82339115Y-64577000D01*
X82323876Y-64581475D01*
X82322671Y-64582865D01*
X82321000Y-64590548D01*
X79393500Y-64590548D01*
X79393500Y-63785062D01*
X82321000Y-63785062D01*
X82321000Y-64304885D01*
X82325475Y-64320124D01*
X82326865Y-64321329D01*
X82334548Y-64323000D01*
X83429885Y-64323000D01*
X83445124Y-64318525D01*
X83446329Y-64317135D01*
X83448000Y-64309452D01*
X83448000Y-63364115D01*
X83446659Y-63359548D01*
X83702000Y-63359548D01*
X83702000Y-64304885D01*
X83706475Y-64320124D01*
X83707865Y-64321329D01*
X83715548Y-64323000D01*
X84810885Y-64323000D01*
X84826124Y-64318525D01*
X84827329Y-64317135D01*
X84829000Y-64309452D01*
X84829000Y-63819568D01*
X84828364Y-63810648D01*
X84824700Y-63785062D01*
X88746000Y-63785062D01*
X88746000Y-64304885D01*
X88750475Y-64320124D01*
X88751865Y-64321329D01*
X88759548Y-64323000D01*
X89854885Y-64323000D01*
X89870124Y-64318525D01*
X89871329Y-64317135D01*
X89873000Y-64309452D01*
X89873000Y-63364115D01*
X89871659Y-63359548D01*
X90127000Y-63359548D01*
X90127000Y-64304885D01*
X90131475Y-64320124D01*
X90132865Y-64321329D01*
X90140548Y-64323000D01*
X91235885Y-64323000D01*
X91251124Y-64318525D01*
X91252329Y-64317135D01*
X91254000Y-64309452D01*
X91254000Y-63890548D01*
X94321000Y-63890548D01*
X94321000Y-64380432D01*
X94321636Y-64389352D01*
X94335186Y-64483969D01*
X94340175Y-64501031D01*
X94392479Y-64616068D01*
X94402048Y-64631030D01*
X94484536Y-64726764D01*
X94497930Y-64738447D01*
X94603961Y-64807173D01*
X94620104Y-64814632D01*
X94743231Y-64851455D01*
X94756265Y-64853859D01*
X94760062Y-64854000D01*
X95404885Y-64854000D01*
X95420124Y-64849525D01*
X95421329Y-64848135D01*
X95423000Y-64840452D01*
X95423000Y-63895115D01*
X95421659Y-63890548D01*
X95677000Y-63890548D01*
X95677000Y-64835885D01*
X95681475Y-64851124D01*
X95682865Y-64852329D01*
X95690548Y-64854000D01*
X96305432Y-64854000D01*
X96314352Y-64853364D01*
X96408969Y-64839814D01*
X96426031Y-64834825D01*
X96541068Y-64782521D01*
X96556030Y-64772952D01*
X96651764Y-64690464D01*
X96663447Y-64677070D01*
X96732173Y-64571039D01*
X96739632Y-64554896D01*
X96776455Y-64431769D01*
X96778859Y-64418735D01*
X96779000Y-64414938D01*
X96779000Y-63895115D01*
X96774525Y-63879876D01*
X96773135Y-63878671D01*
X96765452Y-63877000D01*
X95695115Y-63877000D01*
X95679876Y-63881475D01*
X95678671Y-63882865D01*
X95677000Y-63890548D01*
X95421659Y-63890548D01*
X95418525Y-63879876D01*
X95417135Y-63878671D01*
X95409452Y-63877000D01*
X94339115Y-63877000D01*
X94323876Y-63881475D01*
X94322671Y-63882865D01*
X94321000Y-63890548D01*
X91254000Y-63890548D01*
X91254000Y-63819568D01*
X91253364Y-63810648D01*
X91239814Y-63716031D01*
X91234825Y-63698969D01*
X91182521Y-63583932D01*
X91172952Y-63568970D01*
X91090464Y-63473236D01*
X91077070Y-63461553D01*
X90971039Y-63392827D01*
X90954896Y-63385368D01*
X90831769Y-63348545D01*
X90818735Y-63346141D01*
X90814938Y-63346000D01*
X90145115Y-63346000D01*
X90129876Y-63350475D01*
X90128671Y-63351865D01*
X90127000Y-63359548D01*
X89871659Y-63359548D01*
X89868525Y-63348876D01*
X89867135Y-63347671D01*
X89859452Y-63346000D01*
X89219568Y-63346000D01*
X89210648Y-63346636D01*
X89116031Y-63360186D01*
X89098969Y-63365175D01*
X88983932Y-63417479D01*
X88968970Y-63427048D01*
X88873236Y-63509536D01*
X88861553Y-63522930D01*
X88792827Y-63628961D01*
X88785368Y-63645104D01*
X88748545Y-63768231D01*
X88746141Y-63781265D01*
X88746000Y-63785062D01*
X84824700Y-63785062D01*
X84814814Y-63716031D01*
X84809825Y-63698969D01*
X84757521Y-63583932D01*
X84747952Y-63568970D01*
X84665464Y-63473236D01*
X84652070Y-63461553D01*
X84546039Y-63392827D01*
X84529896Y-63385368D01*
X84406769Y-63348545D01*
X84393735Y-63346141D01*
X84389938Y-63346000D01*
X83720115Y-63346000D01*
X83704876Y-63350475D01*
X83703671Y-63351865D01*
X83702000Y-63359548D01*
X83446659Y-63359548D01*
X83443525Y-63348876D01*
X83442135Y-63347671D01*
X83434452Y-63346000D01*
X82794568Y-63346000D01*
X82785648Y-63346636D01*
X82691031Y-63360186D01*
X82673969Y-63365175D01*
X82558932Y-63417479D01*
X82543970Y-63427048D01*
X82448236Y-63509536D01*
X82436553Y-63522930D01*
X82367827Y-63628961D01*
X82360368Y-63645104D01*
X82323545Y-63768231D01*
X82321141Y-63781265D01*
X82321000Y-63785062D01*
X79393500Y-63785062D01*
X79393500Y-63085062D01*
X94321000Y-63085062D01*
X94321000Y-63604885D01*
X94325475Y-63620124D01*
X94326865Y-63621329D01*
X94334548Y-63623000D01*
X95404885Y-63623000D01*
X95420124Y-63618525D01*
X95421329Y-63617135D01*
X95423000Y-63609452D01*
X95423000Y-62664115D01*
X95421659Y-62659548D01*
X95677000Y-62659548D01*
X95677000Y-63604885D01*
X95681475Y-63620124D01*
X95682865Y-63621329D01*
X95690548Y-63623000D01*
X96760885Y-63623000D01*
X96776124Y-63618525D01*
X96777329Y-63617135D01*
X96779000Y-63609452D01*
X96779000Y-63119568D01*
X96778364Y-63110648D01*
X96764814Y-63016031D01*
X96759825Y-62998969D01*
X96707521Y-62883932D01*
X96697952Y-62868970D01*
X96615464Y-62773236D01*
X96602070Y-62761553D01*
X96496039Y-62692827D01*
X96479896Y-62685368D01*
X96356769Y-62648545D01*
X96343735Y-62646141D01*
X96339938Y-62646000D01*
X95695115Y-62646000D01*
X95679876Y-62650475D01*
X95678671Y-62651865D01*
X95677000Y-62659548D01*
X95421659Y-62659548D01*
X95418525Y-62648876D01*
X95417135Y-62647671D01*
X95409452Y-62646000D01*
X94794568Y-62646000D01*
X94785648Y-62646636D01*
X94691031Y-62660186D01*
X94673969Y-62665175D01*
X94558932Y-62717479D01*
X94543970Y-62727048D01*
X94448236Y-62809536D01*
X94436553Y-62822930D01*
X94367827Y-62928961D01*
X94360368Y-62945104D01*
X94323545Y-63068231D01*
X94321141Y-63081265D01*
X94321000Y-63085062D01*
X79393500Y-63085062D01*
X79393500Y-62822421D01*
X79386198Y-62764621D01*
X79379497Y-62711574D01*
X79379496Y-62711571D01*
X79378503Y-62703709D01*
X79319769Y-62555364D01*
X79299970Y-62528112D01*
X79230648Y-62432699D01*
X79225989Y-62426286D01*
X79103054Y-62324585D01*
X79069700Y-62308890D01*
X78965858Y-62260026D01*
X78965855Y-62260025D01*
X78958689Y-62256653D01*
X78885216Y-62242637D01*
X78827433Y-62231614D01*
X78827430Y-62231614D01*
X78821592Y-62230500D01*
X77968421Y-62230500D01*
X77923927Y-62236121D01*
X77857574Y-62244503D01*
X77857571Y-62244504D01*
X77849709Y-62245497D01*
X77842342Y-62248414D01*
X77842341Y-62248414D01*
X77825283Y-62255168D01*
X77701364Y-62304231D01*
X77572286Y-62398011D01*
X77470585Y-62520946D01*
X77467213Y-62528112D01*
X77410387Y-62648876D01*
X77402653Y-62665311D01*
X77398827Y-62685368D01*
X77381460Y-62776409D01*
X77376500Y-62802408D01*
X74340431Y-62802408D01*
X74345386Y-62776433D01*
X74345386Y-62776430D01*
X74346500Y-62770592D01*
X74346500Y-61895801D01*
X82316825Y-61895801D01*
X82326569Y-62106330D01*
X82327973Y-62112155D01*
X82352222Y-62212772D01*
X82375947Y-62311218D01*
X82378429Y-62316676D01*
X82378430Y-62316680D01*
X82425969Y-62421235D01*
X82463178Y-62503072D01*
X82585114Y-62674970D01*
X82675560Y-62761553D01*
X82725684Y-62809536D01*
X82737355Y-62820709D01*
X82914408Y-62935031D01*
X82942348Y-62946291D01*
X83104316Y-63011566D01*
X83104319Y-63011567D01*
X83109885Y-63013810D01*
X83213589Y-63034062D01*
X83312286Y-63053337D01*
X83312289Y-63053337D01*
X83316732Y-63054205D01*
X83322764Y-63054500D01*
X83777406Y-63054500D01*
X83934801Y-63039483D01*
X84137033Y-62980155D01*
X84205089Y-62945104D01*
X84319066Y-62886402D01*
X84319069Y-62886400D01*
X84324397Y-62883656D01*
X84376391Y-62842815D01*
X84485416Y-62757175D01*
X84485421Y-62757171D01*
X84490133Y-62753469D01*
X84521364Y-62717479D01*
X84583267Y-62646141D01*
X84628261Y-62594290D01*
X84733797Y-62411864D01*
X84736488Y-62404117D01*
X84800965Y-62218442D01*
X84802934Y-62212772D01*
X84803795Y-62206834D01*
X84832314Y-62010139D01*
X84832314Y-62010136D01*
X84833175Y-62004199D01*
X84828158Y-61895801D01*
X88741825Y-61895801D01*
X88751569Y-62106330D01*
X88752973Y-62112155D01*
X88777222Y-62212772D01*
X88800947Y-62311218D01*
X88803429Y-62316676D01*
X88803430Y-62316680D01*
X88850969Y-62421235D01*
X88888178Y-62503072D01*
X89010114Y-62674970D01*
X89100560Y-62761553D01*
X89150684Y-62809536D01*
X89162355Y-62820709D01*
X89339408Y-62935031D01*
X89367348Y-62946291D01*
X89529316Y-63011566D01*
X89529319Y-63011567D01*
X89534885Y-63013810D01*
X89638589Y-63034062D01*
X89737286Y-63053337D01*
X89737289Y-63053337D01*
X89741732Y-63054205D01*
X89747764Y-63054500D01*
X90202406Y-63054500D01*
X90359801Y-63039483D01*
X90562033Y-62980155D01*
X90630089Y-62945104D01*
X90744066Y-62886402D01*
X90744069Y-62886400D01*
X90749397Y-62883656D01*
X90801391Y-62842815D01*
X90910416Y-62757175D01*
X90910421Y-62757171D01*
X90915133Y-62753469D01*
X90946364Y-62717479D01*
X91008267Y-62646141D01*
X91053261Y-62594290D01*
X91059010Y-62584352D01*
X99642414Y-62584352D01*
X99642949Y-62588870D01*
X99642949Y-62588876D01*
X99663753Y-62764646D01*
X99674048Y-62851623D01*
X99743932Y-63111528D01*
X99850603Y-63358622D01*
X99852994Y-63362500D01*
X99852994Y-63362501D01*
X99892782Y-63427048D01*
X99991827Y-63587729D01*
X100164644Y-63794050D01*
X100365435Y-63973263D01*
X100589993Y-64121613D01*
X100594127Y-64123554D01*
X100594129Y-64123555D01*
X100606775Y-64129492D01*
X100833615Y-64235993D01*
X100837972Y-64237313D01*
X100837973Y-64237313D01*
X101086826Y-64312683D01*
X101086833Y-64312685D01*
X101091196Y-64314006D01*
X101357341Y-64354020D01*
X101361906Y-64354040D01*
X101361907Y-64354040D01*
X101488556Y-64354592D01*
X101626474Y-64355194D01*
X101710671Y-64343286D01*
X101888442Y-64318144D01*
X101888446Y-64318143D01*
X101892958Y-64317505D01*
X102151211Y-64241742D01*
X102176444Y-64230163D01*
X102391673Y-64131396D01*
X102391679Y-64131393D01*
X102395821Y-64129492D01*
X102621665Y-63983107D01*
X102808146Y-63819568D01*
X102820581Y-63808663D01*
X102820582Y-63808662D01*
X102824012Y-63805654D01*
X102841568Y-63785062D01*
X102995660Y-63604326D01*
X102995663Y-63604323D01*
X102998624Y-63600849D01*
X103001051Y-63596987D01*
X103001055Y-63596982D01*
X103139412Y-63376847D01*
X103139413Y-63376845D01*
X103141841Y-63372982D01*
X103143683Y-63368816D01*
X103143686Y-63368810D01*
X103248820Y-63131001D01*
X103248822Y-63130996D01*
X103250664Y-63126829D01*
X103293141Y-62974178D01*
X103321590Y-62871944D01*
X103321591Y-62871939D01*
X103322814Y-62867544D01*
X103350632Y-62648876D01*
X103356384Y-62603666D01*
X103356384Y-62603663D01*
X103356779Y-62600560D01*
X103358176Y-62548951D01*
X103359415Y-62503137D01*
X103359500Y-62500000D01*
X103340023Y-62231570D01*
X103311051Y-62100341D01*
X103282986Y-61973222D01*
X103282985Y-61973218D01*
X103282001Y-61968762D01*
X103186648Y-61717084D01*
X103055963Y-61481806D01*
X102939325Y-61328973D01*
X102895455Y-61271490D01*
X102895454Y-61271489D01*
X102892683Y-61267858D01*
X102853871Y-61229916D01*
X102703497Y-61082916D01*
X102700229Y-61079721D01*
X102482631Y-60921337D01*
X102365947Y-60859947D01*
X102248489Y-60798149D01*
X102248483Y-60798146D01*
X102244449Y-60796024D01*
X102172458Y-60770601D01*
X101994985Y-60707928D01*
X101994984Y-60707928D01*
X101990672Y-60706405D01*
X101863160Y-60681273D01*
X101731088Y-60655241D01*
X101731082Y-60655240D01*
X101726616Y-60654360D01*
X101722063Y-60654133D01*
X101722060Y-60654133D01*
X101462382Y-60641206D01*
X101462376Y-60641206D01*
X101457813Y-60640979D01*
X101189894Y-60666540D01*
X101185460Y-60667625D01*
X101185454Y-60667626D01*
X100932908Y-60729424D01*
X100928470Y-60730510D01*
X100679020Y-60831548D01*
X100521091Y-60924019D01*
X100454985Y-60962726D01*
X100446768Y-60967537D01*
X100236579Y-61135629D01*
X100052857Y-61332303D01*
X99988622Y-61424897D01*
X99902053Y-61549684D01*
X99902050Y-61549690D01*
X99899450Y-61553437D01*
X99897418Y-61557522D01*
X99897416Y-61557525D01*
X99881866Y-61588782D01*
X99779573Y-61794401D01*
X99695735Y-62050146D01*
X99649694Y-62315315D01*
X99646941Y-62417062D01*
X99644697Y-62500000D01*
X99642414Y-62584352D01*
X91059010Y-62584352D01*
X91158797Y-62411864D01*
X91161488Y-62404117D01*
X91225965Y-62218442D01*
X91227934Y-62212772D01*
X91228795Y-62206834D01*
X91257314Y-62010139D01*
X91257314Y-62010136D01*
X91258175Y-62004199D01*
X91248431Y-61793670D01*
X91231910Y-61725115D01*
X91200459Y-61594615D01*
X91200458Y-61594613D01*
X91199053Y-61588782D01*
X91194606Y-61579000D01*
X91134650Y-61447135D01*
X91111822Y-61396928D01*
X90989886Y-61225030D01*
X90837645Y-61079291D01*
X90660592Y-60964969D01*
X90600948Y-60940932D01*
X90470684Y-60888434D01*
X90470681Y-60888433D01*
X90465115Y-60886190D01*
X90361411Y-60865938D01*
X90262714Y-60846663D01*
X90262711Y-60846663D01*
X90258268Y-60845795D01*
X90252236Y-60845500D01*
X89797594Y-60845500D01*
X89640199Y-60860517D01*
X89437967Y-60919845D01*
X89432640Y-60922589D01*
X89432639Y-60922589D01*
X89255934Y-61013598D01*
X89255931Y-61013600D01*
X89250603Y-61016344D01*
X89245888Y-61020048D01*
X89089584Y-61142825D01*
X89089579Y-61142829D01*
X89084867Y-61146531D01*
X88946739Y-61305710D01*
X88841203Y-61488136D01*
X88839234Y-61493805D01*
X88839233Y-61493808D01*
X88778918Y-61667495D01*
X88772066Y-61687228D01*
X88771205Y-61693166D01*
X88755765Y-61799659D01*
X88741825Y-61895801D01*
X84828158Y-61895801D01*
X84823431Y-61793670D01*
X84806910Y-61725115D01*
X84775459Y-61594615D01*
X84775458Y-61594613D01*
X84774053Y-61588782D01*
X84769606Y-61579000D01*
X84709650Y-61447135D01*
X84686822Y-61396928D01*
X84564886Y-61225030D01*
X84412645Y-61079291D01*
X84235592Y-60964969D01*
X84175948Y-60940932D01*
X84045684Y-60888434D01*
X84045681Y-60888433D01*
X84040115Y-60886190D01*
X83936411Y-60865938D01*
X83837714Y-60846663D01*
X83837711Y-60846663D01*
X83833268Y-60845795D01*
X83827236Y-60845500D01*
X83372594Y-60845500D01*
X83215199Y-60860517D01*
X83012967Y-60919845D01*
X83007640Y-60922589D01*
X83007639Y-60922589D01*
X82830934Y-61013598D01*
X82830931Y-61013600D01*
X82825603Y-61016344D01*
X82820888Y-61020048D01*
X82664584Y-61142825D01*
X82664579Y-61142829D01*
X82659867Y-61146531D01*
X82521739Y-61305710D01*
X82416203Y-61488136D01*
X82414234Y-61493805D01*
X82414233Y-61493808D01*
X82353918Y-61667495D01*
X82347066Y-61687228D01*
X82346205Y-61693166D01*
X82330765Y-61799659D01*
X82316825Y-61895801D01*
X74346500Y-61895801D01*
X74346500Y-60409421D01*
X74339368Y-60352970D01*
X74332497Y-60298574D01*
X74332496Y-60298571D01*
X74331503Y-60290709D01*
X74272769Y-60142364D01*
X74253169Y-60115386D01*
X74183648Y-60019699D01*
X74178989Y-60013286D01*
X74056054Y-59911585D01*
X74006600Y-59888314D01*
X73918858Y-59847026D01*
X73918855Y-59847025D01*
X73911689Y-59843653D01*
X73838216Y-59829637D01*
X73780433Y-59818614D01*
X73780430Y-59818614D01*
X73774592Y-59817500D01*
X72921421Y-59817500D01*
X72864970Y-59824632D01*
X72810574Y-59831503D01*
X72810571Y-59831504D01*
X72802709Y-59832497D01*
X72795342Y-59835414D01*
X72795341Y-59835414D01*
X72794119Y-59835898D01*
X72654364Y-59891231D01*
X72647953Y-59895889D01*
X72647951Y-59895890D01*
X72589825Y-59938121D01*
X72525286Y-59985011D01*
X72423585Y-60107946D01*
X72420213Y-60115112D01*
X72377755Y-60205342D01*
X72355653Y-60252311D01*
X72329500Y-60389408D01*
X71803972Y-60389408D01*
X71799368Y-60352970D01*
X71792497Y-60298574D01*
X71792496Y-60298571D01*
X71791503Y-60290709D01*
X71732769Y-60142364D01*
X71713169Y-60115386D01*
X71643648Y-60019699D01*
X71638989Y-60013286D01*
X71516054Y-59911585D01*
X71466600Y-59888314D01*
X71378858Y-59847026D01*
X71378855Y-59847025D01*
X71371689Y-59843653D01*
X71298216Y-59829637D01*
X71240433Y-59818614D01*
X71240430Y-59818614D01*
X71234592Y-59817500D01*
X70381421Y-59817500D01*
X70324970Y-59824632D01*
X70270574Y-59831503D01*
X70270571Y-59831504D01*
X70262709Y-59832497D01*
X70255342Y-59835414D01*
X70255341Y-59835414D01*
X70254119Y-59835898D01*
X70114364Y-59891231D01*
X70107953Y-59895889D01*
X70107951Y-59895890D01*
X70049825Y-59938121D01*
X69985286Y-59985011D01*
X69883585Y-60107946D01*
X69880213Y-60115112D01*
X69837755Y-60205342D01*
X69815653Y-60252311D01*
X69789500Y-60389408D01*
X69263472Y-60389408D01*
X69252013Y-60298698D01*
X69248102Y-60283465D01*
X69195249Y-60149974D01*
X69187672Y-60136192D01*
X69103284Y-60020042D01*
X69092516Y-60008575D01*
X68981893Y-59917059D01*
X68968614Y-59908632D01*
X68838709Y-59847504D01*
X68823748Y-59842643D01*
X68700409Y-59819114D01*
X68688621Y-59818000D01*
X67845380Y-59818000D01*
X67837490Y-59818497D01*
X67730698Y-59831987D01*
X67715465Y-59835898D01*
X67581974Y-59888751D01*
X67568192Y-59896328D01*
X67452042Y-59980716D01*
X67440575Y-59991484D01*
X67349059Y-60102107D01*
X67340632Y-60115386D01*
X67279504Y-60245291D01*
X67274643Y-60260252D01*
X67251114Y-60383591D01*
X67250000Y-60395379D01*
X66724726Y-60395379D01*
X66719368Y-60352970D01*
X66712497Y-60298574D01*
X66712496Y-60298571D01*
X66711503Y-60290709D01*
X66652769Y-60142364D01*
X66633169Y-60115386D01*
X66563648Y-60019699D01*
X66558989Y-60013286D01*
X66436054Y-59911585D01*
X66386600Y-59888314D01*
X66298858Y-59847026D01*
X66298855Y-59847025D01*
X66291689Y-59843653D01*
X66218216Y-59829637D01*
X66160433Y-59818614D01*
X66160430Y-59818614D01*
X66154592Y-59817500D01*
X65301421Y-59817500D01*
X65244970Y-59824632D01*
X65190574Y-59831503D01*
X65190571Y-59831504D01*
X65182709Y-59832497D01*
X65175342Y-59835414D01*
X65175341Y-59835414D01*
X65174119Y-59835898D01*
X65034364Y-59891231D01*
X65027953Y-59895889D01*
X65027951Y-59895890D01*
X64969825Y-59938121D01*
X64905286Y-59985011D01*
X64803585Y-60107946D01*
X64800213Y-60115112D01*
X64757755Y-60205342D01*
X64735653Y-60252311D01*
X64709500Y-60389408D01*
X64183972Y-60389408D01*
X64179368Y-60352970D01*
X64172497Y-60298574D01*
X64172496Y-60298571D01*
X64171503Y-60290709D01*
X64112769Y-60142364D01*
X64093169Y-60115386D01*
X64023648Y-60019699D01*
X64018989Y-60013286D01*
X63896054Y-59911585D01*
X63846600Y-59888314D01*
X63758858Y-59847026D01*
X63758855Y-59847025D01*
X63751689Y-59843653D01*
X63678216Y-59829637D01*
X63620433Y-59818614D01*
X63620430Y-59818614D01*
X63614592Y-59817500D01*
X62761421Y-59817500D01*
X62704970Y-59824632D01*
X62650574Y-59831503D01*
X62650571Y-59831504D01*
X62642709Y-59832497D01*
X62635342Y-59835414D01*
X62635341Y-59835414D01*
X62634119Y-59835898D01*
X62494364Y-59891231D01*
X62487953Y-59895889D01*
X62487951Y-59895890D01*
X62429825Y-59938121D01*
X62365286Y-59985011D01*
X62263585Y-60107946D01*
X62260213Y-60115112D01*
X62217755Y-60205342D01*
X62195653Y-60252311D01*
X62169500Y-60389408D01*
X61643972Y-60389408D01*
X61639368Y-60352970D01*
X61632497Y-60298574D01*
X61632496Y-60298571D01*
X61631503Y-60290709D01*
X61572769Y-60142364D01*
X61553169Y-60115386D01*
X61483648Y-60019699D01*
X61478989Y-60013286D01*
X61356054Y-59911585D01*
X61306600Y-59888314D01*
X61218858Y-59847026D01*
X61218855Y-59847025D01*
X61211689Y-59843653D01*
X61138216Y-59829637D01*
X61080433Y-59818614D01*
X61080430Y-59818614D01*
X61074592Y-59817500D01*
X60221421Y-59817500D01*
X60164970Y-59824632D01*
X60110574Y-59831503D01*
X60110571Y-59831504D01*
X60102709Y-59832497D01*
X60095342Y-59835414D01*
X60095341Y-59835414D01*
X60094119Y-59835898D01*
X59954364Y-59891231D01*
X59947953Y-59895889D01*
X59947951Y-59895890D01*
X59889825Y-59938121D01*
X59825286Y-59985011D01*
X59723585Y-60107946D01*
X59720213Y-60115112D01*
X59677755Y-60205342D01*
X59655653Y-60252311D01*
X59629500Y-60389408D01*
X59103972Y-60389408D01*
X59099368Y-60352970D01*
X59092497Y-60298574D01*
X59092496Y-60298571D01*
X59091503Y-60290709D01*
X59032769Y-60142364D01*
X59013169Y-60115386D01*
X58943648Y-60019699D01*
X58938989Y-60013286D01*
X58816054Y-59911585D01*
X58766600Y-59888314D01*
X58678858Y-59847026D01*
X58678855Y-59847025D01*
X58671689Y-59843653D01*
X58598216Y-59829637D01*
X58540433Y-59818614D01*
X58540430Y-59818614D01*
X58534592Y-59817500D01*
X57681421Y-59817500D01*
X57624970Y-59824632D01*
X57570574Y-59831503D01*
X57570571Y-59831504D01*
X57562709Y-59832497D01*
X57555342Y-59835414D01*
X57555341Y-59835414D01*
X57554119Y-59835898D01*
X57414364Y-59891231D01*
X57407953Y-59895889D01*
X57407951Y-59895890D01*
X57349825Y-59938121D01*
X57285286Y-59985011D01*
X57183585Y-60107946D01*
X57180213Y-60115112D01*
X57137755Y-60205342D01*
X57115653Y-60252311D01*
X57089500Y-60389408D01*
X56563972Y-60389408D01*
X56559368Y-60352970D01*
X56552497Y-60298574D01*
X56552496Y-60298571D01*
X56551503Y-60290709D01*
X56492769Y-60142364D01*
X56473169Y-60115386D01*
X56403648Y-60019699D01*
X56398989Y-60013286D01*
X56276054Y-59911585D01*
X56226600Y-59888314D01*
X56138858Y-59847026D01*
X56138855Y-59847025D01*
X56131689Y-59843653D01*
X56058216Y-59829637D01*
X56000433Y-59818614D01*
X56000430Y-59818614D01*
X55994592Y-59817500D01*
X55141421Y-59817500D01*
X55084970Y-59824632D01*
X55030574Y-59831503D01*
X55030571Y-59831504D01*
X55022709Y-59832497D01*
X55015342Y-59835414D01*
X55015341Y-59835414D01*
X55014119Y-59835898D01*
X54874364Y-59891231D01*
X54867953Y-59895889D01*
X54867951Y-59895890D01*
X54809825Y-59938121D01*
X54745286Y-59985011D01*
X54643585Y-60107946D01*
X54640213Y-60115112D01*
X54597755Y-60205342D01*
X54575653Y-60252311D01*
X54549500Y-60389408D01*
X54023972Y-60389408D01*
X54019368Y-60352970D01*
X54012497Y-60298574D01*
X54012496Y-60298571D01*
X54011503Y-60290709D01*
X53952769Y-60142364D01*
X53933169Y-60115386D01*
X53863648Y-60019699D01*
X53858989Y-60013286D01*
X53736054Y-59911585D01*
X53686600Y-59888314D01*
X53598858Y-59847026D01*
X53598855Y-59847025D01*
X53591689Y-59843653D01*
X53518216Y-59829637D01*
X53460433Y-59818614D01*
X53460430Y-59818614D01*
X53454592Y-59817500D01*
X52601421Y-59817500D01*
X52544970Y-59824632D01*
X52490574Y-59831503D01*
X52490571Y-59831504D01*
X52482709Y-59832497D01*
X52475342Y-59835414D01*
X52475341Y-59835414D01*
X52474119Y-59835898D01*
X52334364Y-59891231D01*
X52327953Y-59895889D01*
X52327951Y-59895890D01*
X52269825Y-59938121D01*
X52205286Y-59985011D01*
X52103585Y-60107946D01*
X52100213Y-60115112D01*
X52057755Y-60205342D01*
X52035653Y-60252311D01*
X52009500Y-60389408D01*
X51483472Y-60389408D01*
X51472013Y-60298698D01*
X51468102Y-60283465D01*
X51415249Y-60149974D01*
X51407672Y-60136192D01*
X51323284Y-60020042D01*
X51312516Y-60008575D01*
X51201893Y-59917059D01*
X51188614Y-59908632D01*
X51058709Y-59847504D01*
X51043748Y-59842643D01*
X50920409Y-59819114D01*
X50908621Y-59818000D01*
X50065380Y-59818000D01*
X50057490Y-59818497D01*
X49950698Y-59831987D01*
X49935465Y-59835898D01*
X49801974Y-59888751D01*
X49788192Y-59896328D01*
X49672042Y-59980716D01*
X49660575Y-59991484D01*
X49569059Y-60102107D01*
X49560632Y-60115386D01*
X49496128Y-60252465D01*
X49494696Y-60251791D01*
X49459761Y-60302883D01*
X49394365Y-60330520D01*
X49324408Y-60318415D01*
X49272101Y-60270410D01*
X49254000Y-60205342D01*
X49254000Y-59380000D01*
X49274002Y-59311879D01*
X49327658Y-59265386D01*
X49380000Y-59254000D01*
X104620000Y-59254000D01*
X104688121Y-59274002D01*
G37*
%TD.AperFunction*%
%TD*%
M02*
