%TF.GenerationSoftware,KiCad,Pcbnew,5.99.0-unknown-7ef9082c86~117~ubuntu18.04.1*%
%TF.CreationDate,2021-03-11T22:58:14+01:00*%
%TF.ProjectId,TSDZ2_nrf_module_board,5453445a-325f-46e7-9266-5f6d6f64756c,rev?*%
%TF.SameCoordinates,Original*%
%TF.FileFunction,Legend,Bot*%
%TF.FilePolarity,Positive*%
%FSLAX46Y46*%
G04 Gerber Fmt 4.6, Leading zero omitted, Abs format (unit mm)*
G04 Created by KiCad (PCBNEW 5.99.0-unknown-7ef9082c86~117~ubuntu18.04.1) date 2021-03-11 22:58:14*
%MOMM*%
%LPD*%
G01*
G04 APERTURE LIST*
%ADD10C,0.150000*%
%ADD11C,0.120000*%
%ADD12C,0.010000*%
%ADD13C,0.127000*%
G04 APERTURE END LIST*
D10*
%TO.C,R1*%
X92416666Y-69266666D02*
X92650000Y-68933333D01*
X92816666Y-69266666D02*
X92816666Y-68566666D01*
X92550000Y-68566666D01*
X92483333Y-68600000D01*
X92450000Y-68633333D01*
X92416666Y-68700000D01*
X92416666Y-68800000D01*
X92450000Y-68866666D01*
X92483333Y-68900000D01*
X92550000Y-68933333D01*
X92816666Y-68933333D01*
X91750000Y-69266666D02*
X92150000Y-69266666D01*
X91950000Y-69266666D02*
X91950000Y-68566666D01*
X92016666Y-68666666D01*
X92083333Y-68733333D01*
X92150000Y-68766666D01*
%TO.C,C2*%
X80066666Y-68050000D02*
X80100000Y-68083333D01*
X80200000Y-68116666D01*
X80266666Y-68116666D01*
X80366666Y-68083333D01*
X80433333Y-68016666D01*
X80466666Y-67950000D01*
X80500000Y-67816666D01*
X80500000Y-67716666D01*
X80466666Y-67583333D01*
X80433333Y-67516666D01*
X80366666Y-67450000D01*
X80266666Y-67416666D01*
X80200000Y-67416666D01*
X80100000Y-67450000D01*
X80066666Y-67483333D01*
X79800000Y-67483333D02*
X79766666Y-67450000D01*
X79700000Y-67416666D01*
X79533333Y-67416666D01*
X79466666Y-67450000D01*
X79433333Y-67483333D01*
X79400000Y-67550000D01*
X79400000Y-67616666D01*
X79433333Y-67716666D01*
X79833333Y-68116666D01*
X79400000Y-68116666D01*
%TO.C,U2*%
X83533333Y-67316666D02*
X83533333Y-67883333D01*
X83500000Y-67950000D01*
X83466666Y-67983333D01*
X83400000Y-68016666D01*
X83266666Y-68016666D01*
X83200000Y-67983333D01*
X83166666Y-67950000D01*
X83133333Y-67883333D01*
X83133333Y-67316666D01*
X82833333Y-67383333D02*
X82800000Y-67350000D01*
X82733333Y-67316666D01*
X82566666Y-67316666D01*
X82500000Y-67350000D01*
X82466666Y-67383333D01*
X82433333Y-67450000D01*
X82433333Y-67516666D01*
X82466666Y-67616666D01*
X82866666Y-68016666D01*
X82433333Y-68016666D01*
%TO.C,*%
%TO.C,Q1*%
X90066666Y-69883333D02*
X90133333Y-69850000D01*
X90200000Y-69783333D01*
X90300000Y-69683333D01*
X90366666Y-69650000D01*
X90433333Y-69650000D01*
X90400000Y-69816666D02*
X90466666Y-69783333D01*
X90533333Y-69716666D01*
X90566666Y-69583333D01*
X90566666Y-69350000D01*
X90533333Y-69216666D01*
X90466666Y-69150000D01*
X90400000Y-69116666D01*
X90266666Y-69116666D01*
X90200000Y-69150000D01*
X90133333Y-69216666D01*
X90100000Y-69350000D01*
X90100000Y-69583333D01*
X90133333Y-69716666D01*
X90200000Y-69783333D01*
X90266666Y-69816666D01*
X90400000Y-69816666D01*
X89433333Y-69816666D02*
X89833333Y-69816666D01*
X89633333Y-69816666D02*
X89633333Y-69116666D01*
X89700000Y-69216666D01*
X89766666Y-69283333D01*
X89833333Y-69316666D01*
%TO.C,C1*%
X87516666Y-67950000D02*
X87550000Y-67983333D01*
X87650000Y-68016666D01*
X87716666Y-68016666D01*
X87816666Y-67983333D01*
X87883333Y-67916666D01*
X87916666Y-67850000D01*
X87950000Y-67716666D01*
X87950000Y-67616666D01*
X87916666Y-67483333D01*
X87883333Y-67416666D01*
X87816666Y-67350000D01*
X87716666Y-67316666D01*
X87650000Y-67316666D01*
X87550000Y-67350000D01*
X87516666Y-67383333D01*
X86850000Y-68016666D02*
X87250000Y-68016666D01*
X87050000Y-68016666D02*
X87050000Y-67316666D01*
X87116666Y-67416666D01*
X87183333Y-67483333D01*
X87250000Y-67516666D01*
D11*
%TO.C,R1*%
X91777500Y-71137258D02*
X91777500Y-70662742D01*
X92822500Y-71137258D02*
X92822500Y-70662742D01*
%TO.C,C2*%
X80685000Y-69738748D02*
X80685000Y-70261252D01*
X79215000Y-69738748D02*
X79215000Y-70261252D01*
%TO.C,SW4*%
X85275000Y-59400000D02*
X86025000Y-59400000D01*
X83775000Y-60150000D02*
X80825000Y-60150000D01*
X86025000Y-62700000D02*
X86025000Y-63700000D01*
X86025000Y-65200000D02*
X86025000Y-67000000D01*
X85275000Y-63700000D02*
X85275000Y-62700000D01*
X85275000Y-65200000D02*
X86025000Y-65200000D01*
X86035000Y-59390000D02*
X86035000Y-67010000D01*
X86025000Y-63700000D02*
X85275000Y-63700000D01*
X80065000Y-67010000D02*
X80065000Y-59390000D01*
X86035000Y-67010000D02*
X80065000Y-67010000D01*
X86025000Y-67000000D02*
X85275000Y-67000000D01*
X83775000Y-66250000D02*
X80825000Y-66250000D01*
X80065000Y-59390000D02*
X86035000Y-59390000D01*
X80825000Y-66250000D02*
X80825000Y-63200000D01*
X85275000Y-61200000D02*
X85275000Y-59400000D01*
X85275000Y-62700000D02*
X86025000Y-62700000D01*
X80825000Y-60150000D02*
X80825000Y-63200000D01*
X86325000Y-66050000D02*
X86325000Y-67300000D01*
X86025000Y-59400000D02*
X86025000Y-61200000D01*
X83775000Y-67000000D02*
X83775000Y-66250000D01*
X85275000Y-67000000D02*
X85275000Y-65200000D01*
X86325000Y-67300000D02*
X85075000Y-67300000D01*
X83775000Y-59400000D02*
X83775000Y-60150000D01*
X86025000Y-61200000D02*
X85275000Y-61200000D01*
%TO.C,U2*%
X81150000Y-68200000D02*
G75*
G03*
X81150000Y-68200000I-50000J0D01*
G01*
%TO.C,SW1*%
X92450000Y-72950000D02*
X92450000Y-74750000D01*
X92460000Y-80560000D02*
X86490000Y-80560000D01*
X92750000Y-79600000D02*
X92750000Y-80850000D01*
X91700000Y-76250000D02*
X92450000Y-76250000D01*
X92450000Y-77250000D02*
X91700000Y-77250000D01*
X91700000Y-72950000D02*
X92450000Y-72950000D01*
X92460000Y-72940000D02*
X92460000Y-80560000D01*
X92450000Y-76250000D02*
X92450000Y-77250000D01*
X86490000Y-72940000D02*
X92460000Y-72940000D01*
X91700000Y-77250000D02*
X91700000Y-76250000D01*
X90200000Y-79800000D02*
X87250000Y-79800000D01*
X92450000Y-80550000D02*
X91700000Y-80550000D01*
X92450000Y-74750000D02*
X91700000Y-74750000D01*
X92450000Y-78750000D02*
X92450000Y-80550000D01*
X91700000Y-74750000D02*
X91700000Y-72950000D01*
X87250000Y-73700000D02*
X87250000Y-76750000D01*
X90200000Y-80550000D02*
X90200000Y-79800000D01*
X91700000Y-78750000D02*
X92450000Y-78750000D01*
X91700000Y-80550000D02*
X91700000Y-78750000D01*
X90200000Y-72950000D02*
X90200000Y-73700000D01*
X87250000Y-79800000D02*
X87250000Y-76750000D01*
X92750000Y-80850000D02*
X91500000Y-80850000D01*
X90200000Y-73700000D02*
X87250000Y-73700000D01*
X86490000Y-80560000D02*
X86490000Y-72940000D01*
%TO.C,J1*%
X93140000Y-78810000D02*
X93140000Y-77390000D01*
X104250000Y-64000000D02*
X98750000Y-64000000D01*
X104250000Y-69000000D02*
X98750000Y-69000000D01*
X93140000Y-61190000D02*
X93140000Y-62610000D01*
X98750000Y-76500000D02*
X98750000Y-76000000D01*
X104250000Y-68500000D02*
X104250000Y-69000000D01*
X104860000Y-61190000D02*
X93140000Y-61190000D01*
X104860000Y-70000000D02*
X104860000Y-78810000D01*
X104860000Y-78810000D02*
X93140000Y-78810000D01*
X98750000Y-73500000D02*
X104250000Y-73500000D01*
X98750000Y-74000000D02*
X98750000Y-73500000D01*
X97640000Y-62610000D02*
X97640000Y-70000000D01*
X93450000Y-63450000D02*
X93450000Y-64050000D01*
X104250000Y-71000000D02*
X104250000Y-71500000D01*
X104250000Y-73500000D02*
X104250000Y-74000000D01*
X98750000Y-68500000D02*
X104250000Y-68500000D01*
X97640000Y-77390000D02*
X97640000Y-70000000D01*
X98750000Y-64000000D02*
X98750000Y-63500000D01*
X104250000Y-76500000D02*
X98750000Y-76500000D01*
X98750000Y-63500000D02*
X104250000Y-63500000D01*
X98750000Y-66500000D02*
X98750000Y-66000000D01*
X93140000Y-62610000D02*
X97640000Y-62610000D01*
X104250000Y-71500000D02*
X98750000Y-71500000D01*
X93140000Y-77390000D02*
X97640000Y-77390000D01*
X104860000Y-70000000D02*
X104860000Y-61190000D01*
X104250000Y-66500000D02*
X98750000Y-66500000D01*
X98750000Y-71000000D02*
X104250000Y-71000000D01*
X104250000Y-63500000D02*
X104250000Y-64000000D01*
X98750000Y-69000000D02*
X98750000Y-68500000D01*
X94050000Y-63750000D02*
X93450000Y-63450000D01*
X98750000Y-76000000D02*
X104250000Y-76000000D01*
X104250000Y-76000000D02*
X104250000Y-76500000D01*
X98750000Y-71500000D02*
X98750000Y-71000000D01*
X93450000Y-64050000D02*
X94050000Y-63750000D01*
X98750000Y-66000000D02*
X104250000Y-66000000D01*
X104250000Y-74000000D02*
X98750000Y-74000000D01*
X104250000Y-66000000D02*
X104250000Y-66500000D01*
%TO.C,SW2*%
X90200000Y-67000000D02*
X90200000Y-66250000D01*
X90200000Y-66250000D02*
X87250000Y-66250000D01*
X86490000Y-59390000D02*
X92460000Y-59390000D01*
X92450000Y-65200000D02*
X92450000Y-67000000D01*
X87250000Y-66250000D02*
X87250000Y-63200000D01*
X91700000Y-65200000D02*
X92450000Y-65200000D01*
X92450000Y-62700000D02*
X92450000Y-63700000D01*
X92450000Y-61200000D02*
X91700000Y-61200000D01*
X92450000Y-63700000D02*
X91700000Y-63700000D01*
X92460000Y-67010000D02*
X86490000Y-67010000D01*
X91700000Y-63700000D02*
X91700000Y-62700000D01*
X92750000Y-66050000D02*
X92750000Y-67300000D01*
X92450000Y-67000000D02*
X91700000Y-67000000D01*
X86490000Y-67010000D02*
X86490000Y-59390000D01*
X87250000Y-60150000D02*
X87250000Y-63200000D01*
X90200000Y-59400000D02*
X90200000Y-60150000D01*
X92450000Y-59400000D02*
X92450000Y-61200000D01*
X91700000Y-62700000D02*
X92450000Y-62700000D01*
X92460000Y-59390000D02*
X92460000Y-67010000D01*
X91700000Y-61200000D02*
X91700000Y-59400000D01*
X91700000Y-67000000D02*
X91700000Y-65200000D01*
X90200000Y-60150000D02*
X87250000Y-60150000D01*
X91700000Y-59400000D02*
X92450000Y-59400000D01*
X92750000Y-67300000D02*
X91500000Y-67300000D01*
D12*
%TO.C,*%
X70650000Y-69970000D02*
X70480000Y-69970000D01*
X70480000Y-69970000D02*
X70400000Y-69950000D01*
X70400000Y-69950000D02*
X70340000Y-69890000D01*
X70340000Y-69890000D02*
X70330000Y-69800000D01*
X70330000Y-69800000D02*
X70370000Y-69730000D01*
X70370000Y-69730000D02*
X70440000Y-69680000D01*
X70440000Y-69680000D02*
X70520000Y-69680000D01*
X70520000Y-69680000D02*
X70610000Y-69680000D01*
X70610000Y-69680000D02*
X70680000Y-69690000D01*
X70680000Y-69690000D02*
X70680000Y-69950000D01*
X70680000Y-69950000D02*
X70650000Y-69970000D01*
X70650000Y-69970000D02*
X70650000Y-69970000D01*
G36*
X70680000Y-69690000D02*
G01*
X70680000Y-69950000D01*
X70650000Y-69970000D01*
X70480000Y-69970000D01*
X70400000Y-69950000D01*
X70340000Y-69890000D01*
X70330000Y-69800000D01*
X70370000Y-69730000D01*
X70440000Y-69680000D01*
X70610000Y-69680000D01*
X70680000Y-69690000D01*
G37*
X70680000Y-69690000D02*
X70680000Y-69950000D01*
X70650000Y-69970000D01*
X70480000Y-69970000D01*
X70400000Y-69950000D01*
X70340000Y-69890000D01*
X70330000Y-69800000D01*
X70370000Y-69730000D01*
X70440000Y-69680000D01*
X70610000Y-69680000D01*
X70680000Y-69690000D01*
X66720000Y-70180000D02*
X66660000Y-70240000D01*
X66660000Y-70240000D02*
X66590000Y-70280000D01*
X66590000Y-70280000D02*
X66510000Y-70300000D01*
X66510000Y-70300000D02*
X66420000Y-70300000D01*
X66420000Y-70300000D02*
X66350000Y-70270000D01*
X66350000Y-70270000D02*
X66280000Y-70220000D01*
X66280000Y-70220000D02*
X66220000Y-70160000D01*
X66220000Y-70160000D02*
X66190000Y-70080000D01*
X66190000Y-70080000D02*
X66180000Y-69990000D01*
X66180000Y-69990000D02*
X66190000Y-69900000D01*
X66190000Y-69900000D02*
X66220000Y-69830000D01*
X66220000Y-69830000D02*
X66270000Y-69760000D01*
X66270000Y-69760000D02*
X66330000Y-69700000D01*
X66330000Y-69700000D02*
X66410000Y-69670000D01*
X66410000Y-69670000D02*
X66490000Y-69660000D01*
X66490000Y-69660000D02*
X66570000Y-69680000D01*
X66570000Y-69680000D02*
X66650000Y-69710000D01*
X66650000Y-69710000D02*
X66710000Y-69770000D01*
X66710000Y-69770000D02*
X66750000Y-69840000D01*
X66750000Y-69840000D02*
X66780000Y-69920000D01*
X66780000Y-69920000D02*
X66780000Y-70010000D01*
X66780000Y-70010000D02*
X66780000Y-70090000D01*
X66780000Y-70090000D02*
X66720000Y-70180000D01*
X66720000Y-70180000D02*
X66720000Y-70180000D01*
G36*
X66570000Y-69680000D02*
G01*
X66650000Y-69710000D01*
X66710000Y-69770000D01*
X66750000Y-69840000D01*
X66780000Y-69920000D01*
X66780000Y-70090000D01*
X66720000Y-70180000D01*
X66660000Y-70240000D01*
X66590000Y-70280000D01*
X66510000Y-70300000D01*
X66420000Y-70300000D01*
X66350000Y-70270000D01*
X66280000Y-70220000D01*
X66220000Y-70160000D01*
X66190000Y-70080000D01*
X66180000Y-69990000D01*
X66190000Y-69900000D01*
X66220000Y-69830000D01*
X66270000Y-69760000D01*
X66330000Y-69700000D01*
X66410000Y-69670000D01*
X66490000Y-69660000D01*
X66570000Y-69680000D01*
G37*
X66570000Y-69680000D02*
X66650000Y-69710000D01*
X66710000Y-69770000D01*
X66750000Y-69840000D01*
X66780000Y-69920000D01*
X66780000Y-70090000D01*
X66720000Y-70180000D01*
X66660000Y-70240000D01*
X66590000Y-70280000D01*
X66510000Y-70300000D01*
X66420000Y-70300000D01*
X66350000Y-70270000D01*
X66280000Y-70220000D01*
X66220000Y-70160000D01*
X66190000Y-70080000D01*
X66180000Y-69990000D01*
X66190000Y-69900000D01*
X66220000Y-69830000D01*
X66270000Y-69760000D01*
X66330000Y-69700000D01*
X66410000Y-69670000D01*
X66490000Y-69660000D01*
X66570000Y-69680000D01*
X54670000Y-70290000D02*
X54610000Y-70230000D01*
X54610000Y-70230000D02*
X54560000Y-70160000D01*
X54560000Y-70160000D02*
X54520000Y-70090000D01*
X54520000Y-70090000D02*
X54510000Y-70010000D01*
X54510000Y-70010000D02*
X54510000Y-69920000D01*
X54510000Y-69920000D02*
X54540000Y-69840000D01*
X54540000Y-69840000D02*
X54590000Y-69780000D01*
X54590000Y-69780000D02*
X54660000Y-69720000D01*
X54660000Y-69720000D02*
X54740000Y-69690000D01*
X54740000Y-69690000D02*
X54820000Y-69690000D01*
X54820000Y-69690000D02*
X54910000Y-69690000D01*
X54910000Y-69690000D02*
X54960000Y-69720000D01*
X54960000Y-69720000D02*
X54960000Y-70220000D01*
X54960000Y-70220000D02*
X54960000Y-70300000D01*
X54960000Y-70300000D02*
X54700000Y-70300000D01*
X54700000Y-70300000D02*
X54670000Y-70290000D01*
X54670000Y-70290000D02*
X54670000Y-70290000D01*
G36*
X54960000Y-69720000D02*
G01*
X54960000Y-70300000D01*
X54700000Y-70300000D01*
X54670000Y-70290000D01*
X54610000Y-70230000D01*
X54560000Y-70160000D01*
X54520000Y-70090000D01*
X54510000Y-70010000D01*
X54510000Y-69920000D01*
X54540000Y-69840000D01*
X54590000Y-69780000D01*
X54660000Y-69720000D01*
X54740000Y-69690000D01*
X54910000Y-69690000D01*
X54960000Y-69720000D01*
G37*
X54960000Y-69720000D02*
X54960000Y-70300000D01*
X54700000Y-70300000D01*
X54670000Y-70290000D01*
X54610000Y-70230000D01*
X54560000Y-70160000D01*
X54520000Y-70090000D01*
X54510000Y-70010000D01*
X54510000Y-69920000D01*
X54540000Y-69840000D01*
X54590000Y-69780000D01*
X54660000Y-69720000D01*
X54740000Y-69690000D01*
X54910000Y-69690000D01*
X54960000Y-69720000D01*
X72330000Y-69150000D02*
X72670000Y-69150000D01*
X72670000Y-69150000D02*
X72750000Y-69160000D01*
X72750000Y-69160000D02*
X73170000Y-69990000D01*
X73170000Y-69990000D02*
X73140000Y-70070000D01*
X73140000Y-70070000D02*
X72760000Y-70820000D01*
X72760000Y-70820000D02*
X72690000Y-70850000D01*
X72690000Y-70850000D02*
X52460000Y-70850000D01*
X52460000Y-70850000D02*
X52400000Y-70810000D01*
X52400000Y-70810000D02*
X52020000Y-70050000D01*
X52020000Y-70050000D02*
X52010000Y-69970000D01*
X52010000Y-69970000D02*
X52390000Y-69220000D01*
X52390000Y-69220000D02*
X52440000Y-69150000D01*
X52440000Y-69150000D02*
X72330000Y-69150000D01*
X72330000Y-69150000D02*
X72180000Y-69410000D01*
X72180000Y-69410000D02*
X72100000Y-69400000D01*
X72100000Y-69400000D02*
X72020000Y-69430000D01*
X72020000Y-69430000D02*
X71960000Y-69490000D01*
X71960000Y-69490000D02*
X71650000Y-69900000D01*
X71650000Y-69900000D02*
X71540000Y-70060000D01*
X71540000Y-70060000D02*
X71510000Y-70090000D01*
X71510000Y-70090000D02*
X71510000Y-69580000D01*
X71510000Y-69580000D02*
X71500000Y-69490000D01*
X71500000Y-69490000D02*
X71420000Y-69400000D01*
X71420000Y-69400000D02*
X71330000Y-69400000D01*
X71330000Y-69400000D02*
X71260000Y-69430000D01*
X71260000Y-69430000D02*
X71220000Y-69490000D01*
X71220000Y-69490000D02*
X71220000Y-69590000D01*
X71220000Y-69590000D02*
X71220000Y-70430000D01*
X71220000Y-70430000D02*
X70970000Y-70410000D01*
X70970000Y-70410000D02*
X70970000Y-69480000D01*
X70970000Y-69480000D02*
X70940000Y-69420000D01*
X70940000Y-69420000D02*
X70850000Y-69390000D01*
X70850000Y-69390000D02*
X70510000Y-69390000D01*
X70510000Y-69390000D02*
X70420000Y-69390000D01*
X70420000Y-69390000D02*
X70350000Y-69410000D01*
X70350000Y-69410000D02*
X70270000Y-69450000D01*
X70270000Y-69450000D02*
X70190000Y-69500000D01*
X70190000Y-69500000D02*
X70140000Y-69560000D01*
X70140000Y-69560000D02*
X70090000Y-69630000D01*
X70090000Y-69630000D02*
X70060000Y-69710000D01*
X70060000Y-69710000D02*
X70040000Y-69790000D01*
X70040000Y-69790000D02*
X70050000Y-69880000D01*
X70050000Y-69880000D02*
X70060000Y-69960000D01*
X70060000Y-69960000D02*
X70100000Y-70040000D01*
X70100000Y-70040000D02*
X70150000Y-70100000D01*
X70150000Y-70100000D02*
X70150000Y-70160000D01*
X70150000Y-70160000D02*
X70080000Y-70320000D01*
X70080000Y-70320000D02*
X70060000Y-70390000D01*
X70060000Y-70390000D02*
X70030000Y-70470000D01*
X70030000Y-70470000D02*
X69780000Y-70430000D01*
X69780000Y-70430000D02*
X69780000Y-69580000D01*
X69780000Y-69580000D02*
X69780000Y-69490000D01*
X69780000Y-69490000D02*
X69750000Y-69420000D01*
X69750000Y-69420000D02*
X69670000Y-69400000D01*
X69670000Y-69400000D02*
X69580000Y-69400000D01*
X69580000Y-69400000D02*
X69070000Y-69400000D01*
X69070000Y-69400000D02*
X68960000Y-69400000D01*
X68960000Y-69400000D02*
X68890000Y-69430000D01*
X68890000Y-69430000D02*
X68850000Y-69500000D01*
X68850000Y-69500000D02*
X68850000Y-69590000D01*
X68850000Y-69590000D02*
X68890000Y-69660000D01*
X68890000Y-69660000D02*
X68960000Y-69690000D01*
X68960000Y-69690000D02*
X69470000Y-69690000D01*
X69470000Y-69690000D02*
X69490000Y-69750000D01*
X69490000Y-69750000D02*
X69490000Y-69840000D01*
X69490000Y-69840000D02*
X69430000Y-69860000D01*
X69430000Y-69860000D02*
X69170000Y-69860000D01*
X69170000Y-69860000D02*
X69090000Y-69860000D01*
X69090000Y-69860000D02*
X69050000Y-69920000D01*
X69050000Y-69920000D02*
X69040000Y-70020000D01*
X69040000Y-70020000D02*
X69060000Y-70100000D01*
X69060000Y-70100000D02*
X68630000Y-70430000D01*
X68630000Y-70430000D02*
X68590000Y-70370000D01*
X68590000Y-70370000D02*
X68500000Y-70360000D01*
X68500000Y-70360000D02*
X67490000Y-70360000D01*
X67490000Y-70360000D02*
X67400000Y-70370000D01*
X67400000Y-70370000D02*
X67350000Y-70420000D01*
X67350000Y-70420000D02*
X67030000Y-70220000D01*
X67030000Y-70220000D02*
X67050000Y-70140000D01*
X67050000Y-70140000D02*
X67070000Y-70060000D01*
X67070000Y-70060000D02*
X67070000Y-69980000D01*
X67070000Y-69980000D02*
X67060000Y-69890000D01*
X67060000Y-69890000D02*
X67050000Y-69810000D01*
X67050000Y-69810000D02*
X67020000Y-69730000D01*
X67020000Y-69730000D02*
X66980000Y-69650000D01*
X66980000Y-69650000D02*
X66930000Y-69580000D01*
X66930000Y-69580000D02*
X66870000Y-69520000D01*
X66870000Y-69520000D02*
X66810000Y-69470000D01*
X66810000Y-69470000D02*
X66730000Y-69430000D01*
X66730000Y-69430000D02*
X66660000Y-69400000D01*
X66660000Y-69400000D02*
X66580000Y-69380000D01*
X66580000Y-69380000D02*
X66490000Y-69370000D01*
X66490000Y-69370000D02*
X66440000Y-69380000D01*
X66440000Y-69380000D02*
X66360000Y-69390000D01*
X66360000Y-69390000D02*
X66280000Y-69410000D01*
X66280000Y-69410000D02*
X66200000Y-69450000D01*
X66200000Y-69450000D02*
X66130000Y-69490000D01*
X66130000Y-69490000D02*
X66070000Y-69550000D01*
X66070000Y-69550000D02*
X66010000Y-69620000D01*
X66010000Y-69620000D02*
X65960000Y-69690000D01*
X65960000Y-69690000D02*
X65930000Y-69760000D01*
X65930000Y-69760000D02*
X65610000Y-69580000D01*
X65610000Y-69580000D02*
X65610000Y-69490000D01*
X65610000Y-69490000D02*
X65580000Y-69420000D01*
X65580000Y-69420000D02*
X65500000Y-69400000D01*
X65500000Y-69400000D02*
X65410000Y-69410000D01*
X65410000Y-69410000D02*
X65350000Y-69440000D01*
X65350000Y-69440000D02*
X65280000Y-69530000D01*
X65280000Y-69530000D02*
X65030000Y-69860000D01*
X65030000Y-69860000D02*
X64870000Y-70080000D01*
X64870000Y-70080000D02*
X64860000Y-70050000D01*
X64860000Y-70050000D02*
X64860000Y-69540000D01*
X64860000Y-69540000D02*
X64850000Y-69460000D01*
X64850000Y-69460000D02*
X64820000Y-69420000D01*
X64820000Y-69420000D02*
X64740000Y-69400000D01*
X64740000Y-69400000D02*
X64650000Y-69410000D01*
X64650000Y-69410000D02*
X64590000Y-69460000D01*
X64590000Y-69460000D02*
X64570000Y-69540000D01*
X64570000Y-69540000D02*
X64570000Y-70480000D01*
X64570000Y-70480000D02*
X64360000Y-70440000D01*
X64360000Y-70440000D02*
X64320000Y-70380000D01*
X64320000Y-70380000D02*
X64240000Y-70360000D01*
X64240000Y-70360000D02*
X63220000Y-70360000D01*
X63220000Y-70360000D02*
X63130000Y-70370000D01*
X63130000Y-70370000D02*
X63070000Y-70420000D01*
X63070000Y-70420000D02*
X63070000Y-70500000D01*
X63070000Y-70500000D02*
X62380000Y-70490000D01*
X62380000Y-70490000D02*
X62380000Y-69640000D01*
X62380000Y-69640000D02*
X62460000Y-69640000D01*
X62460000Y-69640000D02*
X62720000Y-69640000D01*
X62720000Y-69640000D02*
X62790000Y-69610000D01*
X62790000Y-69610000D02*
X62810000Y-69530000D01*
X62810000Y-69530000D02*
X62800000Y-69440000D01*
X62800000Y-69440000D02*
X62740000Y-69400000D01*
X62740000Y-69400000D02*
X62620000Y-69400000D01*
X62620000Y-69400000D02*
X61770000Y-69400000D01*
X61770000Y-69400000D02*
X61700000Y-69420000D01*
X61700000Y-69420000D02*
X61680000Y-69500000D01*
X61680000Y-69500000D02*
X61380000Y-69520000D01*
X61380000Y-69520000D02*
X61370000Y-69450000D01*
X61370000Y-69450000D02*
X61320000Y-69410000D01*
X61320000Y-69410000D02*
X61210000Y-69400000D01*
X61210000Y-69400000D02*
X61130000Y-69430000D01*
X61130000Y-69430000D02*
X61100000Y-69490000D01*
X61100000Y-69490000D02*
X61090000Y-69580000D01*
X61090000Y-69580000D02*
X61090000Y-69830000D01*
X61090000Y-69830000D02*
X61060000Y-69880000D01*
X61060000Y-69880000D02*
X60720000Y-69880000D01*
X60720000Y-69880000D02*
X60660000Y-69850000D01*
X60660000Y-69850000D02*
X60660000Y-69510000D01*
X60660000Y-69510000D02*
X60640000Y-69440000D01*
X60640000Y-69440000D02*
X60620000Y-69420000D01*
X60620000Y-69420000D02*
X60540000Y-69400000D01*
X60540000Y-69400000D02*
X60450000Y-69410000D01*
X60450000Y-69410000D02*
X60380000Y-69460000D01*
X60380000Y-69460000D02*
X60370000Y-69540000D01*
X60370000Y-69540000D02*
X60120000Y-69520000D01*
X60120000Y-69520000D02*
X60110000Y-69450000D01*
X60110000Y-69450000D02*
X60050000Y-69410000D01*
X60050000Y-69410000D02*
X59950000Y-69400000D01*
X59950000Y-69400000D02*
X59860000Y-69430000D01*
X59860000Y-69430000D02*
X59830000Y-69490000D01*
X59830000Y-69490000D02*
X59830000Y-69580000D01*
X59830000Y-69580000D02*
X59830000Y-70420000D01*
X59830000Y-70420000D02*
X59600000Y-70330000D01*
X59600000Y-70330000D02*
X59590000Y-70270000D01*
X59590000Y-70270000D02*
X59530000Y-70200000D01*
X59530000Y-70200000D02*
X59450000Y-70170000D01*
X59450000Y-70170000D02*
X59380000Y-70190000D01*
X59380000Y-70190000D02*
X59310000Y-70260000D01*
X59310000Y-70260000D02*
X59240000Y-70310000D01*
X59240000Y-70310000D02*
X59150000Y-70320000D01*
X59150000Y-70320000D02*
X59070000Y-70290000D01*
X59070000Y-70290000D02*
X59030000Y-70230000D01*
X59030000Y-70230000D02*
X59050000Y-70150000D01*
X59050000Y-70150000D02*
X59120000Y-70110000D01*
X59120000Y-70110000D02*
X59200000Y-70100000D01*
X59200000Y-70100000D02*
X59280000Y-70070000D01*
X59280000Y-70070000D02*
X59370000Y-70040000D01*
X59370000Y-70040000D02*
X59440000Y-70010000D01*
X59440000Y-70010000D02*
X59500000Y-69960000D01*
X59500000Y-69960000D02*
X59550000Y-69880000D01*
X59550000Y-69880000D02*
X59580000Y-69810000D01*
X59580000Y-69810000D02*
X59590000Y-69720000D01*
X59590000Y-69720000D02*
X59580000Y-69630000D01*
X59580000Y-69630000D02*
X59550000Y-69560000D01*
X59550000Y-69560000D02*
X59500000Y-69490000D01*
X59500000Y-69490000D02*
X59440000Y-69430000D01*
X59440000Y-69430000D02*
X59370000Y-69400000D01*
X59370000Y-69400000D02*
X59280000Y-69370000D01*
X59280000Y-69370000D02*
X59190000Y-69370000D01*
X59190000Y-69370000D02*
X59100000Y-69370000D01*
X59100000Y-69370000D02*
X59020000Y-69390000D01*
X59020000Y-69390000D02*
X58930000Y-69420000D01*
X58930000Y-69420000D02*
X58870000Y-69460000D01*
X58870000Y-69460000D02*
X58810000Y-69530000D01*
X58810000Y-69530000D02*
X58820000Y-69590000D01*
X58820000Y-69590000D02*
X58880000Y-69680000D01*
X58880000Y-69680000D02*
X58940000Y-69720000D01*
X58940000Y-69720000D02*
X59020000Y-69700000D01*
X59020000Y-69700000D02*
X59090000Y-69650000D01*
X59090000Y-69650000D02*
X59170000Y-69630000D01*
X59170000Y-69630000D02*
X59250000Y-69640000D01*
X59250000Y-69640000D02*
X59300000Y-69710000D01*
X59300000Y-69710000D02*
X59270000Y-69790000D01*
X59270000Y-69790000D02*
X59200000Y-69820000D01*
X59200000Y-69820000D02*
X59030000Y-69860000D01*
X59030000Y-69860000D02*
X58950000Y-69890000D01*
X58950000Y-69890000D02*
X58870000Y-69920000D01*
X58870000Y-69920000D02*
X58810000Y-69980000D01*
X58810000Y-69980000D02*
X58770000Y-70050000D01*
X58770000Y-70050000D02*
X58740000Y-70130000D01*
X58740000Y-70130000D02*
X58740000Y-70220000D01*
X58740000Y-70220000D02*
X58750000Y-70300000D01*
X58750000Y-70300000D02*
X58480000Y-70390000D01*
X58480000Y-70390000D02*
X58410000Y-70360000D01*
X58410000Y-70360000D02*
X57300000Y-70360000D01*
X57300000Y-70360000D02*
X57230000Y-70390000D01*
X57230000Y-70390000D02*
X56930000Y-70330000D01*
X56930000Y-70330000D02*
X56920000Y-70270000D01*
X56920000Y-70270000D02*
X56860000Y-70200000D01*
X56860000Y-70200000D02*
X56780000Y-70170000D01*
X56780000Y-70170000D02*
X56720000Y-70190000D01*
X56720000Y-70190000D02*
X56640000Y-70260000D01*
X56640000Y-70260000D02*
X56570000Y-70310000D01*
X56570000Y-70310000D02*
X56480000Y-70320000D01*
X56480000Y-70320000D02*
X56400000Y-70290000D01*
X56400000Y-70290000D02*
X56360000Y-70230000D01*
X56360000Y-70230000D02*
X56380000Y-70150000D01*
X56380000Y-70150000D02*
X56450000Y-70110000D01*
X56450000Y-70110000D02*
X56540000Y-70100000D01*
X56540000Y-70100000D02*
X56620000Y-70070000D01*
X56620000Y-70070000D02*
X56700000Y-70040000D01*
X56700000Y-70040000D02*
X56780000Y-70010000D01*
X56780000Y-70010000D02*
X56840000Y-69950000D01*
X56840000Y-69950000D02*
X56890000Y-69880000D01*
X56890000Y-69880000D02*
X56910000Y-69800000D01*
X56910000Y-69800000D02*
X56920000Y-69720000D01*
X56920000Y-69720000D02*
X56910000Y-69630000D01*
X56910000Y-69630000D02*
X56880000Y-69560000D01*
X56880000Y-69560000D02*
X56830000Y-69490000D01*
X56830000Y-69490000D02*
X56770000Y-69430000D01*
X56770000Y-69430000D02*
X56700000Y-69400000D01*
X56700000Y-69400000D02*
X56620000Y-69370000D01*
X56620000Y-69370000D02*
X56520000Y-69370000D01*
X56520000Y-69370000D02*
X56430000Y-69370000D01*
X56430000Y-69370000D02*
X56350000Y-69390000D01*
X56350000Y-69390000D02*
X56260000Y-69420000D01*
X56260000Y-69420000D02*
X56210000Y-69460000D01*
X56210000Y-69460000D02*
X56150000Y-69530000D01*
X56150000Y-69530000D02*
X56150000Y-69590000D01*
X56150000Y-69590000D02*
X56210000Y-69680000D01*
X56210000Y-69680000D02*
X56280000Y-69720000D01*
X56280000Y-69720000D02*
X56350000Y-69700000D01*
X56350000Y-69700000D02*
X56420000Y-69650000D01*
X56420000Y-69650000D02*
X56500000Y-69630000D01*
X56500000Y-69630000D02*
X56590000Y-69640000D01*
X56590000Y-69640000D02*
X56630000Y-69710000D01*
X56630000Y-69710000D02*
X56600000Y-69790000D01*
X56600000Y-69790000D02*
X56530000Y-69820000D01*
X56530000Y-69820000D02*
X56360000Y-69870000D01*
X56360000Y-69870000D02*
X56280000Y-69890000D01*
X56280000Y-69890000D02*
X56210000Y-69920000D01*
X56210000Y-69920000D02*
X56140000Y-69980000D01*
X56140000Y-69980000D02*
X56100000Y-70050000D01*
X56100000Y-70050000D02*
X56080000Y-70130000D01*
X56080000Y-70130000D02*
X56070000Y-70220000D01*
X56070000Y-70220000D02*
X56090000Y-70310000D01*
X56090000Y-70310000D02*
X56110000Y-70380000D01*
X56110000Y-70380000D02*
X55790000Y-70490000D01*
X55790000Y-70490000D02*
X55790000Y-69550000D01*
X55790000Y-69550000D02*
X55790000Y-69470000D01*
X55790000Y-69470000D02*
X55750000Y-69420000D01*
X55750000Y-69420000D02*
X55660000Y-69400000D01*
X55660000Y-69400000D02*
X55560000Y-69410000D01*
X55560000Y-69410000D02*
X55510000Y-69460000D01*
X55510000Y-69460000D02*
X55510000Y-69550000D01*
X55510000Y-69550000D02*
X55250000Y-69520000D01*
X55250000Y-69520000D02*
X55240000Y-69440000D01*
X55240000Y-69440000D02*
X55180000Y-69410000D01*
X55180000Y-69410000D02*
X55030000Y-69400000D01*
X55030000Y-69400000D02*
X54780000Y-69400000D01*
X54780000Y-69400000D02*
X54690000Y-69410000D01*
X54690000Y-69410000D02*
X54610000Y-69430000D01*
X54610000Y-69430000D02*
X54540000Y-69470000D01*
X54540000Y-69470000D02*
X54470000Y-69510000D01*
X54470000Y-69510000D02*
X54400000Y-69570000D01*
X54400000Y-69570000D02*
X54340000Y-69630000D01*
X54340000Y-69630000D02*
X54290000Y-69700000D01*
X54290000Y-69700000D02*
X53960000Y-69520000D01*
X53960000Y-69520000D02*
X53940000Y-69440000D01*
X53940000Y-69440000D02*
X53890000Y-69410000D01*
X53890000Y-69410000D02*
X53790000Y-69400000D01*
X53790000Y-69400000D02*
X53200000Y-69400000D01*
X53200000Y-69400000D02*
X53120000Y-69400000D01*
X53120000Y-69400000D02*
X53050000Y-69440000D01*
X53050000Y-69440000D02*
X53030000Y-69520000D01*
X53030000Y-69520000D02*
X53040000Y-69630000D01*
X53040000Y-69630000D02*
X53090000Y-69680000D01*
X53090000Y-69680000D02*
X53170000Y-69690000D01*
X53170000Y-69690000D02*
X53600000Y-69690000D01*
X53600000Y-69690000D02*
X53680000Y-69690000D01*
X53680000Y-69690000D02*
X53680000Y-69780000D01*
X53680000Y-69780000D02*
X53670000Y-69860000D01*
X53670000Y-69860000D02*
X53330000Y-69860000D01*
X53330000Y-69860000D02*
X53260000Y-69880000D01*
X53260000Y-69880000D02*
X53220000Y-69930000D01*
X53220000Y-69930000D02*
X53210000Y-70040000D01*
X53210000Y-70040000D02*
X53250000Y-70110000D01*
X53250000Y-70110000D02*
X53310000Y-70140000D01*
X53310000Y-70140000D02*
X53410000Y-70140000D01*
X53410000Y-70140000D02*
X53660000Y-70140000D01*
X53660000Y-70140000D02*
X53680000Y-70210000D01*
X53680000Y-70210000D02*
X53680000Y-70300000D01*
X53680000Y-70300000D02*
X53170000Y-70300000D01*
X53170000Y-70300000D02*
X53090000Y-70320000D01*
X53090000Y-70320000D02*
X53040000Y-70370000D01*
X53040000Y-70370000D02*
X53030000Y-70480000D01*
X53030000Y-70480000D02*
X53060000Y-70560000D01*
X53060000Y-70560000D02*
X53120000Y-70590000D01*
X53120000Y-70590000D02*
X53210000Y-70590000D01*
X53210000Y-70590000D02*
X53800000Y-70590000D01*
X53800000Y-70590000D02*
X53900000Y-70580000D01*
X53900000Y-70580000D02*
X53950000Y-70540000D01*
X53950000Y-70540000D02*
X53960000Y-70460000D01*
X53960000Y-70460000D02*
X53960000Y-69530000D01*
X53960000Y-69530000D02*
X54290000Y-69700000D01*
X54290000Y-69700000D02*
X54260000Y-69770000D01*
X54260000Y-69770000D02*
X54230000Y-69850000D01*
X54230000Y-69850000D02*
X54220000Y-69940000D01*
X54220000Y-69940000D02*
X54220000Y-70020000D01*
X54220000Y-70020000D02*
X54230000Y-70110000D01*
X54230000Y-70110000D02*
X54250000Y-70190000D01*
X54250000Y-70190000D02*
X54280000Y-70270000D01*
X54280000Y-70270000D02*
X54330000Y-70340000D01*
X54330000Y-70340000D02*
X54380000Y-70400000D01*
X54380000Y-70400000D02*
X54450000Y-70460000D01*
X54450000Y-70460000D02*
X54510000Y-70510000D01*
X54510000Y-70510000D02*
X54590000Y-70550000D01*
X54590000Y-70550000D02*
X54670000Y-70580000D01*
X54670000Y-70580000D02*
X54750000Y-70590000D01*
X54750000Y-70590000D02*
X54840000Y-70590000D01*
X54840000Y-70590000D02*
X55090000Y-70590000D01*
X55090000Y-70590000D02*
X55190000Y-70580000D01*
X55190000Y-70580000D02*
X55240000Y-70540000D01*
X55240000Y-70540000D02*
X55250000Y-70460000D01*
X55250000Y-70460000D02*
X55250000Y-69520000D01*
X55250000Y-69520000D02*
X55510000Y-69550000D01*
X55510000Y-69550000D02*
X55510000Y-70400000D01*
X55510000Y-70400000D02*
X55510000Y-70490000D01*
X55510000Y-70490000D02*
X55530000Y-70560000D01*
X55530000Y-70560000D02*
X55600000Y-70590000D01*
X55600000Y-70590000D02*
X55710000Y-70590000D01*
X55710000Y-70590000D02*
X55770000Y-70550000D01*
X55770000Y-70550000D02*
X55790000Y-70490000D01*
X55790000Y-70490000D02*
X56110000Y-70380000D01*
X56110000Y-70380000D02*
X56160000Y-70450000D01*
X56160000Y-70450000D02*
X56220000Y-70510000D01*
X56220000Y-70510000D02*
X56300000Y-70550000D01*
X56300000Y-70550000D02*
X56380000Y-70580000D01*
X56380000Y-70580000D02*
X56460000Y-70590000D01*
X56460000Y-70590000D02*
X56550000Y-70590000D01*
X56550000Y-70590000D02*
X56630000Y-70580000D01*
X56630000Y-70580000D02*
X56710000Y-70550000D01*
X56710000Y-70550000D02*
X56790000Y-70510000D01*
X56790000Y-70510000D02*
X56850000Y-70450000D01*
X56850000Y-70450000D02*
X56930000Y-70340000D01*
X56930000Y-70340000D02*
X57230000Y-70400000D01*
X57230000Y-70400000D02*
X57210000Y-70470000D01*
X57210000Y-70470000D02*
X57220000Y-70560000D01*
X57220000Y-70560000D02*
X57290000Y-70590000D01*
X57290000Y-70590000D02*
X58390000Y-70590000D01*
X58390000Y-70590000D02*
X58420000Y-70590000D01*
X58420000Y-70590000D02*
X58490000Y-70550000D01*
X58490000Y-70550000D02*
X58500000Y-70470000D01*
X58500000Y-70470000D02*
X58480000Y-70390000D01*
X58480000Y-70390000D02*
X58750000Y-70310000D01*
X58750000Y-70310000D02*
X58780000Y-70380000D01*
X58780000Y-70380000D02*
X58830000Y-70450000D01*
X58830000Y-70450000D02*
X58890000Y-70510000D01*
X58890000Y-70510000D02*
X58960000Y-70550000D01*
X58960000Y-70550000D02*
X59040000Y-70580000D01*
X59040000Y-70580000D02*
X59130000Y-70590000D01*
X59130000Y-70590000D02*
X59210000Y-70590000D01*
X59210000Y-70590000D02*
X59300000Y-70580000D01*
X59300000Y-70580000D02*
X59380000Y-70550000D01*
X59380000Y-70550000D02*
X59450000Y-70510000D01*
X59450000Y-70510000D02*
X59520000Y-70450000D01*
X59520000Y-70450000D02*
X59600000Y-70340000D01*
X59600000Y-70340000D02*
X59830000Y-70430000D01*
X59830000Y-70430000D02*
X59840000Y-70510000D01*
X59840000Y-70510000D02*
X59870000Y-70570000D01*
X59870000Y-70570000D02*
X59960000Y-70590000D01*
X59960000Y-70590000D02*
X60060000Y-70580000D01*
X60060000Y-70580000D02*
X60110000Y-70540000D01*
X60110000Y-70540000D02*
X60120000Y-70450000D01*
X60120000Y-70450000D02*
X60120000Y-69610000D01*
X60120000Y-69610000D02*
X60120000Y-69530000D01*
X60120000Y-69530000D02*
X60370000Y-69540000D01*
X60370000Y-69540000D02*
X60370000Y-70470000D01*
X60370000Y-70470000D02*
X60400000Y-70550000D01*
X60400000Y-70550000D02*
X60450000Y-70590000D01*
X60450000Y-70590000D02*
X60560000Y-70590000D01*
X60560000Y-70590000D02*
X60640000Y-70560000D01*
X60640000Y-70560000D02*
X60660000Y-70490000D01*
X60660000Y-70490000D02*
X60660000Y-70400000D01*
X60660000Y-70400000D02*
X60660000Y-70150000D01*
X60660000Y-70150000D02*
X60720000Y-70120000D01*
X60720000Y-70120000D02*
X61050000Y-70120000D01*
X61050000Y-70120000D02*
X61090000Y-70160000D01*
X61090000Y-70160000D02*
X61090000Y-70420000D01*
X61090000Y-70420000D02*
X61100000Y-70500000D01*
X61100000Y-70500000D02*
X61130000Y-70570000D01*
X61130000Y-70570000D02*
X61210000Y-70590000D01*
X61210000Y-70590000D02*
X61320000Y-70580000D01*
X61320000Y-70580000D02*
X61370000Y-70540000D01*
X61370000Y-70540000D02*
X61380000Y-70460000D01*
X61380000Y-70460000D02*
X61380000Y-69530000D01*
X61380000Y-69530000D02*
X61680000Y-69500000D01*
X61680000Y-69500000D02*
X61680000Y-69590000D01*
X61680000Y-69590000D02*
X61740000Y-69630000D01*
X61740000Y-69630000D02*
X61830000Y-69640000D01*
X61830000Y-69640000D02*
X62090000Y-69640000D01*
X62090000Y-69640000D02*
X62100000Y-69710000D01*
X62100000Y-69710000D02*
X62100000Y-70470000D01*
X62100000Y-70470000D02*
X62120000Y-70550000D01*
X62120000Y-70550000D02*
X62190000Y-70590000D01*
X62190000Y-70590000D02*
X62280000Y-70590000D01*
X62280000Y-70590000D02*
X62360000Y-70570000D01*
X62360000Y-70570000D02*
X62380000Y-70500000D01*
X62380000Y-70500000D02*
X63070000Y-70500000D01*
X63070000Y-70500000D02*
X63100000Y-70580000D01*
X63100000Y-70580000D02*
X63180000Y-70590000D01*
X63180000Y-70590000D02*
X64200000Y-70590000D01*
X64200000Y-70590000D02*
X64310000Y-70590000D01*
X64310000Y-70590000D02*
X64360000Y-70530000D01*
X64360000Y-70530000D02*
X64360000Y-70440000D01*
X64360000Y-70440000D02*
X64570000Y-70480000D01*
X64570000Y-70480000D02*
X64600000Y-70550000D01*
X64600000Y-70550000D02*
X64650000Y-70590000D01*
X64650000Y-70590000D02*
X64760000Y-70590000D01*
X64760000Y-70590000D02*
X64830000Y-70570000D01*
X64830000Y-70570000D02*
X64900000Y-70480000D01*
X64900000Y-70480000D02*
X65320000Y-69940000D01*
X65320000Y-69940000D02*
X65340000Y-69940000D01*
X65340000Y-69940000D02*
X65340000Y-70450000D01*
X65340000Y-70450000D02*
X65340000Y-70530000D01*
X65340000Y-70530000D02*
X65380000Y-70580000D01*
X65380000Y-70580000D02*
X65490000Y-70590000D01*
X65490000Y-70590000D02*
X65580000Y-70570000D01*
X65580000Y-70570000D02*
X65610000Y-70510000D01*
X65610000Y-70510000D02*
X65610000Y-70430000D01*
X65610000Y-70430000D02*
X65610000Y-69580000D01*
X65610000Y-69580000D02*
X65930000Y-69760000D01*
X65930000Y-69760000D02*
X65910000Y-69840000D01*
X65910000Y-69840000D02*
X65900000Y-69930000D01*
X65900000Y-69930000D02*
X65890000Y-70010000D01*
X65890000Y-70010000D02*
X65900000Y-70100000D01*
X65900000Y-70100000D02*
X65930000Y-70180000D01*
X65930000Y-70180000D02*
X65960000Y-70260000D01*
X65960000Y-70260000D02*
X66000000Y-70330000D01*
X66000000Y-70330000D02*
X66050000Y-70400000D01*
X66050000Y-70400000D02*
X66110000Y-70460000D01*
X66110000Y-70460000D02*
X66180000Y-70510000D01*
X66180000Y-70510000D02*
X66250000Y-70550000D01*
X66250000Y-70550000D02*
X66330000Y-70570000D01*
X66330000Y-70570000D02*
X66410000Y-70590000D01*
X66410000Y-70590000D02*
X66500000Y-70590000D01*
X66500000Y-70590000D02*
X66590000Y-70580000D01*
X66590000Y-70580000D02*
X66670000Y-70560000D01*
X66670000Y-70560000D02*
X66740000Y-70530000D01*
X66740000Y-70530000D02*
X66810000Y-70490000D01*
X66810000Y-70490000D02*
X66880000Y-70430000D01*
X66880000Y-70430000D02*
X66940000Y-70370000D01*
X66940000Y-70370000D02*
X66990000Y-70300000D01*
X66990000Y-70300000D02*
X67030000Y-70220000D01*
X67030000Y-70220000D02*
X67350000Y-70420000D01*
X67350000Y-70420000D02*
X67340000Y-70510000D01*
X67340000Y-70510000D02*
X67380000Y-70580000D01*
X67380000Y-70580000D02*
X67460000Y-70590000D01*
X67460000Y-70590000D02*
X68480000Y-70590000D01*
X68480000Y-70590000D02*
X68600000Y-70580000D01*
X68600000Y-70580000D02*
X68630000Y-70520000D01*
X68630000Y-70520000D02*
X68630000Y-70440000D01*
X68630000Y-70440000D02*
X69060000Y-70110000D01*
X69060000Y-70110000D02*
X69110000Y-70140000D01*
X69110000Y-70140000D02*
X69200000Y-70140000D01*
X69200000Y-70140000D02*
X69460000Y-70140000D01*
X69460000Y-70140000D02*
X69490000Y-70190000D01*
X69490000Y-70190000D02*
X69490000Y-70450000D01*
X69490000Y-70450000D02*
X69500000Y-70530000D01*
X69500000Y-70530000D02*
X69550000Y-70580000D01*
X69550000Y-70580000D02*
X69650000Y-70590000D01*
X69650000Y-70590000D02*
X69740000Y-70570000D01*
X69740000Y-70570000D02*
X69780000Y-70520000D01*
X69780000Y-70520000D02*
X69780000Y-70430000D01*
X69780000Y-70430000D02*
X70030000Y-70470000D01*
X70030000Y-70470000D02*
X70070000Y-70530000D01*
X70070000Y-70530000D02*
X70160000Y-70580000D01*
X70160000Y-70580000D02*
X70240000Y-70590000D01*
X70240000Y-70590000D02*
X70300000Y-70550000D01*
X70300000Y-70550000D02*
X70390000Y-70340000D01*
X70390000Y-70340000D02*
X70450000Y-70250000D01*
X70450000Y-70250000D02*
X70620000Y-70250000D01*
X70620000Y-70250000D02*
X70680000Y-70280000D01*
X70680000Y-70280000D02*
X70680000Y-70450000D01*
X70680000Y-70450000D02*
X70690000Y-70530000D01*
X70690000Y-70530000D02*
X70740000Y-70570000D01*
X70740000Y-70570000D02*
X70850000Y-70580000D01*
X70850000Y-70580000D02*
X70930000Y-70560000D01*
X70930000Y-70560000D02*
X70960000Y-70500000D01*
X70960000Y-70500000D02*
X70970000Y-70410000D01*
X70970000Y-70410000D02*
X71220000Y-70430000D01*
X71220000Y-70430000D02*
X71230000Y-70510000D01*
X71230000Y-70510000D02*
X71270000Y-70570000D01*
X71270000Y-70570000D02*
X71360000Y-70590000D01*
X71360000Y-70590000D02*
X71450000Y-70590000D01*
X71450000Y-70590000D02*
X71520000Y-70530000D01*
X71520000Y-70530000D02*
X71980000Y-69920000D01*
X71980000Y-69920000D02*
X71980000Y-69980000D01*
X71980000Y-69980000D02*
X71980000Y-70500000D01*
X71980000Y-70500000D02*
X72010000Y-70560000D01*
X72010000Y-70560000D02*
X72080000Y-70590000D01*
X72080000Y-70590000D02*
X72190000Y-70590000D01*
X72190000Y-70590000D02*
X72240000Y-70550000D01*
X72240000Y-70550000D02*
X72260000Y-70470000D01*
X72260000Y-70470000D02*
X72260000Y-69530000D01*
X72260000Y-69530000D02*
X72250000Y-69450000D01*
X72250000Y-69450000D02*
X72190000Y-69410000D01*
X72190000Y-69410000D02*
X72330000Y-69150000D01*
X72330000Y-69150000D02*
X72330000Y-69150000D01*
G36*
X71230000Y-70510000D02*
G01*
X71270000Y-70570000D01*
X71360000Y-70590000D01*
X71450000Y-70590000D01*
X71520000Y-70530000D01*
X71980000Y-69920000D01*
X71980000Y-70500000D01*
X72010000Y-70560000D01*
X72080000Y-70590000D01*
X72190000Y-70590000D01*
X72240000Y-70550000D01*
X72260000Y-70470000D01*
X72260000Y-69530000D01*
X72250000Y-69450000D01*
X72190000Y-69410000D01*
X72330000Y-69150000D01*
X72670000Y-69150000D01*
X72750000Y-69160000D01*
X73170000Y-69990000D01*
X73140000Y-70070000D01*
X72760000Y-70820000D01*
X72690000Y-70850000D01*
X52460000Y-70850000D01*
X52400000Y-70810000D01*
X52020000Y-70050000D01*
X52010000Y-69970000D01*
X52238000Y-69520000D01*
X53030000Y-69520000D01*
X53040000Y-69630000D01*
X53090000Y-69680000D01*
X53170000Y-69690000D01*
X53680000Y-69690000D01*
X53680000Y-69780000D01*
X53670000Y-69860000D01*
X53330000Y-69860000D01*
X53260000Y-69880000D01*
X53220000Y-69930000D01*
X53210000Y-70040000D01*
X53250000Y-70110000D01*
X53310000Y-70140000D01*
X53660000Y-70140000D01*
X53680000Y-70210000D01*
X53680000Y-70300000D01*
X53170000Y-70300000D01*
X53090000Y-70320000D01*
X53040000Y-70370000D01*
X53030000Y-70480000D01*
X53060000Y-70560000D01*
X53120000Y-70590000D01*
X53800000Y-70590000D01*
X53900000Y-70580000D01*
X53950000Y-70540000D01*
X53960000Y-70460000D01*
X53960000Y-69530000D01*
X54290000Y-69700000D01*
X54260000Y-69770000D01*
X54230000Y-69850000D01*
X54220000Y-69940000D01*
X54220000Y-70020000D01*
X54230000Y-70110000D01*
X54250000Y-70190000D01*
X54280000Y-70270000D01*
X54330000Y-70340000D01*
X54380000Y-70400000D01*
X54450000Y-70460000D01*
X54510000Y-70510000D01*
X54590000Y-70550000D01*
X54670000Y-70580000D01*
X54750000Y-70590000D01*
X55090000Y-70590000D01*
X55190000Y-70580000D01*
X55240000Y-70540000D01*
X55250000Y-70460000D01*
X55250000Y-69520000D01*
X55242500Y-69460000D01*
X55510000Y-69460000D01*
X55510000Y-70490000D01*
X55530000Y-70560000D01*
X55600000Y-70590000D01*
X55710000Y-70590000D01*
X55770000Y-70550000D01*
X55790000Y-70490000D01*
X55790000Y-70220000D01*
X56070000Y-70220000D01*
X56090000Y-70310000D01*
X56110000Y-70380000D01*
X56160000Y-70450000D01*
X56220000Y-70510000D01*
X56300000Y-70550000D01*
X56380000Y-70580000D01*
X56460000Y-70590000D01*
X56550000Y-70590000D01*
X56630000Y-70580000D01*
X56710000Y-70550000D01*
X56790000Y-70510000D01*
X56850000Y-70450000D01*
X56930000Y-70340000D01*
X57230000Y-70400000D01*
X57210000Y-70470000D01*
X57220000Y-70560000D01*
X57290000Y-70590000D01*
X58420000Y-70590000D01*
X58490000Y-70550000D01*
X58500000Y-70470000D01*
X58480000Y-70390000D01*
X58750000Y-70310000D01*
X58780000Y-70380000D01*
X58830000Y-70450000D01*
X58890000Y-70510000D01*
X58960000Y-70550000D01*
X59040000Y-70580000D01*
X59130000Y-70590000D01*
X59210000Y-70590000D01*
X59300000Y-70580000D01*
X59380000Y-70550000D01*
X59450000Y-70510000D01*
X59520000Y-70450000D01*
X59600000Y-70340000D01*
X59830000Y-70430000D01*
X59840000Y-70510000D01*
X59870000Y-70570000D01*
X59960000Y-70590000D01*
X60060000Y-70580000D01*
X60110000Y-70540000D01*
X60120000Y-70450000D01*
X60120000Y-69530000D01*
X60370000Y-69540000D01*
X60370000Y-70470000D01*
X60400000Y-70550000D01*
X60450000Y-70590000D01*
X60560000Y-70590000D01*
X60640000Y-70560000D01*
X60660000Y-70490000D01*
X60660000Y-70150000D01*
X60720000Y-70120000D01*
X61050000Y-70120000D01*
X61090000Y-70160000D01*
X61090000Y-70420000D01*
X61100000Y-70500000D01*
X61130000Y-70570000D01*
X61210000Y-70590000D01*
X61320000Y-70580000D01*
X61370000Y-70540000D01*
X61380000Y-70460000D01*
X61380000Y-69530000D01*
X61680000Y-69500000D01*
X61680000Y-69590000D01*
X61740000Y-69630000D01*
X61830000Y-69640000D01*
X62090000Y-69640000D01*
X62100000Y-69710000D01*
X62100000Y-70470000D01*
X62120000Y-70550000D01*
X62190000Y-70590000D01*
X62280000Y-70590000D01*
X62360000Y-70570000D01*
X62380000Y-70500000D01*
X63070000Y-70500000D01*
X63100000Y-70580000D01*
X63180000Y-70590000D01*
X64310000Y-70590000D01*
X64360000Y-70530000D01*
X64360000Y-70440000D01*
X64320000Y-70380000D01*
X64240000Y-70360000D01*
X63220000Y-70360000D01*
X63130000Y-70370000D01*
X63070000Y-70420000D01*
X63070000Y-70500000D01*
X62380000Y-70490000D01*
X62380000Y-69640000D01*
X62720000Y-69640000D01*
X62790000Y-69610000D01*
X62807500Y-69540000D01*
X64570000Y-69540000D01*
X64570000Y-70480000D01*
X64600000Y-70550000D01*
X64650000Y-70590000D01*
X64760000Y-70590000D01*
X64830000Y-70570000D01*
X65320000Y-69940000D01*
X65340000Y-69940000D01*
X65340000Y-70530000D01*
X65380000Y-70580000D01*
X65490000Y-70590000D01*
X65580000Y-70570000D01*
X65610000Y-70510000D01*
X65610000Y-70010000D01*
X65890000Y-70010000D01*
X65900000Y-70100000D01*
X65960000Y-70260000D01*
X66000000Y-70330000D01*
X66050000Y-70400000D01*
X66110000Y-70460000D01*
X66180000Y-70510000D01*
X66250000Y-70550000D01*
X66410000Y-70590000D01*
X66500000Y-70590000D01*
X66590000Y-70580000D01*
X66670000Y-70560000D01*
X66740000Y-70530000D01*
X66775000Y-70510000D01*
X67340000Y-70510000D01*
X67380000Y-70580000D01*
X67460000Y-70590000D01*
X68480000Y-70590000D01*
X68600000Y-70580000D01*
X68630000Y-70520000D01*
X68630000Y-70440000D01*
X69060000Y-70110000D01*
X69110000Y-70140000D01*
X69460000Y-70140000D01*
X69490000Y-70190000D01*
X69490000Y-70450000D01*
X69500000Y-70530000D01*
X69550000Y-70580000D01*
X69650000Y-70590000D01*
X69740000Y-70570000D01*
X69780000Y-70520000D01*
X69780000Y-70470000D01*
X70030000Y-70470000D01*
X70070000Y-70530000D01*
X70160000Y-70580000D01*
X70240000Y-70590000D01*
X70300000Y-70550000D01*
X70390000Y-70340000D01*
X70450000Y-70250000D01*
X70620000Y-70250000D01*
X70680000Y-70280000D01*
X70680000Y-70450000D01*
X70690000Y-70530000D01*
X70740000Y-70570000D01*
X70850000Y-70580000D01*
X70930000Y-70560000D01*
X70960000Y-70500000D01*
X70970000Y-70410000D01*
X70970000Y-69480000D01*
X70940000Y-69420000D01*
X70850000Y-69390000D01*
X70420000Y-69390000D01*
X70350000Y-69410000D01*
X70270000Y-69450000D01*
X70190000Y-69500000D01*
X70140000Y-69560000D01*
X70090000Y-69630000D01*
X70060000Y-69710000D01*
X70040000Y-69790000D01*
X70050000Y-69880000D01*
X70060000Y-69960000D01*
X70100000Y-70040000D01*
X70150000Y-70100000D01*
X70150000Y-70160000D01*
X70080000Y-70320000D01*
X70060000Y-70390000D01*
X70030000Y-70470000D01*
X69780000Y-70470000D01*
X69780000Y-69490000D01*
X69750000Y-69420000D01*
X69670000Y-69400000D01*
X68960000Y-69400000D01*
X68890000Y-69430000D01*
X68850000Y-69500000D01*
X68850000Y-69590000D01*
X68890000Y-69660000D01*
X68960000Y-69690000D01*
X69470000Y-69690000D01*
X69490000Y-69750000D01*
X69490000Y-69840000D01*
X69430000Y-69860000D01*
X69090000Y-69860000D01*
X69050000Y-69920000D01*
X69040000Y-70020000D01*
X69060000Y-70100000D01*
X68630000Y-70430000D01*
X68590000Y-70370000D01*
X68500000Y-70360000D01*
X67490000Y-70360000D01*
X67400000Y-70370000D01*
X67350000Y-70420000D01*
X67340000Y-70510000D01*
X66775000Y-70510000D01*
X66810000Y-70490000D01*
X66880000Y-70430000D01*
X66940000Y-70370000D01*
X66990000Y-70300000D01*
X67030000Y-70220000D01*
X67070000Y-70060000D01*
X67070000Y-69980000D01*
X67060000Y-69890000D01*
X67050000Y-69810000D01*
X67020000Y-69730000D01*
X66980000Y-69650000D01*
X66930000Y-69580000D01*
X66870000Y-69520000D01*
X66810000Y-69470000D01*
X66730000Y-69430000D01*
X66660000Y-69400000D01*
X66580000Y-69380000D01*
X66490000Y-69370000D01*
X66440000Y-69380000D01*
X66360000Y-69390000D01*
X66280000Y-69410000D01*
X66200000Y-69450000D01*
X66130000Y-69490000D01*
X66070000Y-69550000D01*
X66010000Y-69620000D01*
X65960000Y-69690000D01*
X65930000Y-69760000D01*
X65910000Y-69840000D01*
X65900000Y-69930000D01*
X65890000Y-70010000D01*
X65610000Y-70010000D01*
X65610000Y-69490000D01*
X65580000Y-69420000D01*
X65500000Y-69400000D01*
X65410000Y-69410000D01*
X65350000Y-69440000D01*
X65280000Y-69530000D01*
X65030000Y-69860000D01*
X64870000Y-70080000D01*
X64860000Y-70050000D01*
X64860000Y-69540000D01*
X64850000Y-69460000D01*
X64820000Y-69420000D01*
X64740000Y-69400000D01*
X64650000Y-69410000D01*
X64590000Y-69460000D01*
X64570000Y-69540000D01*
X62807500Y-69540000D01*
X62810000Y-69530000D01*
X62800000Y-69440000D01*
X62740000Y-69400000D01*
X61770000Y-69400000D01*
X61700000Y-69420000D01*
X61680000Y-69500000D01*
X61380000Y-69520000D01*
X61370000Y-69450000D01*
X61320000Y-69410000D01*
X61210000Y-69400000D01*
X61130000Y-69430000D01*
X61100000Y-69490000D01*
X61090000Y-69580000D01*
X61090000Y-69830000D01*
X61060000Y-69880000D01*
X60720000Y-69880000D01*
X60660000Y-69850000D01*
X60660000Y-69510000D01*
X60640000Y-69440000D01*
X60620000Y-69420000D01*
X60540000Y-69400000D01*
X60450000Y-69410000D01*
X60380000Y-69460000D01*
X60370000Y-69540000D01*
X60120000Y-69520000D01*
X60110000Y-69450000D01*
X60050000Y-69410000D01*
X59950000Y-69400000D01*
X59860000Y-69430000D01*
X59830000Y-69490000D01*
X59830000Y-70420000D01*
X59600000Y-70330000D01*
X59590000Y-70270000D01*
X59530000Y-70200000D01*
X59450000Y-70170000D01*
X59380000Y-70190000D01*
X59310000Y-70260000D01*
X59240000Y-70310000D01*
X59150000Y-70320000D01*
X59070000Y-70290000D01*
X59030000Y-70230000D01*
X59050000Y-70150000D01*
X59120000Y-70110000D01*
X59200000Y-70100000D01*
X59280000Y-70070000D01*
X59370000Y-70040000D01*
X59440000Y-70010000D01*
X59500000Y-69960000D01*
X59550000Y-69880000D01*
X59580000Y-69810000D01*
X59590000Y-69720000D01*
X59580000Y-69630000D01*
X59550000Y-69560000D01*
X59500000Y-69490000D01*
X59440000Y-69430000D01*
X59370000Y-69400000D01*
X59280000Y-69370000D01*
X59100000Y-69370000D01*
X59020000Y-69390000D01*
X58930000Y-69420000D01*
X58870000Y-69460000D01*
X58810000Y-69530000D01*
X58820000Y-69590000D01*
X58880000Y-69680000D01*
X58940000Y-69720000D01*
X59020000Y-69700000D01*
X59090000Y-69650000D01*
X59170000Y-69630000D01*
X59250000Y-69640000D01*
X59300000Y-69710000D01*
X59270000Y-69790000D01*
X59200000Y-69820000D01*
X59030000Y-69860000D01*
X58870000Y-69920000D01*
X58810000Y-69980000D01*
X58770000Y-70050000D01*
X58740000Y-70130000D01*
X58740000Y-70220000D01*
X58750000Y-70300000D01*
X58480000Y-70390000D01*
X58410000Y-70360000D01*
X57300000Y-70360000D01*
X57230000Y-70390000D01*
X56930000Y-70330000D01*
X56920000Y-70270000D01*
X56860000Y-70200000D01*
X56780000Y-70170000D01*
X56720000Y-70190000D01*
X56640000Y-70260000D01*
X56570000Y-70310000D01*
X56480000Y-70320000D01*
X56400000Y-70290000D01*
X56360000Y-70230000D01*
X56380000Y-70150000D01*
X56450000Y-70110000D01*
X56540000Y-70100000D01*
X56780000Y-70010000D01*
X56840000Y-69950000D01*
X56890000Y-69880000D01*
X56910000Y-69800000D01*
X56920000Y-69720000D01*
X56910000Y-69630000D01*
X56880000Y-69560000D01*
X56830000Y-69490000D01*
X56770000Y-69430000D01*
X56700000Y-69400000D01*
X56620000Y-69370000D01*
X56430000Y-69370000D01*
X56350000Y-69390000D01*
X56260000Y-69420000D01*
X56210000Y-69460000D01*
X56150000Y-69530000D01*
X56150000Y-69590000D01*
X56210000Y-69680000D01*
X56280000Y-69720000D01*
X56350000Y-69700000D01*
X56420000Y-69650000D01*
X56500000Y-69630000D01*
X56590000Y-69640000D01*
X56630000Y-69710000D01*
X56600000Y-69790000D01*
X56530000Y-69820000D01*
X56360000Y-69870000D01*
X56280000Y-69890000D01*
X56210000Y-69920000D01*
X56140000Y-69980000D01*
X56100000Y-70050000D01*
X56080000Y-70130000D01*
X56070000Y-70220000D01*
X55790000Y-70220000D01*
X55790000Y-69470000D01*
X55750000Y-69420000D01*
X55660000Y-69400000D01*
X55560000Y-69410000D01*
X55510000Y-69460000D01*
X55242500Y-69460000D01*
X55240000Y-69440000D01*
X55180000Y-69410000D01*
X55030000Y-69400000D01*
X54780000Y-69400000D01*
X54690000Y-69410000D01*
X54610000Y-69430000D01*
X54470000Y-69510000D01*
X54400000Y-69570000D01*
X54340000Y-69630000D01*
X54290000Y-69700000D01*
X53960000Y-69520000D01*
X53940000Y-69440000D01*
X53890000Y-69410000D01*
X53790000Y-69400000D01*
X53120000Y-69400000D01*
X53050000Y-69440000D01*
X53030000Y-69520000D01*
X52238000Y-69520000D01*
X52390000Y-69220000D01*
X52440000Y-69150000D01*
X72330000Y-69150000D01*
X72180000Y-69410000D01*
X72100000Y-69400000D01*
X72020000Y-69430000D01*
X71960000Y-69490000D01*
X71650000Y-69900000D01*
X71540000Y-70060000D01*
X71510000Y-70090000D01*
X71510000Y-69580000D01*
X71500000Y-69490000D01*
X71420000Y-69400000D01*
X71330000Y-69400000D01*
X71260000Y-69430000D01*
X71220000Y-69490000D01*
X71220000Y-70430000D01*
X71230000Y-70510000D01*
G37*
X71230000Y-70510000D02*
X71270000Y-70570000D01*
X71360000Y-70590000D01*
X71450000Y-70590000D01*
X71520000Y-70530000D01*
X71980000Y-69920000D01*
X71980000Y-70500000D01*
X72010000Y-70560000D01*
X72080000Y-70590000D01*
X72190000Y-70590000D01*
X72240000Y-70550000D01*
X72260000Y-70470000D01*
X72260000Y-69530000D01*
X72250000Y-69450000D01*
X72190000Y-69410000D01*
X72330000Y-69150000D01*
X72670000Y-69150000D01*
X72750000Y-69160000D01*
X73170000Y-69990000D01*
X73140000Y-70070000D01*
X72760000Y-70820000D01*
X72690000Y-70850000D01*
X52460000Y-70850000D01*
X52400000Y-70810000D01*
X52020000Y-70050000D01*
X52010000Y-69970000D01*
X52238000Y-69520000D01*
X53030000Y-69520000D01*
X53040000Y-69630000D01*
X53090000Y-69680000D01*
X53170000Y-69690000D01*
X53680000Y-69690000D01*
X53680000Y-69780000D01*
X53670000Y-69860000D01*
X53330000Y-69860000D01*
X53260000Y-69880000D01*
X53220000Y-69930000D01*
X53210000Y-70040000D01*
X53250000Y-70110000D01*
X53310000Y-70140000D01*
X53660000Y-70140000D01*
X53680000Y-70210000D01*
X53680000Y-70300000D01*
X53170000Y-70300000D01*
X53090000Y-70320000D01*
X53040000Y-70370000D01*
X53030000Y-70480000D01*
X53060000Y-70560000D01*
X53120000Y-70590000D01*
X53800000Y-70590000D01*
X53900000Y-70580000D01*
X53950000Y-70540000D01*
X53960000Y-70460000D01*
X53960000Y-69530000D01*
X54290000Y-69700000D01*
X54260000Y-69770000D01*
X54230000Y-69850000D01*
X54220000Y-69940000D01*
X54220000Y-70020000D01*
X54230000Y-70110000D01*
X54250000Y-70190000D01*
X54280000Y-70270000D01*
X54330000Y-70340000D01*
X54380000Y-70400000D01*
X54450000Y-70460000D01*
X54510000Y-70510000D01*
X54590000Y-70550000D01*
X54670000Y-70580000D01*
X54750000Y-70590000D01*
X55090000Y-70590000D01*
X55190000Y-70580000D01*
X55240000Y-70540000D01*
X55250000Y-70460000D01*
X55250000Y-69520000D01*
X55242500Y-69460000D01*
X55510000Y-69460000D01*
X55510000Y-70490000D01*
X55530000Y-70560000D01*
X55600000Y-70590000D01*
X55710000Y-70590000D01*
X55770000Y-70550000D01*
X55790000Y-70490000D01*
X55790000Y-70220000D01*
X56070000Y-70220000D01*
X56090000Y-70310000D01*
X56110000Y-70380000D01*
X56160000Y-70450000D01*
X56220000Y-70510000D01*
X56300000Y-70550000D01*
X56380000Y-70580000D01*
X56460000Y-70590000D01*
X56550000Y-70590000D01*
X56630000Y-70580000D01*
X56710000Y-70550000D01*
X56790000Y-70510000D01*
X56850000Y-70450000D01*
X56930000Y-70340000D01*
X57230000Y-70400000D01*
X57210000Y-70470000D01*
X57220000Y-70560000D01*
X57290000Y-70590000D01*
X58420000Y-70590000D01*
X58490000Y-70550000D01*
X58500000Y-70470000D01*
X58480000Y-70390000D01*
X58750000Y-70310000D01*
X58780000Y-70380000D01*
X58830000Y-70450000D01*
X58890000Y-70510000D01*
X58960000Y-70550000D01*
X59040000Y-70580000D01*
X59130000Y-70590000D01*
X59210000Y-70590000D01*
X59300000Y-70580000D01*
X59380000Y-70550000D01*
X59450000Y-70510000D01*
X59520000Y-70450000D01*
X59600000Y-70340000D01*
X59830000Y-70430000D01*
X59840000Y-70510000D01*
X59870000Y-70570000D01*
X59960000Y-70590000D01*
X60060000Y-70580000D01*
X60110000Y-70540000D01*
X60120000Y-70450000D01*
X60120000Y-69530000D01*
X60370000Y-69540000D01*
X60370000Y-70470000D01*
X60400000Y-70550000D01*
X60450000Y-70590000D01*
X60560000Y-70590000D01*
X60640000Y-70560000D01*
X60660000Y-70490000D01*
X60660000Y-70150000D01*
X60720000Y-70120000D01*
X61050000Y-70120000D01*
X61090000Y-70160000D01*
X61090000Y-70420000D01*
X61100000Y-70500000D01*
X61130000Y-70570000D01*
X61210000Y-70590000D01*
X61320000Y-70580000D01*
X61370000Y-70540000D01*
X61380000Y-70460000D01*
X61380000Y-69530000D01*
X61680000Y-69500000D01*
X61680000Y-69590000D01*
X61740000Y-69630000D01*
X61830000Y-69640000D01*
X62090000Y-69640000D01*
X62100000Y-69710000D01*
X62100000Y-70470000D01*
X62120000Y-70550000D01*
X62190000Y-70590000D01*
X62280000Y-70590000D01*
X62360000Y-70570000D01*
X62380000Y-70500000D01*
X63070000Y-70500000D01*
X63100000Y-70580000D01*
X63180000Y-70590000D01*
X64310000Y-70590000D01*
X64360000Y-70530000D01*
X64360000Y-70440000D01*
X64320000Y-70380000D01*
X64240000Y-70360000D01*
X63220000Y-70360000D01*
X63130000Y-70370000D01*
X63070000Y-70420000D01*
X63070000Y-70500000D01*
X62380000Y-70490000D01*
X62380000Y-69640000D01*
X62720000Y-69640000D01*
X62790000Y-69610000D01*
X62807500Y-69540000D01*
X64570000Y-69540000D01*
X64570000Y-70480000D01*
X64600000Y-70550000D01*
X64650000Y-70590000D01*
X64760000Y-70590000D01*
X64830000Y-70570000D01*
X65320000Y-69940000D01*
X65340000Y-69940000D01*
X65340000Y-70530000D01*
X65380000Y-70580000D01*
X65490000Y-70590000D01*
X65580000Y-70570000D01*
X65610000Y-70510000D01*
X65610000Y-70010000D01*
X65890000Y-70010000D01*
X65900000Y-70100000D01*
X65960000Y-70260000D01*
X66000000Y-70330000D01*
X66050000Y-70400000D01*
X66110000Y-70460000D01*
X66180000Y-70510000D01*
X66250000Y-70550000D01*
X66410000Y-70590000D01*
X66500000Y-70590000D01*
X66590000Y-70580000D01*
X66670000Y-70560000D01*
X66740000Y-70530000D01*
X66775000Y-70510000D01*
X67340000Y-70510000D01*
X67380000Y-70580000D01*
X67460000Y-70590000D01*
X68480000Y-70590000D01*
X68600000Y-70580000D01*
X68630000Y-70520000D01*
X68630000Y-70440000D01*
X69060000Y-70110000D01*
X69110000Y-70140000D01*
X69460000Y-70140000D01*
X69490000Y-70190000D01*
X69490000Y-70450000D01*
X69500000Y-70530000D01*
X69550000Y-70580000D01*
X69650000Y-70590000D01*
X69740000Y-70570000D01*
X69780000Y-70520000D01*
X69780000Y-70470000D01*
X70030000Y-70470000D01*
X70070000Y-70530000D01*
X70160000Y-70580000D01*
X70240000Y-70590000D01*
X70300000Y-70550000D01*
X70390000Y-70340000D01*
X70450000Y-70250000D01*
X70620000Y-70250000D01*
X70680000Y-70280000D01*
X70680000Y-70450000D01*
X70690000Y-70530000D01*
X70740000Y-70570000D01*
X70850000Y-70580000D01*
X70930000Y-70560000D01*
X70960000Y-70500000D01*
X70970000Y-70410000D01*
X70970000Y-69480000D01*
X70940000Y-69420000D01*
X70850000Y-69390000D01*
X70420000Y-69390000D01*
X70350000Y-69410000D01*
X70270000Y-69450000D01*
X70190000Y-69500000D01*
X70140000Y-69560000D01*
X70090000Y-69630000D01*
X70060000Y-69710000D01*
X70040000Y-69790000D01*
X70050000Y-69880000D01*
X70060000Y-69960000D01*
X70100000Y-70040000D01*
X70150000Y-70100000D01*
X70150000Y-70160000D01*
X70080000Y-70320000D01*
X70060000Y-70390000D01*
X70030000Y-70470000D01*
X69780000Y-70470000D01*
X69780000Y-69490000D01*
X69750000Y-69420000D01*
X69670000Y-69400000D01*
X68960000Y-69400000D01*
X68890000Y-69430000D01*
X68850000Y-69500000D01*
X68850000Y-69590000D01*
X68890000Y-69660000D01*
X68960000Y-69690000D01*
X69470000Y-69690000D01*
X69490000Y-69750000D01*
X69490000Y-69840000D01*
X69430000Y-69860000D01*
X69090000Y-69860000D01*
X69050000Y-69920000D01*
X69040000Y-70020000D01*
X69060000Y-70100000D01*
X68630000Y-70430000D01*
X68590000Y-70370000D01*
X68500000Y-70360000D01*
X67490000Y-70360000D01*
X67400000Y-70370000D01*
X67350000Y-70420000D01*
X67340000Y-70510000D01*
X66775000Y-70510000D01*
X66810000Y-70490000D01*
X66880000Y-70430000D01*
X66940000Y-70370000D01*
X66990000Y-70300000D01*
X67030000Y-70220000D01*
X67070000Y-70060000D01*
X67070000Y-69980000D01*
X67060000Y-69890000D01*
X67050000Y-69810000D01*
X67020000Y-69730000D01*
X66980000Y-69650000D01*
X66930000Y-69580000D01*
X66870000Y-69520000D01*
X66810000Y-69470000D01*
X66730000Y-69430000D01*
X66660000Y-69400000D01*
X66580000Y-69380000D01*
X66490000Y-69370000D01*
X66440000Y-69380000D01*
X66360000Y-69390000D01*
X66280000Y-69410000D01*
X66200000Y-69450000D01*
X66130000Y-69490000D01*
X66070000Y-69550000D01*
X66010000Y-69620000D01*
X65960000Y-69690000D01*
X65930000Y-69760000D01*
X65910000Y-69840000D01*
X65900000Y-69930000D01*
X65890000Y-70010000D01*
X65610000Y-70010000D01*
X65610000Y-69490000D01*
X65580000Y-69420000D01*
X65500000Y-69400000D01*
X65410000Y-69410000D01*
X65350000Y-69440000D01*
X65280000Y-69530000D01*
X65030000Y-69860000D01*
X64870000Y-70080000D01*
X64860000Y-70050000D01*
X64860000Y-69540000D01*
X64850000Y-69460000D01*
X64820000Y-69420000D01*
X64740000Y-69400000D01*
X64650000Y-69410000D01*
X64590000Y-69460000D01*
X64570000Y-69540000D01*
X62807500Y-69540000D01*
X62810000Y-69530000D01*
X62800000Y-69440000D01*
X62740000Y-69400000D01*
X61770000Y-69400000D01*
X61700000Y-69420000D01*
X61680000Y-69500000D01*
X61380000Y-69520000D01*
X61370000Y-69450000D01*
X61320000Y-69410000D01*
X61210000Y-69400000D01*
X61130000Y-69430000D01*
X61100000Y-69490000D01*
X61090000Y-69580000D01*
X61090000Y-69830000D01*
X61060000Y-69880000D01*
X60720000Y-69880000D01*
X60660000Y-69850000D01*
X60660000Y-69510000D01*
X60640000Y-69440000D01*
X60620000Y-69420000D01*
X60540000Y-69400000D01*
X60450000Y-69410000D01*
X60380000Y-69460000D01*
X60370000Y-69540000D01*
X60120000Y-69520000D01*
X60110000Y-69450000D01*
X60050000Y-69410000D01*
X59950000Y-69400000D01*
X59860000Y-69430000D01*
X59830000Y-69490000D01*
X59830000Y-70420000D01*
X59600000Y-70330000D01*
X59590000Y-70270000D01*
X59530000Y-70200000D01*
X59450000Y-70170000D01*
X59380000Y-70190000D01*
X59310000Y-70260000D01*
X59240000Y-70310000D01*
X59150000Y-70320000D01*
X59070000Y-70290000D01*
X59030000Y-70230000D01*
X59050000Y-70150000D01*
X59120000Y-70110000D01*
X59200000Y-70100000D01*
X59280000Y-70070000D01*
X59370000Y-70040000D01*
X59440000Y-70010000D01*
X59500000Y-69960000D01*
X59550000Y-69880000D01*
X59580000Y-69810000D01*
X59590000Y-69720000D01*
X59580000Y-69630000D01*
X59550000Y-69560000D01*
X59500000Y-69490000D01*
X59440000Y-69430000D01*
X59370000Y-69400000D01*
X59280000Y-69370000D01*
X59100000Y-69370000D01*
X59020000Y-69390000D01*
X58930000Y-69420000D01*
X58870000Y-69460000D01*
X58810000Y-69530000D01*
X58820000Y-69590000D01*
X58880000Y-69680000D01*
X58940000Y-69720000D01*
X59020000Y-69700000D01*
X59090000Y-69650000D01*
X59170000Y-69630000D01*
X59250000Y-69640000D01*
X59300000Y-69710000D01*
X59270000Y-69790000D01*
X59200000Y-69820000D01*
X59030000Y-69860000D01*
X58870000Y-69920000D01*
X58810000Y-69980000D01*
X58770000Y-70050000D01*
X58740000Y-70130000D01*
X58740000Y-70220000D01*
X58750000Y-70300000D01*
X58480000Y-70390000D01*
X58410000Y-70360000D01*
X57300000Y-70360000D01*
X57230000Y-70390000D01*
X56930000Y-70330000D01*
X56920000Y-70270000D01*
X56860000Y-70200000D01*
X56780000Y-70170000D01*
X56720000Y-70190000D01*
X56640000Y-70260000D01*
X56570000Y-70310000D01*
X56480000Y-70320000D01*
X56400000Y-70290000D01*
X56360000Y-70230000D01*
X56380000Y-70150000D01*
X56450000Y-70110000D01*
X56540000Y-70100000D01*
X56780000Y-70010000D01*
X56840000Y-69950000D01*
X56890000Y-69880000D01*
X56910000Y-69800000D01*
X56920000Y-69720000D01*
X56910000Y-69630000D01*
X56880000Y-69560000D01*
X56830000Y-69490000D01*
X56770000Y-69430000D01*
X56700000Y-69400000D01*
X56620000Y-69370000D01*
X56430000Y-69370000D01*
X56350000Y-69390000D01*
X56260000Y-69420000D01*
X56210000Y-69460000D01*
X56150000Y-69530000D01*
X56150000Y-69590000D01*
X56210000Y-69680000D01*
X56280000Y-69720000D01*
X56350000Y-69700000D01*
X56420000Y-69650000D01*
X56500000Y-69630000D01*
X56590000Y-69640000D01*
X56630000Y-69710000D01*
X56600000Y-69790000D01*
X56530000Y-69820000D01*
X56360000Y-69870000D01*
X56280000Y-69890000D01*
X56210000Y-69920000D01*
X56140000Y-69980000D01*
X56100000Y-70050000D01*
X56080000Y-70130000D01*
X56070000Y-70220000D01*
X55790000Y-70220000D01*
X55790000Y-69470000D01*
X55750000Y-69420000D01*
X55660000Y-69400000D01*
X55560000Y-69410000D01*
X55510000Y-69460000D01*
X55242500Y-69460000D01*
X55240000Y-69440000D01*
X55180000Y-69410000D01*
X55030000Y-69400000D01*
X54780000Y-69400000D01*
X54690000Y-69410000D01*
X54610000Y-69430000D01*
X54470000Y-69510000D01*
X54400000Y-69570000D01*
X54340000Y-69630000D01*
X54290000Y-69700000D01*
X53960000Y-69520000D01*
X53940000Y-69440000D01*
X53890000Y-69410000D01*
X53790000Y-69400000D01*
X53120000Y-69400000D01*
X53050000Y-69440000D01*
X53030000Y-69520000D01*
X52238000Y-69520000D01*
X52390000Y-69220000D01*
X52440000Y-69150000D01*
X72330000Y-69150000D01*
X72180000Y-69410000D01*
X72100000Y-69400000D01*
X72020000Y-69430000D01*
X71960000Y-69490000D01*
X71650000Y-69900000D01*
X71540000Y-70060000D01*
X71510000Y-70090000D01*
X71510000Y-69580000D01*
X71500000Y-69490000D01*
X71420000Y-69400000D01*
X71330000Y-69400000D01*
X71260000Y-69430000D01*
X71220000Y-69490000D01*
X71220000Y-70430000D01*
X71230000Y-70510000D01*
D10*
%TO.C,Q1*%
X91132111Y-70180000D02*
G75*
G03*
X91132111Y-70180000I-72111J0D01*
G01*
D11*
%TO.C,C1*%
X85240000Y-69488748D02*
X85240000Y-70911252D01*
X87960000Y-69488748D02*
X87960000Y-70911252D01*
%TO.C,SW3*%
X85300000Y-78750000D02*
X86050000Y-78750000D01*
X83800000Y-80550000D02*
X83800000Y-79800000D01*
X83800000Y-73700000D02*
X80850000Y-73700000D01*
X86050000Y-77250000D02*
X85300000Y-77250000D01*
X86060000Y-72940000D02*
X86060000Y-80560000D01*
X85300000Y-72950000D02*
X86050000Y-72950000D01*
X80850000Y-79800000D02*
X80850000Y-76750000D01*
X85300000Y-77250000D02*
X85300000Y-76250000D01*
X86350000Y-80850000D02*
X85100000Y-80850000D01*
X86050000Y-76250000D02*
X86050000Y-77250000D01*
X86350000Y-79600000D02*
X86350000Y-80850000D01*
X86050000Y-74750000D02*
X85300000Y-74750000D01*
X86050000Y-72950000D02*
X86050000Y-74750000D01*
X80090000Y-80560000D02*
X80090000Y-72940000D01*
X86050000Y-78750000D02*
X86050000Y-80550000D01*
X85300000Y-74750000D02*
X85300000Y-72950000D01*
X83800000Y-72950000D02*
X83800000Y-73700000D01*
X80090000Y-72940000D02*
X86060000Y-72940000D01*
X85300000Y-80550000D02*
X85300000Y-78750000D01*
X83800000Y-79800000D02*
X80850000Y-79800000D01*
X86050000Y-80550000D02*
X85300000Y-80550000D01*
X80850000Y-73700000D02*
X80850000Y-76750000D01*
X85300000Y-76250000D02*
X86050000Y-76250000D01*
X86060000Y-80560000D02*
X80090000Y-80560000D01*
D13*
%TO.C,U1*%
X44730000Y-77620000D02*
X44730000Y-62380000D01*
X49100000Y-77620000D02*
X44730000Y-77620000D01*
X44730000Y-62380000D02*
X49100000Y-62380000D01*
%TD*%
M02*
