%TF.GenerationSoftware,KiCad,Pcbnew,5.99.0-unknown-7ef9082c86~117~ubuntu18.04.1*%
%TF.CreationDate,2021-03-11T22:58:14+01:00*%
%TF.ProjectId,TSDZ2_nrf_module_board,5453445a-325f-46e7-9266-5f6d6f64756c,rev?*%
%TF.SameCoordinates,Original*%
%TF.FileFunction,Copper,L1,Top*%
%TF.FilePolarity,Positive*%
%FSLAX46Y46*%
G04 Gerber Fmt 4.6, Leading zero omitted, Abs format (unit mm)*
G04 Created by KiCad (PCBNEW 5.99.0-unknown-7ef9082c86~117~ubuntu18.04.1) date 2021-03-11 22:58:14*
%MOMM*%
%LPD*%
G01*
G04 APERTURE LIST*
G04 Aperture macros list*
%AMRoundRect*
0 Rectangle with rounded corners*
0 $1 Rounding radius*
0 $2 $3 $4 $5 $6 $7 $8 $9 X,Y pos of 4 corners*
0 Add a 4 corners polygon primitive as box body*
4,1,4,$2,$3,$4,$5,$6,$7,$8,$9,$2,$3,0*
0 Add four circle primitives for the rounded corners*
1,1,$1+$1,$2,$3*
1,1,$1+$1,$4,$5*
1,1,$1+$1,$6,$7*
1,1,$1+$1,$8,$9*
0 Add four rect primitives between the rounded corners*
20,1,$1+$1,$2,$3,$4,$5,0*
20,1,$1+$1,$4,$5,$6,$7,0*
20,1,$1+$1,$6,$7,$8,$9,0*
20,1,$1+$1,$8,$9,$2,$3,0*%
G04 Aperture macros list end*
%TA.AperFunction,ComponentPad*%
%ADD10RoundRect,0.250000X0.750000X-0.600000X0.750000X0.600000X-0.750000X0.600000X-0.750000X-0.600000X0*%
%TD*%
%TA.AperFunction,ComponentPad*%
%ADD11O,2.000000X1.700000*%
%TD*%
%TA.AperFunction,ComponentPad*%
%ADD12RoundRect,0.250000X-0.725000X0.600000X-0.725000X-0.600000X0.725000X-0.600000X0.725000X0.600000X0*%
%TD*%
%TA.AperFunction,ComponentPad*%
%ADD13O,1.950000X1.700000*%
%TD*%
%TA.AperFunction,ComponentPad*%
%ADD14RoundRect,0.377000X-0.377000X1.131000X-0.377000X-1.131000X0.377000X-1.131000X0.377000X1.131000X0*%
%TD*%
%TA.AperFunction,ViaPad*%
%ADD15C,0.800000*%
%TD*%
%TA.AperFunction,ViaPad*%
%ADD16C,0.450000*%
%TD*%
%TA.AperFunction,Conductor*%
%ADD17C,0.254000*%
%TD*%
%TA.AperFunction,Conductor*%
%ADD18C,0.250000*%
%TD*%
%TA.AperFunction,Conductor*%
%ADD19C,0.609600*%
%TD*%
G04 APERTURE END LIST*
D10*
%TO.P,SW4,1,1*%
%TO.N,GND*%
X83575000Y-64450000D03*
D11*
%TO.P,SW4,2,2*%
%TO.N,/P0.20_POWER*%
X83575000Y-61950000D03*
%TD*%
D10*
%TO.P,SW1,1,1*%
%TO.N,GND*%
X90000000Y-78000000D03*
D11*
%TO.P,SW1,2,2*%
%TO.N,/P0.13_UP*%
X90000000Y-75500000D03*
%TD*%
D12*
%TO.P,J1,1,Pin_1*%
%TO.N,GND*%
X95550000Y-63750000D03*
D13*
%TO.P,J1,2,Pin_2*%
%TO.N,/TSDZ2_BRAKE_INPUT*%
X95550000Y-66250000D03*
%TO.P,J1,3,Pin_3*%
%TO.N,/TSDZ2_RX*%
X95550000Y-68750000D03*
%TO.P,J1,4,Pin_4*%
%TO.N,/V_BATT*%
X95550000Y-71250000D03*
%TO.P,J1,5,Pin_5*%
%TO.N,/TSDZ2_TX*%
X95550000Y-73750000D03*
%TO.P,J1,6,Pin_6*%
%TO.N,/TSDZ2_VIN*%
X95550000Y-76250000D03*
%TD*%
D10*
%TO.P,SW2,1,1*%
%TO.N,GND*%
X90000000Y-64450000D03*
D11*
%TO.P,SW2,2,2*%
%TO.N,/P0.17_DOWN*%
X90000000Y-61950000D03*
%TD*%
D10*
%TO.P,SW3,1,1*%
%TO.N,GND*%
X83600000Y-78000000D03*
D11*
%TO.P,SW3,2,2*%
%TO.N,/P0.15_ENTER*%
X83600000Y-75500000D03*
%TD*%
D14*
%TO.P,U1,0.02,0.02*%
%TO.N,N/C*%
X60638000Y-61580000D03*
%TO.P,U1,0.09,0.09*%
%TO.N,/TSDZ2_BRAKE_INPUT*%
X55525000Y-78420000D03*
%TO.P,U1,0.10,0.10*%
%TO.N,N/C*%
X52985000Y-78420000D03*
%TO.P,U1,0.13,0.13*%
%TO.N,/P0.13_UP*%
X73305000Y-78420000D03*
%TO.P,U1,0.15,0.15*%
%TO.N,/P0.15_ENTER*%
X70765000Y-78420000D03*
%TO.P,U1,0.17,0.17*%
%TO.N,/P0.17_DOWN*%
X68225000Y-78420000D03*
%TO.P,U1,0.20,0.20*%
%TO.N,/P0.20_POWER*%
X65685000Y-78420000D03*
%TO.P,U1,0.22,0.22*%
%TO.N,/TSDZ2_RX*%
X63145000Y-78420000D03*
%TO.P,U1,0.24,0.24*%
%TO.N,/TSDZ2_TX*%
X60605000Y-78420000D03*
%TO.P,U1,0.29,0.29*%
%TO.N,N/C*%
X63178000Y-61580000D03*
%TO.P,U1,0.31,0.31*%
X65718000Y-61580000D03*
%TO.P,U1,1.00,1.00*%
%TO.N,/P1.00_VIN_CTRL*%
X58065000Y-78420000D03*
%TO.P,U1,1.10,1.10*%
%TO.N,N/C*%
X53018000Y-61580000D03*
%TO.P,U1,1.13,1.13*%
X55558000Y-61580000D03*
%TO.P,U1,1.15,1.15*%
X58098000Y-61580000D03*
%TO.P,U1,G1,GND*%
%TO.N,GND*%
X50445000Y-78420000D03*
%TO.P,U1,G2,GND*%
X50478000Y-61580000D03*
%TO.P,U1,G3,GND*%
X68258000Y-61580000D03*
%TO.P,U1,OUT,OUT*%
%TO.N,N/C*%
X70798000Y-61580000D03*
%TO.P,U1,SWDCLK,SWDCLK*%
X78385000Y-63993000D03*
%TO.P,U1,SWDIO,SWDIO*%
X78385000Y-76007000D03*
%TO.P,U1,VBUS,VBUS*%
%TO.N,VBUS*%
X73338000Y-61580000D03*
%TD*%
D15*
%TO.N,/TSDZ2_TX*%
X64750000Y-74477000D03*
D16*
%TO.N,/V_BATT*%
X83800000Y-68000000D03*
X82200000Y-72000000D03*
%TO.N,VBUS*%
X83000000Y-72000000D03*
X81400000Y-68000000D03*
D15*
%TO.N,/P0.17_DOWN*%
X67000000Y-65750000D03*
%TO.N,/P0.20_POWER*%
X65750000Y-65000000D03*
%TO.N,/P1.00_VIN_CTRL*%
X58230104Y-72522990D03*
D16*
X92250000Y-72500000D03*
%TD*%
D17*
%TO.N,/TSDZ2_TX*%
X79921980Y-74171980D02*
X65055020Y-74171980D01*
X65055020Y-74171980D02*
X64750000Y-74477000D01*
X64750000Y-74477000D02*
X65022980Y-74204020D01*
X95128020Y-74171980D02*
X95550000Y-73750000D01*
X79921980Y-74171980D02*
X95128020Y-74171980D01*
X77720588Y-74171980D02*
X79921980Y-74171980D01*
%TO.N,/V_BATT*%
X83800000Y-68000000D02*
X82250000Y-68000000D01*
X80847989Y-67735034D02*
X80847989Y-67752011D01*
X81697989Y-67447989D02*
X81135034Y-67447989D01*
X82250000Y-68000000D02*
X81697989Y-67447989D01*
X80800000Y-67800000D02*
X80800000Y-68200000D01*
X81697989Y-67447989D02*
X81600000Y-67447989D01*
X80800000Y-68200000D02*
X82200000Y-69600000D01*
X82200000Y-69600000D02*
X82200000Y-72000000D01*
X81135034Y-67447989D02*
X80847989Y-67735034D01*
X80847989Y-67752011D02*
X80800000Y-67800000D01*
D18*
%TO.N,/TSDZ2_RX*%
X64482030Y-73717970D02*
X93082030Y-73717970D01*
D17*
X93082030Y-73717970D02*
X93800000Y-73000000D01*
D18*
X63482030Y-73717970D02*
X93082030Y-73717970D01*
D17*
X95550000Y-68750000D02*
X94050000Y-68750000D01*
D18*
X63145000Y-74055000D02*
X63482030Y-73717970D01*
D17*
X94050000Y-68750000D02*
X93800000Y-69000000D01*
D18*
X63145000Y-75055000D02*
X63145000Y-74055000D01*
D17*
X93800000Y-73000000D02*
X93800000Y-69000000D01*
X63145000Y-77620000D02*
X63145000Y-75055000D01*
%TO.N,/TSDZ2_BRAKE_INPUT*%
X55500000Y-73750000D02*
X56000000Y-73250000D01*
X55500000Y-77595000D02*
X55500000Y-73750000D01*
X93200000Y-72600000D02*
X93200000Y-66800000D01*
X93200000Y-66800000D02*
X93750000Y-66250000D01*
X92550000Y-73250000D02*
X93200000Y-72600000D01*
X56000000Y-73250000D02*
X92550000Y-73250000D01*
X55525000Y-77620000D02*
X55500000Y-77595000D01*
X93750000Y-66250000D02*
X95550000Y-66250000D01*
D19*
%TO.N,GND*%
X50445000Y-62413000D02*
X50478000Y-62380000D01*
X50445000Y-77620000D02*
X50445000Y-75655000D01*
X50478000Y-62380000D02*
X50478000Y-63978000D01*
X68258000Y-62380000D02*
X68258000Y-63958000D01*
D17*
%TO.N,VBUS*%
X83000000Y-72000000D02*
X83000000Y-69600000D01*
X83000000Y-69600000D02*
X81400000Y-68000000D01*
%TO.N,/P0.17_DOWN*%
X73250000Y-65750000D02*
X69500000Y-65750000D01*
X84322980Y-63177020D02*
X82677020Y-63177020D01*
X82677020Y-63177020D02*
X81500000Y-62000000D01*
X69500000Y-65750000D02*
X67000000Y-65750000D01*
X73450000Y-65750000D02*
X73250000Y-65750000D01*
X85500000Y-62000000D02*
X84322980Y-63177020D01*
X90000000Y-62000000D02*
X85500000Y-62000000D01*
X73750000Y-65750000D02*
X73450000Y-65750000D01*
D18*
X76050000Y-65750000D02*
X75550000Y-65750000D01*
X76050000Y-65750000D02*
X73250000Y-65750000D01*
X77050000Y-64750000D02*
X76050000Y-65750000D01*
X77050000Y-62450000D02*
X77050000Y-64750000D01*
D17*
X69500000Y-65750000D02*
X68250000Y-65750000D01*
D18*
X77500000Y-62000000D02*
X77050000Y-62450000D01*
D17*
X81500000Y-62000000D02*
X77500000Y-62000000D01*
D18*
%TO.N,/P0.20_POWER*%
X76200000Y-64200000D02*
X76200000Y-62200000D01*
X75600000Y-65000000D02*
X76200000Y-64400000D01*
D17*
X82500000Y-62000000D02*
X82000000Y-61500000D01*
D18*
X77000000Y-61500000D02*
X76900000Y-61500000D01*
D17*
X82000000Y-61500000D02*
X81000000Y-61500000D01*
X73500000Y-65000000D02*
X65750000Y-65000000D01*
D18*
X76200000Y-64400000D02*
X76200000Y-64200000D01*
X76900000Y-61500000D02*
X76200000Y-62200000D01*
D17*
X82000000Y-61500000D02*
X77900000Y-61500000D01*
X83203960Y-61703960D02*
X83500000Y-62000000D01*
D18*
X75600000Y-65000000D02*
X73500000Y-65000000D01*
D17*
X83500000Y-62000000D02*
X82500000Y-62000000D01*
X77900000Y-61500000D02*
X77000000Y-61500000D01*
%TO.N,/P1.00_VIN_CTRL*%
X58250000Y-72750000D02*
X58230104Y-72730104D01*
X87250000Y-72750000D02*
X92000000Y-72750000D01*
X87750000Y-72750000D02*
X87250000Y-72750000D01*
X87250000Y-72750000D02*
X85500000Y-72750000D01*
X87750000Y-72750000D02*
X58250000Y-72750000D01*
X58230104Y-72730104D02*
X58230104Y-72522990D01*
X92000000Y-72750000D02*
X92250000Y-72500000D01*
%TD*%
%TA.AperFunction,Conductor*%
%TO.N,GND*%
G36*
X104688121Y-59274002D02*
G01*
X104734614Y-59327658D01*
X104746000Y-59380000D01*
X104746000Y-80620000D01*
X104725998Y-80688121D01*
X104672342Y-80734614D01*
X104620000Y-80746000D01*
X49380000Y-80746000D01*
X49311879Y-80725998D01*
X49265386Y-80672342D01*
X49254000Y-80620000D01*
X49254000Y-79869639D01*
X49274002Y-79801518D01*
X49327658Y-79755025D01*
X49397932Y-79744921D01*
X49462512Y-79774415D01*
X49497152Y-79823255D01*
X49507752Y-79850026D01*
X49515328Y-79863808D01*
X49599716Y-79979958D01*
X49610484Y-79991425D01*
X49721107Y-80082941D01*
X49734386Y-80091368D01*
X49864291Y-80152496D01*
X49879252Y-80157357D01*
X50002591Y-80180886D01*
X50014379Y-80182000D01*
X50857620Y-80182000D01*
X50865510Y-80181503D01*
X50972302Y-80168013D01*
X50987535Y-80164102D01*
X51121026Y-80111249D01*
X51134808Y-80103672D01*
X51250958Y-80019284D01*
X51262425Y-80008516D01*
X51353941Y-79897893D01*
X51362368Y-79884614D01*
X51423496Y-79754709D01*
X51428357Y-79739748D01*
X51451886Y-79616409D01*
X51453000Y-79604621D01*
X51453000Y-78565115D01*
X51448525Y-78549876D01*
X51447135Y-78548671D01*
X51439452Y-78547000D01*
X50444000Y-78547000D01*
X50375879Y-78526998D01*
X50329386Y-78473342D01*
X50318000Y-78421000D01*
X50318000Y-78419000D01*
X50338002Y-78350879D01*
X50391658Y-78304386D01*
X50444000Y-78293000D01*
X51434885Y-78293000D01*
X51450124Y-78288525D01*
X51451329Y-78287135D01*
X51453000Y-78279452D01*
X51453000Y-77253380D01*
X51452503Y-77245490D01*
X51450472Y-77229408D01*
X51976500Y-77229408D01*
X51976500Y-79590579D01*
X51991497Y-79709291D01*
X52050231Y-79857636D01*
X52054889Y-79864047D01*
X52054890Y-79864049D01*
X52075237Y-79892054D01*
X52144011Y-79986714D01*
X52266946Y-80088415D01*
X52274112Y-80091787D01*
X52404142Y-80152974D01*
X52404145Y-80152975D01*
X52411311Y-80156347D01*
X52475003Y-80168497D01*
X52542567Y-80181386D01*
X52542570Y-80181386D01*
X52548408Y-80182500D01*
X53401579Y-80182500D01*
X53458030Y-80175368D01*
X53512426Y-80168497D01*
X53512429Y-80168496D01*
X53520291Y-80167503D01*
X53527658Y-80164586D01*
X53527659Y-80164586D01*
X53561276Y-80151276D01*
X53668636Y-80108769D01*
X53675652Y-80103672D01*
X53791301Y-80019648D01*
X53797714Y-80014989D01*
X53899415Y-79892054D01*
X53931789Y-79823255D01*
X53963974Y-79754858D01*
X53963975Y-79754855D01*
X53967347Y-79747689D01*
X53993500Y-79610592D01*
X53993500Y-77249421D01*
X53990972Y-77229408D01*
X54516500Y-77229408D01*
X54516500Y-79590579D01*
X54531497Y-79709291D01*
X54590231Y-79857636D01*
X54594889Y-79864047D01*
X54594890Y-79864049D01*
X54615237Y-79892054D01*
X54684011Y-79986714D01*
X54806946Y-80088415D01*
X54814112Y-80091787D01*
X54944142Y-80152974D01*
X54944145Y-80152975D01*
X54951311Y-80156347D01*
X55015003Y-80168497D01*
X55082567Y-80181386D01*
X55082570Y-80181386D01*
X55088408Y-80182500D01*
X55941579Y-80182500D01*
X55998030Y-80175368D01*
X56052426Y-80168497D01*
X56052429Y-80168496D01*
X56060291Y-80167503D01*
X56067658Y-80164586D01*
X56067659Y-80164586D01*
X56101276Y-80151276D01*
X56208636Y-80108769D01*
X56215652Y-80103672D01*
X56331301Y-80019648D01*
X56337714Y-80014989D01*
X56439415Y-79892054D01*
X56471789Y-79823255D01*
X56503974Y-79754858D01*
X56503975Y-79754855D01*
X56507347Y-79747689D01*
X56533500Y-79610592D01*
X56533500Y-77249421D01*
X56530972Y-77229408D01*
X57056500Y-77229408D01*
X57056500Y-79590579D01*
X57071497Y-79709291D01*
X57130231Y-79857636D01*
X57134889Y-79864047D01*
X57134890Y-79864049D01*
X57155237Y-79892054D01*
X57224011Y-79986714D01*
X57346946Y-80088415D01*
X57354112Y-80091787D01*
X57484142Y-80152974D01*
X57484145Y-80152975D01*
X57491311Y-80156347D01*
X57555003Y-80168497D01*
X57622567Y-80181386D01*
X57622570Y-80181386D01*
X57628408Y-80182500D01*
X58481579Y-80182500D01*
X58538030Y-80175368D01*
X58592426Y-80168497D01*
X58592429Y-80168496D01*
X58600291Y-80167503D01*
X58607658Y-80164586D01*
X58607659Y-80164586D01*
X58641276Y-80151276D01*
X58748636Y-80108769D01*
X58755652Y-80103672D01*
X58871301Y-80019648D01*
X58877714Y-80014989D01*
X58979415Y-79892054D01*
X59011789Y-79823255D01*
X59043974Y-79754858D01*
X59043975Y-79754855D01*
X59047347Y-79747689D01*
X59073500Y-79610592D01*
X59073500Y-77249421D01*
X59070972Y-77229408D01*
X59596500Y-77229408D01*
X59596500Y-79590579D01*
X59611497Y-79709291D01*
X59670231Y-79857636D01*
X59674889Y-79864047D01*
X59674890Y-79864049D01*
X59695237Y-79892054D01*
X59764011Y-79986714D01*
X59886946Y-80088415D01*
X59894112Y-80091787D01*
X60024142Y-80152974D01*
X60024145Y-80152975D01*
X60031311Y-80156347D01*
X60095003Y-80168497D01*
X60162567Y-80181386D01*
X60162570Y-80181386D01*
X60168408Y-80182500D01*
X61021579Y-80182500D01*
X61078030Y-80175368D01*
X61132426Y-80168497D01*
X61132429Y-80168496D01*
X61140291Y-80167503D01*
X61147658Y-80164586D01*
X61147659Y-80164586D01*
X61181276Y-80151276D01*
X61288636Y-80108769D01*
X61295652Y-80103672D01*
X61411301Y-80019648D01*
X61417714Y-80014989D01*
X61519415Y-79892054D01*
X61551789Y-79823255D01*
X61583974Y-79754858D01*
X61583975Y-79754855D01*
X61587347Y-79747689D01*
X61613500Y-79610592D01*
X61613500Y-77249421D01*
X61603924Y-77173620D01*
X61599497Y-77138574D01*
X61599496Y-77138571D01*
X61598503Y-77130709D01*
X61539769Y-76982364D01*
X61528955Y-76967479D01*
X61481283Y-76901865D01*
X61445989Y-76853286D01*
X61323054Y-76751585D01*
X61249688Y-76717062D01*
X61185858Y-76687026D01*
X61185855Y-76687025D01*
X61178689Y-76683653D01*
X61088892Y-76666523D01*
X61047433Y-76658614D01*
X61047430Y-76658614D01*
X61041592Y-76657500D01*
X60188421Y-76657500D01*
X60131970Y-76664632D01*
X60077574Y-76671503D01*
X60077571Y-76671504D01*
X60069709Y-76672497D01*
X60062342Y-76675414D01*
X60062341Y-76675414D01*
X60061119Y-76675898D01*
X59921364Y-76731231D01*
X59914953Y-76735889D01*
X59914951Y-76735890D01*
X59856825Y-76778121D01*
X59792286Y-76825011D01*
X59690585Y-76947946D01*
X59687213Y-76955112D01*
X59631773Y-77072930D01*
X59622653Y-77092311D01*
X59617236Y-77120709D01*
X59603704Y-77191646D01*
X59596500Y-77229408D01*
X59070972Y-77229408D01*
X59063924Y-77173620D01*
X59059497Y-77138574D01*
X59059496Y-77138571D01*
X59058503Y-77130709D01*
X58999769Y-76982364D01*
X58988955Y-76967479D01*
X58941283Y-76901865D01*
X58905989Y-76853286D01*
X58783054Y-76751585D01*
X58709688Y-76717062D01*
X58645858Y-76687026D01*
X58645855Y-76687025D01*
X58638689Y-76683653D01*
X58548892Y-76666523D01*
X58507433Y-76658614D01*
X58507430Y-76658614D01*
X58501592Y-76657500D01*
X57648421Y-76657500D01*
X57591970Y-76664632D01*
X57537574Y-76671503D01*
X57537571Y-76671504D01*
X57529709Y-76672497D01*
X57522342Y-76675414D01*
X57522341Y-76675414D01*
X57521119Y-76675898D01*
X57381364Y-76731231D01*
X57374953Y-76735889D01*
X57374951Y-76735890D01*
X57316825Y-76778121D01*
X57252286Y-76825011D01*
X57150585Y-76947946D01*
X57147213Y-76955112D01*
X57091773Y-77072930D01*
X57082653Y-77092311D01*
X57077236Y-77120709D01*
X57063704Y-77191646D01*
X57056500Y-77229408D01*
X56530972Y-77229408D01*
X56523924Y-77173620D01*
X56519497Y-77138574D01*
X56519496Y-77138571D01*
X56518503Y-77130709D01*
X56459769Y-76982364D01*
X56448955Y-76967479D01*
X56401283Y-76901865D01*
X56365989Y-76853286D01*
X56243054Y-76751585D01*
X56169688Y-76717062D01*
X56105858Y-76687026D01*
X56105855Y-76687025D01*
X56098689Y-76683653D01*
X55983889Y-76661753D01*
X55920724Y-76629342D01*
X55885109Y-76567925D01*
X55881500Y-76537986D01*
X55881500Y-73960213D01*
X55901502Y-73892092D01*
X55918405Y-73871118D01*
X56121118Y-73668405D01*
X56183430Y-73634379D01*
X56210213Y-73631500D01*
X62736118Y-73631500D01*
X62804239Y-73651502D01*
X62850732Y-73705158D01*
X62860836Y-73775432D01*
X62835069Y-73835505D01*
X62808060Y-73869766D01*
X62805029Y-73878397D01*
X62799708Y-73885843D01*
X62796724Y-73895821D01*
X62796723Y-73895823D01*
X62785026Y-73934935D01*
X62783193Y-73940576D01*
X62766225Y-73988893D01*
X62765500Y-73997265D01*
X62765500Y-73999974D01*
X62765487Y-74000267D01*
X62763531Y-74006809D01*
X62763940Y-74017216D01*
X62765403Y-74054445D01*
X62765500Y-74059393D01*
X62765500Y-74974078D01*
X62763963Y-74988524D01*
X62764255Y-74988549D01*
X62763500Y-74997267D01*
X62763500Y-76541985D01*
X62743498Y-76610106D01*
X62689842Y-76656599D01*
X62653293Y-76666991D01*
X62609709Y-76672497D01*
X62602342Y-76675414D01*
X62602341Y-76675414D01*
X62601119Y-76675898D01*
X62461364Y-76731231D01*
X62454953Y-76735889D01*
X62454951Y-76735890D01*
X62396825Y-76778121D01*
X62332286Y-76825011D01*
X62230585Y-76947946D01*
X62227213Y-76955112D01*
X62171773Y-77072930D01*
X62162653Y-77092311D01*
X62157236Y-77120709D01*
X62143704Y-77191646D01*
X62136500Y-77229408D01*
X62136500Y-79590579D01*
X62151497Y-79709291D01*
X62210231Y-79857636D01*
X62214889Y-79864047D01*
X62214890Y-79864049D01*
X62235237Y-79892054D01*
X62304011Y-79986714D01*
X62426946Y-80088415D01*
X62434112Y-80091787D01*
X62564142Y-80152974D01*
X62564145Y-80152975D01*
X62571311Y-80156347D01*
X62635003Y-80168497D01*
X62702567Y-80181386D01*
X62702570Y-80181386D01*
X62708408Y-80182500D01*
X63561579Y-80182500D01*
X63618030Y-80175368D01*
X63672426Y-80168497D01*
X63672429Y-80168496D01*
X63680291Y-80167503D01*
X63687658Y-80164586D01*
X63687659Y-80164586D01*
X63721276Y-80151276D01*
X63828636Y-80108769D01*
X63835652Y-80103672D01*
X63951301Y-80019648D01*
X63957714Y-80014989D01*
X64059415Y-79892054D01*
X64091789Y-79823255D01*
X64123974Y-79754858D01*
X64123975Y-79754855D01*
X64127347Y-79747689D01*
X64153500Y-79610592D01*
X64153500Y-77249421D01*
X64150972Y-77229408D01*
X64676500Y-77229408D01*
X64676500Y-79590579D01*
X64691497Y-79709291D01*
X64750231Y-79857636D01*
X64754889Y-79864047D01*
X64754890Y-79864049D01*
X64775237Y-79892054D01*
X64844011Y-79986714D01*
X64966946Y-80088415D01*
X64974112Y-80091787D01*
X65104142Y-80152974D01*
X65104145Y-80152975D01*
X65111311Y-80156347D01*
X65175003Y-80168497D01*
X65242567Y-80181386D01*
X65242570Y-80181386D01*
X65248408Y-80182500D01*
X66101579Y-80182500D01*
X66158030Y-80175368D01*
X66212426Y-80168497D01*
X66212429Y-80168496D01*
X66220291Y-80167503D01*
X66227658Y-80164586D01*
X66227659Y-80164586D01*
X66261276Y-80151276D01*
X66368636Y-80108769D01*
X66375652Y-80103672D01*
X66491301Y-80019648D01*
X66497714Y-80014989D01*
X66599415Y-79892054D01*
X66631789Y-79823255D01*
X66663974Y-79754858D01*
X66663975Y-79754855D01*
X66667347Y-79747689D01*
X66693500Y-79610592D01*
X66693500Y-77249421D01*
X66690972Y-77229408D01*
X67216500Y-77229408D01*
X67216500Y-79590579D01*
X67231497Y-79709291D01*
X67290231Y-79857636D01*
X67294889Y-79864047D01*
X67294890Y-79864049D01*
X67315237Y-79892054D01*
X67384011Y-79986714D01*
X67506946Y-80088415D01*
X67514112Y-80091787D01*
X67644142Y-80152974D01*
X67644145Y-80152975D01*
X67651311Y-80156347D01*
X67715003Y-80168497D01*
X67782567Y-80181386D01*
X67782570Y-80181386D01*
X67788408Y-80182500D01*
X68641579Y-80182500D01*
X68698030Y-80175368D01*
X68752426Y-80168497D01*
X68752429Y-80168496D01*
X68760291Y-80167503D01*
X68767658Y-80164586D01*
X68767659Y-80164586D01*
X68801276Y-80151276D01*
X68908636Y-80108769D01*
X68915652Y-80103672D01*
X69031301Y-80019648D01*
X69037714Y-80014989D01*
X69139415Y-79892054D01*
X69171789Y-79823255D01*
X69203974Y-79754858D01*
X69203975Y-79754855D01*
X69207347Y-79747689D01*
X69233500Y-79610592D01*
X69233500Y-77249421D01*
X69230972Y-77229408D01*
X69756500Y-77229408D01*
X69756500Y-79590579D01*
X69771497Y-79709291D01*
X69830231Y-79857636D01*
X69834889Y-79864047D01*
X69834890Y-79864049D01*
X69855237Y-79892054D01*
X69924011Y-79986714D01*
X70046946Y-80088415D01*
X70054112Y-80091787D01*
X70184142Y-80152974D01*
X70184145Y-80152975D01*
X70191311Y-80156347D01*
X70255003Y-80168497D01*
X70322567Y-80181386D01*
X70322570Y-80181386D01*
X70328408Y-80182500D01*
X71181579Y-80182500D01*
X71238030Y-80175368D01*
X71292426Y-80168497D01*
X71292429Y-80168496D01*
X71300291Y-80167503D01*
X71307658Y-80164586D01*
X71307659Y-80164586D01*
X71341276Y-80151276D01*
X71448636Y-80108769D01*
X71455652Y-80103672D01*
X71571301Y-80019648D01*
X71577714Y-80014989D01*
X71679415Y-79892054D01*
X71711789Y-79823255D01*
X71743974Y-79754858D01*
X71743975Y-79754855D01*
X71747347Y-79747689D01*
X71773500Y-79610592D01*
X71773500Y-77249421D01*
X71770972Y-77229408D01*
X72296500Y-77229408D01*
X72296500Y-79590579D01*
X72311497Y-79709291D01*
X72370231Y-79857636D01*
X72374889Y-79864047D01*
X72374890Y-79864049D01*
X72395237Y-79892054D01*
X72464011Y-79986714D01*
X72586946Y-80088415D01*
X72594112Y-80091787D01*
X72724142Y-80152974D01*
X72724145Y-80152975D01*
X72731311Y-80156347D01*
X72795003Y-80168497D01*
X72862567Y-80181386D01*
X72862570Y-80181386D01*
X72868408Y-80182500D01*
X73721579Y-80182500D01*
X73778030Y-80175368D01*
X73832426Y-80168497D01*
X73832429Y-80168496D01*
X73840291Y-80167503D01*
X73847658Y-80164586D01*
X73847659Y-80164586D01*
X73881276Y-80151276D01*
X73988636Y-80108769D01*
X73995652Y-80103672D01*
X74111301Y-80019648D01*
X74117714Y-80014989D01*
X74219415Y-79892054D01*
X74251789Y-79823255D01*
X74283974Y-79754858D01*
X74283975Y-79754855D01*
X74287347Y-79747689D01*
X74313500Y-79610592D01*
X74313500Y-78140548D01*
X82346000Y-78140548D01*
X82346000Y-78630432D01*
X82346636Y-78639352D01*
X82360186Y-78733969D01*
X82365175Y-78751031D01*
X82417479Y-78866068D01*
X82427048Y-78881030D01*
X82509536Y-78976764D01*
X82522930Y-78988447D01*
X82628961Y-79057173D01*
X82645104Y-79064632D01*
X82768231Y-79101455D01*
X82781265Y-79103859D01*
X82785062Y-79104000D01*
X83454885Y-79104000D01*
X83470124Y-79099525D01*
X83471329Y-79098135D01*
X83473000Y-79090452D01*
X83473000Y-78145115D01*
X83471659Y-78140548D01*
X83727000Y-78140548D01*
X83727000Y-79085885D01*
X83731475Y-79101124D01*
X83732865Y-79102329D01*
X83740548Y-79104000D01*
X84380432Y-79104000D01*
X84389352Y-79103364D01*
X84483969Y-79089814D01*
X84501031Y-79084825D01*
X84616068Y-79032521D01*
X84631030Y-79022952D01*
X84726764Y-78940464D01*
X84738447Y-78927070D01*
X84807173Y-78821039D01*
X84814632Y-78804896D01*
X84851455Y-78681769D01*
X84853859Y-78668735D01*
X84854000Y-78664938D01*
X84854000Y-78145115D01*
X84852659Y-78140548D01*
X88746000Y-78140548D01*
X88746000Y-78630432D01*
X88746636Y-78639352D01*
X88760186Y-78733969D01*
X88765175Y-78751031D01*
X88817479Y-78866068D01*
X88827048Y-78881030D01*
X88909536Y-78976764D01*
X88922930Y-78988447D01*
X89028961Y-79057173D01*
X89045104Y-79064632D01*
X89168231Y-79101455D01*
X89181265Y-79103859D01*
X89185062Y-79104000D01*
X89854885Y-79104000D01*
X89870124Y-79099525D01*
X89871329Y-79098135D01*
X89873000Y-79090452D01*
X89873000Y-78145115D01*
X89871659Y-78140548D01*
X90127000Y-78140548D01*
X90127000Y-79085885D01*
X90131475Y-79101124D01*
X90132865Y-79102329D01*
X90140548Y-79104000D01*
X90780432Y-79104000D01*
X90789352Y-79103364D01*
X90883969Y-79089814D01*
X90901031Y-79084825D01*
X91016068Y-79032521D01*
X91031030Y-79022952D01*
X91126764Y-78940464D01*
X91138447Y-78927070D01*
X91207173Y-78821039D01*
X91214632Y-78804896D01*
X91251455Y-78681769D01*
X91253859Y-78668735D01*
X91254000Y-78664938D01*
X91254000Y-78145115D01*
X91249525Y-78129876D01*
X91248135Y-78128671D01*
X91240452Y-78127000D01*
X90145115Y-78127000D01*
X90129876Y-78131475D01*
X90128671Y-78132865D01*
X90127000Y-78140548D01*
X89871659Y-78140548D01*
X89868525Y-78129876D01*
X89867135Y-78128671D01*
X89859452Y-78127000D01*
X88764115Y-78127000D01*
X88748876Y-78131475D01*
X88747671Y-78132865D01*
X88746000Y-78140548D01*
X84852659Y-78140548D01*
X84849525Y-78129876D01*
X84848135Y-78128671D01*
X84840452Y-78127000D01*
X83745115Y-78127000D01*
X83729876Y-78131475D01*
X83728671Y-78132865D01*
X83727000Y-78140548D01*
X83471659Y-78140548D01*
X83468525Y-78129876D01*
X83467135Y-78128671D01*
X83459452Y-78127000D01*
X82364115Y-78127000D01*
X82348876Y-78131475D01*
X82347671Y-78132865D01*
X82346000Y-78140548D01*
X74313500Y-78140548D01*
X74313500Y-77249421D01*
X74303924Y-77173620D01*
X74299497Y-77138574D01*
X74299496Y-77138571D01*
X74298503Y-77130709D01*
X74239769Y-76982364D01*
X74228955Y-76967479D01*
X74181283Y-76901865D01*
X74145989Y-76853286D01*
X74023054Y-76751585D01*
X73949688Y-76717062D01*
X73885858Y-76687026D01*
X73885855Y-76687025D01*
X73878689Y-76683653D01*
X73788892Y-76666523D01*
X73747433Y-76658614D01*
X73747430Y-76658614D01*
X73741592Y-76657500D01*
X72888421Y-76657500D01*
X72831970Y-76664632D01*
X72777574Y-76671503D01*
X72777571Y-76671504D01*
X72769709Y-76672497D01*
X72762342Y-76675414D01*
X72762341Y-76675414D01*
X72761119Y-76675898D01*
X72621364Y-76731231D01*
X72614953Y-76735889D01*
X72614951Y-76735890D01*
X72556825Y-76778121D01*
X72492286Y-76825011D01*
X72390585Y-76947946D01*
X72387213Y-76955112D01*
X72331773Y-77072930D01*
X72322653Y-77092311D01*
X72317236Y-77120709D01*
X72303704Y-77191646D01*
X72296500Y-77229408D01*
X71770972Y-77229408D01*
X71763924Y-77173620D01*
X71759497Y-77138574D01*
X71759496Y-77138571D01*
X71758503Y-77130709D01*
X71699769Y-76982364D01*
X71688955Y-76967479D01*
X71641283Y-76901865D01*
X71605989Y-76853286D01*
X71483054Y-76751585D01*
X71409688Y-76717062D01*
X71345858Y-76687026D01*
X71345855Y-76687025D01*
X71338689Y-76683653D01*
X71248892Y-76666523D01*
X71207433Y-76658614D01*
X71207430Y-76658614D01*
X71201592Y-76657500D01*
X70348421Y-76657500D01*
X70291970Y-76664632D01*
X70237574Y-76671503D01*
X70237571Y-76671504D01*
X70229709Y-76672497D01*
X70222342Y-76675414D01*
X70222341Y-76675414D01*
X70221119Y-76675898D01*
X70081364Y-76731231D01*
X70074953Y-76735889D01*
X70074951Y-76735890D01*
X70016825Y-76778121D01*
X69952286Y-76825011D01*
X69850585Y-76947946D01*
X69847213Y-76955112D01*
X69791773Y-77072930D01*
X69782653Y-77092311D01*
X69777236Y-77120709D01*
X69763704Y-77191646D01*
X69756500Y-77229408D01*
X69230972Y-77229408D01*
X69223924Y-77173620D01*
X69219497Y-77138574D01*
X69219496Y-77138571D01*
X69218503Y-77130709D01*
X69159769Y-76982364D01*
X69148955Y-76967479D01*
X69101283Y-76901865D01*
X69065989Y-76853286D01*
X68943054Y-76751585D01*
X68869688Y-76717062D01*
X68805858Y-76687026D01*
X68805855Y-76687025D01*
X68798689Y-76683653D01*
X68708892Y-76666523D01*
X68667433Y-76658614D01*
X68667430Y-76658614D01*
X68661592Y-76657500D01*
X67808421Y-76657500D01*
X67751970Y-76664632D01*
X67697574Y-76671503D01*
X67697571Y-76671504D01*
X67689709Y-76672497D01*
X67682342Y-76675414D01*
X67682341Y-76675414D01*
X67681119Y-76675898D01*
X67541364Y-76731231D01*
X67534953Y-76735889D01*
X67534951Y-76735890D01*
X67476825Y-76778121D01*
X67412286Y-76825011D01*
X67310585Y-76947946D01*
X67307213Y-76955112D01*
X67251773Y-77072930D01*
X67242653Y-77092311D01*
X67237236Y-77120709D01*
X67223704Y-77191646D01*
X67216500Y-77229408D01*
X66690972Y-77229408D01*
X66683924Y-77173620D01*
X66679497Y-77138574D01*
X66679496Y-77138571D01*
X66678503Y-77130709D01*
X66619769Y-76982364D01*
X66608955Y-76967479D01*
X66561283Y-76901865D01*
X66525989Y-76853286D01*
X66403054Y-76751585D01*
X66329688Y-76717062D01*
X66265858Y-76687026D01*
X66265855Y-76687025D01*
X66258689Y-76683653D01*
X66168892Y-76666523D01*
X66127433Y-76658614D01*
X66127430Y-76658614D01*
X66121592Y-76657500D01*
X65268421Y-76657500D01*
X65211970Y-76664632D01*
X65157574Y-76671503D01*
X65157571Y-76671504D01*
X65149709Y-76672497D01*
X65142342Y-76675414D01*
X65142341Y-76675414D01*
X65141119Y-76675898D01*
X65001364Y-76731231D01*
X64994953Y-76735889D01*
X64994951Y-76735890D01*
X64936825Y-76778121D01*
X64872286Y-76825011D01*
X64770585Y-76947946D01*
X64767213Y-76955112D01*
X64711773Y-77072930D01*
X64702653Y-77092311D01*
X64697236Y-77120709D01*
X64683704Y-77191646D01*
X64676500Y-77229408D01*
X64150972Y-77229408D01*
X64143924Y-77173620D01*
X64139497Y-77138574D01*
X64139496Y-77138571D01*
X64138503Y-77130709D01*
X64079769Y-76982364D01*
X64068955Y-76967479D01*
X64021283Y-76901865D01*
X63985989Y-76853286D01*
X63863054Y-76751585D01*
X63789688Y-76717062D01*
X63725858Y-76687026D01*
X63725855Y-76687025D01*
X63718689Y-76683653D01*
X63628889Y-76666523D01*
X63565724Y-76634111D01*
X63530109Y-76572694D01*
X63526500Y-76542755D01*
X63526500Y-75024960D01*
X63525646Y-75019828D01*
X63525218Y-75014653D01*
X63525500Y-75014630D01*
X63524500Y-75002531D01*
X63524500Y-74264384D01*
X63544502Y-74196263D01*
X63561405Y-74175289D01*
X63602319Y-74134375D01*
X63664631Y-74100349D01*
X63691414Y-74097470D01*
X64009486Y-74097470D01*
X64077607Y-74117472D01*
X64124100Y-74171128D01*
X64134204Y-74241402D01*
X64131531Y-74254791D01*
X64095700Y-74394343D01*
X64095700Y-74559657D01*
X64136812Y-74719778D01*
X64216453Y-74864644D01*
X64221877Y-74870420D01*
X64276380Y-74928459D01*
X64329619Y-74985153D01*
X64469199Y-75073733D01*
X64476738Y-75076183D01*
X64476741Y-75076184D01*
X64618884Y-75122369D01*
X64618886Y-75122369D01*
X64626422Y-75124818D01*
X64634331Y-75125316D01*
X64634333Y-75125316D01*
X64708916Y-75130009D01*
X64791410Y-75135199D01*
X64799194Y-75133714D01*
X64799196Y-75133714D01*
X64946013Y-75105707D01*
X64946014Y-75105707D01*
X64953797Y-75104222D01*
X65103378Y-75033834D01*
X65109483Y-75028784D01*
X65109487Y-75028781D01*
X65224647Y-74933512D01*
X65230755Y-74928459D01*
X65296627Y-74837794D01*
X65323265Y-74801130D01*
X65323266Y-74801128D01*
X65327924Y-74794717D01*
X65333690Y-74780155D01*
X65385864Y-74648380D01*
X65385865Y-74648376D01*
X65388781Y-74641011D01*
X65389906Y-74641456D01*
X65422236Y-74587141D01*
X65485767Y-74555451D01*
X65507965Y-74553480D01*
X77274349Y-74553480D01*
X77342470Y-74573482D01*
X77388963Y-74627138D01*
X77398117Y-74703090D01*
X77376500Y-74816408D01*
X77376500Y-77177579D01*
X77379766Y-77203433D01*
X77389672Y-77281841D01*
X77391497Y-77296291D01*
X77394414Y-77303658D01*
X77394414Y-77303659D01*
X77399029Y-77315315D01*
X77450231Y-77444636D01*
X77454889Y-77451047D01*
X77454890Y-77451049D01*
X77475237Y-77479054D01*
X77544011Y-77573714D01*
X77666946Y-77675415D01*
X77674112Y-77678787D01*
X77804142Y-77739974D01*
X77804145Y-77739975D01*
X77811311Y-77743347D01*
X77854501Y-77751586D01*
X77942567Y-77768386D01*
X77942570Y-77768386D01*
X77948408Y-77769500D01*
X78801579Y-77769500D01*
X78858030Y-77762368D01*
X78912426Y-77755497D01*
X78912429Y-77755496D01*
X78920291Y-77754503D01*
X78927658Y-77751586D01*
X78927659Y-77751586D01*
X78961276Y-77738276D01*
X79068636Y-77695769D01*
X79197714Y-77601989D01*
X79299415Y-77479054D01*
X79319078Y-77437267D01*
X79363974Y-77341858D01*
X79363975Y-77341855D01*
X79367171Y-77335062D01*
X82346000Y-77335062D01*
X82346000Y-77854885D01*
X82350475Y-77870124D01*
X82351865Y-77871329D01*
X82359548Y-77873000D01*
X83454885Y-77873000D01*
X83470124Y-77868525D01*
X83471329Y-77867135D01*
X83473000Y-77859452D01*
X83473000Y-76914115D01*
X83471659Y-76909548D01*
X83727000Y-76909548D01*
X83727000Y-77854885D01*
X83731475Y-77870124D01*
X83732865Y-77871329D01*
X83740548Y-77873000D01*
X84835885Y-77873000D01*
X84851124Y-77868525D01*
X84852329Y-77867135D01*
X84854000Y-77859452D01*
X84854000Y-77369568D01*
X84853364Y-77360648D01*
X84849700Y-77335062D01*
X88746000Y-77335062D01*
X88746000Y-77854885D01*
X88750475Y-77870124D01*
X88751865Y-77871329D01*
X88759548Y-77873000D01*
X89854885Y-77873000D01*
X89870124Y-77868525D01*
X89871329Y-77867135D01*
X89873000Y-77859452D01*
X89873000Y-76914115D01*
X89871659Y-76909548D01*
X90127000Y-76909548D01*
X90127000Y-77854885D01*
X90131475Y-77870124D01*
X90132865Y-77871329D01*
X90140548Y-77873000D01*
X91235885Y-77873000D01*
X91251124Y-77868525D01*
X91252329Y-77867135D01*
X91254000Y-77859452D01*
X91254000Y-77584352D01*
X99642414Y-77584352D01*
X99642949Y-77588870D01*
X99642949Y-77588876D01*
X99661408Y-77744832D01*
X99674048Y-77851623D01*
X99743932Y-78111528D01*
X99850603Y-78358622D01*
X99852994Y-78362500D01*
X99852994Y-78362501D01*
X99921318Y-78473342D01*
X99991827Y-78587729D01*
X100164644Y-78794050D01*
X100365435Y-78973263D01*
X100589993Y-79121613D01*
X100594127Y-79123554D01*
X100594129Y-79123555D01*
X100606775Y-79129492D01*
X100833615Y-79235993D01*
X100837972Y-79237313D01*
X100837973Y-79237313D01*
X101086826Y-79312683D01*
X101086833Y-79312685D01*
X101091196Y-79314006D01*
X101357341Y-79354020D01*
X101361906Y-79354040D01*
X101361907Y-79354040D01*
X101488556Y-79354592D01*
X101626474Y-79355194D01*
X101651867Y-79351603D01*
X101888442Y-79318144D01*
X101888446Y-79318143D01*
X101892958Y-79317505D01*
X102151211Y-79241742D01*
X102176444Y-79230163D01*
X102391673Y-79131396D01*
X102391679Y-79131393D01*
X102395821Y-79129492D01*
X102621665Y-78983107D01*
X102824012Y-78805654D01*
X102885129Y-78733969D01*
X102995660Y-78604326D01*
X102995663Y-78604323D01*
X102998624Y-78600849D01*
X103001051Y-78596987D01*
X103001055Y-78596982D01*
X103139412Y-78376847D01*
X103139413Y-78376845D01*
X103141841Y-78372982D01*
X103143683Y-78368816D01*
X103143686Y-78368810D01*
X103248820Y-78131001D01*
X103248822Y-78130996D01*
X103250664Y-78126829D01*
X103322814Y-77867544D01*
X103344667Y-77695769D01*
X103356384Y-77603666D01*
X103356384Y-77603663D01*
X103356779Y-77600560D01*
X103357506Y-77573714D01*
X103359415Y-77503137D01*
X103359500Y-77500000D01*
X103340023Y-77231570D01*
X103333811Y-77203433D01*
X103282986Y-76973222D01*
X103282985Y-76973218D01*
X103282001Y-76968762D01*
X103217584Y-76798738D01*
X103188266Y-76721354D01*
X103188265Y-76721351D01*
X103186648Y-76717084D01*
X103093666Y-76549684D01*
X103058181Y-76485799D01*
X103058180Y-76485798D01*
X103055963Y-76481806D01*
X102920418Y-76304199D01*
X102895455Y-76271490D01*
X102895454Y-76271489D01*
X102892683Y-76267858D01*
X102700229Y-76079721D01*
X102482631Y-75921337D01*
X102357276Y-75855385D01*
X102248489Y-75798149D01*
X102248483Y-75798146D01*
X102244449Y-75796024D01*
X102133473Y-75756834D01*
X101994985Y-75707928D01*
X101994984Y-75707928D01*
X101990672Y-75706405D01*
X101863160Y-75681273D01*
X101731088Y-75655241D01*
X101731082Y-75655240D01*
X101726616Y-75654360D01*
X101722063Y-75654133D01*
X101722060Y-75654133D01*
X101462382Y-75641206D01*
X101462376Y-75641206D01*
X101457813Y-75640979D01*
X101189894Y-75666540D01*
X101185460Y-75667625D01*
X101185454Y-75667626D01*
X100932908Y-75729424D01*
X100928470Y-75730510D01*
X100679020Y-75831548D01*
X100446768Y-75967537D01*
X100346633Y-76047617D01*
X100296333Y-76087843D01*
X100236579Y-76135629D01*
X100052857Y-76332303D01*
X100005657Y-76400341D01*
X99902053Y-76549684D01*
X99902050Y-76549690D01*
X99899450Y-76553437D01*
X99897418Y-76557522D01*
X99897416Y-76557525D01*
X99847431Y-76658000D01*
X99779573Y-76794401D01*
X99778152Y-76798735D01*
X99778151Y-76798738D01*
X99703375Y-77026841D01*
X99695735Y-77050146D01*
X99649694Y-77315315D01*
X99648226Y-77369568D01*
X99644697Y-77500000D01*
X99642414Y-77584352D01*
X91254000Y-77584352D01*
X91254000Y-77369568D01*
X91253364Y-77360648D01*
X91239814Y-77266031D01*
X91234825Y-77248969D01*
X91182521Y-77133932D01*
X91172952Y-77118970D01*
X91090464Y-77023236D01*
X91077070Y-77011553D01*
X90971039Y-76942827D01*
X90954896Y-76935368D01*
X90831769Y-76898545D01*
X90818735Y-76896141D01*
X90814938Y-76896000D01*
X90145115Y-76896000D01*
X90129876Y-76900475D01*
X90128671Y-76901865D01*
X90127000Y-76909548D01*
X89871659Y-76909548D01*
X89868525Y-76898876D01*
X89867135Y-76897671D01*
X89859452Y-76896000D01*
X89219568Y-76896000D01*
X89210648Y-76896636D01*
X89116031Y-76910186D01*
X89098969Y-76915175D01*
X88983932Y-76967479D01*
X88968970Y-76977048D01*
X88873236Y-77059536D01*
X88861553Y-77072930D01*
X88792827Y-77178961D01*
X88785368Y-77195104D01*
X88748545Y-77318231D01*
X88746141Y-77331265D01*
X88746000Y-77335062D01*
X84849700Y-77335062D01*
X84839814Y-77266031D01*
X84834825Y-77248969D01*
X84782521Y-77133932D01*
X84772952Y-77118970D01*
X84690464Y-77023236D01*
X84677070Y-77011553D01*
X84571039Y-76942827D01*
X84554896Y-76935368D01*
X84431769Y-76898545D01*
X84418735Y-76896141D01*
X84414938Y-76896000D01*
X83745115Y-76896000D01*
X83729876Y-76900475D01*
X83728671Y-76901865D01*
X83727000Y-76909548D01*
X83471659Y-76909548D01*
X83468525Y-76898876D01*
X83467135Y-76897671D01*
X83459452Y-76896000D01*
X82819568Y-76896000D01*
X82810648Y-76896636D01*
X82716031Y-76910186D01*
X82698969Y-76915175D01*
X82583932Y-76967479D01*
X82568970Y-76977048D01*
X82473236Y-77059536D01*
X82461553Y-77072930D01*
X82392827Y-77178961D01*
X82385368Y-77195104D01*
X82348545Y-77318231D01*
X82346141Y-77331265D01*
X82346000Y-77335062D01*
X79367171Y-77335062D01*
X79367347Y-77334689D01*
X79386150Y-77236121D01*
X79392386Y-77203433D01*
X79392386Y-77203430D01*
X79393500Y-77197592D01*
X79393500Y-74836421D01*
X79378503Y-74717709D01*
X79375711Y-74710658D01*
X79378142Y-74639856D01*
X79418551Y-74581481D01*
X79484106Y-74554221D01*
X79497749Y-74553480D01*
X82532838Y-74553480D01*
X82600959Y-74573482D01*
X82647452Y-74627138D01*
X82657556Y-74697412D01*
X82628004Y-74762060D01*
X82546739Y-74855710D01*
X82475198Y-74979373D01*
X82448826Y-75024960D01*
X82441203Y-75038136D01*
X82439234Y-75043805D01*
X82439233Y-75043808D01*
X82389010Y-75188434D01*
X82372066Y-75237228D01*
X82371205Y-75243166D01*
X82351940Y-75376040D01*
X82341825Y-75445801D01*
X82351569Y-75656330D01*
X82352973Y-75662155D01*
X82393797Y-75831548D01*
X82400947Y-75861218D01*
X82403429Y-75866676D01*
X82403430Y-75866680D01*
X82449287Y-75967537D01*
X82488178Y-76053072D01*
X82610114Y-76224970D01*
X82762355Y-76370709D01*
X82939408Y-76485031D01*
X82944974Y-76487274D01*
X83129316Y-76561566D01*
X83129319Y-76561567D01*
X83134885Y-76563810D01*
X83238589Y-76584062D01*
X83337286Y-76603337D01*
X83337289Y-76603337D01*
X83341732Y-76604205D01*
X83347764Y-76604500D01*
X83802406Y-76604500D01*
X83959801Y-76589483D01*
X84162033Y-76530155D01*
X84195784Y-76512772D01*
X84344066Y-76436402D01*
X84344069Y-76436400D01*
X84349397Y-76433656D01*
X84425394Y-76373960D01*
X84510416Y-76307175D01*
X84510421Y-76307171D01*
X84515133Y-76303469D01*
X84519704Y-76298202D01*
X84649329Y-76148821D01*
X84653261Y-76144290D01*
X84758797Y-75961864D01*
X84772871Y-75921337D01*
X84825965Y-75768442D01*
X84827934Y-75762772D01*
X84841950Y-75666106D01*
X84857314Y-75560139D01*
X84857314Y-75560136D01*
X84858175Y-75554199D01*
X84848431Y-75343670D01*
X84841846Y-75316344D01*
X84800459Y-75144615D01*
X84800458Y-75144613D01*
X84799053Y-75138782D01*
X84792931Y-75125316D01*
X84714302Y-74952383D01*
X84711822Y-74946928D01*
X84594717Y-74781841D01*
X84593352Y-74779916D01*
X84593351Y-74779915D01*
X84589886Y-74775030D01*
X84585558Y-74770887D01*
X84585553Y-74770881D01*
X84585151Y-74770496D01*
X84585012Y-74770254D01*
X84581636Y-74766343D01*
X84582390Y-74765692D01*
X84549775Y-74708940D01*
X84553296Y-74638031D01*
X84594594Y-74580281D01*
X84660557Y-74554027D01*
X84672283Y-74553480D01*
X88932838Y-74553480D01*
X89000959Y-74573482D01*
X89047452Y-74627138D01*
X89057556Y-74697412D01*
X89028004Y-74762060D01*
X88946739Y-74855710D01*
X88875198Y-74979373D01*
X88848826Y-75024960D01*
X88841203Y-75038136D01*
X88839234Y-75043805D01*
X88839233Y-75043808D01*
X88789010Y-75188434D01*
X88772066Y-75237228D01*
X88771205Y-75243166D01*
X88751940Y-75376040D01*
X88741825Y-75445801D01*
X88751569Y-75656330D01*
X88752973Y-75662155D01*
X88793797Y-75831548D01*
X88800947Y-75861218D01*
X88803429Y-75866676D01*
X88803430Y-75866680D01*
X88849287Y-75967537D01*
X88888178Y-76053072D01*
X89010114Y-76224970D01*
X89162355Y-76370709D01*
X89339408Y-76485031D01*
X89344974Y-76487274D01*
X89529316Y-76561566D01*
X89529319Y-76561567D01*
X89534885Y-76563810D01*
X89638589Y-76584062D01*
X89737286Y-76603337D01*
X89737289Y-76603337D01*
X89741732Y-76604205D01*
X89747764Y-76604500D01*
X90202406Y-76604500D01*
X90359801Y-76589483D01*
X90562033Y-76530155D01*
X90595784Y-76512772D01*
X90744066Y-76436402D01*
X90744069Y-76436400D01*
X90749397Y-76433656D01*
X90825394Y-76373960D01*
X90910416Y-76307175D01*
X90910421Y-76307171D01*
X90915133Y-76303469D01*
X90919704Y-76298202D01*
X91008562Y-76195801D01*
X94316825Y-76195801D01*
X94326569Y-76406330D01*
X94327973Y-76412155D01*
X94374048Y-76603337D01*
X94375947Y-76611218D01*
X94378429Y-76616676D01*
X94378430Y-76616680D01*
X94426023Y-76721354D01*
X94463178Y-76803072D01*
X94542698Y-76915175D01*
X94565945Y-76947946D01*
X94585114Y-76974970D01*
X94737355Y-77120709D01*
X94914408Y-77235031D01*
X94959938Y-77253380D01*
X95104316Y-77311566D01*
X95104319Y-77311567D01*
X95109885Y-77313810D01*
X95199265Y-77331265D01*
X95312286Y-77353337D01*
X95312289Y-77353337D01*
X95316732Y-77354205D01*
X95322764Y-77354500D01*
X95727406Y-77354500D01*
X95884801Y-77339483D01*
X96087033Y-77280155D01*
X96092361Y-77277411D01*
X96269066Y-77186402D01*
X96269069Y-77186400D01*
X96274397Y-77183656D01*
X96351182Y-77123341D01*
X96435416Y-77057175D01*
X96435421Y-77057171D01*
X96440133Y-77053469D01*
X96578261Y-76894290D01*
X96674028Y-76728751D01*
X96680790Y-76717062D01*
X96680790Y-76717061D01*
X96683797Y-76711864D01*
X96692257Y-76687504D01*
X96750965Y-76518442D01*
X96752934Y-76512772D01*
X96764942Y-76429952D01*
X96782314Y-76310139D01*
X96782314Y-76310136D01*
X96783175Y-76304199D01*
X96773431Y-76093670D01*
X96770840Y-76082916D01*
X96725459Y-75894615D01*
X96725458Y-75894613D01*
X96724053Y-75888782D01*
X96711521Y-75861218D01*
X96639302Y-75702383D01*
X96636822Y-75696928D01*
X96514886Y-75525030D01*
X96362645Y-75379291D01*
X96185592Y-75264969D01*
X96080433Y-75222589D01*
X95995684Y-75188434D01*
X95995681Y-75188433D01*
X95990115Y-75186190D01*
X95886411Y-75165938D01*
X95787714Y-75146663D01*
X95787711Y-75146663D01*
X95783268Y-75145795D01*
X95777236Y-75145500D01*
X95372594Y-75145500D01*
X95215199Y-75160517D01*
X95012967Y-75219845D01*
X95007640Y-75222589D01*
X95007639Y-75222589D01*
X94830934Y-75313598D01*
X94830931Y-75313600D01*
X94825603Y-75316344D01*
X94790815Y-75343670D01*
X94664584Y-75442825D01*
X94664579Y-75442829D01*
X94659867Y-75446531D01*
X94655936Y-75451061D01*
X94655935Y-75451062D01*
X94595344Y-75520888D01*
X94521739Y-75605710D01*
X94416203Y-75788136D01*
X94414234Y-75793805D01*
X94414233Y-75793808D01*
X94379227Y-75894615D01*
X94347066Y-75987228D01*
X94346205Y-75993166D01*
X94323637Y-76148821D01*
X94316825Y-76195801D01*
X91008562Y-76195801D01*
X91049329Y-76148821D01*
X91053261Y-76144290D01*
X91158797Y-75961864D01*
X91172871Y-75921337D01*
X91225965Y-75768442D01*
X91227934Y-75762772D01*
X91241950Y-75666106D01*
X91257314Y-75560139D01*
X91257314Y-75560136D01*
X91258175Y-75554199D01*
X91248431Y-75343670D01*
X91241846Y-75316344D01*
X91200459Y-75144615D01*
X91200458Y-75144613D01*
X91199053Y-75138782D01*
X91192931Y-75125316D01*
X91114302Y-74952383D01*
X91111822Y-74946928D01*
X90994717Y-74781841D01*
X90993352Y-74779916D01*
X90993351Y-74779915D01*
X90989886Y-74775030D01*
X90985558Y-74770887D01*
X90985553Y-74770881D01*
X90985151Y-74770496D01*
X90985012Y-74770254D01*
X90981636Y-74766343D01*
X90982390Y-74765692D01*
X90949775Y-74708940D01*
X90953296Y-74638031D01*
X90994594Y-74580281D01*
X91060557Y-74554027D01*
X91072283Y-74553480D01*
X94616539Y-74553480D01*
X94684660Y-74573482D01*
X94703668Y-74588461D01*
X94737355Y-74620709D01*
X94914408Y-74735031D01*
X94919974Y-74737274D01*
X95104316Y-74811566D01*
X95104319Y-74811567D01*
X95109885Y-74813810D01*
X95205538Y-74832490D01*
X95312286Y-74853337D01*
X95312289Y-74853337D01*
X95316732Y-74854205D01*
X95322764Y-74854500D01*
X95727406Y-74854500D01*
X95884801Y-74839483D01*
X96087033Y-74780155D01*
X96122167Y-74762060D01*
X96269066Y-74686402D01*
X96269069Y-74686400D01*
X96274397Y-74683656D01*
X96350394Y-74623960D01*
X96435416Y-74557175D01*
X96435421Y-74557171D01*
X96440133Y-74553469D01*
X96578261Y-74394290D01*
X96683797Y-74211864D01*
X96752934Y-74012772D01*
X96763401Y-73940582D01*
X96782314Y-73810139D01*
X96782314Y-73810136D01*
X96783175Y-73804199D01*
X96773431Y-73593670D01*
X96769025Y-73575385D01*
X96725459Y-73394615D01*
X96725458Y-73394613D01*
X96724053Y-73388782D01*
X96675929Y-73282938D01*
X96663376Y-73255331D01*
X96636822Y-73196928D01*
X96531493Y-73048441D01*
X96518352Y-73029916D01*
X96518351Y-73029915D01*
X96514886Y-73025030D01*
X96362645Y-72879291D01*
X96185592Y-72764969D01*
X96080433Y-72722589D01*
X95995684Y-72688434D01*
X95995681Y-72688433D01*
X95990115Y-72686190D01*
X95886411Y-72665938D01*
X95787714Y-72646663D01*
X95787711Y-72646663D01*
X95783268Y-72645795D01*
X95777236Y-72645500D01*
X95372594Y-72645500D01*
X95215199Y-72660517D01*
X95012967Y-72719845D01*
X95007640Y-72722589D01*
X95007639Y-72722589D01*
X94830934Y-72813598D01*
X94830931Y-72813600D01*
X94825603Y-72816344D01*
X94820888Y-72820048D01*
X94664584Y-72942825D01*
X94664579Y-72942829D01*
X94659867Y-72946531D01*
X94521739Y-73105710D01*
X94416203Y-73288136D01*
X94414234Y-73293805D01*
X94414233Y-73293808D01*
X94379227Y-73394615D01*
X94347066Y-73487228D01*
X94346205Y-73493166D01*
X94318745Y-73682560D01*
X94289176Y-73747105D01*
X94229404Y-73785418D01*
X94194049Y-73790480D01*
X93853233Y-73790480D01*
X93785112Y-73770478D01*
X93738619Y-73716822D01*
X93728515Y-73646548D01*
X93758009Y-73581968D01*
X93764138Y-73575385D01*
X94032393Y-73307130D01*
X94048566Y-73294068D01*
X94051371Y-73291515D01*
X94060119Y-73285867D01*
X94066564Y-73277692D01*
X94066566Y-73277690D01*
X94079596Y-73261161D01*
X94084010Y-73256194D01*
X94083969Y-73256159D01*
X94087328Y-73252195D01*
X94091003Y-73248520D01*
X94103242Y-73231394D01*
X94106805Y-73226648D01*
X94132246Y-73194377D01*
X94132248Y-73194374D01*
X94138693Y-73186198D01*
X94141741Y-73177518D01*
X94147088Y-73170036D01*
X94161845Y-73120692D01*
X94163680Y-73115044D01*
X94178119Y-73073930D01*
X94178120Y-73073926D01*
X94180745Y-73066451D01*
X94181500Y-73057733D01*
X94181500Y-73054992D01*
X94181501Y-73054967D01*
X94183453Y-73048441D01*
X94181597Y-73001205D01*
X94181500Y-72996259D01*
X94181500Y-71765099D01*
X94201502Y-71696978D01*
X94255158Y-71650485D01*
X94325432Y-71640381D01*
X94390012Y-71669875D01*
X94422201Y-71712948D01*
X94463178Y-71803072D01*
X94585114Y-71974970D01*
X94737355Y-72120709D01*
X94914408Y-72235031D01*
X94919974Y-72237274D01*
X95104316Y-72311566D01*
X95104319Y-72311567D01*
X95109885Y-72313810D01*
X95173975Y-72326326D01*
X95312286Y-72353337D01*
X95312289Y-72353337D01*
X95316732Y-72354205D01*
X95322764Y-72354500D01*
X95727406Y-72354500D01*
X95884801Y-72339483D01*
X96087033Y-72280155D01*
X96104424Y-72271198D01*
X96269066Y-72186402D01*
X96269069Y-72186400D01*
X96274397Y-72183656D01*
X96353662Y-72121393D01*
X96435416Y-72057175D01*
X96435421Y-72057171D01*
X96440133Y-72053469D01*
X96468641Y-72020617D01*
X96518828Y-71962781D01*
X96578261Y-71894290D01*
X96683797Y-71711864D01*
X96688967Y-71696978D01*
X96750965Y-71518442D01*
X96752934Y-71512772D01*
X96783175Y-71304199D01*
X96773431Y-71093670D01*
X96747779Y-70987228D01*
X96725459Y-70894615D01*
X96725458Y-70894613D01*
X96724053Y-70888782D01*
X96706346Y-70849836D01*
X96668011Y-70765524D01*
X96636822Y-70696928D01*
X96514886Y-70525030D01*
X96362645Y-70379291D01*
X96185592Y-70264969D01*
X96080433Y-70222589D01*
X95995684Y-70188434D01*
X95995681Y-70188433D01*
X95990115Y-70186190D01*
X95886411Y-70165938D01*
X95787714Y-70146663D01*
X95787711Y-70146663D01*
X95783268Y-70145795D01*
X95777236Y-70145500D01*
X95372594Y-70145500D01*
X95215199Y-70160517D01*
X95012967Y-70219845D01*
X95007640Y-70222589D01*
X95007639Y-70222589D01*
X94830934Y-70313598D01*
X94830931Y-70313600D01*
X94825603Y-70316344D01*
X94820888Y-70320048D01*
X94664584Y-70442825D01*
X94664579Y-70442829D01*
X94659867Y-70446531D01*
X94521739Y-70605710D01*
X94453065Y-70724417D01*
X94416564Y-70787512D01*
X94365139Y-70836461D01*
X94295414Y-70849836D01*
X94229526Y-70823392D01*
X94188394Y-70765524D01*
X94181500Y-70724417D01*
X94181500Y-69265099D01*
X94201502Y-69196978D01*
X94255158Y-69150485D01*
X94325432Y-69140381D01*
X94390012Y-69169875D01*
X94422201Y-69212948D01*
X94463178Y-69303072D01*
X94585114Y-69474970D01*
X94737355Y-69620709D01*
X94914408Y-69735031D01*
X94919974Y-69737274D01*
X95104316Y-69811566D01*
X95104319Y-69811567D01*
X95109885Y-69813810D01*
X95213589Y-69834062D01*
X95312286Y-69853337D01*
X95312289Y-69853337D01*
X95316732Y-69854205D01*
X95322764Y-69854500D01*
X95727406Y-69854500D01*
X95884801Y-69839483D01*
X96087033Y-69780155D01*
X96130005Y-69758023D01*
X96269066Y-69686402D01*
X96269069Y-69686400D01*
X96274397Y-69683656D01*
X96350394Y-69623960D01*
X96435416Y-69557175D01*
X96435421Y-69557171D01*
X96440133Y-69553469D01*
X96578261Y-69394290D01*
X96683797Y-69211864D01*
X96688967Y-69196978D01*
X96750965Y-69018442D01*
X96752934Y-69012772D01*
X96783175Y-68804199D01*
X96773431Y-68593670D01*
X96749152Y-68492925D01*
X96725459Y-68394615D01*
X96725458Y-68394613D01*
X96724053Y-68388782D01*
X96719536Y-68378846D01*
X96639302Y-68202383D01*
X96636822Y-68196928D01*
X96514886Y-68025030D01*
X96362645Y-67879291D01*
X96185592Y-67764969D01*
X96121070Y-67738966D01*
X95995684Y-67688434D01*
X95995681Y-67688433D01*
X95990115Y-67686190D01*
X95886411Y-67665938D01*
X95787714Y-67646663D01*
X95787711Y-67646663D01*
X95783268Y-67645795D01*
X95777236Y-67645500D01*
X95372594Y-67645500D01*
X95215199Y-67660517D01*
X95012967Y-67719845D01*
X95007640Y-67722589D01*
X95007639Y-67722589D01*
X94830934Y-67813598D01*
X94830931Y-67813600D01*
X94825603Y-67816344D01*
X94820888Y-67820048D01*
X94664584Y-67942825D01*
X94664579Y-67942829D01*
X94659867Y-67946531D01*
X94655936Y-67951061D01*
X94655935Y-67951062D01*
X94613469Y-68000000D01*
X94521739Y-68105710D01*
X94416203Y-68288136D01*
X94414237Y-68293797D01*
X94413707Y-68294955D01*
X94367162Y-68348565D01*
X94299145Y-68368500D01*
X94102844Y-68368500D01*
X94082166Y-68366300D01*
X94078386Y-68366122D01*
X94068206Y-68363930D01*
X94036967Y-68367627D01*
X94030335Y-68368018D01*
X94030339Y-68368072D01*
X94025163Y-68368500D01*
X94019960Y-68368500D01*
X93999172Y-68371960D01*
X93993328Y-68372792D01*
X93942169Y-68378846D01*
X93933876Y-68382828D01*
X93924806Y-68384338D01*
X93915644Y-68389281D01*
X93915645Y-68389281D01*
X93879480Y-68408794D01*
X93874195Y-68411487D01*
X93827760Y-68433785D01*
X93821062Y-68439416D01*
X93819131Y-68441347D01*
X93819105Y-68441370D01*
X93813111Y-68444605D01*
X93806041Y-68452253D01*
X93806040Y-68452254D01*
X93800024Y-68458762D01*
X93739095Y-68495206D01*
X93668135Y-68492925D01*
X93609673Y-68452642D01*
X93582271Y-68387146D01*
X93581500Y-68373232D01*
X93581500Y-67010214D01*
X93601502Y-66942093D01*
X93618404Y-66921119D01*
X93871117Y-66668405D01*
X93933430Y-66634380D01*
X93960213Y-66631500D01*
X94304045Y-66631500D01*
X94372166Y-66651502D01*
X94418746Y-66705349D01*
X94463178Y-66803072D01*
X94585114Y-66974970D01*
X94737355Y-67120709D01*
X94914408Y-67235031D01*
X94919974Y-67237274D01*
X95104316Y-67311566D01*
X95104319Y-67311567D01*
X95109885Y-67313810D01*
X95213589Y-67334062D01*
X95312286Y-67353337D01*
X95312289Y-67353337D01*
X95316732Y-67354205D01*
X95322764Y-67354500D01*
X95727406Y-67354500D01*
X95884801Y-67339483D01*
X96087033Y-67280155D01*
X96092361Y-67277411D01*
X96269066Y-67186402D01*
X96269069Y-67186400D01*
X96274397Y-67183656D01*
X96350394Y-67123960D01*
X96435416Y-67057175D01*
X96435421Y-67057171D01*
X96440133Y-67053469D01*
X96578261Y-66894290D01*
X96683797Y-66711864D01*
X96686060Y-66705349D01*
X96750965Y-66518442D01*
X96752934Y-66512772D01*
X96772372Y-66378707D01*
X96782314Y-66310139D01*
X96782314Y-66310136D01*
X96783175Y-66304199D01*
X96773431Y-66093670D01*
X96746733Y-65982887D01*
X96725459Y-65894615D01*
X96725458Y-65894613D01*
X96724053Y-65888782D01*
X96719536Y-65878846D01*
X96639302Y-65702383D01*
X96636822Y-65696928D01*
X96514886Y-65525030D01*
X96377404Y-65393420D01*
X96366975Y-65383436D01*
X96362645Y-65379291D01*
X96185592Y-65264969D01*
X96080433Y-65222589D01*
X95995684Y-65188434D01*
X95995681Y-65188433D01*
X95990115Y-65186190D01*
X95874333Y-65163579D01*
X95787714Y-65146663D01*
X95787711Y-65146663D01*
X95783268Y-65145795D01*
X95777236Y-65145500D01*
X95372594Y-65145500D01*
X95215199Y-65160517D01*
X95012967Y-65219845D01*
X95007640Y-65222589D01*
X95007639Y-65222589D01*
X94830934Y-65313598D01*
X94830931Y-65313600D01*
X94825603Y-65316344D01*
X94820888Y-65320048D01*
X94664584Y-65442825D01*
X94664579Y-65442829D01*
X94659867Y-65446531D01*
X94655936Y-65451061D01*
X94655935Y-65451062D01*
X94620693Y-65491675D01*
X94521739Y-65605710D01*
X94416203Y-65788136D01*
X94414237Y-65793797D01*
X94413707Y-65794955D01*
X94367162Y-65848565D01*
X94299145Y-65868500D01*
X93802844Y-65868500D01*
X93782166Y-65866300D01*
X93778386Y-65866122D01*
X93768206Y-65863930D01*
X93736967Y-65867627D01*
X93730335Y-65868018D01*
X93730339Y-65868072D01*
X93725163Y-65868500D01*
X93719960Y-65868500D01*
X93699172Y-65871960D01*
X93693328Y-65872792D01*
X93642169Y-65878846D01*
X93633876Y-65882828D01*
X93624806Y-65884338D01*
X93615644Y-65889281D01*
X93615645Y-65889281D01*
X93579480Y-65908794D01*
X93574195Y-65911487D01*
X93527760Y-65933785D01*
X93521062Y-65939416D01*
X93519131Y-65941347D01*
X93519105Y-65941370D01*
X93513111Y-65944605D01*
X93506042Y-65952252D01*
X93506041Y-65952253D01*
X93481021Y-65979320D01*
X93477591Y-65982887D01*
X92967604Y-66492873D01*
X92951428Y-66505937D01*
X92948627Y-66508486D01*
X92939881Y-66514133D01*
X92933436Y-66522308D01*
X92933434Y-66522310D01*
X92920404Y-66538839D01*
X92915991Y-66543805D01*
X92916032Y-66543840D01*
X92912674Y-66547803D01*
X92908997Y-66551480D01*
X92896742Y-66568630D01*
X92893203Y-66573343D01*
X92861307Y-66613802D01*
X92858260Y-66622480D01*
X92852912Y-66629963D01*
X92849928Y-66639941D01*
X92849926Y-66639945D01*
X92838155Y-66679306D01*
X92836320Y-66684954D01*
X92825045Y-66717062D01*
X92819255Y-66733549D01*
X92818500Y-66742267D01*
X92818500Y-66745008D01*
X92818499Y-66745032D01*
X92816547Y-66751559D01*
X92816956Y-66761965D01*
X92818403Y-66798794D01*
X92818500Y-66803741D01*
X92818500Y-72085784D01*
X92798498Y-72153905D01*
X92744842Y-72200398D01*
X92674568Y-72210502D01*
X92609988Y-72181008D01*
X92597046Y-72168031D01*
X92568498Y-72134899D01*
X92453225Y-72060182D01*
X92444628Y-72057611D01*
X92444626Y-72057610D01*
X92365653Y-72033992D01*
X92321614Y-72020822D01*
X92312638Y-72020767D01*
X92312637Y-72020767D01*
X92253975Y-72020409D01*
X92184246Y-72019983D01*
X92175614Y-72022450D01*
X92060795Y-72055265D01*
X92060793Y-72055266D01*
X92052164Y-72057732D01*
X92044577Y-72062519D01*
X92044575Y-72062520D01*
X91947199Y-72123960D01*
X91935986Y-72131035D01*
X91845051Y-72233998D01*
X91841237Y-72242121D01*
X91841236Y-72242123D01*
X91827712Y-72270929D01*
X91819748Y-72287893D01*
X91815919Y-72296048D01*
X91768863Y-72349210D01*
X91701864Y-72368500D01*
X83555452Y-72368500D01*
X83487331Y-72348498D01*
X83440838Y-72294842D01*
X83430734Y-72224568D01*
X83442059Y-72187563D01*
X83457650Y-72155383D01*
X83457650Y-72155382D01*
X83461564Y-72147304D01*
X83481478Y-72028940D01*
X83483548Y-72016634D01*
X83483548Y-72016633D01*
X83484355Y-72011837D01*
X83484500Y-72000000D01*
X83470056Y-71899142D01*
X83466300Y-71872910D01*
X83466299Y-71872907D01*
X83465026Y-71864017D01*
X83408168Y-71738966D01*
X83402308Y-71732165D01*
X83401350Y-71730667D01*
X83381500Y-71662783D01*
X83381500Y-69652850D01*
X83383702Y-69632160D01*
X83383880Y-69628384D01*
X83386071Y-69618207D01*
X83382373Y-69586962D01*
X83381982Y-69580335D01*
X83381928Y-69580339D01*
X83381500Y-69575160D01*
X83381500Y-69569960D01*
X83380647Y-69564834D01*
X83380646Y-69564825D01*
X83378046Y-69549205D01*
X83377209Y-69543329D01*
X83372378Y-69502510D01*
X83372378Y-69502509D01*
X83371154Y-69492170D01*
X83367172Y-69483877D01*
X83365662Y-69474806D01*
X83360717Y-69465641D01*
X83360715Y-69465636D01*
X83341208Y-69429484D01*
X83338511Y-69424191D01*
X83319647Y-69384905D01*
X83319645Y-69384901D01*
X83316216Y-69377761D01*
X83310585Y-69371062D01*
X83308647Y-69369124D01*
X83308629Y-69369105D01*
X83305395Y-69363111D01*
X83270678Y-69331019D01*
X83267113Y-69327590D01*
X82536118Y-68596595D01*
X82502092Y-68534283D01*
X82507157Y-68463468D01*
X82549704Y-68406632D01*
X82616224Y-68381821D01*
X82625213Y-68381500D01*
X83469484Y-68381500D01*
X83539303Y-68402613D01*
X83580978Y-68430354D01*
X83591417Y-68437303D01*
X83675166Y-68463468D01*
X83703788Y-68472410D01*
X83722538Y-68478268D01*
X83859885Y-68480785D01*
X83940664Y-68458762D01*
X83983755Y-68447014D01*
X83983756Y-68447014D01*
X83992418Y-68444652D01*
X84000068Y-68439955D01*
X84000070Y-68439954D01*
X84101835Y-68377470D01*
X84101836Y-68377470D01*
X84109483Y-68372774D01*
X84201669Y-68270929D01*
X84208578Y-68256670D01*
X84257650Y-68155383D01*
X84257650Y-68155382D01*
X84261564Y-68147304D01*
X84284355Y-68011837D01*
X84284500Y-68000000D01*
X84267807Y-67883436D01*
X84266300Y-67872910D01*
X84266299Y-67872907D01*
X84265026Y-67864017D01*
X84261308Y-67855839D01*
X84211884Y-67747138D01*
X84211883Y-67747136D01*
X84208168Y-67738966D01*
X84197054Y-67726067D01*
X84124359Y-67641701D01*
X84118498Y-67634899D01*
X84003225Y-67560182D01*
X83994628Y-67557611D01*
X83994626Y-67557610D01*
X83915653Y-67533992D01*
X83871614Y-67520822D01*
X83862638Y-67520767D01*
X83862637Y-67520767D01*
X83803975Y-67520409D01*
X83734246Y-67519983D01*
X83725614Y-67522450D01*
X83610795Y-67555265D01*
X83610793Y-67555266D01*
X83602164Y-67557732D01*
X83594573Y-67562521D01*
X83594572Y-67562522D01*
X83536659Y-67599062D01*
X83469424Y-67618500D01*
X82460213Y-67618500D01*
X82392092Y-67598498D01*
X82371117Y-67581595D01*
X82005116Y-67215593D01*
X81992052Y-67199417D01*
X81989503Y-67196616D01*
X81983856Y-67187870D01*
X81975681Y-67181425D01*
X81975679Y-67181423D01*
X81959150Y-67168393D01*
X81954184Y-67163980D01*
X81954149Y-67164021D01*
X81950186Y-67160663D01*
X81946509Y-67156986D01*
X81929359Y-67144731D01*
X81924636Y-67141185D01*
X81924023Y-67140701D01*
X81908351Y-67128346D01*
X81892364Y-67115742D01*
X81892362Y-67115741D01*
X81884187Y-67109296D01*
X81875509Y-67106249D01*
X81868026Y-67100901D01*
X81858048Y-67097917D01*
X81858044Y-67097915D01*
X81818683Y-67086144D01*
X81813035Y-67084309D01*
X81771922Y-67069871D01*
X81771919Y-67069870D01*
X81764440Y-67067244D01*
X81755722Y-67066489D01*
X81752981Y-67066489D01*
X81752957Y-67066488D01*
X81746430Y-67064536D01*
X81699195Y-67066392D01*
X81694248Y-67066489D01*
X81187879Y-67066489D01*
X81167206Y-67064289D01*
X81163421Y-67064111D01*
X81153241Y-67061919D01*
X81122771Y-67065525D01*
X81122002Y-67065616D01*
X81115371Y-67066007D01*
X81115375Y-67066061D01*
X81110199Y-67066489D01*
X81104994Y-67066489D01*
X81086435Y-67069578D01*
X81084240Y-67069943D01*
X81078364Y-67070780D01*
X81037544Y-67075611D01*
X81037543Y-67075611D01*
X81027204Y-67076835D01*
X81018911Y-67080817D01*
X81009840Y-67082327D01*
X81000679Y-67087270D01*
X81000676Y-67087271D01*
X80964508Y-67106787D01*
X80959255Y-67109464D01*
X80912795Y-67131774D01*
X80906096Y-67137404D01*
X80904160Y-67139340D01*
X80904138Y-67139360D01*
X80898145Y-67142594D01*
X80891077Y-67150240D01*
X80866054Y-67177310D01*
X80862624Y-67180876D01*
X80615596Y-67427904D01*
X80599423Y-67440966D01*
X80596618Y-67443519D01*
X80587870Y-67449167D01*
X80581425Y-67457342D01*
X80581423Y-67457344D01*
X80568393Y-67473873D01*
X80563980Y-67478839D01*
X80564021Y-67478874D01*
X80560663Y-67482837D01*
X80556986Y-67486514D01*
X80544731Y-67503664D01*
X80541192Y-67508377D01*
X80515673Y-67540747D01*
X80515670Y-67540750D01*
X80509295Y-67548837D01*
X80508315Y-67548064D01*
X80505069Y-67551291D01*
X80507758Y-67553213D01*
X80496760Y-67568604D01*
X80493193Y-67573355D01*
X80467755Y-67605622D01*
X80467753Y-67605626D01*
X80461307Y-67613802D01*
X80458260Y-67622480D01*
X80452912Y-67629963D01*
X80449928Y-67639941D01*
X80449926Y-67639945D01*
X80438155Y-67679306D01*
X80436320Y-67684954D01*
X80423104Y-67722589D01*
X80419255Y-67733549D01*
X80418500Y-67742267D01*
X80418500Y-67745008D01*
X80418499Y-67745032D01*
X80416547Y-67751559D01*
X80416956Y-67761965D01*
X80418403Y-67798794D01*
X80418500Y-67803741D01*
X80418500Y-68147155D01*
X80416300Y-68167828D01*
X80416122Y-68171613D01*
X80413930Y-68181793D01*
X80415154Y-68192133D01*
X80417627Y-68213032D01*
X80418018Y-68219663D01*
X80418072Y-68219659D01*
X80418500Y-68224835D01*
X80418500Y-68230040D01*
X80419355Y-68235176D01*
X80421954Y-68250794D01*
X80422791Y-68256670D01*
X80428846Y-68307830D01*
X80432828Y-68316123D01*
X80434338Y-68325194D01*
X80439281Y-68334355D01*
X80439282Y-68334358D01*
X80446948Y-68348565D01*
X80458166Y-68369354D01*
X80458798Y-68370526D01*
X80461475Y-68375779D01*
X80483785Y-68422239D01*
X80489415Y-68428938D01*
X80491351Y-68430874D01*
X80491371Y-68430896D01*
X80494605Y-68436889D01*
X80502251Y-68443957D01*
X80529321Y-68468980D01*
X80532887Y-68472410D01*
X81781595Y-69721118D01*
X81815621Y-69783430D01*
X81818500Y-69810213D01*
X81818500Y-71662937D01*
X81798372Y-71730237D01*
X81795051Y-71733998D01*
X81736670Y-71858346D01*
X81735289Y-71867214D01*
X81735289Y-71867215D01*
X81716917Y-71985208D01*
X81716917Y-71985212D01*
X81715536Y-71994081D01*
X81716700Y-72002983D01*
X81716700Y-72002986D01*
X81731553Y-72116564D01*
X81733348Y-72130292D01*
X81749954Y-72168031D01*
X81760392Y-72191754D01*
X81769520Y-72262161D01*
X81739133Y-72326326D01*
X81678880Y-72363877D01*
X81645063Y-72368500D01*
X58958284Y-72368500D01*
X58890163Y-72348498D01*
X58841132Y-72288884D01*
X58840740Y-72287893D01*
X58808028Y-72205273D01*
X58794318Y-72186402D01*
X58715519Y-72077945D01*
X58710859Y-72071531D01*
X58683549Y-72048938D01*
X58589591Y-71971209D01*
X58589587Y-71971206D01*
X58583482Y-71966156D01*
X58433901Y-71895768D01*
X58426118Y-71894283D01*
X58426117Y-71894283D01*
X58279300Y-71866276D01*
X58279298Y-71866276D01*
X58271514Y-71864791D01*
X58189020Y-71869981D01*
X58114437Y-71874674D01*
X58114435Y-71874674D01*
X58106526Y-71875172D01*
X58098990Y-71877621D01*
X58098988Y-71877621D01*
X57956845Y-71923806D01*
X57956842Y-71923807D01*
X57949303Y-71926257D01*
X57809723Y-72014837D01*
X57804296Y-72020616D01*
X57804295Y-72020617D01*
X57710302Y-72120709D01*
X57696557Y-72135346D01*
X57616916Y-72280212D01*
X57575804Y-72440333D01*
X57575804Y-72605647D01*
X57590326Y-72662206D01*
X57602897Y-72711166D01*
X57600464Y-72782120D01*
X57560056Y-72840496D01*
X57494502Y-72867759D01*
X57480855Y-72868500D01*
X56052850Y-72868500D01*
X56032160Y-72866298D01*
X56028384Y-72866120D01*
X56018207Y-72863929D01*
X55987666Y-72867544D01*
X55986962Y-72867627D01*
X55980335Y-72868018D01*
X55980339Y-72868072D01*
X55975160Y-72868500D01*
X55969960Y-72868500D01*
X55964834Y-72869353D01*
X55964825Y-72869354D01*
X55949205Y-72871954D01*
X55943329Y-72872791D01*
X55902510Y-72877622D01*
X55902509Y-72877622D01*
X55892170Y-72878846D01*
X55883877Y-72882828D01*
X55874806Y-72884338D01*
X55865645Y-72889281D01*
X55865642Y-72889282D01*
X55829474Y-72908798D01*
X55824221Y-72911475D01*
X55777761Y-72933785D01*
X55771062Y-72939415D01*
X55769126Y-72941351D01*
X55769104Y-72941371D01*
X55763111Y-72944605D01*
X55756043Y-72952251D01*
X55731020Y-72979321D01*
X55727590Y-72982887D01*
X55267607Y-73442870D01*
X55251434Y-73455932D01*
X55248629Y-73458485D01*
X55239881Y-73464133D01*
X55233436Y-73472308D01*
X55233434Y-73472310D01*
X55220404Y-73488839D01*
X55215991Y-73493805D01*
X55216032Y-73493840D01*
X55212674Y-73497803D01*
X55208997Y-73501480D01*
X55196742Y-73518630D01*
X55193203Y-73523343D01*
X55161307Y-73563802D01*
X55158260Y-73572480D01*
X55152912Y-73579963D01*
X55149928Y-73589941D01*
X55149926Y-73589945D01*
X55138155Y-73629306D01*
X55136320Y-73634954D01*
X55132249Y-73646548D01*
X55119255Y-73683549D01*
X55118500Y-73692267D01*
X55118500Y-73695008D01*
X55118499Y-73695032D01*
X55116547Y-73701559D01*
X55116956Y-73711965D01*
X55118403Y-73748794D01*
X55118500Y-73753741D01*
X55118500Y-76545143D01*
X55098498Y-76613264D01*
X55044842Y-76659757D01*
X55008295Y-76670149D01*
X54989709Y-76672497D01*
X54982342Y-76675414D01*
X54982341Y-76675414D01*
X54981119Y-76675898D01*
X54841364Y-76731231D01*
X54834953Y-76735889D01*
X54834951Y-76735890D01*
X54776825Y-76778121D01*
X54712286Y-76825011D01*
X54610585Y-76947946D01*
X54607213Y-76955112D01*
X54551773Y-77072930D01*
X54542653Y-77092311D01*
X54537236Y-77120709D01*
X54523704Y-77191646D01*
X54516500Y-77229408D01*
X53990972Y-77229408D01*
X53983924Y-77173620D01*
X53979497Y-77138574D01*
X53979496Y-77138571D01*
X53978503Y-77130709D01*
X53919769Y-76982364D01*
X53908955Y-76967479D01*
X53861283Y-76901865D01*
X53825989Y-76853286D01*
X53703054Y-76751585D01*
X53629688Y-76717062D01*
X53565858Y-76687026D01*
X53565855Y-76687025D01*
X53558689Y-76683653D01*
X53468892Y-76666523D01*
X53427433Y-76658614D01*
X53427430Y-76658614D01*
X53421592Y-76657500D01*
X52568421Y-76657500D01*
X52511970Y-76664632D01*
X52457574Y-76671503D01*
X52457571Y-76671504D01*
X52449709Y-76672497D01*
X52442342Y-76675414D01*
X52442341Y-76675414D01*
X52441119Y-76675898D01*
X52301364Y-76731231D01*
X52294953Y-76735889D01*
X52294951Y-76735890D01*
X52236825Y-76778121D01*
X52172286Y-76825011D01*
X52070585Y-76947946D01*
X52067213Y-76955112D01*
X52011773Y-77072930D01*
X52002653Y-77092311D01*
X51997236Y-77120709D01*
X51983704Y-77191646D01*
X51976500Y-77229408D01*
X51450472Y-77229408D01*
X51439013Y-77138698D01*
X51435102Y-77123465D01*
X51382249Y-76989974D01*
X51374672Y-76976192D01*
X51290284Y-76860042D01*
X51279516Y-76848575D01*
X51168893Y-76757059D01*
X51155614Y-76748632D01*
X51025709Y-76687504D01*
X51010748Y-76682643D01*
X50887409Y-76659114D01*
X50875621Y-76658000D01*
X50032380Y-76658000D01*
X50024490Y-76658497D01*
X49917698Y-76671987D01*
X49902465Y-76675898D01*
X49768974Y-76728751D01*
X49755192Y-76736328D01*
X49639042Y-76820716D01*
X49627575Y-76831484D01*
X49536059Y-76942107D01*
X49527632Y-76955386D01*
X49494008Y-77026841D01*
X49446905Y-77079962D01*
X49378561Y-77099185D01*
X49310673Y-77078406D01*
X49264796Y-77024223D01*
X49254000Y-76973193D01*
X49254000Y-64917343D01*
X65095700Y-64917343D01*
X65095700Y-65082657D01*
X65136812Y-65242778D01*
X65216453Y-65387644D01*
X65221877Y-65393420D01*
X65276380Y-65451459D01*
X65329619Y-65508153D01*
X65469199Y-65596733D01*
X65476738Y-65599183D01*
X65476741Y-65599184D01*
X65618884Y-65645369D01*
X65618886Y-65645369D01*
X65626422Y-65647818D01*
X65634331Y-65648316D01*
X65634333Y-65648316D01*
X65708916Y-65653009D01*
X65791410Y-65658199D01*
X65799194Y-65656714D01*
X65799196Y-65656714D01*
X65946013Y-65628707D01*
X65946014Y-65628707D01*
X65953797Y-65627222D01*
X66103378Y-65556834D01*
X66148283Y-65519686D01*
X66213520Y-65491675D01*
X66283545Y-65503382D01*
X66336124Y-65551088D01*
X66354565Y-65619648D01*
X66350640Y-65648102D01*
X66345700Y-65667343D01*
X66345700Y-65832657D01*
X66386812Y-65992778D01*
X66442278Y-66093670D01*
X66462526Y-66130500D01*
X66466453Y-66137644D01*
X66471877Y-66143420D01*
X66526380Y-66201459D01*
X66579619Y-66258153D01*
X66719199Y-66346733D01*
X66726738Y-66349183D01*
X66726741Y-66349184D01*
X66868884Y-66395369D01*
X66868886Y-66395369D01*
X66876422Y-66397818D01*
X66884331Y-66398316D01*
X66884333Y-66398316D01*
X66958916Y-66403008D01*
X67041410Y-66408199D01*
X67049194Y-66406714D01*
X67049196Y-66406714D01*
X67196013Y-66378707D01*
X67196014Y-66378707D01*
X67203797Y-66377222D01*
X67353378Y-66306834D01*
X67359483Y-66301784D01*
X67359487Y-66301781D01*
X67474647Y-66206512D01*
X67480755Y-66201459D01*
X67493847Y-66183439D01*
X67550068Y-66140086D01*
X67595783Y-66131500D01*
X73780040Y-66131500D01*
X73785172Y-66130646D01*
X73790347Y-66130218D01*
X73790370Y-66130500D01*
X73802469Y-66129500D01*
X75997235Y-66129500D01*
X76017953Y-66131705D01*
X76021711Y-66131882D01*
X76031887Y-66134073D01*
X76063149Y-66130373D01*
X76069666Y-66129989D01*
X76069661Y-66129928D01*
X76074840Y-66129500D01*
X76080040Y-66129500D01*
X76085168Y-66128646D01*
X76085173Y-66128646D01*
X76100523Y-66126091D01*
X76106400Y-66125254D01*
X76124654Y-66123093D01*
X76157272Y-66119233D01*
X76165520Y-66115272D01*
X76174546Y-66113770D01*
X76219654Y-66089431D01*
X76224912Y-66086753D01*
X76263944Y-66068011D01*
X76263948Y-66068009D01*
X76271090Y-66064579D01*
X76277522Y-66059172D01*
X76279460Y-66057234D01*
X76279651Y-66057058D01*
X76285663Y-66053815D01*
X76292732Y-66046167D01*
X76292738Y-66046163D01*
X76318033Y-66018798D01*
X76321463Y-66015231D01*
X77171823Y-65164871D01*
X77234135Y-65130845D01*
X77304950Y-65135910D01*
X77361786Y-65178457D01*
X77385923Y-65238171D01*
X77391497Y-65282291D01*
X77450231Y-65430636D01*
X77454889Y-65437047D01*
X77454890Y-65437049D01*
X77475237Y-65465054D01*
X77544011Y-65559714D01*
X77666946Y-65661415D01*
X77674112Y-65664787D01*
X77804142Y-65725974D01*
X77804145Y-65725975D01*
X77811311Y-65729347D01*
X77854501Y-65737586D01*
X77942567Y-65754386D01*
X77942570Y-65754386D01*
X77948408Y-65755500D01*
X78801579Y-65755500D01*
X78858030Y-65748368D01*
X78912426Y-65741497D01*
X78912429Y-65741496D01*
X78920291Y-65740503D01*
X78927658Y-65737586D01*
X78927659Y-65737586D01*
X78961276Y-65724276D01*
X79068636Y-65681769D01*
X79077582Y-65675270D01*
X79154139Y-65619648D01*
X79197714Y-65587989D01*
X79299415Y-65465054D01*
X79339108Y-65380701D01*
X79363974Y-65327858D01*
X79363975Y-65327855D01*
X79367347Y-65320689D01*
X79393500Y-65183592D01*
X79393500Y-64590548D01*
X82321000Y-64590548D01*
X82321000Y-65080432D01*
X82321636Y-65089352D01*
X82335186Y-65183969D01*
X82340175Y-65201031D01*
X82392479Y-65316068D01*
X82402048Y-65331030D01*
X82484536Y-65426764D01*
X82497930Y-65438447D01*
X82603961Y-65507173D01*
X82620104Y-65514632D01*
X82743231Y-65551455D01*
X82756265Y-65553859D01*
X82760062Y-65554000D01*
X83429885Y-65554000D01*
X83445124Y-65549525D01*
X83446329Y-65548135D01*
X83448000Y-65540452D01*
X83448000Y-64595115D01*
X83446659Y-64590548D01*
X83702000Y-64590548D01*
X83702000Y-65535885D01*
X83706475Y-65551124D01*
X83707865Y-65552329D01*
X83715548Y-65554000D01*
X84355432Y-65554000D01*
X84364352Y-65553364D01*
X84458969Y-65539814D01*
X84476031Y-65534825D01*
X84591068Y-65482521D01*
X84606030Y-65472952D01*
X84701764Y-65390464D01*
X84713447Y-65377070D01*
X84782173Y-65271039D01*
X84789632Y-65254896D01*
X84826455Y-65131769D01*
X84828859Y-65118735D01*
X84829000Y-65114938D01*
X84829000Y-64595115D01*
X84827659Y-64590548D01*
X88746000Y-64590548D01*
X88746000Y-65080432D01*
X88746636Y-65089352D01*
X88760186Y-65183969D01*
X88765175Y-65201031D01*
X88817479Y-65316068D01*
X88827048Y-65331030D01*
X88909536Y-65426764D01*
X88922930Y-65438447D01*
X89028961Y-65507173D01*
X89045104Y-65514632D01*
X89168231Y-65551455D01*
X89181265Y-65553859D01*
X89185062Y-65554000D01*
X89854885Y-65554000D01*
X89870124Y-65549525D01*
X89871329Y-65548135D01*
X89873000Y-65540452D01*
X89873000Y-64595115D01*
X89871659Y-64590548D01*
X90127000Y-64590548D01*
X90127000Y-65535885D01*
X90131475Y-65551124D01*
X90132865Y-65552329D01*
X90140548Y-65554000D01*
X90780432Y-65554000D01*
X90789352Y-65553364D01*
X90883969Y-65539814D01*
X90901031Y-65534825D01*
X91016068Y-65482521D01*
X91031030Y-65472952D01*
X91126764Y-65390464D01*
X91138447Y-65377070D01*
X91207173Y-65271039D01*
X91214632Y-65254896D01*
X91251455Y-65131769D01*
X91253859Y-65118735D01*
X91254000Y-65114938D01*
X91254000Y-64595115D01*
X91249525Y-64579876D01*
X91248135Y-64578671D01*
X91240452Y-64577000D01*
X90145115Y-64577000D01*
X90129876Y-64581475D01*
X90128671Y-64582865D01*
X90127000Y-64590548D01*
X89871659Y-64590548D01*
X89868525Y-64579876D01*
X89867135Y-64578671D01*
X89859452Y-64577000D01*
X88764115Y-64577000D01*
X88748876Y-64581475D01*
X88747671Y-64582865D01*
X88746000Y-64590548D01*
X84827659Y-64590548D01*
X84824525Y-64579876D01*
X84823135Y-64578671D01*
X84815452Y-64577000D01*
X83720115Y-64577000D01*
X83704876Y-64581475D01*
X83703671Y-64582865D01*
X83702000Y-64590548D01*
X83446659Y-64590548D01*
X83443525Y-64579876D01*
X83442135Y-64578671D01*
X83434452Y-64577000D01*
X82339115Y-64577000D01*
X82323876Y-64581475D01*
X82322671Y-64582865D01*
X82321000Y-64590548D01*
X79393500Y-64590548D01*
X79393500Y-62822421D01*
X79386198Y-62764621D01*
X79379497Y-62711574D01*
X79379496Y-62711571D01*
X79378503Y-62703709D01*
X79368765Y-62679112D01*
X79319769Y-62555364D01*
X79322617Y-62554236D01*
X79310401Y-62498894D01*
X79335009Y-62432298D01*
X79391715Y-62389579D01*
X79436107Y-62381500D01*
X81289787Y-62381500D01*
X81357908Y-62401502D01*
X81378882Y-62418405D01*
X82369887Y-63409409D01*
X82382960Y-63425595D01*
X82385505Y-63428392D01*
X82385947Y-63429076D01*
X82386212Y-63429621D01*
X82386643Y-63430155D01*
X82391152Y-63437138D01*
X82390175Y-63437769D01*
X82416791Y-63492494D01*
X82408397Y-63562993D01*
X82398278Y-63581982D01*
X82367825Y-63628965D01*
X82360368Y-63645104D01*
X82323545Y-63768231D01*
X82321141Y-63781265D01*
X82321000Y-63785062D01*
X82321000Y-64304885D01*
X82325475Y-64320124D01*
X82326865Y-64321329D01*
X82334548Y-64323000D01*
X84810885Y-64323000D01*
X84826124Y-64318525D01*
X84827329Y-64317135D01*
X84829000Y-64309452D01*
X84829000Y-63819568D01*
X84828364Y-63810648D01*
X84824700Y-63785062D01*
X88746000Y-63785062D01*
X88746000Y-64304885D01*
X88750475Y-64320124D01*
X88751865Y-64321329D01*
X88759548Y-64323000D01*
X89854885Y-64323000D01*
X89870124Y-64318525D01*
X89871329Y-64317135D01*
X89873000Y-64309452D01*
X89873000Y-63364115D01*
X89871659Y-63359548D01*
X90127000Y-63359548D01*
X90127000Y-64304885D01*
X90131475Y-64320124D01*
X90132865Y-64321329D01*
X90140548Y-64323000D01*
X91235885Y-64323000D01*
X91251124Y-64318525D01*
X91252329Y-64317135D01*
X91254000Y-64309452D01*
X91254000Y-63890548D01*
X94321000Y-63890548D01*
X94321000Y-64380432D01*
X94321636Y-64389352D01*
X94335186Y-64483969D01*
X94340175Y-64501031D01*
X94392479Y-64616068D01*
X94402048Y-64631030D01*
X94484536Y-64726764D01*
X94497930Y-64738447D01*
X94603961Y-64807173D01*
X94620104Y-64814632D01*
X94743231Y-64851455D01*
X94756265Y-64853859D01*
X94760062Y-64854000D01*
X95404885Y-64854000D01*
X95420124Y-64849525D01*
X95421329Y-64848135D01*
X95423000Y-64840452D01*
X95423000Y-63895115D01*
X95421659Y-63890548D01*
X95677000Y-63890548D01*
X95677000Y-64835885D01*
X95681475Y-64851124D01*
X95682865Y-64852329D01*
X95690548Y-64854000D01*
X96305432Y-64854000D01*
X96314352Y-64853364D01*
X96408969Y-64839814D01*
X96426031Y-64834825D01*
X96541068Y-64782521D01*
X96556030Y-64772952D01*
X96651764Y-64690464D01*
X96663447Y-64677070D01*
X96732173Y-64571039D01*
X96739632Y-64554896D01*
X96776455Y-64431769D01*
X96778859Y-64418735D01*
X96779000Y-64414938D01*
X96779000Y-63895115D01*
X96774525Y-63879876D01*
X96773135Y-63878671D01*
X96765452Y-63877000D01*
X95695115Y-63877000D01*
X95679876Y-63881475D01*
X95678671Y-63882865D01*
X95677000Y-63890548D01*
X95421659Y-63890548D01*
X95418525Y-63879876D01*
X95417135Y-63878671D01*
X95409452Y-63877000D01*
X94339115Y-63877000D01*
X94323876Y-63881475D01*
X94322671Y-63882865D01*
X94321000Y-63890548D01*
X91254000Y-63890548D01*
X91254000Y-63819568D01*
X91253364Y-63810648D01*
X91239814Y-63716031D01*
X91234825Y-63698969D01*
X91182521Y-63583932D01*
X91172952Y-63568970D01*
X91090464Y-63473236D01*
X91077070Y-63461553D01*
X90971039Y-63392827D01*
X90954896Y-63385368D01*
X90831769Y-63348545D01*
X90818735Y-63346141D01*
X90814938Y-63346000D01*
X90145115Y-63346000D01*
X90129876Y-63350475D01*
X90128671Y-63351865D01*
X90127000Y-63359548D01*
X89871659Y-63359548D01*
X89868525Y-63348876D01*
X89867135Y-63347671D01*
X89859452Y-63346000D01*
X89219568Y-63346000D01*
X89210648Y-63346636D01*
X89116031Y-63360186D01*
X89098969Y-63365175D01*
X88983932Y-63417479D01*
X88968970Y-63427048D01*
X88873236Y-63509536D01*
X88861553Y-63522930D01*
X88792827Y-63628961D01*
X88785368Y-63645104D01*
X88748545Y-63768231D01*
X88746141Y-63781265D01*
X88746000Y-63785062D01*
X84824700Y-63785062D01*
X84814814Y-63716031D01*
X84809825Y-63698969D01*
X84757521Y-63583932D01*
X84747952Y-63568969D01*
X84695922Y-63508586D01*
X84666608Y-63443923D01*
X84676907Y-63373678D01*
X84702277Y-63337246D01*
X84954461Y-63085062D01*
X94321000Y-63085062D01*
X94321000Y-63604885D01*
X94325475Y-63620124D01*
X94326865Y-63621329D01*
X94334548Y-63623000D01*
X95404885Y-63623000D01*
X95420124Y-63618525D01*
X95421329Y-63617135D01*
X95423000Y-63609452D01*
X95423000Y-62664115D01*
X95421659Y-62659548D01*
X95677000Y-62659548D01*
X95677000Y-63604885D01*
X95681475Y-63620124D01*
X95682865Y-63621329D01*
X95690548Y-63623000D01*
X96760885Y-63623000D01*
X96776124Y-63618525D01*
X96777329Y-63617135D01*
X96779000Y-63609452D01*
X96779000Y-63119568D01*
X96778364Y-63110648D01*
X96764814Y-63016031D01*
X96759825Y-62998969D01*
X96707521Y-62883932D01*
X96697952Y-62868970D01*
X96615464Y-62773236D01*
X96602070Y-62761553D01*
X96496039Y-62692827D01*
X96479896Y-62685368D01*
X96356769Y-62648545D01*
X96343735Y-62646141D01*
X96339938Y-62646000D01*
X95695115Y-62646000D01*
X95679876Y-62650475D01*
X95678671Y-62651865D01*
X95677000Y-62659548D01*
X95421659Y-62659548D01*
X95418525Y-62648876D01*
X95417135Y-62647671D01*
X95409452Y-62646000D01*
X94794568Y-62646000D01*
X94785648Y-62646636D01*
X94691031Y-62660186D01*
X94673969Y-62665175D01*
X94558932Y-62717479D01*
X94543970Y-62727048D01*
X94448236Y-62809536D01*
X94436553Y-62822930D01*
X94367827Y-62928961D01*
X94360368Y-62945104D01*
X94323545Y-63068231D01*
X94321141Y-63081265D01*
X94321000Y-63085062D01*
X84954461Y-63085062D01*
X85621118Y-62418404D01*
X85683429Y-62384380D01*
X85710212Y-62381500D01*
X88751779Y-62381500D01*
X88819900Y-62401502D01*
X88866479Y-62455348D01*
X88888178Y-62503072D01*
X88891641Y-62507955D01*
X88891644Y-62507959D01*
X88962037Y-62607194D01*
X89010114Y-62674970D01*
X89100560Y-62761553D01*
X89150684Y-62809536D01*
X89162355Y-62820709D01*
X89339408Y-62935031D01*
X89367348Y-62946291D01*
X89529316Y-63011566D01*
X89529319Y-63011567D01*
X89534885Y-63013810D01*
X89638589Y-63034062D01*
X89737286Y-63053337D01*
X89737289Y-63053337D01*
X89741732Y-63054205D01*
X89747764Y-63054500D01*
X90202406Y-63054500D01*
X90359801Y-63039483D01*
X90562033Y-62980155D01*
X90630089Y-62945104D01*
X90744066Y-62886402D01*
X90744069Y-62886400D01*
X90749397Y-62883656D01*
X90801391Y-62842815D01*
X90910416Y-62757175D01*
X90910421Y-62757171D01*
X90915133Y-62753469D01*
X90946364Y-62717479D01*
X91008267Y-62646141D01*
X91053261Y-62594290D01*
X91059010Y-62584352D01*
X99642414Y-62584352D01*
X99642949Y-62588870D01*
X99642949Y-62588876D01*
X99663753Y-62764646D01*
X99674048Y-62851623D01*
X99743932Y-63111528D01*
X99850603Y-63358622D01*
X99852994Y-63362500D01*
X99852994Y-63362501D01*
X99964060Y-63542682D01*
X99991827Y-63587729D01*
X100164644Y-63794050D01*
X100365435Y-63973263D01*
X100589993Y-64121613D01*
X100594127Y-64123554D01*
X100594129Y-64123555D01*
X100736963Y-64190615D01*
X100833615Y-64235993D01*
X100837972Y-64237313D01*
X100837973Y-64237313D01*
X101086826Y-64312683D01*
X101086833Y-64312685D01*
X101091196Y-64314006D01*
X101357341Y-64354020D01*
X101361906Y-64354040D01*
X101361907Y-64354040D01*
X101488556Y-64354592D01*
X101626474Y-64355194D01*
X101710671Y-64343286D01*
X101888442Y-64318144D01*
X101888446Y-64318143D01*
X101892958Y-64317505D01*
X102151211Y-64241742D01*
X102262625Y-64190615D01*
X102391673Y-64131396D01*
X102391679Y-64131393D01*
X102395821Y-64129492D01*
X102621665Y-63983107D01*
X102808146Y-63819568D01*
X102820581Y-63808663D01*
X102820582Y-63808662D01*
X102824012Y-63805654D01*
X102841568Y-63785062D01*
X102995660Y-63604326D01*
X102995663Y-63604323D01*
X102998624Y-63600849D01*
X103001051Y-63596987D01*
X103001055Y-63596982D01*
X103139412Y-63376847D01*
X103139413Y-63376845D01*
X103141841Y-63372982D01*
X103143683Y-63368816D01*
X103143686Y-63368810D01*
X103248820Y-63131001D01*
X103248822Y-63130996D01*
X103250664Y-63126829D01*
X103293141Y-62974178D01*
X103321590Y-62871944D01*
X103321591Y-62871939D01*
X103322814Y-62867544D01*
X103350632Y-62648876D01*
X103356384Y-62603666D01*
X103356384Y-62603663D01*
X103356779Y-62600560D01*
X103358033Y-62554236D01*
X103359415Y-62503137D01*
X103359500Y-62500000D01*
X103340023Y-62231570D01*
X103339039Y-62227112D01*
X103282986Y-61973222D01*
X103282985Y-61973218D01*
X103282001Y-61968762D01*
X103186648Y-61717084D01*
X103055963Y-61481806D01*
X102939325Y-61328973D01*
X102895455Y-61271490D01*
X102895454Y-61271489D01*
X102892683Y-61267858D01*
X102853871Y-61229916D01*
X102790281Y-61167753D01*
X102700229Y-61079721D01*
X102482631Y-60921337D01*
X102365947Y-60859947D01*
X102248489Y-60798149D01*
X102248483Y-60798146D01*
X102244449Y-60796024D01*
X102172458Y-60770601D01*
X101994985Y-60707928D01*
X101994984Y-60707928D01*
X101990672Y-60706405D01*
X101863160Y-60681273D01*
X101731088Y-60655241D01*
X101731082Y-60655240D01*
X101726616Y-60654360D01*
X101722063Y-60654133D01*
X101722060Y-60654133D01*
X101462382Y-60641206D01*
X101462376Y-60641206D01*
X101457813Y-60640979D01*
X101189894Y-60666540D01*
X101185460Y-60667625D01*
X101185454Y-60667626D01*
X100932908Y-60729424D01*
X100928470Y-60730510D01*
X100679020Y-60831548D01*
X100521091Y-60924019D01*
X100454985Y-60962726D01*
X100446768Y-60967537D01*
X100385738Y-61016344D01*
X100244187Y-61129545D01*
X100236579Y-61135629D01*
X100052857Y-61332303D01*
X99993734Y-61417528D01*
X99902053Y-61549684D01*
X99902050Y-61549690D01*
X99899450Y-61553437D01*
X99897418Y-61557522D01*
X99897416Y-61557525D01*
X99847037Y-61658792D01*
X99779573Y-61794401D01*
X99778152Y-61798735D01*
X99778151Y-61798738D01*
X99702063Y-62030843D01*
X99695735Y-62050146D01*
X99649694Y-62315315D01*
X99646691Y-62426286D01*
X99644697Y-62500000D01*
X99642414Y-62584352D01*
X91059010Y-62584352D01*
X91158797Y-62411864D01*
X91162396Y-62401502D01*
X91225965Y-62218442D01*
X91227934Y-62212772D01*
X91229366Y-62202894D01*
X91257314Y-62010139D01*
X91257314Y-62010136D01*
X91258175Y-62004199D01*
X91248431Y-61793670D01*
X91233783Y-61732887D01*
X91200459Y-61594615D01*
X91200458Y-61594613D01*
X91199053Y-61588782D01*
X91194606Y-61579000D01*
X91134650Y-61447135D01*
X91111822Y-61396928D01*
X90989886Y-61225030D01*
X90837645Y-61079291D01*
X90660592Y-60964969D01*
X90600948Y-60940932D01*
X90470684Y-60888434D01*
X90470681Y-60888433D01*
X90465115Y-60886190D01*
X90361411Y-60865938D01*
X90262714Y-60846663D01*
X90262711Y-60846663D01*
X90258268Y-60845795D01*
X90252236Y-60845500D01*
X89797594Y-60845500D01*
X89640199Y-60860517D01*
X89437967Y-60919845D01*
X89432640Y-60922589D01*
X89432639Y-60922589D01*
X89255934Y-61013598D01*
X89255931Y-61013600D01*
X89250603Y-61016344D01*
X89245888Y-61020048D01*
X89089584Y-61142825D01*
X89089579Y-61142829D01*
X89084867Y-61146531D01*
X89080936Y-61151061D01*
X89080935Y-61151062D01*
X89020344Y-61220888D01*
X88946739Y-61305710D01*
X88841203Y-61488136D01*
X88839235Y-61493804D01*
X88839232Y-61493810D01*
X88825333Y-61533834D01*
X88784091Y-61591623D01*
X88718153Y-61617942D01*
X88706306Y-61618500D01*
X85552850Y-61618500D01*
X85532160Y-61616298D01*
X85528384Y-61616120D01*
X85518207Y-61613929D01*
X85487666Y-61617544D01*
X85486962Y-61617627D01*
X85480335Y-61618018D01*
X85480339Y-61618072D01*
X85475160Y-61618500D01*
X85469960Y-61618500D01*
X85464834Y-61619353D01*
X85464825Y-61619354D01*
X85449205Y-61621954D01*
X85443329Y-61622791D01*
X85402510Y-61627622D01*
X85402509Y-61627622D01*
X85392170Y-61628846D01*
X85383877Y-61632828D01*
X85374806Y-61634338D01*
X85365641Y-61639283D01*
X85365636Y-61639285D01*
X85329484Y-61658792D01*
X85324191Y-61661489D01*
X85284905Y-61680353D01*
X85284901Y-61680355D01*
X85277761Y-61683784D01*
X85271062Y-61689415D01*
X85269124Y-61691353D01*
X85269105Y-61691371D01*
X85263111Y-61694605D01*
X85256043Y-61702251D01*
X85256042Y-61702252D01*
X85231020Y-61729321D01*
X85227590Y-61732887D01*
X85040388Y-61920089D01*
X84978076Y-61954115D01*
X84907261Y-61949050D01*
X84850425Y-61906503D01*
X84825428Y-61836819D01*
X84823708Y-61799659D01*
X84823431Y-61793670D01*
X84808783Y-61732887D01*
X84775459Y-61594615D01*
X84775458Y-61594613D01*
X84774053Y-61588782D01*
X84769606Y-61579000D01*
X84709650Y-61447135D01*
X84686822Y-61396928D01*
X84564886Y-61225030D01*
X84412645Y-61079291D01*
X84235592Y-60964969D01*
X84175948Y-60940932D01*
X84045684Y-60888434D01*
X84045681Y-60888433D01*
X84040115Y-60886190D01*
X83936411Y-60865938D01*
X83837714Y-60846663D01*
X83837711Y-60846663D01*
X83833268Y-60845795D01*
X83827236Y-60845500D01*
X83372594Y-60845500D01*
X83215199Y-60860517D01*
X83012967Y-60919845D01*
X83007640Y-60922589D01*
X83007639Y-60922589D01*
X82830934Y-61013598D01*
X82830931Y-61013600D01*
X82825603Y-61016344D01*
X82820888Y-61020048D01*
X82664584Y-61142825D01*
X82664579Y-61142829D01*
X82659867Y-61146531D01*
X82655936Y-61151061D01*
X82655935Y-61151062D01*
X82629097Y-61181990D01*
X82551434Y-61271490D01*
X82528369Y-61298070D01*
X82468615Y-61336411D01*
X82397619Y-61336361D01*
X82344108Y-61304585D01*
X82307130Y-61267607D01*
X82294068Y-61251434D01*
X82291515Y-61248629D01*
X82285867Y-61239881D01*
X82277692Y-61233436D01*
X82277690Y-61233434D01*
X82261161Y-61220404D01*
X82256195Y-61215991D01*
X82256160Y-61216032D01*
X82252197Y-61212674D01*
X82248520Y-61208997D01*
X82231370Y-61196742D01*
X82226647Y-61193196D01*
X82222859Y-61190209D01*
X82212341Y-61181917D01*
X82194375Y-61167753D01*
X82194373Y-61167752D01*
X82186198Y-61161307D01*
X82177520Y-61158260D01*
X82170037Y-61152912D01*
X82160059Y-61149928D01*
X82160055Y-61149926D01*
X82120694Y-61138155D01*
X82115046Y-61136320D01*
X82073933Y-61121882D01*
X82073930Y-61121881D01*
X82066451Y-61119255D01*
X82057733Y-61118500D01*
X82054992Y-61118500D01*
X82054968Y-61118499D01*
X82048441Y-61116547D01*
X82001206Y-61118403D01*
X81996259Y-61118500D01*
X76969960Y-61118500D01*
X76964832Y-61119353D01*
X76961196Y-61119654D01*
X76938715Y-61118196D01*
X76938695Y-61118610D01*
X76928291Y-61118119D01*
X76918112Y-61115928D01*
X76890002Y-61119255D01*
X76886859Y-61119627D01*
X76880334Y-61120012D01*
X76880339Y-61120072D01*
X76875159Y-61120500D01*
X76869960Y-61120500D01*
X76864834Y-61121353D01*
X76864824Y-61121354D01*
X76849457Y-61123912D01*
X76843581Y-61124749D01*
X76827813Y-61126615D01*
X76792727Y-61130768D01*
X76784481Y-61134727D01*
X76775454Y-61136230D01*
X76756363Y-61146531D01*
X76730384Y-61160548D01*
X76725094Y-61163244D01*
X76678910Y-61185421D01*
X76672477Y-61190829D01*
X76670552Y-61192754D01*
X76670346Y-61192943D01*
X76664337Y-61196185D01*
X76657268Y-61203832D01*
X76657267Y-61203833D01*
X76631992Y-61231176D01*
X76628562Y-61234744D01*
X75968957Y-61894348D01*
X75952769Y-61907422D01*
X75949978Y-61909961D01*
X75941227Y-61915612D01*
X75934780Y-61923790D01*
X75934779Y-61923791D01*
X75921740Y-61940331D01*
X75917398Y-61945216D01*
X75917445Y-61945256D01*
X75914092Y-61949213D01*
X75910411Y-61952894D01*
X75907387Y-61957126D01*
X75898326Y-61969805D01*
X75894762Y-61974551D01*
X75863060Y-62014766D01*
X75860029Y-62023397D01*
X75854708Y-62030843D01*
X75851724Y-62040821D01*
X75851723Y-62040823D01*
X75840026Y-62079935D01*
X75838193Y-62085576D01*
X75821225Y-62133893D01*
X75820500Y-62142265D01*
X75820500Y-62144974D01*
X75820487Y-62145267D01*
X75818531Y-62151809D01*
X75818940Y-62162216D01*
X75820403Y-62199445D01*
X75820500Y-62204393D01*
X75820500Y-64190615D01*
X75800498Y-64258736D01*
X75783595Y-64279711D01*
X75479709Y-64583596D01*
X75417397Y-64617621D01*
X75390614Y-64620500D01*
X73580922Y-64620500D01*
X73566476Y-64618963D01*
X73566451Y-64619255D01*
X73560437Y-64618734D01*
X73560433Y-64618734D01*
X73557733Y-64618500D01*
X66345783Y-64618500D01*
X66277662Y-64598498D01*
X66243848Y-64566562D01*
X66230755Y-64548541D01*
X66173325Y-64501031D01*
X66109487Y-64448219D01*
X66109483Y-64448216D01*
X66103378Y-64443166D01*
X65953797Y-64372778D01*
X65946014Y-64371293D01*
X65946013Y-64371293D01*
X65799196Y-64343286D01*
X65799194Y-64343286D01*
X65791410Y-64341801D01*
X65708916Y-64346991D01*
X65634333Y-64351684D01*
X65634331Y-64351684D01*
X65626422Y-64352182D01*
X65618886Y-64354631D01*
X65618884Y-64354631D01*
X65476741Y-64400816D01*
X65476738Y-64400817D01*
X65469199Y-64403267D01*
X65329619Y-64491847D01*
X65324192Y-64497626D01*
X65324191Y-64497627D01*
X65241922Y-64585234D01*
X65216453Y-64612356D01*
X65212636Y-64619299D01*
X65206187Y-64631030D01*
X65136812Y-64757222D01*
X65095700Y-64917343D01*
X49254000Y-64917343D01*
X49254000Y-62946291D01*
X49274002Y-62878170D01*
X49327658Y-62831677D01*
X49397932Y-62821573D01*
X49462512Y-62851067D01*
X49497152Y-62899907D01*
X49540751Y-63010026D01*
X49548328Y-63023808D01*
X49632716Y-63139958D01*
X49643484Y-63151425D01*
X49754107Y-63242941D01*
X49767386Y-63251368D01*
X49897291Y-63312496D01*
X49912252Y-63317357D01*
X50035591Y-63340886D01*
X50047379Y-63342000D01*
X50890620Y-63342000D01*
X50898510Y-63341503D01*
X51005302Y-63328013D01*
X51020535Y-63324102D01*
X51154026Y-63271249D01*
X51167808Y-63263672D01*
X51283958Y-63179284D01*
X51295425Y-63168516D01*
X51386941Y-63057893D01*
X51395368Y-63044614D01*
X51456496Y-62914709D01*
X51461357Y-62899748D01*
X51484886Y-62776409D01*
X51486000Y-62764621D01*
X51486000Y-61725115D01*
X51481525Y-61709876D01*
X51480135Y-61708671D01*
X51472452Y-61707000D01*
X50477000Y-61707000D01*
X50408879Y-61686998D01*
X50362386Y-61633342D01*
X50351000Y-61581000D01*
X50351000Y-61579000D01*
X50371002Y-61510879D01*
X50424658Y-61464386D01*
X50477000Y-61453000D01*
X51467885Y-61453000D01*
X51483124Y-61448525D01*
X51484329Y-61447135D01*
X51486000Y-61439452D01*
X51486000Y-60413380D01*
X51485503Y-60405490D01*
X51483472Y-60389408D01*
X52009500Y-60389408D01*
X52009500Y-62750579D01*
X52012763Y-62776409D01*
X52023488Y-62861302D01*
X52024497Y-62869291D01*
X52027414Y-62876658D01*
X52027414Y-62876659D01*
X52030294Y-62883932D01*
X52083231Y-63017636D01*
X52087889Y-63024047D01*
X52087890Y-63024049D01*
X52110014Y-63054500D01*
X52177011Y-63146714D01*
X52299946Y-63248415D01*
X52307112Y-63251787D01*
X52437142Y-63312974D01*
X52437145Y-63312975D01*
X52444311Y-63316347D01*
X52508003Y-63328497D01*
X52575567Y-63341386D01*
X52575570Y-63341386D01*
X52581408Y-63342500D01*
X53434579Y-63342500D01*
X53491030Y-63335368D01*
X53545426Y-63328497D01*
X53545429Y-63328496D01*
X53553291Y-63327503D01*
X53560658Y-63324586D01*
X53560659Y-63324586D01*
X53594276Y-63311276D01*
X53701636Y-63268769D01*
X53708652Y-63263672D01*
X53824301Y-63179648D01*
X53830714Y-63174989D01*
X53932415Y-63052054D01*
X53989012Y-62931778D01*
X53996974Y-62914858D01*
X53996975Y-62914855D01*
X54000347Y-62907689D01*
X54026500Y-62770592D01*
X54026500Y-60409421D01*
X54023972Y-60389408D01*
X54549500Y-60389408D01*
X54549500Y-62750579D01*
X54552763Y-62776409D01*
X54563488Y-62861302D01*
X54564497Y-62869291D01*
X54567414Y-62876658D01*
X54567414Y-62876659D01*
X54570294Y-62883932D01*
X54623231Y-63017636D01*
X54627889Y-63024047D01*
X54627890Y-63024049D01*
X54650014Y-63054500D01*
X54717011Y-63146714D01*
X54839946Y-63248415D01*
X54847112Y-63251787D01*
X54977142Y-63312974D01*
X54977145Y-63312975D01*
X54984311Y-63316347D01*
X55048003Y-63328497D01*
X55115567Y-63341386D01*
X55115570Y-63341386D01*
X55121408Y-63342500D01*
X55974579Y-63342500D01*
X56031030Y-63335368D01*
X56085426Y-63328497D01*
X56085429Y-63328496D01*
X56093291Y-63327503D01*
X56100658Y-63324586D01*
X56100659Y-63324586D01*
X56134276Y-63311276D01*
X56241636Y-63268769D01*
X56248652Y-63263672D01*
X56364301Y-63179648D01*
X56370714Y-63174989D01*
X56472415Y-63052054D01*
X56529012Y-62931778D01*
X56536974Y-62914858D01*
X56536975Y-62914855D01*
X56540347Y-62907689D01*
X56566500Y-62770592D01*
X56566500Y-60409421D01*
X56563972Y-60389408D01*
X57089500Y-60389408D01*
X57089500Y-62750579D01*
X57092763Y-62776409D01*
X57103488Y-62861302D01*
X57104497Y-62869291D01*
X57107414Y-62876658D01*
X57107414Y-62876659D01*
X57110294Y-62883932D01*
X57163231Y-63017636D01*
X57167889Y-63024047D01*
X57167890Y-63024049D01*
X57190014Y-63054500D01*
X57257011Y-63146714D01*
X57379946Y-63248415D01*
X57387112Y-63251787D01*
X57517142Y-63312974D01*
X57517145Y-63312975D01*
X57524311Y-63316347D01*
X57588003Y-63328497D01*
X57655567Y-63341386D01*
X57655570Y-63341386D01*
X57661408Y-63342500D01*
X58514579Y-63342500D01*
X58571030Y-63335368D01*
X58625426Y-63328497D01*
X58625429Y-63328496D01*
X58633291Y-63327503D01*
X58640658Y-63324586D01*
X58640659Y-63324586D01*
X58674276Y-63311276D01*
X58781636Y-63268769D01*
X58788652Y-63263672D01*
X58904301Y-63179648D01*
X58910714Y-63174989D01*
X59012415Y-63052054D01*
X59069012Y-62931778D01*
X59076974Y-62914858D01*
X59076975Y-62914855D01*
X59080347Y-62907689D01*
X59106500Y-62770592D01*
X59106500Y-60409421D01*
X59103972Y-60389408D01*
X59629500Y-60389408D01*
X59629500Y-62750579D01*
X59632763Y-62776409D01*
X59643488Y-62861302D01*
X59644497Y-62869291D01*
X59647414Y-62876658D01*
X59647414Y-62876659D01*
X59650294Y-62883932D01*
X59703231Y-63017636D01*
X59707889Y-63024047D01*
X59707890Y-63024049D01*
X59730014Y-63054500D01*
X59797011Y-63146714D01*
X59919946Y-63248415D01*
X59927112Y-63251787D01*
X60057142Y-63312974D01*
X60057145Y-63312975D01*
X60064311Y-63316347D01*
X60128003Y-63328497D01*
X60195567Y-63341386D01*
X60195570Y-63341386D01*
X60201408Y-63342500D01*
X61054579Y-63342500D01*
X61111030Y-63335368D01*
X61165426Y-63328497D01*
X61165429Y-63328496D01*
X61173291Y-63327503D01*
X61180658Y-63324586D01*
X61180659Y-63324586D01*
X61214276Y-63311276D01*
X61321636Y-63268769D01*
X61328652Y-63263672D01*
X61444301Y-63179648D01*
X61450714Y-63174989D01*
X61552415Y-63052054D01*
X61609012Y-62931778D01*
X61616974Y-62914858D01*
X61616975Y-62914855D01*
X61620347Y-62907689D01*
X61646500Y-62770592D01*
X61646500Y-60409421D01*
X61643972Y-60389408D01*
X62169500Y-60389408D01*
X62169500Y-62750579D01*
X62172763Y-62776409D01*
X62183488Y-62861302D01*
X62184497Y-62869291D01*
X62187414Y-62876658D01*
X62187414Y-62876659D01*
X62190294Y-62883932D01*
X62243231Y-63017636D01*
X62247889Y-63024047D01*
X62247890Y-63024049D01*
X62270014Y-63054500D01*
X62337011Y-63146714D01*
X62459946Y-63248415D01*
X62467112Y-63251787D01*
X62597142Y-63312974D01*
X62597145Y-63312975D01*
X62604311Y-63316347D01*
X62668003Y-63328497D01*
X62735567Y-63341386D01*
X62735570Y-63341386D01*
X62741408Y-63342500D01*
X63594579Y-63342500D01*
X63651030Y-63335368D01*
X63705426Y-63328497D01*
X63705429Y-63328496D01*
X63713291Y-63327503D01*
X63720658Y-63324586D01*
X63720659Y-63324586D01*
X63754276Y-63311276D01*
X63861636Y-63268769D01*
X63868652Y-63263672D01*
X63984301Y-63179648D01*
X63990714Y-63174989D01*
X64092415Y-63052054D01*
X64149012Y-62931778D01*
X64156974Y-62914858D01*
X64156975Y-62914855D01*
X64160347Y-62907689D01*
X64186500Y-62770592D01*
X64186500Y-60409421D01*
X64183972Y-60389408D01*
X64709500Y-60389408D01*
X64709500Y-62750579D01*
X64712763Y-62776409D01*
X64723488Y-62861302D01*
X64724497Y-62869291D01*
X64727414Y-62876658D01*
X64727414Y-62876659D01*
X64730294Y-62883932D01*
X64783231Y-63017636D01*
X64787889Y-63024047D01*
X64787890Y-63024049D01*
X64810014Y-63054500D01*
X64877011Y-63146714D01*
X64999946Y-63248415D01*
X65007112Y-63251787D01*
X65137142Y-63312974D01*
X65137145Y-63312975D01*
X65144311Y-63316347D01*
X65208003Y-63328497D01*
X65275567Y-63341386D01*
X65275570Y-63341386D01*
X65281408Y-63342500D01*
X66134579Y-63342500D01*
X66191030Y-63335368D01*
X66245426Y-63328497D01*
X66245429Y-63328496D01*
X66253291Y-63327503D01*
X66260658Y-63324586D01*
X66260659Y-63324586D01*
X66294276Y-63311276D01*
X66401636Y-63268769D01*
X66408652Y-63263672D01*
X66524301Y-63179648D01*
X66530714Y-63174989D01*
X66632415Y-63052054D01*
X66689012Y-62931778D01*
X66696974Y-62914858D01*
X66696975Y-62914855D01*
X66700347Y-62907689D01*
X66726500Y-62770592D01*
X66726500Y-61720548D01*
X67250000Y-61720548D01*
X67250000Y-62746620D01*
X67250497Y-62754510D01*
X67263987Y-62861302D01*
X67267898Y-62876535D01*
X67320751Y-63010026D01*
X67328328Y-63023808D01*
X67412716Y-63139958D01*
X67423484Y-63151425D01*
X67534107Y-63242941D01*
X67547386Y-63251368D01*
X67677291Y-63312496D01*
X67692252Y-63317357D01*
X67815591Y-63340886D01*
X67827379Y-63342000D01*
X68670620Y-63342000D01*
X68678510Y-63341503D01*
X68785302Y-63328013D01*
X68800535Y-63324102D01*
X68934026Y-63271249D01*
X68947808Y-63263672D01*
X69063958Y-63179284D01*
X69075425Y-63168516D01*
X69166941Y-63057893D01*
X69175368Y-63044614D01*
X69236496Y-62914709D01*
X69241357Y-62899748D01*
X69264886Y-62776409D01*
X69266000Y-62764621D01*
X69266000Y-61725115D01*
X69261525Y-61709876D01*
X69260135Y-61708671D01*
X69252452Y-61707000D01*
X67268115Y-61707000D01*
X67252876Y-61711475D01*
X67251671Y-61712865D01*
X67250000Y-61720548D01*
X66726500Y-61720548D01*
X66726500Y-60409421D01*
X66724726Y-60395379D01*
X67250000Y-60395379D01*
X67250000Y-61434885D01*
X67254475Y-61450124D01*
X67255865Y-61451329D01*
X67263548Y-61453000D01*
X69247885Y-61453000D01*
X69263124Y-61448525D01*
X69264329Y-61447135D01*
X69266000Y-61439452D01*
X69266000Y-60413380D01*
X69265503Y-60405490D01*
X69263472Y-60389408D01*
X69789500Y-60389408D01*
X69789500Y-62750579D01*
X69792763Y-62776409D01*
X69803488Y-62861302D01*
X69804497Y-62869291D01*
X69807414Y-62876658D01*
X69807414Y-62876659D01*
X69810294Y-62883932D01*
X69863231Y-63017636D01*
X69867889Y-63024047D01*
X69867890Y-63024049D01*
X69890014Y-63054500D01*
X69957011Y-63146714D01*
X70079946Y-63248415D01*
X70087112Y-63251787D01*
X70217142Y-63312974D01*
X70217145Y-63312975D01*
X70224311Y-63316347D01*
X70288003Y-63328497D01*
X70355567Y-63341386D01*
X70355570Y-63341386D01*
X70361408Y-63342500D01*
X71214579Y-63342500D01*
X71271030Y-63335368D01*
X71325426Y-63328497D01*
X71325429Y-63328496D01*
X71333291Y-63327503D01*
X71340658Y-63324586D01*
X71340659Y-63324586D01*
X71374276Y-63311276D01*
X71481636Y-63268769D01*
X71488652Y-63263672D01*
X71604301Y-63179648D01*
X71610714Y-63174989D01*
X71712415Y-63052054D01*
X71769012Y-62931778D01*
X71776974Y-62914858D01*
X71776975Y-62914855D01*
X71780347Y-62907689D01*
X71806500Y-62770592D01*
X71806500Y-60409421D01*
X71803972Y-60389408D01*
X72329500Y-60389408D01*
X72329500Y-62750579D01*
X72332763Y-62776409D01*
X72343488Y-62861302D01*
X72344497Y-62869291D01*
X72347414Y-62876658D01*
X72347414Y-62876659D01*
X72350294Y-62883932D01*
X72403231Y-63017636D01*
X72407889Y-63024047D01*
X72407890Y-63024049D01*
X72430014Y-63054500D01*
X72497011Y-63146714D01*
X72619946Y-63248415D01*
X72627112Y-63251787D01*
X72757142Y-63312974D01*
X72757145Y-63312975D01*
X72764311Y-63316347D01*
X72828003Y-63328497D01*
X72895567Y-63341386D01*
X72895570Y-63341386D01*
X72901408Y-63342500D01*
X73754579Y-63342500D01*
X73811030Y-63335368D01*
X73865426Y-63328497D01*
X73865429Y-63328496D01*
X73873291Y-63327503D01*
X73880658Y-63324586D01*
X73880659Y-63324586D01*
X73914276Y-63311276D01*
X74021636Y-63268769D01*
X74028652Y-63263672D01*
X74144301Y-63179648D01*
X74150714Y-63174989D01*
X74252415Y-63052054D01*
X74309012Y-62931778D01*
X74316974Y-62914858D01*
X74316975Y-62914855D01*
X74320347Y-62907689D01*
X74346500Y-62770592D01*
X74346500Y-60409421D01*
X74339368Y-60352970D01*
X74332497Y-60298574D01*
X74332496Y-60298571D01*
X74331503Y-60290709D01*
X74272769Y-60142364D01*
X74253169Y-60115386D01*
X74183648Y-60019699D01*
X74178989Y-60013286D01*
X74056054Y-59911585D01*
X74006600Y-59888314D01*
X73918858Y-59847026D01*
X73918855Y-59847025D01*
X73911689Y-59843653D01*
X73838216Y-59829637D01*
X73780433Y-59818614D01*
X73780430Y-59818614D01*
X73774592Y-59817500D01*
X72921421Y-59817500D01*
X72864970Y-59824632D01*
X72810574Y-59831503D01*
X72810571Y-59831504D01*
X72802709Y-59832497D01*
X72795342Y-59835414D01*
X72795341Y-59835414D01*
X72794119Y-59835898D01*
X72654364Y-59891231D01*
X72647953Y-59895889D01*
X72647951Y-59895890D01*
X72589825Y-59938121D01*
X72525286Y-59985011D01*
X72423585Y-60107946D01*
X72420213Y-60115112D01*
X72377755Y-60205342D01*
X72355653Y-60252311D01*
X72329500Y-60389408D01*
X71803972Y-60389408D01*
X71799368Y-60352970D01*
X71792497Y-60298574D01*
X71792496Y-60298571D01*
X71791503Y-60290709D01*
X71732769Y-60142364D01*
X71713169Y-60115386D01*
X71643648Y-60019699D01*
X71638989Y-60013286D01*
X71516054Y-59911585D01*
X71466600Y-59888314D01*
X71378858Y-59847026D01*
X71378855Y-59847025D01*
X71371689Y-59843653D01*
X71298216Y-59829637D01*
X71240433Y-59818614D01*
X71240430Y-59818614D01*
X71234592Y-59817500D01*
X70381421Y-59817500D01*
X70324970Y-59824632D01*
X70270574Y-59831503D01*
X70270571Y-59831504D01*
X70262709Y-59832497D01*
X70255342Y-59835414D01*
X70255341Y-59835414D01*
X70254119Y-59835898D01*
X70114364Y-59891231D01*
X70107953Y-59895889D01*
X70107951Y-59895890D01*
X70049825Y-59938121D01*
X69985286Y-59985011D01*
X69883585Y-60107946D01*
X69880213Y-60115112D01*
X69837755Y-60205342D01*
X69815653Y-60252311D01*
X69789500Y-60389408D01*
X69263472Y-60389408D01*
X69252013Y-60298698D01*
X69248102Y-60283465D01*
X69195249Y-60149974D01*
X69187672Y-60136192D01*
X69103284Y-60020042D01*
X69092516Y-60008575D01*
X68981893Y-59917059D01*
X68968614Y-59908632D01*
X68838709Y-59847504D01*
X68823748Y-59842643D01*
X68700409Y-59819114D01*
X68688621Y-59818000D01*
X67845380Y-59818000D01*
X67837490Y-59818497D01*
X67730698Y-59831987D01*
X67715465Y-59835898D01*
X67581974Y-59888751D01*
X67568192Y-59896328D01*
X67452042Y-59980716D01*
X67440575Y-59991484D01*
X67349059Y-60102107D01*
X67340632Y-60115386D01*
X67279504Y-60245291D01*
X67274643Y-60260252D01*
X67251114Y-60383591D01*
X67250000Y-60395379D01*
X66724726Y-60395379D01*
X66719368Y-60352970D01*
X66712497Y-60298574D01*
X66712496Y-60298571D01*
X66711503Y-60290709D01*
X66652769Y-60142364D01*
X66633169Y-60115386D01*
X66563648Y-60019699D01*
X66558989Y-60013286D01*
X66436054Y-59911585D01*
X66386600Y-59888314D01*
X66298858Y-59847026D01*
X66298855Y-59847025D01*
X66291689Y-59843653D01*
X66218216Y-59829637D01*
X66160433Y-59818614D01*
X66160430Y-59818614D01*
X66154592Y-59817500D01*
X65301421Y-59817500D01*
X65244970Y-59824632D01*
X65190574Y-59831503D01*
X65190571Y-59831504D01*
X65182709Y-59832497D01*
X65175342Y-59835414D01*
X65175341Y-59835414D01*
X65174119Y-59835898D01*
X65034364Y-59891231D01*
X65027953Y-59895889D01*
X65027951Y-59895890D01*
X64969825Y-59938121D01*
X64905286Y-59985011D01*
X64803585Y-60107946D01*
X64800213Y-60115112D01*
X64757755Y-60205342D01*
X64735653Y-60252311D01*
X64709500Y-60389408D01*
X64183972Y-60389408D01*
X64179368Y-60352970D01*
X64172497Y-60298574D01*
X64172496Y-60298571D01*
X64171503Y-60290709D01*
X64112769Y-60142364D01*
X64093169Y-60115386D01*
X64023648Y-60019699D01*
X64018989Y-60013286D01*
X63896054Y-59911585D01*
X63846600Y-59888314D01*
X63758858Y-59847026D01*
X63758855Y-59847025D01*
X63751689Y-59843653D01*
X63678216Y-59829637D01*
X63620433Y-59818614D01*
X63620430Y-59818614D01*
X63614592Y-59817500D01*
X62761421Y-59817500D01*
X62704970Y-59824632D01*
X62650574Y-59831503D01*
X62650571Y-59831504D01*
X62642709Y-59832497D01*
X62635342Y-59835414D01*
X62635341Y-59835414D01*
X62634119Y-59835898D01*
X62494364Y-59891231D01*
X62487953Y-59895889D01*
X62487951Y-59895890D01*
X62429825Y-59938121D01*
X62365286Y-59985011D01*
X62263585Y-60107946D01*
X62260213Y-60115112D01*
X62217755Y-60205342D01*
X62195653Y-60252311D01*
X62169500Y-60389408D01*
X61643972Y-60389408D01*
X61639368Y-60352970D01*
X61632497Y-60298574D01*
X61632496Y-60298571D01*
X61631503Y-60290709D01*
X61572769Y-60142364D01*
X61553169Y-60115386D01*
X61483648Y-60019699D01*
X61478989Y-60013286D01*
X61356054Y-59911585D01*
X61306600Y-59888314D01*
X61218858Y-59847026D01*
X61218855Y-59847025D01*
X61211689Y-59843653D01*
X61138216Y-59829637D01*
X61080433Y-59818614D01*
X61080430Y-59818614D01*
X61074592Y-59817500D01*
X60221421Y-59817500D01*
X60164970Y-59824632D01*
X60110574Y-59831503D01*
X60110571Y-59831504D01*
X60102709Y-59832497D01*
X60095342Y-59835414D01*
X60095341Y-59835414D01*
X60094119Y-59835898D01*
X59954364Y-59891231D01*
X59947953Y-59895889D01*
X59947951Y-59895890D01*
X59889825Y-59938121D01*
X59825286Y-59985011D01*
X59723585Y-60107946D01*
X59720213Y-60115112D01*
X59677755Y-60205342D01*
X59655653Y-60252311D01*
X59629500Y-60389408D01*
X59103972Y-60389408D01*
X59099368Y-60352970D01*
X59092497Y-60298574D01*
X59092496Y-60298571D01*
X59091503Y-60290709D01*
X59032769Y-60142364D01*
X59013169Y-60115386D01*
X58943648Y-60019699D01*
X58938989Y-60013286D01*
X58816054Y-59911585D01*
X58766600Y-59888314D01*
X58678858Y-59847026D01*
X58678855Y-59847025D01*
X58671689Y-59843653D01*
X58598216Y-59829637D01*
X58540433Y-59818614D01*
X58540430Y-59818614D01*
X58534592Y-59817500D01*
X57681421Y-59817500D01*
X57624970Y-59824632D01*
X57570574Y-59831503D01*
X57570571Y-59831504D01*
X57562709Y-59832497D01*
X57555342Y-59835414D01*
X57555341Y-59835414D01*
X57554119Y-59835898D01*
X57414364Y-59891231D01*
X57407953Y-59895889D01*
X57407951Y-59895890D01*
X57349825Y-59938121D01*
X57285286Y-59985011D01*
X57183585Y-60107946D01*
X57180213Y-60115112D01*
X57137755Y-60205342D01*
X57115653Y-60252311D01*
X57089500Y-60389408D01*
X56563972Y-60389408D01*
X56559368Y-60352970D01*
X56552497Y-60298574D01*
X56552496Y-60298571D01*
X56551503Y-60290709D01*
X56492769Y-60142364D01*
X56473169Y-60115386D01*
X56403648Y-60019699D01*
X56398989Y-60013286D01*
X56276054Y-59911585D01*
X56226600Y-59888314D01*
X56138858Y-59847026D01*
X56138855Y-59847025D01*
X56131689Y-59843653D01*
X56058216Y-59829637D01*
X56000433Y-59818614D01*
X56000430Y-59818614D01*
X55994592Y-59817500D01*
X55141421Y-59817500D01*
X55084970Y-59824632D01*
X55030574Y-59831503D01*
X55030571Y-59831504D01*
X55022709Y-59832497D01*
X55015342Y-59835414D01*
X55015341Y-59835414D01*
X55014119Y-59835898D01*
X54874364Y-59891231D01*
X54867953Y-59895889D01*
X54867951Y-59895890D01*
X54809825Y-59938121D01*
X54745286Y-59985011D01*
X54643585Y-60107946D01*
X54640213Y-60115112D01*
X54597755Y-60205342D01*
X54575653Y-60252311D01*
X54549500Y-60389408D01*
X54023972Y-60389408D01*
X54019368Y-60352970D01*
X54012497Y-60298574D01*
X54012496Y-60298571D01*
X54011503Y-60290709D01*
X53952769Y-60142364D01*
X53933169Y-60115386D01*
X53863648Y-60019699D01*
X53858989Y-60013286D01*
X53736054Y-59911585D01*
X53686600Y-59888314D01*
X53598858Y-59847026D01*
X53598855Y-59847025D01*
X53591689Y-59843653D01*
X53518216Y-59829637D01*
X53460433Y-59818614D01*
X53460430Y-59818614D01*
X53454592Y-59817500D01*
X52601421Y-59817500D01*
X52544970Y-59824632D01*
X52490574Y-59831503D01*
X52490571Y-59831504D01*
X52482709Y-59832497D01*
X52475342Y-59835414D01*
X52475341Y-59835414D01*
X52474119Y-59835898D01*
X52334364Y-59891231D01*
X52327953Y-59895889D01*
X52327951Y-59895890D01*
X52269825Y-59938121D01*
X52205286Y-59985011D01*
X52103585Y-60107946D01*
X52100213Y-60115112D01*
X52057755Y-60205342D01*
X52035653Y-60252311D01*
X52009500Y-60389408D01*
X51483472Y-60389408D01*
X51472013Y-60298698D01*
X51468102Y-60283465D01*
X51415249Y-60149974D01*
X51407672Y-60136192D01*
X51323284Y-60020042D01*
X51312516Y-60008575D01*
X51201893Y-59917059D01*
X51188614Y-59908632D01*
X51058709Y-59847504D01*
X51043748Y-59842643D01*
X50920409Y-59819114D01*
X50908621Y-59818000D01*
X50065380Y-59818000D01*
X50057490Y-59818497D01*
X49950698Y-59831987D01*
X49935465Y-59835898D01*
X49801974Y-59888751D01*
X49788192Y-59896328D01*
X49672042Y-59980716D01*
X49660575Y-59991484D01*
X49569059Y-60102107D01*
X49560632Y-60115386D01*
X49496128Y-60252465D01*
X49494696Y-60251791D01*
X49459761Y-60302883D01*
X49394365Y-60330520D01*
X49324408Y-60318415D01*
X49272101Y-60270410D01*
X49254000Y-60205342D01*
X49254000Y-59380000D01*
X49274002Y-59311879D01*
X49327658Y-59265386D01*
X49380000Y-59254000D01*
X104620000Y-59254000D01*
X104688121Y-59274002D01*
G37*
%TD.AperFunction*%
%TD*%
M02*
